<?xml version="1.0" encoding="UTF-8" standalone="no"?>
<!-- Created with Inkscape (http://www.inkscape.org/) -->

<svg
   xmlns:dc="http://purl.org/dc/elements/1.1/"
   xmlns:cc="http://creativecommons.org/ns#"
   xmlns:rdf="http://www.w3.org/1999/02/22-rdf-syntax-ns#"
   xmlns:svg="http://www.w3.org/2000/svg"
   xmlns="http://www.w3.org/2000/svg"
   xmlns:xlink="http://www.w3.org/1999/xlink"
   xmlns:sodipodi="http://sodipodi.sourceforge.net/DTD/sodipodi-0.dtd"
   xmlns:inkscape="http://www.inkscape.org/namespaces/inkscape"
   version="1.0"
   width="16"
   height="16"
   id="svg11300"
   inkscape:version="0.48.0 r9654"
   sodipodi:docname="im-ban-user.svg">
  <metadata
     id="metadata26">
    <rdf:RDF>
      <cc:Work
         rdf:about="">
        <dc:format>image/svg+xml</dc:format>
        <dc:type
           rdf:resource="http://purl.org/dc/dcmitype/StillImage" />
        <dc:title></dc:title>
      </cc:Work>
    </rdf:RDF>
  </metadata>
  <sodipodi:namedview
     pagecolor="#ffffff"
     bordercolor="#666666"
     borderopacity="1"
     objecttolerance="10"
     gridtolerance="10"
     guidetolerance="10"
     inkscape:pageopacity="0"
     inkscape:pageshadow="2"
     inkscape:window-width="1366"
     inkscape:window-height="692"
     id="namedview24"
     showgrid="false"
     inkscape:zoom="18.3125"
     inkscape:cx="8"
     inkscape:cy="8.3867103"
     inkscape:window-x="0"
     inkscape:window-y="24"
     inkscape:window-maximized="1"
     inkscape:current-layer="svg11300" />
  <defs
     id="defs3">
    <linearGradient
       id="linearGradient3785">
      <stop
         id="stop3787"
         style="stop-color:#b8b8b8;stop-opacity:1"
         offset="0" />
      <stop
         id="stop3789"
         style="stop-color:#878787;stop-opacity:1"
         offset="1" />
    </linearGradient>
    <linearGradient
       id="linearGradient6954">
      <stop
         id="stop6960"
         style="stop-color:#f5f5f5;stop-opacity:1"
         offset="0" />
      <stop
         id="stop6962"
         style="stop-color:#d2d2d2;stop-opacity:1"
         offset="1" />
    </linearGradient>
    <linearGradient
       id="linearGradient3341">
      <stop
         id="stop3343"
         style="stop-color:white;stop-opacity:1"
         offset="0" />
      <stop
         id="stop3345"
         style="stop-color:white;stop-opacity:0"
         offset="1" />
    </linearGradient>
    <radialGradient
       cx="24.999998"
       cy="28.659998"
       r="16"
       fx="24.999998"
       fy="28.659998"
       id="radialGradient2856"
       xlink:href="#linearGradient6954"
       gradientUnits="userSpaceOnUse"
       gradientTransform="matrix(0.56186795,0,0,0.15787922,-6.1682604,5.3385209)" />
    <linearGradient
       x1="30"
       y1="25.084745"
       x2="30"
       y2="45"
       id="linearGradient2858"
       xlink:href="#linearGradient3785"
       gradientUnits="userSpaceOnUse"
       gradientTransform="matrix(0.42808986,0,0,0.42296591,-2.823809,-3.2486024)" />
    <radialGradient
       cx="26.375898"
       cy="12.31301"
       r="8"
       fx="26.375898"
       fy="12.31301"
       id="radialGradient2860"
       xlink:href="#linearGradient6954"
       gradientUnits="userSpaceOnUse"
       gradientTransform="matrix(0.55250164,-0.0426402,0.04315608,0.50971914,-6.3026675,-1.9765067)" />
    <linearGradient
       x1="30"
       y1="5"
       x2="30"
       y2="44.678879"
       id="linearGradient2862"
       xlink:href="#linearGradient3785"
       gradientUnits="userSpaceOnUse"
       gradientTransform="matrix(0.33685737,0,0,0.32161283,-0.10572085,-0.29529973)" />
    <linearGradient
       x1="30"
       y1="0.91818392"
       x2="30"
       y2="25.792814"
       id="linearGradient2864"
       xlink:href="#linearGradient3341"
       gradientUnits="userSpaceOnUse"
       gradientTransform="matrix(0.33685737,0,0,0.32161283,-0.10572085,-0.29529973)" />
    <linearGradient
       x1="29.955881"
       y1="21.86607"
       x2="29.955881"
       y2="43.144382"
       id="linearGradient2866"
       xlink:href="#linearGradient3341"
       gradientUnits="userSpaceOnUse"
       gradientTransform="matrix(0.42808986,0,0,0.42296591,-2.823809,-3.2486024)" />
    <linearGradient
       gradientTransform="matrix(0.6660814,0,0,0.7658657,-0.570797,-0.5707967)"
       gradientUnits="userSpaceOnUse"
       xlink:href="#linearGradient2432"
       id="linearGradient2476"
       y2="10.935848"
       x2="18.67845"
       y1="10.935848"
       x1="7.8322024" />
    <linearGradient
       gradientTransform="scale(0.9325827,1.0722909)"
       gradientUnits="userSpaceOnUse"
       id="linearGradient2432"
       y2="10.935848"
       x2="18.67845"
       y1="10.935848"
       x1="7.8322024">
      <stop
         offset="0"
         style="stop-color:#ffffff;stop-opacity:1"
         id="stop2434" />
      <stop
         offset="1"
         style="stop-color:#ffffff;stop-opacity:0"
         id="stop2436" />
    </linearGradient>
    <linearGradient
       gradientTransform="matrix(0.7432394,0,0,0.7432224,-38.229789,10.609333)"
       gradientUnits="userSpaceOnUse"
       xlink:href="#linearGradient4873"
       id="linearGradient2479"
       y2="5.4675598"
       x2="63.397362"
       y1="-12.489107"
       x1="63.397362" />
    <linearGradient
       id="linearGradient4873">
      <stop
         offset="0"
         style="stop-color:#ffffff;stop-opacity:1"
         id="stop4875" />
      <stop
         offset="1"
         style="stop-color:#ffffff;stop-opacity:0"
         id="stop4877" />
    </linearGradient>
    <radialGradient
       gradientTransform="matrix(0,0.8796593,-1.1611346,0,12.632931,-21.08413)"
       gradientUnits="userSpaceOnUse"
       xlink:href="#linearGradient3242"
       id="radialGradient2482"
       fy="3.9900031"
       fx="23.895569"
       r="20.397499"
       cy="3.9900031"
       cx="23.895569" />
    <linearGradient
       id="linearGradient3242">
      <stop
         offset="0"
         style="stop-color:#f8b17e;stop-opacity:1"
         id="stop3244" />
      <stop
         offset="0.26238"
         style="stop-color:#e35d4f;stop-opacity:1"
         id="stop3246" />
      <stop
         offset="0.66093999"
         style="stop-color:#c6262e;stop-opacity:1"
         id="stop3248" />
      <stop
         offset="1"
         style="stop-color:#690b54;stop-opacity:1"
         id="stop3250" />
    </linearGradient>
    <linearGradient
       gradientTransform="matrix(0.3685738,0,0,0.3685738,-0.84577,-0.8457701)"
       gradientUnits="userSpaceOnUse"
       xlink:href="#linearGradient2490"
       id="linearGradient2484"
       y2="3.0816143"
       x2="18.379412"
       y1="44.980297"
       x1="18.379412" />
    <linearGradient
       id="linearGradient2490">
      <stop
         offset="0"
         style="stop-color:#791235;stop-opacity:1"
         id="stop2492" />
      <stop
         offset="1"
         style="stop-color:#dd3b27;stop-opacity:1"
         id="stop2494" />
    </linearGradient>
  </defs>
  <g
     transform="translate(-1.9999393,-0.00161961)"
     id="g3743">
    <path
       d="M 8.84375,6.5 C 8.76311,7.180093 9.4339142,8.600105 9.0625,9.21875 7.6176751,9.7236407 5.0136423,10.644898 4.875,11.25 4.77263,12.189935 4.6190814,13.561421 4.5,14.5 c 2.5328977,1.368167 8.491801,1.30225 10.9375,0 -0.0863,-0.665917 -0.163702,-2.584084 -0.25,-3.25 C 14.53386,10.469482 12.812615,10.01275 11,9.21875 10.526353,8.602577 11.243461,7.22557 11.09375,6.53125 10.807324,6.482003 9.133812,6.507525 8.84375,6.5 z"
       id="path2880"
       style="fill:url(#radialGradient2856);fill-opacity:1;stroke:url(#linearGradient2858);stroke-width:1.00012147;stroke-linejoin:round;stroke-miterlimit:4;stroke-opacity:1;stroke-dasharray:none" />
    <path
       d="m 10,1.46875 c -1.3953075,0 -2.53125,1.0066477 -2.53125,2.25 0.010946,0.4601408 0.05895,1.0054807 0.34375,2.25 0.1684289,0.4824189 1.6739448,1.7766941 1.6875,1.9375 0.3266416,0.1608049 0.850642,0.1608049 1.1875,0 0,-0.1608059 1.331572,-1.4550811 1.5,-1.9375 0.320478,-1.293427 0.326559,-1.7675806 0.34375,-2.25 0,-1.2433523 -1.13594,-2.25 -2.53125,-2.25 z"
       id="path2870"
       style="fill:url(#radialGradient2860);fill-opacity:1;stroke:url(#linearGradient2862);stroke-width:0.94714093;stroke-miterlimit:4;stroke-opacity:1;stroke-dasharray:none" />
    <path
       d="M 10,2.46875 C 9.3876089,2.453926 8.7330161,2.7993069 8.53125,3.40625 c -0.1135765,0.4104884 -0.010161,0.836839 0.03125,1.25 0.05222,0.3381399 0.1132782,0.6660809 0.1875,1 0.1940928,0.171452 0.3611426,0.3974634 0.5625,0.5625 C 9.5758075,6.4747814 9.8032965,6.7399516 10.0625,7 10.330703,6.7826897 10.510924,6.4967292 10.75,6.25 10.902681,6.070177 11.060251,5.8623797 11.21875,5.6875 11.376386,4.9772187 11.558479,4.2653005 11.5,3.53125 11.375368,2.844477 10.652976,2.4515616 10,2.46875 z"
       id="path2866"
       style="fill:none;stroke:url(#linearGradient2864);stroke-width:0.94714093;stroke-miterlimit:4;stroke-opacity:1;stroke-dasharray:none" />
    <path
       d="m 10,9.0625 c 0.04083,0.6184717 -0.4844988,1.101042 -1.0625,1.1875 -1.0618145,0.377577 -2.1650919,0.706505 -3.125,1.3125 -0.224724,0.540724 -0.1042376,1.160705 -0.25,1.71875 -0.3309301,0.708961 0.5690774,0.776057 1.03125,0.90625 2.2561001,0.540715 4.652113,0.499061 6.90625,-0.03125 0.335847,-0.168593 1.138282,-0.08494 0.9375,-0.625 C 14.37527,12.943737 14.34558,12.339597 14.3125,11.75 13.392452,11.041669 12.225582,10.792671 11.1875,10.3125 10.364527,10.195739 10.334895,9.5928835 10,9.0625 z"
       id="path2876"
       style="fill:none;stroke:url(#linearGradient2866);stroke-width:1.00012147;stroke-linejoin:round;stroke-miterlimit:4;stroke-opacity:1;stroke-dasharray:none" />
  </g>
  <g
     id="layer1"
     transform="matrix(0.5358362,0,0,0.5358362,7.3447093,7.3993164)">
    <path
       style="fill:url(#radialGradient2482);fill-opacity:1;stroke:url(#linearGradient2484);stroke-width:1.00365424;stroke-linecap:round;stroke-linejoin:round;stroke-miterlimit:4;stroke-opacity:1;stroke-dasharray:none;stroke-dashoffset:0"
       id="path2555"
       d="m 8.0000011,0.50182787 c -4.1372321,0 -7.4981741,3.36093913 -7.4981741,7.49817173 0,4.1372334 3.360942,7.4981754 7.4981741,7.4981724 4.1372309,0 7.4981759,-3.360939 7.4981719,-7.4981724 0,-4.1372326 -3.360941,-7.49817173 -7.4981719,-7.49817173 z m 0,2.40724743 c 2.8127609,0 5.0909249,2.278165 5.0909249,5.0909243 0,1.180493 -0.409021,2.2580884 -1.082687,3.1213594 L 5.558201,3.5310432 C 6.28288,3.1345282 7.115286,2.9090753 8.0000011,2.9090753 z M 3.922653,4.9592664 10.349659,12.515029 c -0.7029369,0.366219 -1.5018289,0.575897 -2.3496579,0.575897 -2.8127601,0 -5.0909251,-2.278166 -5.0909251,-5.0909264 0,-1.1426829 0.378507,-2.1914086 1.013577,-3.0407332 z"
       inkscape:connector-curvature="0" />
    <path
       style="opacity:0.4;fill:none;stroke:url(#linearGradient2479);stroke-width:1;stroke-miterlimit:4;stroke-opacity:1;stroke-dasharray:none"
       id="path2463"
       d="M 14.500001,7.9997709 C 14.500001,11.589737 11.589636,14.5 8.0000818,14.5 4.4101984,14.5 1.5000001,11.589705 1.5000001,7.9997709 c 0,-3.5898006 2.9101983,-6.4997695 6.5000817,-6.4997695 3.5895542,0 6.4999192,2.9099689 6.4999192,6.4997695 l 0,0 z"
       inkscape:connector-curvature="0" />
    <path
       style="opacity:0.4;fill:none;stroke:url(#linearGradient2476);stroke-width:1px;stroke-linecap:round;stroke-linejoin:miter;stroke-opacity:1"
       id="path3270"
       d="M 4.8517868,4.2102172 11.235855,11.701806"
       inkscape:connector-curvature="0" />
  </g>
</svg>
