<?xml version="1.0" encoding="UTF-8" standalone="no"?>
<!-- Created with Inkscape (http://www.inkscape.org/) -->

<svg
   xmlns:dc="http://purl.org/dc/elements/1.1/"
   xmlns:cc="http://creativecommons.org/ns#"
   xmlns:rdf="http://www.w3.org/1999/02/22-rdf-syntax-ns#"
   xmlns:svg="http://www.w3.org/2000/svg"
   xmlns="http://www.w3.org/2000/svg"
   xmlns:sodipodi="http://sodipodi.sourceforge.net/DTD/sodipodi-0.dtd"
   xmlns:inkscape="http://www.inkscape.org/namespaces/inkscape"
   id="svg2"
   version="1.1"
   inkscape:version="0.48.1 "
   width="1000"
   height="1000"
   xml:space="preserve"
   sodipodi:docname="offline.svg"><metadata
     id="metadata8"><rdf:RDF><cc:Work
         rdf:about=""><dc:format>image/svg+xml</dc:format><dc:type
           rdf:resource="http://purl.org/dc/dcmitype/StillImage" /><dc:title /></cc:Work></rdf:RDF></metadata><defs
     id="defs6"><clipPath
       id="clipPath3054"
       clipPathUnits="userSpaceOnUse"><path
         id="path3056"
         d="m 9.4126,2.33984 3.1743,0 0,-2.3144494 -3.1743,0 0,2.3144494 z" /></clipPath><clipPath
       id="clipPath3038"
       clipPathUnits="userSpaceOnUse"><path
         id="path3040"
         d="m 0,15.9746 22,0 0,-6.28905 -22,0 0,6.28905 z" /></clipPath><clipPath
       id="clipPath3022"
       clipPathUnits="userSpaceOnUse"><path
         id="path3024"
         d="m 3.13721,10.9746 15.72509,0 0,-4.50097 -15.72509,0 0,4.50097 z" /></clipPath><clipPath
       id="clipPath3006"
       clipPathUnits="userSpaceOnUse"><path
         id="path3008"
         d="m 6.27539,6.37109 9.45021,0 0,-3.11523 -9.45021,0 0,3.11523 z" /></clipPath><clipPath
       id="clipPath2998"
       clipPathUnits="userSpaceOnUse"><path
         id="path3000"
         d="M 0,16 22,16 22,0 0,0 0,16 z" /></clipPath></defs><sodipodi:namedview
     pagecolor="#ffffff"
     bordercolor="#666666"
     borderopacity="1"
     objecttolerance="10"
     gridtolerance="10"
     guidetolerance="10"
     inkscape:pageopacity="0"
     inkscape:pageshadow="2"
     inkscape:window-width="1346"
     inkscape:window-height="781"
     id="namedview4"
     showgrid="false"
     inkscape:zoom="0.151"
     inkscape:cx="-91.059599"
     inkscape:cy="373.54415"
     inkscape:window-x="21"
     inkscape:window-y="26"
     inkscape:window-maximized="0"
     inkscape:current-layer="g12" /><g
     id="g10"
     inkscape:groupmode="layer"
     inkscape:label="offline"
     transform="matrix(1.25,0,0,-1.25,0,1000)"><g
       id="g12"><path
         style="opacity:0.35;fill:#000000;fill-opacity:1;fill-rule:nonzero;stroke:none"
         d="m 529.775,776.225 c -3.605,-0.098 -7.25,-0.935 -10.75,-2.525 L 407.1,722.875 c -9.85335,18.94966 -17.80383,36.76953 -20.7,51.9 -7.41107,-16.04807 -6.13502,-38.15899 -2.2,-62.3 L 52.875,562.025 C 38.879,555.669 32.72,539.271 39.075,525.275 L 250.775,59.15 c 6.355,-14 22.725,-20.156 36.725,-13.8 l 466.15,211.7 c 13.996,6.356 20.156,22.725 13.8,36.725 l -211.7,466.15 c -4.77,10.496 -15.166,16.597 -25.975,16.3 z m -25.3,-73.35 c 8.652,0.234 16.962,-4.626 20.775,-13.025 L 694.625,316.925 c 5.086,-11.195 0.149,-24.289 -11.05,-29.375 L 540.7,222.65 c 23.4502,24.13211 39.08786,53.34237 41.15,83.825 5.18,76.507 -41.433,102.901 -54.375,131.925 -12.945,29.019 3.903,94.966 27.2,131.9 -36.242,-25.063 -40.128,-25.048 -63.425,-80.45 -23.297,-55.406 10.517,-125.924 -20.725,-142.475 -39.676,-21.011 -71.849,26.073 -59.525,72.55 12.941,48.809 52.65,99.289 56.95,160.95 1.72675,24.74862 -14.75603,58.12631 -33.45,92.125 l 61.375,27.875 c 2.801,1.273 5.717,1.922 8.6,2 z M 395.275,655.2 c 4.66665,-25.59182 7.31397,-50.06297 1.475,-69.05 -34.145,-111.055 -72.206,-123.021 -71.175,-51.45 0.36894,25.65288 -17.42981,55.8252 -30.825,74.85 l 100.525,45.65 z m -103.95,-47.225 c 9.87501,-25.92433 17.6227,-77.10144 -20.1,-156.4 -20.707,-43.531 -51.776,-76.496 -46.6,-137.175 8.547,-100.188 90.603,-153.025 176.025,-153.025 1.77409,0 3.54726,0.0414 5.325,0.1 l -95.325,-43.3 c -11.195,-5.086 -24.289,-0.149 -29.375,11.05 L 111.9,502.15 c -5.086,11.199 -0.149,24.289 11.05,29.375 l 168.375,76.45 z"
         id="path16"
         inkscape:connector-curvature="0" /><g
         id="g3020"
         transform="matrix(52.173992,0,0,52.173992,-1179.2119,-14.597834)" /><g
         id="g3036"
         transform="matrix(52.173992,0,0,52.173992,-1179.2119,-14.597834)" /></g></g></svg>