<?xml version="1.0" encoding="UTF-8" standalone="no"?>
<!-- Created with Inkscape (http://www.inkscape.org/) -->

<svg
   xmlns:dc="http://purl.org/dc/elements/1.1/"
   xmlns:cc="http://creativecommons.org/ns#"
   xmlns:rdf="http://www.w3.org/1999/02/22-rdf-syntax-ns#"
   xmlns:svg="http://www.w3.org/2000/svg"
   xmlns="http://www.w3.org/2000/svg"
   xmlns:sodipodi="http://sodipodi.sourceforge.net/DTD/sodipodi-0.dtd"
   xmlns:inkscape="http://www.inkscape.org/namespaces/inkscape"
   id="svg3147"
   version="1.1"
   inkscape:version="0.48.1 "
   width="1000"
   height="1000"
   xml:space="preserve"
   sodipodi:docname="newmessage.svg"><metadata
     id="metadata3153"><rdf:RDF><cc:Work
         rdf:about=""><dc:format>image/svg+xml</dc:format><dc:type
           rdf:resource="http://purl.org/dc/dcmitype/StillImage" /><dc:title /></cc:Work></rdf:RDF></metadata><defs
     id="defs3151"><clipPath
       id="clipPath3179"
       clipPathUnits="userSpaceOnUse"><path
         id="path3181"
         d="M 0,6 1,6 1,0 0,0 0,6 z" /></clipPath></defs><sodipodi:namedview
     pagecolor="#ffffff"
     bordercolor="#666666"
     borderopacity="1"
     objecttolerance="10"
     gridtolerance="10"
     guidetolerance="10"
     inkscape:pageopacity="0"
     inkscape:pageshadow="2"
     inkscape:window-width="1437"
     inkscape:window-height="780"
     id="namedview3149"
     showgrid="false"
     inkscape:zoom="0.4270925"
     inkscape:cx="176.88499"
     inkscape:cy="495.31717"
     inkscape:window-x="0"
     inkscape:window-y="0"
     inkscape:window-maximized="0"
     inkscape:current-layer="g3155" /><g
     id="g3155"
     inkscape:groupmode="layer"
     inkscape:label="newmessage"
     transform="matrix(1.25,0,0,-1.25,0,1000)"><path
       style="fill:#1a1a1a;fill-opacity:1;fill-rule:nonzero;stroke:none"
       d="M 662.21875 29.71875 C 657.7125 29.84125 653.15625 30.8875 648.78125 32.875 L 529.71875 86.9375 C 538.91532 104.77453 549.63158 124.05281 560.1875 143.125 C 561.34484 145.21604 562.49724 147.31301 563.65625 149.40625 L 619.84375 123.90625 C 623.345 122.315 626.99 121.50375 630.59375 121.40625 C 641.40875 121.11375 651.79625 127.18875 656.5625 137.6875 L 868.28125 603.84375 C 874.63875 617.8375 868.4675 634.205 854.46875 640.5625 L 721.0625 701.15625 C 706.54162 723.69317 687.38821 743.96432 665.5625 761.125 C 619.38305 797.43406 560.18261 820.8125 500.8125 820.8125 C 488.2721 820.8125 475.75017 819.92009 463.375 818.1875 L 388.3125 852.28125 C 374.31875 858.63875 357.95125 852.4675 351.59375 838.46875 L 298.65625 721.9375 C 283.27405 700.25204 271.51755 675.16081 264.5625 646.8125 L 139.875 372.3125 C 133.5175 358.31375 139.68875 341.95125 153.6875 335.59375 L 343.6875 249.3125 C 342.11097 244.93351 340.49779 241.28223 339.03125 238.40625 C 335.51261 231.50596 333.59375 229.625 333.59375 229.625 A 5.0005 5.0005 0 0 1 333.5625 229.53125 C 328.82835 224.30756 329.25175 216.35503 334.5625 211.71875 L 342.125 205.15625 A 5.0005 5.0005 0 0 1 342.21875 205.03125 C 342.26288 204.995 342.33038 205.00438 342.375 204.96875 C 342.41725 204.935 342.45738 204.87688 342.5 204.84375 L 342.53125 204.8125 A 5.0005 5.0005 0 0 1 342.5625 204.78125 L 342.65625 204.71875 A 5.0005 5.0005 0 0 1 342.8125 204.5625 L 342.9375 204.5 L 349.59375 198.625 C 351.87939 196.60938 354.76507 195.50959 357.8125 195.5 A 5.0005 5.0005 0 0 1 357.84375 195.5 C 357.85688 195.49999 357.862 195.49998 357.875 195.5 C 361.49701 195.50625 364.92674 197.05365 367.3125 199.78125 C 367.3125 199.78125 377.34816 211.30198 389.25 228.625 L 472.5625 190.78125 C 470.50532 177.84947 467.91755 164.28546 465.15625 150.75 C 463.02722 140.31374 460.73781 129.74133 458.75 119.15625 L 66.09375 297.46875 C 48.59875 305.41375 40.9 325.91125 48.84375 343.40625 L 313.46875 926.0625 C 321.4125 943.5625 341.875 951.2575 359.375 943.3125 L 942.0625 678.6875 C 959.5575 670.7425 967.2575 650.28125 959.3125 632.78125 L 694.6875 50.09375 C 688.725 36.97375 675.73 29.3475 662.21875 29.71875 z M 506.625 97.4375 L 482.625 108.3125 C 484.55683 120.40029 487.04982 132.97359 489.65625 145.75 C 491.98405 157.16052 494.36672 168.62763 496.46875 179.9375 L 540.84375 159.78125 C 540.00251 158.25146 539.1609 156.72036 538.3125 155.1875 C 527.50484 135.66048 516.33352 116.14743 506.625 97.4375 z M 669.5 724.5625 L 513.59375 795.375 C 562.25971 792.28473 611.44325 771.91392 650.125 741.5 C 656.9331 736.14706 663.41069 730.48805 669.5 724.5625 z "
       transform="matrix(0.8,0,0,-0.8,0,800)"
       id="path3161" /><path
       inkscape:connector-curvature="0"
       style="fill:#ff0000;fill-opacity:1;fill-rule:nonzero;stroke:none"
       d="m 280.277,628.351 c 0,0 48.625,-55.508 -9.058,-176.766 -20.707,-43.531 -51.77,-76.508 -46.594,-137.187 8.547,-100.188 90.598,-153.02 176.02,-153.02 85.421,0 176.019,68.594 181.195,145.106 5.18,76.507 -41.414,102.89 -54.356,131.914 -12.945,29.019 3.883,94.976 27.18,131.91 -36.242,-25.063 -40.125,-25.063 -63.422,-80.465 -23.297,-55.406 10.535,-125.918 -20.707,-142.469 -39.676,-21.011 -71.859,26.078 -59.535,72.555 12.941,48.809 52.645,99.273 56.945,160.934 3.582,51.339 -71.183,139.828 -81.535,193.91 -20.711,-44.848 26.223,-137.024 10.352,-188.633 -34.145,-111.055 -72.215,-123.02 -71.184,-51.449 0.59,41.023 -45.301,93.66 -45.301,93.66 z"
       id="path3163" /></g></svg>