<?xml version="1.0" encoding="utf8" standalone="no"?>
<svg height="16" id="Layer_1" inkscape:export-filename="D:\Hobby\QutIM\Images\q_outmsgok2.png" inkscape:export-xdpi="90" inkscape:export-ydpi="90" inkscape:version="0.48.2 r9819" sodipodi:docname="chat_theme - копия.svg" style="enable-background:new 0 0 595.28 841.89" version="1.1" viewBox="0 0 15.999999 16" width="16" xml:space="preserve" xmlns="http://www.w3.org/2000/svg" xmlns:cc="http://creativecommons.org/ns#" xmlns:dc="http://purl.org/dc/elements/1.1/" xmlns:inkscape="http://www.inkscape.org/namespaces/inkscape" xmlns:rdf="http://www.w3.org/1999/02/22-rdf-syntax-ns#" xmlns:sodipodi="http://sodipodi.sourceforge.net/DTD/sodipodi-0.dtd" xmlns:svg="http://www.w3.org/2000/svg" xmlns:xlink="http://www.w3.org/1999/xlink"><defs id="defs31"><linearGradient gradientTransform="matrix(.93586,0,0,-1.02987,-286.87581,-378.31196)" gradientUnits="userSpaceOnUse" id="linearGradient3988" x1="308.14651" x2="311.9473" y1="-377.9277" y2="-377.9277">
	<stop id="stop3990" offset="0" style="stop-color:#707070"></stop>
	
	<stop id="stop3992" offset="1" style="stop-opacity:0;stop-color:#707070"></stop>
</linearGradient><linearGradient gradientTransform="matrix(1.01578,0,0,-1.07393,-294.00904,-430.88425)" gradientUnits="userSpaceOnUse" id="linearGradient5092" inkscape:collect="always" x1="308.14651" x2="311.9473" xlink:href="#linearGradient3988" y1="-377.9277" y2="-377.9277"></linearGradient><radialGradient cx="25.706499" cy="-306.87061" gradientTransform="matrix(.28038,-2.47538,-1.47033,-.10639,-451.57769,42.62509)" gradientUnits="userSpaceOnUse" id="radialGradient3976" r="4.7227998">
	<stop id="stop3978" offset="0" style="stop-color:#707070"></stop>
	
	<stop id="stop3980" offset="1" style="stop-opacity:0;stop-color:#707070"></stop>
</radialGradient><radialGradient cx="25.706499" cy="-306.87061" gradientTransform="matrix(.30433,-2.58129,-1.59589,-.11094,-472.77625,8.06173)" gradientUnits="userSpaceOnUse" id="radialGradient5095" inkscape:collect="always" r="4.7227998" xlink:href="#radialGradient3976"></radialGradient></defs><sodipodi:namedview id="namedview29" inkscape:current-layer="Layer_1" inkscape:cx="-4.9763597" inkscape:cy="45.408726" inkscape:pageopacity="0" inkscape:pageshadow="2" inkscape:window-height="848" inkscape:window-maximized="1" inkscape:window-width="1440" inkscape:window-x="-8" inkscape:window-y="-8" inkscape:zoom="5.6568543"><inkscape:grid id="grid3010" type="xygrid"></inkscape:grid></sodipodi:namedview>








<g id="g5450" transform="translate(-17.9996,18)"><g id="g5352" transform="matrix(1,0,0,1.00018,-173.625,-20.84712)"><rect height="11.997853" id="rect5354" inkscape:export-filename="D:\Hobby\QutIM\Images\th3.png" inkscape:export-xdpi="90" inkscape:export-ydpi="90" rx="0.99982113" style="opacity:0.07999998" width="15" x="192.625" y="6.8458977"></rect><rect height="11.747898" id="rect5356" inkscape:export-filename="D:\Hobby\QutIM\Images\th3.png" inkscape:export-xdpi="90" inkscape:export-ydpi="90" rx="1.0215564" style="opacity:0.15" width="14.75" x="192.625" y="6.8458977"></rect><rect height="11.497943" id="rect5358" inkscape:export-filename="D:\Hobby\QutIM\Images\th3.png" inkscape:export-xdpi="90" inkscape:export-ydpi="90" rx="0.99982113" style="opacity:0.15" width="14.5" x="192.625" y="6.8458977"></rect><rect height="11.247988" id="rect5360" inkscape:export-filename="D:\Hobby\QutIM\Images\th3.png" inkscape:export-xdpi="90" inkscape:export-ydpi="90" rx="0.97808588" style="opacity:0.3" width="14.25" x="192.625" y="6.8458977"></rect></g><g id="g5234" transform="matrix(.9994,0,0,.9995,.01041,17.98127)"><rect height="11.997853" id="rect4446" inkscape:export-filename="D:\Hobby\QutIM\Images\th3.png" inkscape:export-xdpi="90" inkscape:export-ydpi="90" rx="0.99982113" style="fill:#e6e6e6" width="15" x="18" y="-32.997673"></rect><path d="m 19.681586,-31.997849 c -0.350444,-0.0011 -0.634862,0.215858 -0.635878,0.485414 l -0.0061,1.054595 5.116491,6.873124 c 0.216361,0.293182 0.700889,0.396277 1.081807,0.228746 l 6.751897,-2.964034 0.01019,-1.439061 -6.297845,2.763211 c -0.306766,0.135313 -0.690731,0.05368 -0.865446,-0.182567 l -5.07282,-6.819428 h -0.08228 z" id="path4448" inkscape:connector-curvature="0" inkscape:export-filename="D:\Hobby\QutIM\Images\th3.png" inkscape:export-xdpi="90" inkscape:export-ydpi="90" style="fill:url(#radialGradient5095)"></path><path d="m 22.053436,-26.404845 -3.04328,1.33489 -0.01016,1.439061 3.860986,-1.693582 -0.807546,-1.080369 z" id="path4450" inkscape:connector-curvature="0" inkscape:export-filename="D:\Hobby\QutIM\Images\th3.png" inkscape:export-xdpi="90" inkscape:export-ydpi="90" style="opacity:0.51529996;fill:url(#linearGradient5092);enable-background:new"></path><path d="m 19,-32.997675 c -0.554,0 -1,0.445921 -1,0.999822 l 0,9.998211 c 0,0.553901 0.446,0.999821 1,0.999821 l 13,0 c 0.554,0 1,-0.44592 1,-0.999821 l 0,-9.998211 c 0,-0.553901 -0.446,-0.999822 -1,-0.999822 l -13,0 z m 0.5,0.999822 12,0 c 0.284682,0 0.5,0.21528 0.5,0.49991 l 0,8.99839 c 0,0.28463 -0.215318,0.499911 -0.5,0.499911 l -12,0 c -0.28468,0 -0.5,-0.215281 -0.5,-0.499911 l 0,-8.99839 c 0,-0.28463 0.21532,-0.49991 0.5,-0.49991 z" id="path4454" inkscape:connector-curvature="0" inkscape:export-filename="D:\Hobby\QutIM\Images\th3.png" inkscape:export-xdpi="90" inkscape:export-ydpi="90" style="fill:#707070"></path><path d="m 26.53125,-32 a 0.99866873,0.99678994 0 0 0 -0.125,0.03125 0.99866873,0.99678994 0 0 0 -0.09375,0.03125 c -0.447177,0.127147 -0.90248,0.306238 -1.3125,0.53125 a 0.99866873,0.99678994 0 0 0 -0.3125,1.46875 c -0.222877,0.185918 -0.435414,0.374109 -0.625,0.59375 a 0.99866873,0.99678994 0 0 0 -1.46875,0.3125 c -0.241667,0.424678 -0.426972,0.896027 -0.5625,1.375 A 0.99866873,0.99678994 0 0 0 22.75,-26.4375 c -0.01331,0.148112 -0.0625,0.284201 -0.0625,0.4375 0,0.153297 0.04919,0.289387 0.0625,0.4375 a 0.99866873,0.99678994 0 0 0 -0.71875,1.25 c 0.127372,0.446359 0.305839,0.90323 0.53125,1.3125 a 0.99866873,0.99678994 0 0 0 1.46875,0.3125 c 0.186327,0.222514 0.373512,0.435708 0.59375,0.625 a 0.99866873,0.99678994 0 0 0 0.3125,1.46875 c 0.425451,0.241237 0.895139,0.427212 1.375,0.5625 a 0.99866873,0.99678994 0 0 0 1.25,-0.71875 c 0.148387,0.01328 0.283918,0.0625 0.4375,0.0625 0.153579,0 0.289112,-0.04922 0.4375,-0.0625 a 0.99866873,0.99678994 0 0 0 1.25,0.71875 c 0.447176,-0.127146 0.90248,-0.30624 1.3125,-0.53125 a 0.99866873,0.99678994 0 0 0 0.3125,-1.46875 c 0.222877,-0.185918 0.435415,-0.374108 0.625,-0.59375 a 0.99866873,0.99678994 0 0 0 1.46875,-0.3125 c 0.241667,-0.424679 0.426971,-0.896029 0.5625,-1.375 a 0.99866873,0.99678994 0 0 0 -0.71875,-1.25 c 0.01331,-0.148112 0.0625,-0.284201 0.0625,-0.4375 0,-0.153296 -0.04919,-0.289388 -0.0625,-0.4375 a 0.99866873,0.99678994 0 0 0 0.71875,-1.21875 c -0.127374,-0.446355 -0.305838,-0.90323 -0.53125,-1.3125 a 0.99866873,0.99678994 0 0 0 -1.46875,-0.3125 c -0.186327,-0.222514 -0.373513,-0.435708 -0.59375,-0.625 A 0.99866873,0.99678994 0 0 0 31.0625,-31.375 c -0.425454,-0.241238 -0.895146,-0.427212 -1.375,-0.5625 a 0.99866873,0.99678994 0 0 0 -1.25,0.71875 c -0.148388,-0.01328 -0.283918,-0.0625 -0.4375,-0.0625 -0.153579,0 -0.289113,0.04922 -0.4375,0.0625 A 0.99866873,0.99678994 0 0 0 26.625,-32 0.99866873,0.99678994 0 0 0 26.53125,-32 z M 28,-27.125 c 0.633515,0 1.125,0.492501 1.125,1.125 0,0.632501 -0.491485,1.125 -1.125,1.125 -0.633525,0 -1.125,-0.492497 -1.125,-1.125 0,-0.632501 0.491475,-1.125 1.125,-1.125 z" id="path5231" inkscape:connector-curvature="0" style="font-family:Sans;enable-background:accumulate;fill:#e6e6e6;stroke-width:2"></path><path d="m 32.311568,-25.988699 c 0,-0.349607 -0.04608,-0.68695 -0.124426,-1.012024 0.214292,-0.210838 0.492332,-0.358042 0.805705,-0.40251 -0.108298,-0.379509 -0.255,-0.742917 -0.441641,-1.081791 -0.255767,0.190904 -0.560689,0.272172 -0.864845,0.272172 -0.353317,-0.581913 -0.839504,-1.072591 -1.419397,-1.4314 0.0046,-0.301307 0.09831,-0.601081 0.29033,-0.852553 -0.355615,-0.201638 -0.738116,-0.361875 -1.140584,-0.475345 -0.04455,0.312808 -0.192017,0.590347 -0.403239,0.804253 -0.325662,-0.0782 -0.663612,-0.124204 -1.013851,-0.124204 -0.35024,0 -0.68819,0.04599 -1.013855,0.124204 -0.211217,-0.213906 -0.358687,-0.491445 -0.403236,-0.804253 -0.380196,0.108102 -0.744261,0.254539 -1.083747,0.440844 0.19125,0.255305 0.272665,0.55968 0.272665,0.863286 -0.582967,0.352676 -1.074532,0.837987 -1.433989,1.416069 -0.301851,-0.0077 -0.602167,-0.09813 -0.854095,-0.289809 -0.202002,0.354976 -0.362528,0.736785 -0.476203,1.138527 0.313371,0.04448 0.591413,0.191672 0.805702,0.40251 -0.07834,0.325074 -0.124426,0.662417 -0.124426,1.012024 0,0.349608 0.04608,0.686951 0.124426,1.012024 -0.214291,0.210839 -0.492332,0.358042 -0.805702,0.40251 0.108295,0.379508 0.254999,0.742917 0.44164,1.081793 0.255766,-0.190906 0.560689,-0.272174 0.864845,-0.272174 0.353317,0.581914 0.839506,1.072592 1.419399,1.431401 -0.0046,0.301307 -0.09831,0.60108 -0.290329,0.852553 0.355614,0.201638 0.738112,0.361875 1.140583,0.475344 0.04455,-0.312807 0.192016,-0.590347 0.403236,-0.804252 0.325664,0.0782 0.663617,0.124204 1.013855,0.124204 0.350241,0 0.688185,-0.04599 1.013849,-0.124204 0.21122,0.213905 0.35869,0.491445 0.403238,0.804252 0.380197,-0.108102 0.74426,-0.254538 1.083749,-0.440843 -0.19125,-0.255306 -0.272666,-0.55968 -0.272666,-0.863287 0.582966,-0.352675 1.074531,-0.837988 1.433988,-1.416068 0.301851,0.0077 0.602169,0.09813 0.854096,0.289808 0.202002,-0.354975 0.362527,-0.736785 0.476203,-1.138527 -0.313373,-0.04448 -0.591413,-0.191671 -0.805704,-0.40251 0.07834,-0.325073 0.124426,-0.662416 0.124426,-1.012024 z m -2.188232,0 c 0,1.170728 -0.950105,2.119117 -2.122946,2.119117 -1.172848,0 -2.122948,-0.948389 -2.122948,-2.119117 0,-1.170728 0.9501,-2.119116 2.122948,-2.119116 1.172841,0 2.122946,0.948388 2.122946,2.119116 z" id="path9" inkscape:connector-curvature="0" inkscape:export-filename="D:\Hobby\QutIM\settings.png" inkscape:export-xdpi="90" inkscape:export-ydpi="90" style="fill:#d63434"></path></g></g></svg>
