<?xml version="1.0" encoding="utf8" standalone="no"?>
<svg height="16" id="Layer_1" inkscape:export-filename="D:\Hobby\QutIM\Images\q_outmsgok2.png" inkscape:export-xdpi="90" inkscape:export-ydpi="90" inkscape:version="0.48.2 r9819" sodipodi:docname="chat_theme - копия - копия - копия.svg" style="enable-background:new 0 0 595.28 841.89" version="1.1" viewBox="0 0 15.999999 16" width="16" xml:space="preserve" xmlns="http://www.w3.org/2000/svg" xmlns:cc="http://creativecommons.org/ns#" xmlns:dc="http://purl.org/dc/elements/1.1/" xmlns:inkscape="http://www.inkscape.org/namespaces/inkscape" xmlns:rdf="http://www.w3.org/1999/02/22-rdf-syntax-ns#" xmlns:sodipodi="http://sodipodi.sourceforge.net/DTD/sodipodi-0.dtd" xmlns:svg="http://www.w3.org/2000/svg" xmlns:xlink="http://www.w3.org/1999/xlink"><defs id="defs31"><linearGradient gradientTransform="matrix(.93586,0,0,-1.02987,-286.87581,-378.31196)" gradientUnits="userSpaceOnUse" id="path3008_1_" x1="308.14651" x2="311.9473" y1="-377.9277" y2="-377.9277">
	<stop id="stop14" offset="0" style="stop-color:#d63434"></stop>
	
	<stop id="stop18" offset="1" style="stop-opacity:0;stop-color:#d63434"></stop>
</linearGradient><linearGradient gradientTransform="matrix(.93586,0,0,-1.02987,-286.87581,-378.31196)" gradientUnits="userSpaceOnUse" id="path3006_1_" x1="315.7207" x2="319.02151" y1="-379.52151" y2="-379.52151">
	<stop id="stop22" offset="0" style="stop-color:#d63434"></stop>
	
	<stop id="stop26" offset="1" style="stop-opacity:0;stop-color:#d63434"></stop>
</linearGradient><linearGradient gradientTransform="matrix(1.01578,0,0,-1.07412,-348.00904,-394.95776)" gradientUnits="userSpaceOnUse" id="linearGradient5012" inkscape:collect="always" x1="315.7207" x2="319.02151" xlink:href="#path3006_1_" y1="-379.52151" y2="-379.52151"></linearGradient><linearGradient gradientTransform="matrix(1.01578,0,0,-1.07412,-348.00904,-394.95776)" gradientUnits="userSpaceOnUse" id="linearGradient5015" inkscape:collect="always" x1="308.14651" x2="311.9473" xlink:href="#path3008_1_" y1="-377.9277" y2="-377.9277"></linearGradient><radialGradient cx="25.706499" cy="-306.87061" gradientTransform="matrix(.28038,-2.47538,-1.47033,-.10639,-451.57769,42.62509)" gradientUnits="userSpaceOnUse" id="path2995_1_" r="4.7227998">
	<stop id="stop6" offset="0" style="stop-color:#d63434"></stop>
	
	<stop id="stop10" offset="1" style="stop-opacity:0;stop-color:#d63434"></stop>
</radialGradient><radialGradient cx="25.706499" cy="-306.87061" gradientTransform="matrix(.30433,-2.58175,-1.59589,-.11096,-526.77625,44.06675)" gradientUnits="userSpaceOnUse" id="radialGradient5018" inkscape:collect="always" r="4.7227998" xlink:href="#path2995_1_"></radialGradient></defs><sodipodi:namedview id="namedview29" inkscape:current-layer="Layer_1" inkscape:cx="-4.9763597" inkscape:cy="45.408726" inkscape:pageopacity="0" inkscape:pageshadow="2" inkscape:window-height="848" inkscape:window-maximized="1" inkscape:window-width="1440" inkscape:window-x="-8" inkscape:window-y="-8" inkscape:zoom="5.6568543"><inkscape:grid id="grid3010" type="xygrid"></inkscape:grid></sodipodi:namedview>








<g id="g5505" transform="translate(37,35)"><g id="g5302" transform="matrix(1,0,0,1.00018,-228.625,-37.84712)"><rect height="11.997853" id="rect5304" inkscape:export-filename="D:\Hobby\QutIM\Images\th3.png" inkscape:export-xdpi="90" inkscape:export-ydpi="90" rx="0.99982113" style="opacity:0.07999998" width="15" x="192.625" y="6.8458977"></rect><rect height="11.747898" id="rect5306" inkscape:export-filename="D:\Hobby\QutIM\Images\th3.png" inkscape:export-xdpi="90" inkscape:export-ydpi="90" rx="1.0215564" style="opacity:0.15" width="14.75" x="192.625" y="6.8458977"></rect><rect height="11.497943" id="rect5308" inkscape:export-filename="D:\Hobby\QutIM\Images\th3.png" inkscape:export-xdpi="90" inkscape:export-ydpi="90" rx="0.99982113" style="opacity:0.15" width="14.5" x="192.625" y="6.8458977"></rect><rect height="11.247988" id="rect5310" inkscape:export-filename="D:\Hobby\QutIM\Images\th3.png" inkscape:export-xdpi="90" inkscape:export-ydpi="90" rx="0.97808588" style="opacity:0.3" width="14.25" x="192.625" y="6.8458977"></rect></g><g id="g5169" transform="translate(-1,-35)"><rect height="12" id="rect3906" inkscape:export-filename="D:\Hobby\QutIM\Images\th3.png" inkscape:export-xdpi="90" inkscape:export-ydpi="90" rx="1" style="fill:#faf0f0" width="15" x="-36" y="3"></rect><path d="m -34.318413,4.0000036 c -0.350445,-0.00107 -0.634864,0.2158976 -0.63588,0.4855012 l -0.0061,1.0547839 5.116492,6.8743543 c 0.216362,0.293234 0.70089,0.396348 1.081808,0.228787 L -22.010187,9.678865 -22,8.2395468 -28.297846,11.003252 c -0.306766,0.135337 -0.690732,0.05369 -0.865446,-0.1826 l -5.072826,-6.8206484 h -0.08228 z" id="path3908" inkscape:connector-curvature="0" inkscape:export-filename="D:\Hobby\QutIM\Images\th3.png" inkscape:export-xdpi="90" inkscape:export-ydpi="90" style="fill:url(#radialGradient5018)"></path><path d="M -31.946563,9.59401 -34.989845,10.929138 -35,12.368456 -31.139014,10.674571 -31.946561,9.59401 z" id="path3910" inkscape:connector-curvature="0" inkscape:export-filename="D:\Hobby\QutIM\Images\th3.png" inkscape:export-xdpi="90" inkscape:export-ydpi="90" style="opacity:0.51529996;fill:url(#linearGradient5015);enable-background:new"></path><path d="m -25.896568,11.386713 -1.409905,0.616544 1.479994,1.988191 1.873102,0.0086 -1.943191,-2.613329 0,0 z" id="path3912" inkscape:connector-curvature="0" inkscape:export-filename="D:\Hobby\QutIM\Images\th3.png" inkscape:export-xdpi="90" inkscape:export-ydpi="90" style="opacity:0.51529996;fill:url(#linearGradient5012);enable-background:new"></path><path d="m -35,3 c -0.554,0 -1,0.446 -1,1 l 0,10 c 0,0.554 0.446,1 1,1 l 13,0 c 0.554,0 1,-0.446 1,-1 l 0,-10 c 0,-0.554 -0.446,-1 -1,-1 l -13,0 z m 0.5,1 12,0 c 0.284681,0 0.5,0.2153193 0.5,0.5 l 0,9 c 0,0.284681 -0.215319,0.5 -0.5,0.5 l -12,0 c -0.28468,0 -0.5,-0.215319 -0.5,-0.5 l 0,-9 C -35,4.2153193 -34.78468,4 -34.5,4 z" id="path3914" inkscape:connector-curvature="0" inkscape:export-filename="D:\Hobby\QutIM\Images\th3.png" inkscape:export-xdpi="90" inkscape:export-ydpi="90" style="fill:#d63434"></path></g></g></svg>
