<?xml version="1.0" encoding="utf8" standalone="no"?>
<svg height="16" id="Layer_1" inkscape:export-filename="D:\Hobby\QutIM\Images\q_outmsgok2.png" inkscape:export-xdpi="90" inkscape:export-ydpi="90" inkscape:version="0.48.2 r9819" sodipodi:docname="chat_theme - копия - копия (3).svg" style="enable-background:new 0 0 595.28 841.89" version="1.1" viewBox="0 0 15.999999 16" width="16" xml:space="preserve" xmlns="http://www.w3.org/2000/svg" xmlns:cc="http://creativecommons.org/ns#" xmlns:dc="http://purl.org/dc/elements/1.1/" xmlns:inkscape="http://www.inkscape.org/namespaces/inkscape" xmlns:rdf="http://www.w3.org/1999/02/22-rdf-syntax-ns#" xmlns:sodipodi="http://sodipodi.sourceforge.net/DTD/sodipodi-0.dtd" xmlns:svg="http://www.w3.org/2000/svg" xmlns:xlink="http://www.w3.org/1999/xlink"><defs id="defs31"><linearGradient gradientTransform="matrix(.93586,0,0,-1.02987,-286.87581,-378.31196)" gradientUnits="userSpaceOnUse" id="linearGradient3940" x1="308.14651" x2="311.9473" y1="-377.9277" y2="-377.9277">
	<stop id="stop3942" offset="0" style="stop-color:#3473e3"></stop>
	
	<stop id="stop3944" offset="1" style="stop-opacity:0;stop-color:#3473e3"></stop>
</linearGradient><linearGradient gradientTransform="matrix(1.01578,0,0,-1.07309,-312.00904,-394.56273)" gradientUnits="userSpaceOnUse" id="linearGradient4970" inkscape:collect="always" x1="308.14651" x2="311.9473" xlink:href="#linearGradient3940" y1="-377.9277" y2="-377.9277"></linearGradient><radialGradient cx="25.706499" cy="-306.87061" gradientTransform="matrix(.28038,-2.47538,-1.47033,-.10639,-451.57769,42.62509)" gradientUnits="userSpaceOnUse" id="radialGradient3934" r="4.7227998">
	<stop id="stop3936" offset="0" style="stop-color:#3473e3"></stop>
	
	<stop id="stop3938" offset="1" style="stop-opacity:0;stop-color:#3473e3"></stop>
</radialGradient><radialGradient cx="25.706499" cy="-306.87061" gradientTransform="matrix(.30433,-2.57927,-1.59589,-.11085,-490.77625,44.03977)" gradientUnits="userSpaceOnUse" id="radialGradient4973" inkscape:collect="always" r="4.7227998" xlink:href="#radialGradient3934"></radialGradient></defs><sodipodi:namedview id="namedview29" inkscape:current-layer="Layer_1" inkscape:cx="-4.9763597" inkscape:cy="45.408726" inkscape:pageopacity="0" inkscape:pageshadow="2" inkscape:window-height="848" inkscape:window-maximized="1" inkscape:window-width="1440" inkscape:window-x="-8" inkscape:window-y="-8" inkscape:zoom="5.6568543"><inkscape:grid id="grid3010" type="xygrid"></inkscape:grid></sodipodi:namedview>








<g id="g5478" transform="matrix(1,0,0,.99948,1,34.99009)"><g id="g5282" transform="matrix(1,0,0,1.00018,-192.625,-37.84712)"><rect height="11.997853" id="rect5284" inkscape:export-filename="D:\Hobby\QutIM\Images\th3.png" inkscape:export-xdpi="90" inkscape:export-ydpi="90" rx="0.99982113" style="opacity:0.07999998" width="15" x="192.625" y="6.8458977"></rect><rect height="11.747898" id="rect5286" inkscape:export-filename="D:\Hobby\QutIM\Images\th3.png" inkscape:export-xdpi="90" inkscape:export-ydpi="90" rx="1.0215564" style="opacity:0.15" width="14.75" x="192.625" y="6.8458977"></rect><rect height="11.497943" id="rect5288" inkscape:export-filename="D:\Hobby\QutIM\Images\th3.png" inkscape:export-xdpi="90" inkscape:export-ydpi="90" rx="0.99982113" style="opacity:0.15" width="14.5" x="192.625" y="6.8458977"></rect><rect height="11.247988" id="rect5290" inkscape:export-filename="D:\Hobby\QutIM\Images\th3.png" inkscape:export-xdpi="90" inkscape:export-ydpi="90" rx="0.97808588" style="opacity:0.3" width="14.25" x="192.625" y="6.8458977"></rect></g><g id="g5264" transform="translate(-1,-35)"><rect height="11.988465" id="rect4002" inkscape:export-filename="D:\Hobby\QutIM\Images\th3.png" inkscape:export-xdpi="90" inkscape:export-ydpi="90" rx="0.99903876" style="fill:#f0f4fa" width="15" x="-5e-007" y="3.012496"></rect><path d="m 1.6815865,4.0115388 c -0.350446,-0.0011 -0.634864,0.2156895 -0.63588,0.4850343 l -0.0061,1.0537701 5.116492,6.8677458 c 0.216362,0.292953 0.70089,0.395967 1.081808,0.228567 L 13.989804,9.6849412 13.999994,8.2470064 7.7021475,11.008055 c -0.306767,0.135207 -0.690732,0.05364 -0.865446,-0.182424 L 1.7638735,4.0115388 h -0.08228 z" id="path4004" inkscape:connector-curvature="0" inkscape:export-filename="D:\Hobby\QutIM\Images\th3.png" inkscape:export-xdpi="90" inkscape:export-ydpi="90" style="fill:url(#radialGradient4973)"></path><path d="m 4.0534345,9.6001672 -3.043282,1.3338448 -0.01016,1.437935 3.860985,-1.692257 -0.807546,-1.0795228 z" id="path4006" inkscape:connector-curvature="0" inkscape:export-filename="D:\Hobby\QutIM\Images\th3.png" inkscape:export-xdpi="90" inkscape:export-ydpi="90" style="opacity:0.51529996;fill:url(#linearGradient4970);enable-background:new"></path><path d="m 0.9999995,3.0124961 c -0.554001,0 -1,0.4455712 -1,0.9990387 l 0,9.9903872 c 0,0.553468 0.445999,0.999039 1,0.999039 l 13.0000005,0 c 0.554,0 1,-0.445571 1,-0.999039 L 15,4.0115348 C 15,3.4580673 14.554,3.0124961 14,3.0124961 l -13.0000005,0 z m 0.5,0.9990387 12.0000005,0 c 0.28468,0 0.5,0.2151121 0.5,0.4995194 l 0,8.9913488 c 0,0.284407 -0.21532,0.499519 -0.5,0.499519 l -12.0000005,0 c -0.284681,0 -0.5,-0.215112 -0.5,-0.499519 l 0,-8.9913488 c 0,-0.2844073 0.215319,-0.4995194 0.5,-0.4995194 z" id="path4010" inkscape:connector-curvature="0" inkscape:export-filename="D:\Hobby\QutIM\Images\th3.png" inkscape:export-xdpi="90" inkscape:export-ydpi="90" style="fill:#3473e3"></path><path d="m 14.875,1 a 1.0001,1.0001 0 0 0 -0.71875,0.46875 l -3.84375,6 L 6.65625,4.3125 A 1.0001,1.0001 0 0 0 5,5.0625 L 5,9.59375 A 1.0001,1.0001 0 0 0 5.34375,10.375 L 10.5,14.75 A 1.0001,1.0001 0 0 0 12,14.53125 l 3.84375,-6 A 1.0001,1.0001 0 0 0 16,8 L 16,2 A 1.0001,1.0001 0 0 0 14.875,1 z M 14,5.40625 14,7.71875 10.9375,12.5 7,9.125 7,7.25 9.875,9.71875 A 1.0001,1.0001 0 0 0 11.375,9.5 L 14,5.40625 z" id="path4589" inkscape:connector-curvature="0" style="font-family:Sans;fill:#f0f4fa;enable-background:accumulate;stroke-width:2"></path><path d="m 15,1.9999999 -4.467627,6.966667 -4.5323735,-3.900001 0,4.5333341 5.1474815,4.4 3.852518,-6.0000001 0,-6 z" id="path4591" inkscape:connector-curvature="0" style="fill:#3473e3"></path></g></g></svg>
