<?xml version="1.0" encoding="UTF-8" standalone="no"?>
<!-- Created with Inkscape (http://www.inkscape.org/) -->

<svg
   xmlns:dc="http://purl.org/dc/elements/1.1/"
   xmlns:cc="http://creativecommons.org/ns#"
   xmlns:rdf="http://www.w3.org/1999/02/22-rdf-syntax-ns#"
   xmlns:svg="http://www.w3.org/2000/svg"
   xmlns="http://www.w3.org/2000/svg"
   xmlns:xlink="http://www.w3.org/1999/xlink"
   xmlns:sodipodi="http://sodipodi.sourceforge.net/DTD/sodipodi-0.dtd"
   xmlns:inkscape="http://www.inkscape.org/namespaces/inkscape"
   width="3000"
   height="1000"
   id="svg3248"
   version="1.1"
   inkscape:version="0.48.3.1 r9886"
   sodipodi:docname="New document 2">
  <defs
     id="defs3250">
    <linearGradient
       inkscape:collect="always"
       xlink:href="#radialGradient3950-3"
       id="linearGradient3131"
       gradientUnits="userSpaceOnUse"
       gradientTransform="matrix(0.64918449,0,0,0.64918449,22.31659,4.668306)"
       x1="2.3663785"
       y1="11.220977"
       x2="33.045498"
       y2="11.220977" />
    <radialGradient
       gradientTransform="matrix(1.3537258,-0.2279136,0.2083657,1.3813824,7.1703388,-35.53963)"
       gradientUnits="userSpaceOnUse"
       id="radialGradient3950-3"
       r="62.1035"
       cy="57.4487"
       cx="66.265602">
      <stop
         offset="0.20921239"
         style="stop-color:#ffffff;stop-opacity:0.95683455;"
         id="stop3952-0" />
      <stop
         id="stop3954-08"
         style="stop-color:#f8f8f8;stop-opacity:0.92086333;"
         offset="0.37583435" />
      <stop
         offset="0.73694849"
         style="stop-color:#ffffff;stop-opacity:0.35164836;"
         id="stop3956-8" />
      <stop
         offset="1"
         style="stop-color:#ffffff;stop-opacity:0.8705036;"
         id="stop3958-2" />
    </radialGradient>
    <radialGradient
       inkscape:collect="always"
       xlink:href="#radialGradient3950-3"
       id="radialGradient3133"
       gradientUnits="userSpaceOnUse"
       gradientTransform="matrix(0.51978085,1.2884648,-0.98529703,0.39747959,32.57942,-13.555032)"
       cx="15.587636"
       cy="8.4734526"
       fx="15.587636"
       fy="8.4734526"
       r="7.4918928" />
    <radialGradient
       gradientTransform="matrix(1.3537258,-0.2279136,0.2083657,1.3813824,7.1703388,-35.53963)"
       gradientUnits="userSpaceOnUse"
       id="radialGradient3366"
       r="62.1035"
       cy="57.4487"
       cx="66.265602">
      <stop
         offset="0.20921239"
         style="stop-color:#ffffff;stop-opacity:0.95683455;"
         id="stop3368" />
      <stop
         id="stop3370"
         style="stop-color:#f8f8f8;stop-opacity:0.92086333;"
         offset="0.37583435" />
      <stop
         offset="0.73694849"
         style="stop-color:#ffffff;stop-opacity:0.35164836;"
         id="stop3372" />
      <stop
         offset="1"
         style="stop-color:#ffffff;stop-opacity:0.8705036;"
         id="stop3374" />
    </radialGradient>
    <radialGradient
       inkscape:collect="always"
       xlink:href="#radialGradient4097"
       id="radialGradient3135"
       gradientUnits="userSpaceOnUse"
       gradientTransform="matrix(0.73717887,0,0,1.176157,20.962506,-0.46818791)"
       cx="17.701006"
       cy="8.7720785"
       fx="17.701006"
       fy="8.7720785"
       r="8.9640102" />
    <radialGradient
       cx="66.265602"
       cy="57.4487"
       r="62.1035"
       id="radialGradient4097"
       gradientUnits="userSpaceOnUse"
       gradientTransform="matrix(1.3537258,-0.2279136,0.2083657,1.3813824,7.1703388,-35.53963)">
      <stop
         id="stop4099"
         style="stop-color:#ffffff;stop-opacity:0.48920864;"
         offset="0.20921239" />
      <stop
         offset="0.37583435"
         style="stop-color:#ffffff;stop-opacity:0.28776979;"
         id="stop4101" />
      <stop
         id="stop4103"
         style="stop-color:#ffffff;stop-opacity:0.22302158;"
         offset="0.73694849" />
      <stop
         id="stop4105"
         style="stop-color:#ffffff;stop-opacity:0.28776979;"
         offset="1" />
    </radialGradient>
    <radialGradient
       r="8.9640102"
       fy="8.7720785"
       fx="17.701006"
       cy="8.7720785"
       cx="17.701006"
       gradientTransform="matrix(0.73717887,0,0,1.176157,20.962506,-0.46818791)"
       gradientUnits="userSpaceOnUse"
       id="radialGradient3387"
       xlink:href="#radialGradient4097"
       inkscape:collect="always" />
    <linearGradient
       inkscape:collect="always"
       xlink:href="#radialGradient3950-3"
       id="linearGradient3442"
       gradientUnits="userSpaceOnUse"
       gradientTransform="matrix(0.64918449,0,0,0.64918449,22.31659,4.668306)"
       x1="2.3663785"
       y1="11.220977"
       x2="33.045498"
       y2="11.220977" />
    <radialGradient
       inkscape:collect="always"
       xlink:href="#radialGradient3950-3"
       id="radialGradient3444"
       gradientUnits="userSpaceOnUse"
       gradientTransform="matrix(0.51978085,1.2884648,-0.98529703,0.39747959,32.57942,-13.555032)"
       cx="15.587636"
       cy="8.4734526"
       fx="15.587636"
       fy="8.4734526"
       r="7.4918928" />
    <linearGradient
       inkscape:collect="always"
       xlink:href="#radialGradient3950-8"
       id="linearGradient3257"
       gradientUnits="userSpaceOnUse"
       gradientTransform="matrix(27.894238,0,0,27.894238,6.4953501,-757.95823)"
       x1="2.3663785"
       y1="11.220977"
       x2="33.045498"
       y2="11.220977" />
    <radialGradient
       gradientTransform="matrix(1.3537258,-0.2279136,0.2083657,1.3813824,7.1703388,-35.53963)"
       gradientUnits="userSpaceOnUse"
       id="radialGradient3950-8"
       r="62.1035"
       cy="57.4487"
       cx="66.265602">
      <stop
         offset="0.20921239"
         style="stop-color:#ffffff;stop-opacity:0.95683455;"
         id="stop3952-1" />
      <stop
         id="stop3954-9"
         style="stop-color:#f8f8f8;stop-opacity:0.92086333;"
         offset="0.37583435" />
      <stop
         offset="0.73694849"
         style="stop-color:#ffffff;stop-opacity:0.35164836;"
         id="stop3956-81" />
      <stop
         offset="1"
         style="stop-color:#ffffff;stop-opacity:0.8705036;"
         id="stop3958-3" />
    </radialGradient>
    <linearGradient
       y2="11.220977"
       x2="33.045498"
       y1="11.220977"
       x1="2.3663785"
       gradientTransform="matrix(27.894238,0,0,27.894238,6.4953501,-757.95823)"
       gradientUnits="userSpaceOnUse"
       id="linearGradient3465"
       xlink:href="#radialGradient3950-8"
       inkscape:collect="always" />
    <linearGradient
       inkscape:collect="always"
       xlink:href="#radialGradient3950"
       id="linearGradient7625"
       gradientUnits="userSpaceOnUse"
       gradientTransform="matrix(0.95567565,0,0,0.95567565,0.83765451,2.0505993)"
       x1="2.3663785"
       y1="11.220977"
       x2="33.045498"
       y2="11.220977" />
    <radialGradient
       gradientTransform="matrix(1.3537258,-0.2279136,0.2083657,1.3813824,7.1703388,-35.53963)"
       gradientUnits="userSpaceOnUse"
       id="radialGradient3950"
       r="62.1035"
       cy="57.4487"
       cx="66.265602">
      <stop
         offset="0.20921239"
         style="stop-color:#ffffff;stop-opacity:0.95683455;"
         id="stop3952" />
      <stop
         id="stop3954"
         style="stop-color:#f8f8f8;stop-opacity:0.92086333;"
         offset="0.37583435" />
      <stop
         offset="0.73694849"
         style="stop-color:#ffffff;stop-opacity:0.35164836;"
         id="stop3956" />
      <stop
         offset="1"
         style="stop-color:#ffffff;stop-opacity:0.8705036;"
         id="stop3958" />
    </radialGradient>
    <radialGradient
       inkscape:collect="always"
       xlink:href="#linearGradient3952"
       id="radialGradient7623"
       gradientUnits="userSpaceOnUse"
       gradientTransform="matrix(0.76517833,1.8967712,-1.4504727,0.58513654,15.945744,-24.776289)"
       cx="15.587636"
       cy="8.4734526"
       fx="15.587636"
       fy="8.4734526"
       r="7.4918928" />
    <linearGradient
       id="linearGradient3952">
      <stop
         style="stop-color:#ffad9c;stop-opacity:0.91366905;"
         offset="0"
         id="stop3954-0" />
      <stop
         id="stop3960"
         offset="0.5"
         style="stop-color:#ff4923;stop-opacity:0.9137255;" />
      <stop
         style="stop-color:#bf2000;stop-opacity:0.9137255;"
         offset="0.75"
         id="stop3962" />
      <stop
         style="stop-color:#ff6b4b;stop-opacity:0.9137255;"
         offset="1"
         id="stop3956-19" />
    </linearGradient>
    <radialGradient
       r="8.9640102"
       fy="8.7720785"
       fx="17.701006"
       cy="8.7720785"
       cx="17.701006"
       gradientTransform="matrix(1.0852137,0,0,1.731441,-1.1557157,-5.5109212)"
       gradientUnits="userSpaceOnUse"
       id="radialGradient7756"
       xlink:href="#linearGradient3952-9"
       inkscape:collect="always" />
    <linearGradient
       id="linearGradient3952-9">
      <stop
         style="stop-color:#ffffff;stop-opacity:0.63309354;"
         offset="0"
         id="stop3954-7" />
      <stop
         id="stop3960-3"
         offset="0.5"
         style="stop-color:#ffffff;stop-opacity:0.16546762;" />
      <stop
         style="stop-color:#ffffff;stop-opacity:0.1294964;"
         offset="0.75"
         id="stop3962-6" />
      <stop
         style="stop-color:#ffffff;stop-opacity:0.33812949;"
         offset="1"
         id="stop3956-1" />
    </linearGradient>
    <radialGradient
       r="8.9640102"
       fy="8.7720785"
       fx="17.701006"
       cy="8.7720785"
       cx="17.701006"
       gradientTransform="matrix(1.0852137,0,0,1.731441,-1.1557157,-5.5109212)"
       gradientUnits="userSpaceOnUse"
       id="radialGradient3525"
       xlink:href="#linearGradient3952-9"
       inkscape:collect="always" />
  </defs>
  <sodipodi:namedview
     id="base"
     pagecolor="#ffffff"
     bordercolor="#666666"
     borderopacity="1.0"
     inkscape:pageopacity="0.0"
     inkscape:pageshadow="2"
     inkscape:zoom="0.171875"
     inkscape:cx="1010.3012"
     inkscape:cy="370.57529"
     inkscape:current-layer="layer1"
     showgrid="true"
     inkscape:document-units="px"
     inkscape:grid-bbox="true"
     inkscape:window-width="1280"
     inkscape:window-height="749"
     inkscape:window-x="-2"
     inkscape:window-y="-3"
     inkscape:window-maximized="1" />
  <metadata
     id="metadata3253">
    <rdf:RDF>
      <cc:Work
         rdf:about="">
        <dc:format>image/svg+xml</dc:format>
        <dc:type
           rdf:resource="http://purl.org/dc/dcmitype/StillImage" />
        <dc:title></dc:title>
      </cc:Work>
    </rdf:RDF>
  </metadata>
  <g
     id="layer1"
     inkscape:label="Layer 1"
     inkscape:groupmode="layer"
     transform="translate(0,936)">
    <g
       style="display:inline"
       id="qutim-online"
       transform="matrix(43.01576,0,0,43.01576,-959.92495,-914.47273)">
      <path
         style="font-size:medium;font-style:normal;font-variant:normal;font-weight:normal;font-stretch:normal;text-indent:0;text-align:start;text-decoration:none;line-height:normal;letter-spacing:normal;word-spacing:normal;text-transform:none;direction:ltr;block-progression:tb;writing-mode:lr-tb;text-anchor:start;baseline-shift:baseline;color:#000000;fill:#000000;fill-opacity:0.39215686;stroke:none;stroke-width:2.2081759;marker:none;visibility:visible;display:inline;overflow:visible;enable-background:accumulate;font-family:Sans;-inkscape-font-specification:Sans"
         d="m 33.421969,-0.37014991 a 0.75007506,0.75007506 0 0 0 -0.09375,0.03125 0.75007506,0.75007506 0 0 0 -0.5,0.4062501 c -0.07003,0.1516699 -0.02276,0.3143416 -0.0625,0.4687499 -0.20011,0.77742031 -0.141477,1.58844501 0,2.37499971 l -2.75,1.28125 -0.0625,0 a 0.75187037,0.75187037 0 0 0 -0.125,0.0625 l -5.937496,2.6875 C 23.042916,7.327354 22.662025,8.375958 23.046969,9.2236 l 5.75,12.656249 c 0.384652,0.847 1.433975,1.228509 2.281251,0.843751 l 12.656249,-5.781251 c 0.847013,-0.384646 1.228541,-1.37146 0.843751,-2.21875 L 38.828219,2.0361002 C 38.53973,1.400857 37.903464,1.0178139 37.234469,1.0361001 c -0.227446,0.00622 -0.479481,0.093034 -0.687499,0.1875 l -1.5625,0.6875 c -0.356498,-0.6764573 -0.678043,-1.2803799 -0.75,-1.65625011 a 0.75007506,0.75007506 0 0 0 -0.812501,-0.6249999 z m 0.0625,0.75 c 0.142457,0.74412241 0.707742,1.71697091 1.25,2.68749991 l 0.71875,-0.3124999 c -0.0065,-0.012603 -0.0242,-0.018455 -0.03125,-0.03125 l 1.53125,-0.6875 c 0.09503,-0.043153 0.183383,-0.028575 0.28125,-0.03125 0.0734,-0.002 0.148935,0.012413 0.21875,0.03125 0.07103,0.018368 0.124098,0.025128 0.1875,0.0625 0.134527,0.075824 0.243493,0.1917993 0.3125,0.34375 l 5.75,12.6562489 c 0.08631,0.19005 0.09898,0.382172 0.03125,0.5625 -0.03391,0.09045 -0.08979,0.177854 -0.15625,0.25 -0.06643,0.07193 -0.154973,0.144345 -0.25,0.1875 l -5.03125,2.28125 -3.5625,1.625 -4.0625,1.84375 c -0.09503,0.04316 -0.183386,0.05984 -0.28125,0.0625 -0.112408,0.003 -0.211135,-0.01791 -0.3125,-0.0625 -0.180326,-0.06773 -0.319941,-0.184949 -0.40625,-0.375 l -5.75,-12.656249 c -0.0041,-0.0091 0.0037,-0.02204 0,-0.03125 -0.04316,-0.09503 -0.05987,-0.186101 -0.0625,-0.281253 -0.0026,-0.09792 -0.0026,-0.191008 0.03125,-0.281249 0.0339,-0.08655 0.08979,-0.180784 0.15625,-0.25 0.06643,-0.07198 0.154973,-0.113097 0.250001,-0.15625 l 5.343748,-2.4375 0.687501,-0.3125 c 0.0042,0.0051 0.02666,-0.0056 0.03125,0 l 0.656256,-0.3125 1.9375,-0.875 0.718751,-0.3125 C 33.429344,2.3662012 33.130708,1.1460397 33.48447,0.37985009 z m 3.0625,3.62499991 c -0.07829,0.0021 -0.142729,-0.0033 -0.21875,0.03125 l -0.1875,0.09375 -0.6875,0.3125 c 0.348253,0.71677 0.600064,1.398965 0.5625,1.9375 -0.132631,1.90148 -1.350881,3.463626 -1.75,4.96875 -0.380055,1.43322 0.588995,2.866803 1.8125,2.21875 0.9634,-0.510284 -0.06217,-2.666482 0.65625,-4.375 0.623762,-1.48341 0.827682,-1.718368 1.59375,-2.25 L 38.015718,6.2861 37.109468,4.3486 C 37.083568,4.29158 37.055148,4.236741 37.015718,4.19235 37.005818,4.18125 36.995028,4.17136 36.984468,4.1611 36.955458,4.13761 36.923498,4.11658 36.890718,4.0986 36.784585,4.04037 36.664405,4.00164 36.546966,4.00485 z m -2.656252,1.125 -0.75,0.34375 c 2.9e-5,0.009 4e-5,0.02238 0,0.03125 l -1.25,0.5625 -0.6875,0.3125 c 0.231483,0.455171 0.4128,0.951645 0.40625,1.40625 -0.03179,2.20707 1.165747,1.862097 2.21875,-1.5625 0.0969,-0.315131 0.08623,-0.701566 0.0625,-1.09375 z m 2.843751,0.71875 0.499999,1.0625 c -0.41111,0.415737 -0.738588,0.899169 -1.156249,1.875 0.300051,-0.725343 0.624963,-1.478442 0.687499,-2.375 0.01331,-0.190739 -0.0092,-0.376186 -0.03125,-0.5625 z m -5.968751,0.71875 -0.687499,0.3125 c 4.64e-4,0.011 -3.26e-4,0.02027 0,0.03125 l -3.874999,1.75 c -0.07602,0.03452 -0.133161,0.07197 -0.1875,0.125 -0.05317,0.05752 -0.09788,0.115401 -0.124999,0.1875 -0.04757,0.126451 -0.04604,0.270581 0,0.40625 0.0039,0.01004 -0.0046,0.02121 0,0.03125 0.0037,0.0094 -0.0043,0.02189 0,0.03125 l 1.906249,4.156249 0,0.03125 0.875001,1.9375 c -0.08126,-0.304887 -0.127191,-0.628138 -0.156251,-0.96875 -0.15965,-1.871234 0.798907,-2.907593 1.4375,-4.25 0.791908,-1.664695 0.898493,-2.892397 0.8125,-3.781249 z m 2.093751,0.125 c -0.165378,0.442608 -0.3531,0.844116 -0.500001,1.125 0.0043,-0.301912 -0.05,-0.603836 -0.125,-0.875 l 0.625001,-0.25 z m 5.562499,0.46875 c -0.575139,1.164595 -0.91173,2.810679 -0.562499,3.593749 0.399122,0.894937 1.815897,1.70312 1.65625,4.0625 -0.03538,0.522879 -0.205027,1.052713 -0.46875,1.531251 l 2.374999,-1.093751 c 0.07601,-0.03452 0.134336,-0.06748 0.1875,-0.124999 0.05317,-0.05752 0.09787,-0.115402 0.125001,-0.1875 0.05425,-0.144199 0.06905,-0.316708 0,-0.46875 L 38.421969,7.1611 z m -8.437499,0.84375 c -0.108706,0.572578 -0.339523,1.234067 -0.718749,2.03125 -0.308467,0.648438 -0.758666,1.318708 -1.09375,2.125 l -1.249999,-2.78125 3.0625,-1.375 z m 5.968749,1.312499 c -0.262174,0.925905 -0.261526,1.868169 -0.21875,2.562501 0.02489,0.404012 0.02884,0.727997 0,0.906249 -0.02884,0.178253 -0.0033,0.126763 0,0.125001 -0.16643,0.08815 -0.23967,0.08144 -0.312499,0.0625 -0.07283,-0.01894 -0.156288,-0.09651 -0.25,-0.21875 -0.187425,-0.244482 -0.319982,-0.750397 -0.1875,-1.249999 0.167272,-0.630804 0.584843,-1.343575 0.968749,-2.1875 z m 2.531251,0.343751 0.812499,1.812499 c -0.35506,-0.503634 -0.701745,-0.852977 -0.78125,-1.03125 -0.04133,-0.09267 -0.05311,-0.39924 -0.03125,-0.781249 z m 1.6875,3.749999 0.499999,1.125 -0.406249,0.1875 c 0.01911,-0.485943 -0.0083,-0.915874 -0.09375,-1.3125 z m -10.812501,3.656251 0.78125,1.749999 c 0.01176,0.0084 0.01943,0.02291 0.03125,0.03125 l 0.312503,0.718753 c 0.06905,0.15203 0.19955,0.258249 0.34375,0.312499 0.144199,0.05425 0.316707,0.06905 0.46875,0 l 0.4375,-0.1875 1.09375,-0.5 C 31.43034,18.942159 30.161239,18.246407 29.359471,17.06735 z"
         id="path7702"
         inkscape:connector-curvature="0" />
      <path
         style="fill:url(#linearGradient3442);fill-opacity:1;fill-rule:nonzero;stroke:none;stroke-width:1.1467793;marker-start:none;display:inline"
         d="m 37.234469,2.0048502 c -0.09787,0.00267 -0.186223,0.019346 -0.28125,0.0625 L 34.734469,3.06735 c 0.259721,0.464846 0.499965,0.924699 0.71875,1.375 l 0.875,-0.40625 c 0.07602,-0.03452 0.140457,-0.06036 0.218751,-0.0625 0.234878,-0.0064 0.458929,0.146936 0.5625,0.375 l 1.1875,2.59375 c 0.121487,-0.08454 0.218946,-0.142072 0.375,-0.25 -0.09432,0.149537 -0.164186,0.324214 -0.250001,0.5 l 3.312501,7.28125 c 0.138095,0.304085 -0.0084,0.643155 -0.312501,0.781249 l -2.34375,1.0625 c -0.914904,1.699017 -3.090731,3 -5.15625,3 -0.383748,0 -0.752349,-0.05637 -1.125,-0.125 l -1.5,0.6875 c -0.304086,0.138093 -0.674406,-0.0084 -0.8125,-0.312499 l -1.125,-2.5 C 29.341809,17.04138 29.345409,17 29.328219,16.9736 29.061071,16.563363 28.812255,16.113138 28.671969,15.5986 L 25.89072,9.44235 c -0.138095,-0.304085 0.0084,-0.674406 0.312499,-0.8125 l 4.5625,-2.0625 c -0.08302,-0.858148 -0.308468,-1.313953 -0.4375,-1.5 l -6.03125,2.75 c -0.380108,0.172615 -0.547617,0.619899 -0.375,1 l 5.75,12.656249 c 0.172618,0.380102 0.619891,0.547614 1,0.375 l 12.65625,-5.75 c 0.380109,-0.172614 0.547622,-0.619899 0.375,-1 l -5.75,-12.6562488 C 37.823755,2.1572744 37.528068,1.996825 37.234469,2.0048502 z M 33.67197,3.56735 l -3.3125,1.5 c 0.170678,0.20845 0.521532,0.678914 0.843749,1.3125 l 2.6875,-1.25 C 33.860989,4.638604 33.780598,4.105125 33.67197,3.56735 z"
         id="path7704"
         inkscape:connector-curvature="0" />
      <path
         style="fill:url(#radialGradient3444);fill-opacity:1;stroke:none;display:inline"
         d="m 30.222335,4.906654 c 0,0 1.49943,1.711688 -0.279382,5.450986 -0.638594,1.342407 -1.596486,2.359381 -1.436836,4.230615 0.263595,3.089566 2.793844,4.718766 5.428044,4.718766 2.634197,0 5.428044,-2.115309 5.587691,-4.474691 0.159648,-2.359382 -1.277187,-3.172964 -1.676308,-4.0679 -0.39912,-0.894938 0.119737,-2.928888 0.838155,-4.0679 -1.11754,0.772901 -1.237275,0.772901 -1.955693,2.48142 -0.718418,1.708517 0.324806,3.883047 -0.638594,4.393331 -1.223505,0.648054 -2.21601,-0.804124 -1.835955,-2.237345 0.399119,-1.505124 1.6235,-3.061358 1.756131,-4.962838 C 36.120023,4.787859 33.814423,2.0591233 33.495127,0.39128399 32.856533,1.7743703 34.303788,4.616867 33.814424,6.208382 32.76142,9.632978 31.587467,10.001933 31.61926,7.794863 31.63748,6.529875 30.222335,4.906654 30.222335,4.906654 z"
         id="path7706"
         inkscape:connector-curvature="0"
         sodipodi:nodetypes="cssssscsssscssc"
         inkscape:export-filename="C:\Users\Madnester\Desktop\Sketches\256.png"
         inkscape:export-xdpi="23.039482"
         inkscape:export-ydpi="23.039482" />
      <path
         style="font-size:medium;font-style:normal;font-variant:normal;font-weight:normal;font-stretch:normal;text-indent:0;text-align:start;text-decoration:none;line-height:normal;letter-spacing:normal;word-spacing:normal;text-transform:none;direction:ltr;block-progression:tb;writing-mode:lr-tb;text-anchor:start;baseline-shift:baseline;color:#000000;fill:url(#radialGradient3387);fill-opacity:1;stroke:none;stroke-width:2.94423437;marker:none;visibility:visible;display:inline;overflow:visible;enable-background:accumulate;font-family:Sans;-inkscape-font-specification:Sans"
         d="M 33.510288,0.37433649 C 32.871696,1.7574227 34.304868,4.615845 33.815504,6.20736 c -1.053002,3.424595 -2.236133,3.800977 -2.20434,1.593907 0.01822,-1.264989 -1.39043,-2.882599 -1.39043,-2.882599 0,0 1.507509,1.68677 -0.271303,5.426068 -0.638594,1.342407 -1.617906,2.367881 -1.458256,4.239115 0.263596,3.089566 2.791869,4.713897 5.426069,4.713897 2.634197,0 5.435984,-2.117124 5.595632,-4.476506 0.159648,-2.359382 -1.262611,-3.174614 -1.661734,-4.069551 -0.399119,-0.894938 0.129406,-2.930539 0.847824,-4.06955 -1.117541,0.7729 -1.248532,0.801038 -1.96695,2.509556 -0.718418,1.708517 0.319054,3.864483 -0.644345,4.374766 -1.223506,0.648055 -2.211353,-0.80503 -1.831299,-2.238253 0.39912,-1.505123 1.630842,-3.049806 1.763473,-4.951286 0.110434,-1.583239 -2.19026,-4.3347483 -2.509557,-6.00258751 z M 34.866805,6.20736 c 6.66e-4,0.01181 0.06846,0.05871 0.06783,0.06783 -0.0048,0.06829 -0.05888,0.135381 -0.06783,0.203477 0.02991,-0.101974 -0.02068,-0.170218 0,-0.271303 z m -0.06783,0.474781 c -0.244292,1.346773 -1.143801,2.677365 -1.593907,4.374767 -0.273293,1.03061 -0.08525,2.040016 0.508694,2.814771 0.296971,0.387378 0.725995,0.744211 1.254777,0.881737 0.528782,0.137525 1.120172,0.0315 1.627821,-0.237391 0.594165,-0.31471 0.905537,-0.942513 0.983474,-1.424343 0.0465,-0.287467 0.0078,-0.522245 0,-0.779997 0.499742,0.631615 0.967882,1.168638 0.881736,2.441731 -0.05251,0.776062 -0.591084,1.69209 -1.458255,2.373905 -0.86717,0.681815 -2.05946,1.085213 -3.086076,1.085213 -2.186744,0 -4.124517,-1.19475 -4.340855,-3.730422 -0.125562,-1.471708 0.594502,-2.13203 1.322604,-3.662595 0.17608,-0.370144 0.215892,-0.641633 0.33913,-0.983475 0.146411,0.140464 0.247158,0.304152 0.47478,0.373042 0.429095,0.129867 0.874029,0.02629 1.15304,-0.135652 0.558021,-0.323875 0.814684,-0.787327 1.119127,-1.356516 0.285656,-0.534067 0.5515,-1.20669 0.81391,-2.034775 z"
         id="path7708"
         inkscape:connector-curvature="0" />
    </g>
    <g
       style="display:inline"
       id="qutim-offline"
       transform="matrix(0.99796333,0,0,0.99796333,1048.649,1.9915998)">
      <path
         style="font-size:medium;font-style:normal;font-variant:normal;font-weight:normal;font-stretch:normal;text-indent:0;text-align:start;text-decoration:none;line-height:normal;letter-spacing:normal;word-spacing:normal;text-transform:none;direction:ltr;block-progression:tb;writing-mode:lr-tb;text-anchor:start;baseline-shift:baseline;color:#000000;fill:#000000;fill-opacity:0.39215686;stroke:none;stroke-width:2.94423437;marker:none;visibility:visible;display:inline;overflow:visible;enable-background:accumulate;font-family:Sans;-inkscape-font-specification:Sans"
         d="m 646.83069,-914.13387 c -9.77293,0.26726 -19.29306,3.64038 -28.23122,7.69942 L 74.506925,-660.05292 c -36.428503,16.54289 -53.754236,61.10442 -37.213874,97.52602 L 284.95782,-18.434372 c 16.52777,36.393955 61.12018,52.463044 97.52599,35.93063 L 926.57637,-230.16847 c 36.3946,-16.5276 52.46438,-59.83637 35.93062,-96.24283 L 716.12552,-870.50381 c -12.39583,-27.29519 -40.54941,-44.41579 -69.29483,-43.63006 z m 1.28347,41.06359 c 12.6154,-0.3446 25.23483,6.99938 30.79769,19.24855 l 246.38153,544.09259 c 7.41715,16.33218 0.9337,34.92986 -15.39887,42.34675 L 365.80196,-19.717615 c -16.33253,7.416856 -36.21298,-0.348042 -43.63005,-16.682072 L 75.790167,-580.49223 c -7.417071,-16.33221 -0.93374,-34.92989 15.39883,-42.34682 L 635.28155,-870.50381 c 4.08326,-1.85424 8.62723,-2.45154 12.83239,-2.56648 z m -29.51447,85.97689 c -3.36397,0.0919 -6.99941,1.08309 -10.2659,2.56648 l -435.01764,197.6185 c -13.06599,5.93361 -18.76598,20.2982 -12.83233,33.36414 l 197.6185,436.30067 c 5.93365,13.06548 21.58138,18.765978 34.64739,12.83238 l 435.01742,-197.6185 c 13.06554,-5.93369 18.76603,-21.58148 12.83235,-34.64744 L 642.98097,-771.69455 c -4.45025,-9.79946 -14.28918,-15.67471 -24.3815,-15.39884 z m -7.69954,46.19653 184.78613,406.78618 -406.78616,186.06937 -184.78617,-408.06942 406.7862,-184.78613 z"
         id="path7595"
         inkscape:connector-curvature="0" />
      <path
         style="fill:url(#linearGradient3465);fill-opacity:1;fill-rule:nonzero;stroke:none;stroke-width:1.1467793;marker-start:none;display:inline"
         d="m 648.0069,-872.83099 c -4.20528,0.11472 -8.45905,1.08739 -12.54213,2.94164 L 91.524879,-622.89808 c -16.33257,7.41693 -23.51598,26.56232 -16.098909,42.89454 l 247.01926,543.910301 c 7.41707,16.332269 26.53543,23.515637 42.86804,16.09878 L 909.25313,-267.01243 c 16.33252,-7.41694 23.51611,-26.53561 16.09894,-42.86779 l -247.0193,-543.93705 c -5.56282,-12.24917 -17.71047,-19.35855 -30.32587,-19.01372 z m -29.52356,85.57515 c 10.09226,-0.27586 19.80508,5.41685 24.25533,15.21632 l 197.62611,435.14962 c 5.93369,13.06596 0.17617,28.3499 -12.88979,34.28354 l -435.15191,197.62508 c -13.06605,5.933599 -28.35011,0.17617 -34.28375,-12.88975 L 160.41322,-553.02066 c -5.93364,-13.06593 -0.17514,-28.34989 12.88983,-34.28351 l 435.15187,-197.6251 c 3.26643,-1.48339 6.66431,-2.23464 10.02842,-2.32656 z"
         id="path7597"
         inkscape:export-filename="C:\Users\Madnester\Desktop\Sketches\256.png"
         inkscape:export-xdpi="23.039482"
         inkscape:export-ydpi="23.039482"
         inkscape:connector-curvature="0" />
    </g>
    <g
       transform="matrix(29.220336,0,0,29.220336,2000.2908,-779.39942)"
       style="display:inline"
       id="qutim-message-new"
       inkscape:transform-center-x="133.81818">
      <path
         inkscape:connector-curvature="0"
         id="path7589"
         d="m 17.186075,-5.3665978 a 1.1041984,1.1041984 0 0 0 -0.138011,0.046004 1.1041984,1.1041984 0 0 0 -0.736058,0.5980477 c -0.10309,0.2232759 -0.0335,0.4627477 -0.09201,0.6900549 -0.294586,1.1444536 -0.208271,2.338377 0,3.49627827 l -4.048323,1.88615013 -0.09201,0 a 1.1068413,1.1068413 0 0 0 -0.184015,0.092007 l -8.74069,3.956315 C 1.9068918,5.9650304 1.3461752,7.5086979 1.9128591,8.7565261 L 10.377533,27.38801 c 0.566253,1.246882 2.110979,1.808509 3.358268,1.242099 l 18.631483,-8.510678 c 1.246902,-0.566245 1.808556,-2.01895 1.242099,-3.26626 L 25.144709,-1.8243158 c -0.42469,-0.9351523 -1.361349,-1.4990367 -2.346187,-1.4721172 -0.334827,0.00916 -0.705853,0.1369572 -1.01208,0.276022 l -2.300183,1.0120805 c -0.524807,-0.9958244 -0.998158,-1.8848692 -1.104088,-2.4381941 a 1.1041984,1.1041984 0 0 0 -1.196096,-0.9200732 z m 0.09201,1.1040879 c 0.209713,1.0954353 1.041879,2.5275822 1.840146,3.95631495 l 1.058084,-0.46003668 c -0.0096,-0.018553 -0.03562,-0.027168 -0.046,-0.046004 l 2.254179,-1.01208057 c 0.139891,-0.063527 0.269962,-0.042066 0.414033,-0.046004 0.108054,-0.00295 0.21925,0.018273 0.322026,0.046004 0.104566,0.02704 0.182687,0.036992 0.276022,0.092007 0.198039,0.1116224 0.35845,0.282351 0.460036,0.5060403 l 8.464674,18.6314829 c 0.127059,0.279776 0.145713,0.562603 0.046,0.828066 -0.04992,0.13316 -0.132181,0.261822 -0.230018,0.368029 -0.09779,0.105885 -0.228139,0.212494 -0.36803,0.276022 l -7.406589,3.358268 -5.244418,2.39219 -5.980476,2.714216 c -0.139891,0.06353 -0.269966,0.08809 -0.414033,0.09201 -0.165478,0.0044 -0.310815,-0.02636 -0.460036,-0.09201 -0.265462,-0.09971 -0.470991,-0.272266 -0.598048,-0.552044 L 3.2009616,8.1584791 c -0.00611,-0.01345 0.00553,-0.03245 0,-0.046 -0.063528,-0.139892 -0.088134,-0.273962 -0.092007,-0.414037 -0.00392,-0.1441513 -0.00385,-0.2811871 0.046004,-0.4140327 0.049915,-0.1274103 0.132182,-0.266135 0.2300183,-0.3680293 0.097791,-0.105971 0.2281382,-0.166491 0.3680293,-0.2300183 L 11.619632,3.0980761 12.631713,2.6380395 c 0.0062,0.00753 0.03924,-0.00826 0.046,0 l 0.96608,-0.4600367 2.852227,-1.28810255 1.058085,-0.4600366 C 17.196931,-1.3383684 16.757304,-3.134589 17.278083,-4.2625099 z m 4.508359,5.3364247 c -0.115257,0.00315 -0.210114,-0.00482 -0.322026,0.046004 l -0.276022,0.138011 -1.012081,0.4600367 c 0.51267,1.05517 0.883365,2.0594406 0.828066,2.8522271 -0.195248,2.7992015 -1.988655,5.0988638 -2.576205,7.3145824 -0.559485,2.109869 0.86707,4.220271 2.668213,3.26626 1.418237,-0.751198 -0.09152,-3.925374 0.966077,-6.4405126 0.91825,-2.1837531 1.218445,-2.5296391 2.346186,-3.3122639 L 23.948614,4.4321823 22.614508,1.5799552 c -0.03812,-0.083934 -0.07997,-0.1646686 -0.138011,-0.2300184 -0.01451,-0.016337 -0.03045,-0.030906 -0.046,-0.046004 -0.04271,-0.034582 -0.08976,-0.065534 -0.138011,-0.092007 -0.156241,-0.085724 -0.33316,-0.1427368 -0.506044,-0.138011 z m -3.910314,1.656132 -1.104088,0.5060403 c 4.3e-5,0.013256 5.8e-5,0.032942 0,0.046004 l -1.840146,0.828066 -1.012081,0.4600366 c 0.34077,0.670065 0.60769,1.4009325 0.598048,2.0701648 -0.0468,3.249066 1.716115,2.741224 3.26626,-2.3001831 0.142644,-0.4639098 0.126944,-1.0327881 0.09201,-1.6101282 z m 4.186334,1.0580842 0.736058,1.5641245 c -0.605202,0.612013 -1.087289,1.3236819 -1.702135,2.7602196 0.441711,-1.06779 0.92002,-2.1764396 1.01208,-3.4962782 0.01959,-0.2807906 -0.01359,-0.5537901 -0.046,-0.8280659 z m -8.7867,1.0580843 -1.01208,0.4600366 c 6.83e-4,0.016193 -4.79e-4,0.029841 0,0.046004 L 6.559229,7.9284611 c -0.1119127,0.05082 -0.1960279,0.105949 -0.276022,0.184014 -0.078267,0.08467 -0.1440854,0.169884 -0.1840146,0.276022 -0.07003,0.186151 -0.067769,0.398328 0,0.598048 0.00581,0.01478 -0.00671,0.03122 0,0.046 0.0055,0.01391 -0.00626,0.03223 0,0.046 l 2.8062234,6.1184869 0,0.046 1.2881032,2.852227 C 10.073893,17.64643 10.00628,17.170566 9.9634996,16.669145 9.7284764,13.91447 11.139584,12.388828 12.079669,10.412647 13.24545,7.9620201 13.402356,6.1546989 13.275764,4.8462043 z m 3.082246,0.1840146 c -0.243456,0.6515709 -0.519804,1.242637 -0.736059,1.6561319 0.0064,-0.4444499 -0.0736,-0.8889171 -0.184015,-1.2881026 L 16.35801,5.0302299 z m 8.188651,0.6900549 c -0.846673,1.7144205 -1.342173,4.1376493 -0.828065,5.2904212 0.587554,1.317451 2.673214,2.507191 2.438194,5.980476 -0.05208,0.769739 -0.301824,1.549717 -0.690055,2.25418 l 3.496278,-1.610129 c 0.111903,-0.05082 0.197757,-0.09934 0.276022,-0.184014 0.07827,-0.08467 0.144083,-0.169884 0.184015,-0.276022 0.07986,-0.212277 0.101645,-0.46623 0,-0.690055 L 24.546661,5.7202848 z M 12.125673,6.9623837 C 11.965643,7.8052851 11.625853,8.7790751 11.067588,9.9526221 10.613488,10.9072 9.9507416,11.893916 9.4574597,13.080871 L 7.6173132,8.9865451 12.125673,6.9623837 z m 8.786699,1.9321534 c -0.385952,1.3630409 -0.384997,2.7501639 -0.322026,3.7723009 0.03664,0.594754 0.04245,1.071697 0,1.334106 -0.04245,0.262409 -0.0049,0.18661 0,0.184015 -0.245004,0.129771 -0.352823,0.119887 -0.460036,0.09201 -0.107213,-0.02788 -0.230073,-0.142071 -0.368029,-0.322026 -0.275912,-0.359907 -0.471051,-1.104673 -0.276022,-1.840146 0.246245,-0.928616 0.860958,-1.977899 1.426113,-3.2202569 z m 3.726297,0.506041 1.196095,2.6682119 c -0.522691,-0.741408 -1.033051,-1.255683 -1.150092,-1.518121 -0.06084,-0.136415 -0.07819,-0.5877279 -0.046,-1.1500909 z m 2.484198,5.5204389 0.736058,1.656132 -0.598047,0.276022 c 0.02813,-0.715365 -0.01225,-1.348275 -0.138011,-1.932154 z m -15.917268,5.382429 1.150092,2.576205 c 0.01732,0.01239 0.0286,0.03373 0.046,0.046 l 0.46004,1.058088 c 0.101645,0.223806 0.293762,0.380174 0.50604,0.460036 0.212279,0.07986 0.46623,0.101644 0.690055,0 l 0.644052,-0.276022 1.610128,-0.736058 c -2.057845,-0.368309 -3.926111,-1.392538 -5.106407,-3.128249 z"
         style="font-size:medium;font-style:normal;font-variant:normal;font-weight:normal;font-stretch:normal;text-indent:0;text-align:start;text-decoration:none;line-height:normal;letter-spacing:normal;word-spacing:normal;text-transform:none;direction:ltr;block-progression:tb;writing-mode:lr-tb;text-anchor:start;baseline-shift:baseline;color:#000000;fill:#000000;fill-opacity:0.39215686;stroke:none;stroke-width:2.2081759;marker:none;visibility:visible;display:inline;overflow:visible;enable-background:accumulate;font-family:Sans;-inkscape-font-specification:Sans" />
      <path
         inkscape:connector-curvature="0"
         id="path3222"
         d="m 22.798522,-1.8703195 c -0.144071,0.00393 -0.274143,0.02848 -0.414033,0.092007 l -3.26626,1.47211725 c 0.38234,0.6843073 0.736007,1.36126475 1.058084,2.02416115 l 1.288103,-0.5980477 c 0.111913,-0.050822 0.206769,-0.088857 0.322026,-0.092007 0.345769,-0.00945 0.675597,0.2163074 0.828066,0.552044 l 1.748139,3.818304 C 24.54149,5.2738032 24.684962,5.1891118 24.914691,5.0302299 24.775842,5.2503665 24.67299,5.5075115 24.546661,5.7662885 L 29.42305,16.485142 c 0.203292,0.447649 -0.01242,0.946801 -0.460037,1.150091 l -3.450275,1.564125 c -1.346847,2.501152 -4.549918,4.416351 -7.590604,4.416351 -0.564923,0 -1.107546,-0.08298 -1.656132,-0.184014 l -2.208176,1.01208 c -0.447651,0.203289 -0.992805,-0.01242 -1.196095,-0.460036 l -1.656132,-3.680293 c -0.02599,-0.03823 -0.02069,-0.09914 -0.046,-0.138011 -0.393273,-0.603916 -0.75956,-1.2667 -0.966077,-2.024161 L 6.0991924,9.0785521 C 5.8959014,8.6309041 6.1115784,8.0857471 6.559229,7.8824571 L 13.275764,4.8462153 C 13.153545,3.582921 12.821663,2.9119227 12.631713,2.6380395 L 3.7530056,6.6863618 C 3.1934413,6.9404708 2.9468484,7.5989261 3.2009616,8.1584791 L 11.665636,26.789962 c 0.254114,0.559555 0.912551,0.806151 1.472117,0.552044 L 31.769236,18.877332 C 32.3288,18.623223 32.575399,17.964767 32.32128,17.405215 L 23.856606,-1.2262682 C 23.66602,-1.6459331 23.230734,-1.8821335 22.798522,-1.8703195 z M 17.554105,0.42986365 12.677717,2.6380395 c 0.251258,0.3068634 0.767757,0.9994412 1.242098,1.9321538 L 17.87613,2.7300468 C 17.832369,2.0068745 17.714018,1.2215309 17.554105,0.42986365 z"
         style="fill:url(#linearGradient7625);fill-opacity:1;fill-rule:nonzero;stroke:none;stroke-width:1.1467793;marker-start:none" />
      <path
         inkscape:export-ydpi="23.039482"
         inkscape:export-xdpi="23.039482"
         inkscape:export-filename="C:\Users\Madnester\Desktop\Sketches\256.png"
         sodipodi:nodetypes="cssssscsssscssc"
         inkscape:connector-curvature="0"
         id="path3265"
         d="m 12.475839,2.4014753 c 0,0 2.207336,2.5198059 -0.411284,8.0244917 -0.940085,1.97618 -2.3502141,3.473286 -2.1151904,6.227962 0.3880424,4.548203 4.1128664,6.946576 7.9907164,6.946576 3.877847,0 7.990717,-3.113983 8.225736,-6.58727 0.235021,-3.473286 -1.880168,-4.670974 -2.467722,-5.988425 -0.587551,-1.3174539 0.176267,-4.3116676 1.233863,-5.988426 -1.64515,1.1378001 -1.821414,1.1378001 -2.87901,3.6529401 -1.057595,2.5151379 0.478153,5.7163009 -0.940085,6.4674989 -1.801143,0.954012 -3.262226,-1.183765 -2.702741,-3.293634 0.58755,-2.2157179 2.389983,-4.5066778 2.585231,-7.3058794 0.162574,-2.3307143 -3.23154,-6.3477327 -3.701581,-8.8029875 -0.940085,2.0360651 1.190444,6.2205539 0.470043,8.5634502 -1.550145,5.0414068 -3.278342,5.5845528 -3.231539,2.3354864 0.02683,-1.8622116 -2.056437,-4.2517834 -2.056437,-4.2517834 z"
         style="fill:url(#radialGradient7623);fill-opacity:1;stroke:none" />
      <path
         inkscape:connector-curvature="0"
         id="path7286"
         d="m 17.31609,-4.2706266 c -0.940082,2.036065 1.169716,6.2439975 0.449315,8.5868937 -1.550143,5.041407 -3.29185,5.595485 -3.245047,2.3464186 0.02683,-1.8622116 -2.046876,-4.243523 -2.046876,-4.243523 0,0 2.21923,2.4831226 -0.39939,7.9878083 -0.940085,1.97618 -2.3817469,3.485799 -2.1467244,6.240474 0.3880444,4.548204 4.1099594,6.939409 7.9878094,6.939409 3.877847,0 8.002406,-3.116654 8.237427,-6.589942 0.23502,-3.473286 -1.858712,-4.673403 -2.446267,-5.990856 -0.587551,-1.3174529 0.1905,-4.3140971 1.248096,-5.9908557 C 23.309282,6.1530005 23.116448,6.1944221 22.058852,8.7095621 21.001257,11.2247 22.528537,14.398534 21.1103,15.149731 19.309156,16.103744 17.85493,13.964632 18.414414,11.85476 19.001965,9.6390431 20.815205,7.3650876 21.010452,4.5658861 21.173024,2.2351719 17.786133,-1.8153719 17.31609,-4.2706266 z m 1.996953,8.5868937 c 9.8e-4,0.017379 0.100783,0.086426 0.09985,0.099848 -0.007,0.1005331 -0.08667,0.1992973 -0.09985,0.2995428 0.04403,-0.150118 -0.03044,-0.2505811 0,-0.3993904 z m -0.09985,0.6989332 c -0.359626,1.9826089 -1.683809,3.9413968 -2.346418,6.4401707 -0.402319,1.51718 -0.125495,3.003143 0.748857,4.143674 0.437176,0.570266 1.068751,1.095566 1.84718,1.298019 0.778429,0.202453 1.649024,0.04637 2.396342,-0.349466 0.874681,-0.463291 1.333057,-1.38749 1.44779,-2.0968 0.06845,-0.423186 0.01142,-0.768807 0,-1.148247 0.735679,0.929811 1.424835,1.720371 1.298019,3.594513 -0.0773,1.142455 -0.870146,2.490955 -2.146723,3.494667 -1.276576,1.003711 -3.031766,1.597561 -4.543065,1.597561 -3.219143,0 -6.071772,-1.758812 -6.390248,-5.491618 -0.184842,-2.166527 0.875177,-3.138598 1.947028,-5.39177 0.259211,-0.544895 0.317819,-0.944558 0.499239,-1.4477899 0.215535,0.20678 0.363846,0.4477469 0.698933,0.5491609 0.631677,0.19118 1.286673,0.0387 1.69741,-0.199695 0.821472,-0.4767829 1.199309,-1.1590379 1.647485,-1.9969519 0.42052,-0.7862091 0.811873,-1.7763896 1.198171,-2.9954278 z"
         style="font-size:medium;font-style:normal;font-variant:normal;font-weight:normal;font-stretch:normal;text-indent:0;text-align:start;text-decoration:none;line-height:normal;letter-spacing:normal;word-spacing:normal;text-transform:none;direction:ltr;block-progression:tb;writing-mode:lr-tb;text-anchor:start;baseline-shift:baseline;color:#000000;fill:url(#radialGradient3525);fill-opacity:1;stroke:none;stroke-width:2.94423437;marker:none;visibility:visible;display:inline;overflow:visible;enable-background:accumulate;font-family:Sans;-inkscape-font-specification:Sans" />
    </g>
  </g>
</svg>
