<?xml version="1.0" encoding="UTF-8" standalone="no"?>
<!-- Generator: Adobe Illustrator 15.0.2, SVG Export Plug-In . SVG Version: 6.00 Build 0)  -->

<svg
   xmlns:dc="http://purl.org/dc/elements/1.1/"
   xmlns:cc="http://creativecommons.org/ns#"
   xmlns:rdf="http://www.w3.org/1999/02/22-rdf-syntax-ns#"
   xmlns:svg="http://www.w3.org/2000/svg"
   xmlns="http://www.w3.org/2000/svg"
   xmlns:xlink="http://www.w3.org/1999/xlink"
   xmlns:sodipodi="http://sodipodi.sourceforge.net/DTD/sodipodi-0.dtd"
   xmlns:inkscape="http://www.inkscape.org/namespaces/inkscape"
   version="1.1"
   id="Layer_1"
   x="0px"
   y="0px"
   width="16"
   height="16"
   viewBox="0 0 15.999999 16"
   enable-background="new 0 0 595.28 841.89"
   xml:space="preserve"
   inkscape:version="0.48.4 r9939"
   sodipodi:docname="thing.svg"
   inkscape:export-filename="D:\Hobby\QutIM\Images\q_outmsgok2.png"
   inkscape:export-xdpi="90"
   inkscape:export-ydpi="90"><metadata
   id="metadata33"><rdf:RDF><cc:Work
       rdf:about=""><dc:format>image/svg+xml</dc:format><dc:type
         rdf:resource="http://purl.org/dc/dcmitype/StillImage" /><dc:title /></cc:Work></rdf:RDF></metadata><defs
   id="defs31"><linearGradient
     id="linearGradient3988"
     gradientUnits="userSpaceOnUse"
     x1="308.14651"
     y1="-377.9277"
     x2="311.9473"
     y2="-377.9277"
     gradientTransform="matrix(0.93586036,0,0,-1.0298652,-286.87581,-378.31196)">
	<stop
   offset="0"
   style="stop-color:#656565;stop-opacity:1;"
   id="stop3990" />
	
	<stop
   offset="1"
   style="stop-color:#656565;stop-opacity:0;"
   id="stop3992" />
</linearGradient><linearGradient
     id="linearGradient3982"
     gradientUnits="userSpaceOnUse"
     x1="315.7207"
     y1="-379.52151"
     x2="319.02151"
     y2="-379.52151"
     gradientTransform="matrix(0.93586036,0,0,-1.0298652,-286.87581,-378.31196)">
	<stop
   offset="0"
   style="stop-color:#656565;stop-opacity:1;"
   id="stop3984" />
	
	<stop
   offset="1"
   style="stop-color:#656565;stop-opacity:0;"
   id="stop3986" />
</linearGradient><radialGradient
     id="radialGradient3976"
     cx="25.706499"
     cy="-306.87061"
     r="4.7227998"
     gradientTransform="matrix(0.28038377,-2.4753835,-1.4703301,-0.10638504,-451.57769,42.625089)"
     gradientUnits="userSpaceOnUse">
	<stop
   offset="0"
   style="stop-color:#656565;stop-opacity:1;"
   id="stop3978" />
	
	<stop
   offset="1"
   style="stop-color:#656565;stop-opacity:0;"
   id="stop3980" />
</radialGradient><linearGradient
     inkscape:collect="always"
     xlink:href="#linearGradient3982"
     id="linearGradient3040"
     gradientUnits="userSpaceOnUse"
     gradientTransform="matrix(1.0157816,0,0,-1.0739259,-312.00904,-394.88426)"
     x1="315.7207"
     y1="-379.52151"
     x2="319.02151"
     y2="-379.52151" /><linearGradient
     inkscape:collect="always"
     xlink:href="#linearGradient3988"
     id="linearGradient3043"
     gradientUnits="userSpaceOnUse"
     gradientTransform="matrix(1.0157816,0,0,-1.0739259,-312.00904,-394.88426)"
     x1="308.14651"
     y1="-377.9277"
     x2="311.9473"
     y2="-377.9277" /><radialGradient
     inkscape:collect="always"
     xlink:href="#radialGradient3976"
     id="radialGradient3046"
     gradientUnits="userSpaceOnUse"
     gradientTransform="matrix(0.30432818,-2.5812878,-1.5958944,-0.11093651,-490.77625,44.061728)"
     cx="25.706499"
     cy="-306.87061"
     r="4.7227998" /></defs><sodipodi:namedview
   pagecolor="#ffffff"
   bordercolor="#666666"
   borderopacity="1"
   objecttolerance="10"
   gridtolerance="10"
   guidetolerance="10"
   inkscape:pageopacity="0"
   inkscape:pageshadow="2"
   inkscape:window-width="1440"
   inkscape:window-height="848"
   id="namedview29"
   showgrid="true"
   inkscape:zoom="39.9375"
   inkscape:cx="3.7057903"
   inkscape:cy="8"
   inkscape:window-x="-8"
   inkscape:window-y="-8"
   inkscape:window-maximized="1"
   inkscape:current-layer="Layer_1"><inkscape:grid
     type="xygrid"
     id="grid3010"
     empspacing="5"
     visible="true"
     enabled="true"
     snapvisiblegridlinesonly="true" /></sodipodi:namedview>


<radialGradient
   id="path2995_1_"
   cx="25.706499"
   cy="-306.87061"
   r="4.7227998"
   gradientTransform="matrix(0.28038377,-2.4753835,-1.4703301,-0.10638504,-451.57769,42.625089)"
   gradientUnits="userSpaceOnUse">
	<stop
   offset="0"
   style="stop-color:#d63434;stop-opacity:1;"
   id="stop6" />
	
	<stop
   offset="1"
   style="stop-color:#d63434;stop-opacity:0;"
   id="stop10" />
</radialGradient>

<linearGradient
   id="path3008_1_"
   gradientUnits="userSpaceOnUse"
   x1="308.14651"
   y1="-377.9277"
   x2="311.9473"
   y2="-377.9277"
   gradientTransform="matrix(0.93586036,0,0,-1.0298652,-286.87581,-378.31196)">
	<stop
   offset="0"
   style="stop-color:#d63434;stop-opacity:1;"
   id="stop14" />
	
	<stop
   offset="1"
   style="stop-color:#d63434;stop-opacity:0;"
   id="stop18" />
</linearGradient>

<linearGradient
   id="path3006_1_"
   gradientUnits="userSpaceOnUse"
   x1="315.7207"
   y1="-379.52151"
   x2="319.02151"
   y2="-379.52151"
   gradientTransform="matrix(0.93586036,0,0,-1.0298652,-286.87581,-378.31196)">
	<stop
   offset="0"
   style="stop-color:#d63434;stop-opacity:1;"
   id="stop22" />
	
	<stop
   offset="1"
   style="stop-color:#d63434;stop-opacity:0;"
   id="stop26" />
</linearGradient>

<g
   transform="translate(-191.625,-2.843752)"
   id="g5272"><rect
     style="opacity:0.07999998;fill:#000000;fill-opacity:1"
     id="rect5274"
     width="15"
     height="11.997853"
     x="192.625"
     y="6.8458977"
     ry="0.99982113"
     inkscape:export-filename="D:\Hobby\QutIM\Images\th3.png"
     inkscape:export-xdpi="90"
     inkscape:export-ydpi="90" /><rect
     ry="1.0215564"
     y="6.8458977"
     x="192.625"
     height="11.747898"
     width="14.75"
     id="rect5276"
     style="opacity:0.15;fill:#000000;fill-opacity:1"
     inkscape:export-filename="D:\Hobby\QutIM\Images\th3.png"
     inkscape:export-xdpi="90"
     inkscape:export-ydpi="90" /><rect
     style="opacity:0.15;fill:#000000;fill-opacity:1"
     id="rect5278"
     width="14.5"
     height="11.497943"
     x="192.625"
     y="6.8458977"
     ry="0.99982113"
     inkscape:export-filename="D:\Hobby\QutIM\Images\th3.png"
     inkscape:export-xdpi="90"
     inkscape:export-ydpi="90" /><rect
     ry="0.97808588"
     y="6.8458977"
     x="192.625"
     height="11.247988"
     width="14.25"
     id="rect5280"
     style="opacity:0.3;fill:#000000;fill-opacity:1"
     inkscape:export-filename="D:\Hobby\QutIM\Images\th3.png"
     inkscape:export-xdpi="90"
     inkscape:export-ydpi="90" /></g><rect
   inkscape:export-ydpi="90"
   inkscape:export-xdpi="90"
   inkscape:export-filename="D:\Hobby\QutIM\Images\th3.png"
   ry="0.99982119"
   y="3.0023248"
   x="0"
   height="11.997854"
   width="15"
   id="rect4044"
   style="fill:#e6e6e6;fill-opacity:1" /><path
   inkscape:export-ydpi="90"
   inkscape:export-xdpi="90"
   inkscape:export-filename="D:\Hobby\QutIM\Images\th3.png"
   style="fill:url(#radialGradient3046);fill-opacity:1"
   inkscape:connector-curvature="0"
   d="M 1.681586,4.0021501 C 1.331142,4.0010503 1.046724,4.2180085 1.045708,4.4875643 l -0.0061,1.0545953 5.116491,6.8731244 c 0.216361,0.293182 0.700889,0.396277 1.081807,0.228746 L 13.989803,9.6799956 13.999993,8.2409347 7.702148,11.004146 C 7.395382,11.139458 7.011417,11.057826 6.836702,10.821578 L 1.763882,4.0021501 h -0.08228 z"
   connector-curvature="0"
   id="path4046" /><path
   inkscape:export-ydpi="90"
   inkscape:export-xdpi="90"
   inkscape:export-filename="D:\Hobby\QutIM\Images\th3.png"
   style="opacity:0.51529996;fill:url(#linearGradient3043);fill-opacity:1"
   inkscape:connector-curvature="0"
   d="M 4.053436,9.5951551 1.010156,10.930045 0.999996,12.369105 4.860982,10.675523 4.053436,9.5951551 z"
   enable-background="new    "
   id="path4048" /><path
   inkscape:export-ydpi="90"
   inkscape:export-xdpi="90"
   inkscape:export-filename="D:\Hobby\QutIM\Images\th3.png"
   style="opacity:0.51529996;fill:url(#linearGradient3040);fill-opacity:1"
   inkscape:connector-curvature="0"
   d="m 10.103432,11.387538 -1.409904,0.616434 1.479993,1.987835 1.873102,0.0086 -1.943191,-2.612862 0,0 z"
   enable-background="new    "
   id="path4050" /><path
   inkscape:connector-curvature="0"
   inkscape:export-ydpi="90"
   inkscape:export-xdpi="90"
   inkscape:export-filename="D:\Hobby\QutIM\Images\th3.png"
   id="path4052"
   d="m 1,3.0023249 c -0.554,0 -1,0.4459203 -1,0.9998212 l 0,9.9982119 c 0,0.553901 0.446,0.999821 1,0.999821 l 13,0 c 0.554,0 1,-0.44592 1,-0.999821 L 15,4.0021461 C 15,3.4482452 14.554,3.0023249 14,3.0023249 l -13,0 z m 0.5,0.9998212 12,0 c 0.284682,0 0.5,0.2152805 0.5,0.4999106 l 0,8.9983903 c 0,0.28463 -0.215318,0.499911 -0.5,0.499911 l -12,0 c -0.28468,0 -0.5,-0.215281 -0.5,-0.499911 L 1,4.5020567 C 1,4.2174266 1.21532,4.0021461 1.5,4.0021461 z"
   style="fill:#656565;fill-opacity:1" /><path
   style="font-size:medium;font-style:normal;font-variant:normal;font-weight:normal;font-stretch:normal;text-indent:0;text-align:start;text-decoration:none;line-height:normal;letter-spacing:normal;word-spacing:normal;text-transform:none;direction:ltr;block-progression:tb;writing-mode:lr-tb;text-anchor:start;baseline-shift:baseline;color:#000000;fill:#e6e6e6;fill-opacity:1;fill-rule:nonzero;stroke:none;stroke-width:1;marker:none;visibility:visible;display:inline;overflow:visible;enable-background:accumulate;font-family:Sans;-inkscape-font-specification:Sans"
   d="M 9.8125,0.00286144 C 9.32365,0.09610619 8.991228,0.50513784 9,1.0026826 l 0,7.6548808 c 5.6e-5,0.5649379 0.435015,0.9997646 1,0.9998211 l 4,0 c 0.564985,-5.65e-5 0.999943,-0.4348832 1,-0.9998211 L 15,1.0026826 C 14.999943,0.43774473 14.564985,0.00291791 14,0.00286144 l -3.96875,0 c -0.01248,-0.00117465 -0.01875,7.0479e-4 -0.03125,0 -0.049991,-0.0028191757 -0.07508,-0.00469862 -0.125,0 l -0.03125,0 -0.03125,0 z m 0,9.93572276 C 9.323651,10.031829 8.991229,10.440861 9,10.938405 l 0,3.061953 c 5.7e-5,0.564938 0.435016,0.999765 1,0.999821 l 4,0 c 0.564984,-5.6e-5 0.999943,-0.434883 1,-0.999821 l 0,-3.061953 c -5.7e-5,-0.564938 -0.435016,-0.9997643 -1,-0.9998208 l -3.96875,0 c -0.01248,-0.00117 -0.01875,7.048e-4 -0.03125,0 -0.04999,-0.00282 -0.07508,-0.0047 -0.125,0 l -0.03125,0 -0.03125,0 z"
   id="path5248"
   inkscape:connector-curvature="0" /><path
   style="fill:#00a000;fill-opacity:1;stroke:none"
   d="m 10,1.0048051 0,7.6444889 4,0 0,-7.6444889 -4,0 z m 0,9.9378359 0,3.057796 4,0 0,-3.057796 -4,0 z"
   id="rect4060"
   inkscape:connector-curvature="0"
   inkscape:export-filename="D:\Hobby\QutIM\Images\th3.png"
   inkscape:export-xdpi="90"
   inkscape:export-ydpi="90" /></svg>