<?xml version="1.0" encoding="utf8" standalone="no"?>
<svg height="16" id="Layer_1" inkscape:export-filename="D:\Hobby\QutIM\Images\q_outmsgok2.png" inkscape:export-xdpi="90" inkscape:export-ydpi="90" inkscape:version="0.48.2 r9819" sodipodi:docname="chat_theme - копия - копия.svg" style="enable-background:new 0 0 595.28 841.89" version="1.1" viewBox="0 0 15.999999 16" width="16" xml:space="preserve" xmlns="http://www.w3.org/2000/svg" xmlns:cc="http://creativecommons.org/ns#" xmlns:dc="http://purl.org/dc/elements/1.1/" xmlns:inkscape="http://www.inkscape.org/namespaces/inkscape" xmlns:rdf="http://www.w3.org/1999/02/22-rdf-syntax-ns#" xmlns:sodipodi="http://sodipodi.sourceforge.net/DTD/sodipodi-0.dtd" xmlns:svg="http://www.w3.org/2000/svg" xmlns:xlink="http://www.w3.org/1999/xlink"><defs id="defs31"><linearGradient gradientTransform="matrix(.93586,0,0,-1.02987,-286.87581,-378.31196)" gradientUnits="userSpaceOnUse" id="linearGradient3988" x1="308.14651" x2="311.9473" y1="-377.9277" y2="-377.9277">
	<stop id="stop3990" offset="0" style="stop-color:#707070"></stop>
	
	<stop id="stop3992" offset="1" style="stop-opacity:0;stop-color:#707070"></stop>
</linearGradient><linearGradient gradientTransform="matrix(1.01578,0,0,-1.07393,-312.00904,-433.38632)" gradientUnits="userSpaceOnUse" id="linearGradient5420" inkscape:collect="always" x1="308.14651" x2="311.9473" xlink:href="#linearGradient3988" y1="-377.9277" y2="-377.9277"></linearGradient><radialGradient cx="25.706499" cy="-306.87061" gradientTransform="matrix(.28038,-2.47538,-1.47033,-.10639,-451.57769,42.62509)" gradientUnits="userSpaceOnUse" id="radialGradient3976" r="4.7227998">
	<stop id="stop3978" offset="0" style="stop-color:#707070"></stop>
	
	<stop id="stop3980" offset="1" style="stop-opacity:0;stop-color:#707070"></stop>
</radialGradient><radialGradient cx="25.706499" cy="-306.87061" gradientTransform="matrix(.30433,-2.58129,-1.59589,-.11094,-490.77625,5.55967)" gradientUnits="userSpaceOnUse" id="radialGradient5418" inkscape:collect="always" r="4.7227998" xlink:href="#radialGradient3976"></radialGradient></defs><sodipodi:namedview id="namedview29" inkscape:current-layer="Layer_1" inkscape:cx="-4.9763597" inkscape:cy="45.408726" inkscape:pageopacity="0" inkscape:pageshadow="2" inkscape:window-height="848" inkscape:window-maximized="1" inkscape:window-width="1440" inkscape:window-x="-8" inkscape:window-y="-8" inkscape:zoom="5.6568543"><inkscape:grid id="grid3010" type="xygrid"></inkscape:grid></sodipodi:namedview>








<g id="g5464" transform="translate(-18,35)"><g id="g5392" transform="matrix(1,0,0,1.00018,-173.625,-37.84712)"><rect height="11.997853" id="rect5394" inkscape:export-filename="D:\Hobby\QutIM\Images\th3.png" inkscape:export-xdpi="90" inkscape:export-ydpi="90" rx="0.99982113" style="opacity:0.07999998" width="15" x="192.625" y="6.8458977"></rect><rect height="11.747898" id="rect5396" inkscape:export-filename="D:\Hobby\QutIM\Images\th3.png" inkscape:export-xdpi="90" inkscape:export-ydpi="90" rx="1.0215564" style="opacity:0.15" width="14.75" x="192.625" y="6.8458977"></rect><rect height="11.497943" id="rect5398" inkscape:export-filename="D:\Hobby\QutIM\Images\th3.png" inkscape:export-xdpi="90" inkscape:export-ydpi="90" rx="0.99982113" style="opacity:0.15" width="14.5" x="192.625" y="6.8458977"></rect><rect height="11.247988" id="rect5400" inkscape:export-filename="D:\Hobby\QutIM\Images\th3.png" inkscape:export-xdpi="90" inkscape:export-ydpi="90" rx="0.97808588" style="opacity:0.3" width="14.25" x="192.625" y="6.8458977"></rect></g><g id="g5410" transform="translate(18,3.4999)"><rect height="11.997853" id="rect4910" inkscape:export-filename="D:\Hobby\QutIM\Images\path4355.png" inkscape:export-xdpi="90" inkscape:export-ydpi="90" rx="0.99982113" style="fill:#e6e6e6" width="15" x="-1.3887818e-005" y="-35.499729"></rect><path d="m 1.6815895,-34.499906 c -0.35045,-0.0011 -0.63487,0.215858 -0.63588,0.485414 l -0.006,1.054595 5.11649,6.873124 c 0.21636,0.293182 0.70089,0.396277 1.08181,0.228746 l 6.7518905,-2.964034 0.0102,-1.439061 -6.2978405,2.763211 c -0.30677,0.135313 -0.69073,0.05368 -0.86545,-0.182567 l -5.07282,-6.819428 h -0.0823 z" id="path4912" inkscape:connector-curvature="0" inkscape:export-filename="D:\Hobby\QutIM\Images\path4355.png" inkscape:export-xdpi="90" inkscape:export-ydpi="90" style="fill:url(#radialGradient5418)"></path><path d="m 4.0534395,-28.906902 -3.043279,1.33489 -0.0102,1.439061 3.86098,-1.693582 -0.80754,-1.080369 z" id="path4914" inkscape:connector-curvature="0" inkscape:export-filename="D:\Hobby\QutIM\Images\path4355.png" inkscape:export-xdpi="90" inkscape:export-ydpi="90" style="opacity:0.51529996;fill:url(#linearGradient5420);enable-background:new"></path><path d="m 0.9999995,-35.499732 c -0.554,0 -1,0.445921 -1,0.999822 l 0,9.998211 c 0,0.553901 0.446,0.999821 1,0.999821 l 13.0000005,0 c 0.554,0 1,-0.44592 1,-0.999821 l 0,-9.998211 c 0,-0.553901 -0.446,-0.999822 -1,-0.999822 l -13.0000005,0 z m 0.5,0.999822 12.0000005,0 c 0.28468,0 0.5,0.21528 0.5,0.49991 l 0,8.99839 c 0,0.28463 -0.21532,0.499911 -0.5,0.499911 l -12.0000005,0 c -0.28468,0 -0.5,-0.215281 -0.5,-0.499911 l 0,-8.99839 c 0,-0.28463 0.21532,-0.49991 0.5,-0.49991 z" id="path4918" inkscape:connector-curvature="0" inkscape:export-filename="D:\Hobby\QutIM\Images\path4355.png" inkscape:export-xdpi="90" inkscape:export-ydpi="90" style="fill:#707070"></path><path d="M 10.0625,-37.90625 A 1.0135716,1.0135716 0 0 0 9.25,-37.3125 c -0.4224896,0.948122 -0.1408943,1.753115 0,2.46875 0.089872,0.456482 0.0756,0.65904 0.09375,0.9375 -0.232087,-0.361728 -0.46875,-0.6875 -0.46875,-0.6875 a 1.0135716,1.0135716 0 0 0 -1.53125,1.3125 c 0,0 0.032212,6.44e-4 0.09375,0.375 0.061538,0.374356 0.054449,1.053452 -0.4375,2.125 -0.32379,0.705237 -1.1304903,1.665629 -1,3.25 0.207524,2.520537 2.3415855,4.03125 4.4375,4.03125 1.11256,0 2.171034,-0.449662 3,-1.125 0.828966,-0.675338 1.488343,-1.614379 1.5625,-2.75 0.127533,-1.952997 -1.165298,-3.146021 -1.15625,-3.125 0.04729,0.109885 -0.02179,-0.263533 0.0625,-0.65625 0.08429,-0.392717 0.262459,-0.857524 0.40625,-1.09375 a 1.0135716,1.0135716 0 0 0 -1.46875,-1.34375 c -0.06385,0.04576 -0.09644,0.142139 -0.15625,0.1875 -0.09391,-0.752703 -0.400622,-1.373198 -0.71875,-1.96875 -0.390866,-0.731722 -0.772961,-1.473494 -0.8125,-1.6875 a 1.0135716,1.0135716 0 0 0 -1.09375,-0.84375 z" id="path5408" inkscape:connector-curvature="0" style="font-family:Sans;fill:#e6e6e6;enable-background:accumulate;stroke-width:2.02694058"></path><path d="m 8.1080495,-33.935025 c 0,0 0.94655,1.119641 -0.176379,3.565572 -0.40315,0.878089 -1.00786,1.543308 -0.90705,2.76731 0.16639,2.020933 1.76372,3.086615 3.4266485,3.086615 1.66295,0 3.426692,-1.383655 3.527471,-2.926963 0.10078,-1.543307 -0.806271,-2.075482 -1.058241,-2.660874 -0.251949,-0.585393 0.0756,-1.91583 0.52911,-2.660876 -0.70548,0.505567 -0.78106,0.505567 -1.2346,1.623135 -0.45352,1.117567 0.20504,2.539954 -0.40315,2.873744 -0.77238,0.423909 -1.39893,-0.525984 -1.15902,-1.463481 0.25199,-0.984524 1.024921,-2.002481 1.108651,-3.246267 0.0697,-1.035621 -1.3858,-2.820528 -1.587361,-3.911487 -0.4031395,0.904698 0.510501,2.764018 0.201561,3.805052 -0.6647505,2.24008 -1.4058505,2.48142 -1.3857805,1.037741 0.0114,-0.827447 -0.88186,-1.889221 -0.88186,-1.889221 z" id="path4019-2" inkscape:connector-curvature="0" inkscape:export-filename="D:\Hobby\QutIM\Images\path4355.png" inkscape:export-xdpi="90" inkscape:export-ydpi="90" sodipodi:nodetypes="cssssscsssscssc" style="fill:#d63434"></path></g></g></svg>
