<?xml version="1.0" encoding="utf8" standalone="no"?>
<svg height="16" id="svg4666" inkscape:version="0.48.3.1 r9886" sodipodi:docname="Новый документ 2" version="1.1" width="16" xmlns="http://www.w3.org/2000/svg" xmlns:cc="http://creativecommons.org/ns#" xmlns:dc="http://purl.org/dc/elements/1.1/" xmlns:inkscape="http://www.inkscape.org/namespaces/inkscape" xmlns:rdf="http://www.w3.org/1999/02/22-rdf-syntax-ns#" xmlns:sodipodi="http://sodipodi.sourceforge.net/DTD/sodipodi-0.dtd" xmlns:svg="http://www.w3.org/2000/svg" xmlns:xlink="http://www.w3.org/1999/xlink">
<defs id="defs4668">
<linearGradient gradientTransform="matrix(.93586,0,0,-1.02987,-286.87581,-378.31196)" gradientUnits="userSpaceOnUse" id="linearGradient3988-25" x1="308.14651" x2="311.9473" y1="-377.9277" y2="-377.9277">
<stop id="stop3990-3" offset="0" style="stop-color:#707070"/>
<stop id="stop3992-83" offset="1" style="stop-opacity:0;stop-color:#707070"/>
</linearGradient>
<linearGradient gradientTransform="matrix(.93586,0,0,-1.02987,-286.87581,-378.31196)" gradientUnits="userSpaceOnUse" id="linearGradient3988-97" x1="308.14651" x2="311.9473" y1="-377.9277" y2="-377.9277">
<stop id="stop3990-5" offset="0" style="stop-color:#707070"/>
<stop id="stop3992-3" offset="1" style="stop-opacity:0;stop-color:#707070"/>
</linearGradient>
<linearGradient gradientTransform="matrix(.93586,0,0,-1.02987,-286.87581,-378.31196)" gradientUnits="userSpaceOnUse" id="linearGradient3982-43" x1="315.7207" x2="319.02151" y1="-379.52151" y2="-379.52151">
<stop id="stop3984-2" offset="0" style="stop-color:#707070"/>
<stop id="stop3986-11" offset="1" style="stop-opacity:0;stop-color:#707070"/>
</linearGradient>
<linearGradient gradientTransform="matrix(.87969,.50995,-.53706,.93399,-490.30021,222.4931)" gradientUnits="userSpaceOnUse" id="linearGradient4614" inkscape:collect="always" x1="308.14651" x2="311.9473" xlink:href="#linearGradient3988-97" y1="-377.9277" y2="-377.9277"/>
<linearGradient gradientTransform="matrix(.87969,.50995,-.53706,.93399,-490.30021,222.4931)" gradientUnits="userSpaceOnUse" id="linearGradient4616" inkscape:collect="always" x1="315.7207" x2="319.02151" xlink:href="#linearGradient3982-43" y1="-379.52151" y2="-379.52151"/>
<radialGradient cx="25.706499" cy="-306.87061" gradientTransform="matrix(.28038,-2.47538,-1.47033,-.10639,-451.57769,42.62509)" gradientUnits="userSpaceOnUse" id="radialGradient3976-3" r="4.7227998">
<stop id="stop3978-2" offset="0" style="stop-color:#707070"/>
<stop id="stop3980-5" offset="1" style="stop-opacity:0;stop-color:#707070"/>
</radialGradient>
<radialGradient cx="-10.416053" cy="26.818783" fx="-10.416053" fy="26.818783" gradientTransform="matrix(.66684,.16318,-.07428,.30354,-1.47812,20.37777)" gradientUnits="userSpaceOnUse" id="radialGradient4610" inkscape:collect="always" r="6.5" xlink:href="#linearGradient3988-25"/>
<radialGradient cx="25.706499" cy="-306.87061" gradientTransform="matrix(-1.02732,2.39771,-1.43756,-.7047,-425.6049,-249.00178)" gradientUnits="userSpaceOnUse" id="radialGradient4612" inkscape:collect="always" r="4.7227998" xlink:href="#radialGradient3976-3"/>
</defs>
<sodipodi:namedview id="base" inkscape:current-layer="layer1" inkscape:cx="9.668567" inkscape:cy="9.2268797" inkscape:document-units="px" inkscape:pageopacity="0" inkscape:pageshadow="2" inkscape:window-height="445" inkscape:window-maximized="0" inkscape:window-width="535" inkscape:window-x="75" inkscape:window-y="75" inkscape:zoom="7.9195959"/>
<g id="layer1" inkscape:groupmode="layer" inkscape:label="Layer 1" transform="translate(0,-1036.3622)">
<g id="g4650" transform="translate(80,1016.3622)">
<g id="g4586" transform="translate(-62,-3.9999999e-7)">
<g id="g4588" transform="matrix(.99997,0,0,1.00402,92.99635,19.93563)">
<path d="m -99.613933,1.3679891 c -0.165932,0.015202 -0.336842,0.05586 -0.491657,0.1236303 -2.9829,1.3080986 -8.9735,3.9033579 -9.09553,3.9561714 -0.12203,0.052813 -0.38092,0.1572343 -0.5531,0.3399834 -0.12515,0.1328159 -0.1829,0.283221 -0.2151,0.4636137 -0.0158,0.060629 -0.0307,0.1169544 -0.0307,0.1854457 l 0,8.3241274 c 0,0.136981 0.0425,0.252483 0.0922,0.37089 0.0201,0.05231 0.0332,0.107032 0.0614,0.154538 0.0435,0.06903 0.095,0.129503 0.15365,0.185445 0.0326,0.03102 0.0864,0.03548 0.12291,0.06181 0.16461,0.124932 0.33008,0.216359 0.5531,0.216359 l 12.782914,0 c 0.272374,0 0.526783,-0.09935 0.706747,-0.278168 0.179964,-0.178806 0.285476,-0.437057 0.276555,-0.710874 l 0,-6.1296878 c 6e-6,-0.3398714 -0.225132,-0.8842172 -0.307275,-1.050858 -0.631882,-1.2818621 -2.058738,-4.1928954 -2.82699,-5.7179039 -0.264395,-0.3571306 -0.731338,-0.5401258 -1.229124,-0.4945222 z" id="path4590" inkscape:connector-curvature="0" sodipodi:nodetypes="scsccssccccsscccscs" style="opacity:0.1"/>
<path d="m -99.966005,0.84208499 c -0.160305,0.0146862 -0.325425,0.0539666 -0.474985,0.11943944 -2.8818,1.26375557 -8.66932,3.77103877 -8.78721,3.82206197 -0.11789,0.051023 -0.36801,0.1519042 -0.53435,0.3284585 -0.12091,0.1283136 -0.17671,0.2736201 -0.20781,0.4478978 -0.0153,0.058575 -0.0296,0.1129897 -0.0296,0.1791592 l 0,8.5553921 c 0,0.132339 0.0411,0.243925 0.0891,0.358318 0.0194,0.05053 0.032,0.103404 0.0593,0.149299 0.042,0.06669 0.0918,0.125114 0.14843,0.179159 0.0314,0.02996 0.0834,0.03428 0.11875,0.05971 0.15903,0.120694 0.31889,0.20902 0.53435,0.20902 l 12.349595,0 c 0.263141,0 0.508926,-0.09599 0.68279,-0.268739 0.173862,-0.172745 0.275799,-0.422241 0.267179,-0.686776 l 0,-6.4353422 c -3.4e-5,-0.3283501 -0.21754,-0.8542433 -0.296899,-1.0152352 -0.610462,-1.2384085 -1.98895,-4.0507613 -2.73116,-5.5240739 -0.255433,-0.34502435 -0.706546,-0.52181622 -1.18746,-0.47775778 z" id="path4592" inkscape:connector-curvature="0" sodipodi:nodetypes="ccsccssccccsssccsccc" style="opacity:0.3"/>
<path d="m -99.43755,1.3277562 c -0.168751,0.01537 -0.342563,0.056479 -0.5,0.125 -3.03357,1.3225903 -9.1259,3.9466013 -9.25,3.9999999 -0.1241,0.053399 -0.38739,0.1589763 -0.5625,0.34375 -0.12727,0.1342874 -0.18601,0.2863587 -0.21875,0.46875 -0.0161,0.061301 -0.0312,0.11825 -0.0312,0.1875 L -110,15 c 0,0.1385 0.0433,0.255281 0.0937,0.375 0.0205,0.05288 0.0337,0.108218 0.0625,0.15625 0.0443,0.06979 0.0966,0.130938 0.15625,0.1875 0.0331,0.03136 0.0878,0.03588 0.125,0.0625 0.16741,0.126311 0.33569,0.21875 0.5625,0.21875 l 13,0 c 0.277,0 0.53573,-0.100463 0.71875,-0.28125 0.183019,-0.180787 0.290323,-0.441899 0.28125,-0.71875 l 0,-6.3284939 c 0,-0.3436366 -0.228961,-0.894013 -0.3125,-1.0625 -0.642613,-1.2960632 -2.0937,-4.2393465 -2.875,-5.78125 -0.268884,-0.3610871 -0.743758,-0.5461095 -1.25,-0.4999999 z" id="path4594" inkscape:connector-curvature="0" sodipodi:nodetypes="scsccssccccssscsscs" style="opacity:0.07999998"/>
<path d="m -99.78997,1.4295447 c -0.163122,0.014944 -0.33113,0.054913 -0.48332,0.1215349 -2.93235,1.2859272 -8.82141,3.8371984 -8.94137,3.8891168 -0.11996,0.051918 -0.37447,0.1545692 -0.54373,0.3342209 -0.12303,0.1305647 -0.17981,0.2784206 -0.21145,0.4557557 -0.0156,0.059602 -0.0301,0.1149721 -0.0301,0.1823025 l 0,8.1152505 c 0,0.134661 0.0418,0.248204 0.0906,0.364604 0.0198,0.05142 0.0326,0.105218 0.0604,0.151919 0.0428,0.06786 0.0934,0.127308 0.15104,0.182302 0.0319,0.03048 0.0849,0.03488 0.12083,0.06076 0.16182,0.122816 0.32448,0.212692 0.54373,0.212692 l 12.56625,0 c 0.267758,0 0.517855,-0.09767 0.694769,-0.273453 0.176912,-0.175776 0.280638,-0.429649 0.271866,-0.698826 l 0,-5.9580052 c 0,-0.3341108 -0.221316,-0.8692302 -0.302066,-1.0330466 -0.621172,-1.2601354 -2.023844,-4.1218284 -2.779074,-5.620989 -0.259914,-0.3510776 -0.718943,-0.5309711 -1.208294,-0.4861397 z" id="path4596" inkscape:connector-curvature="0" sodipodi:nodetypes="ccsccssccccssccssccc" style="opacity:0.15"/>
</g>
<path d="m -17.000034,23.95176 9.798144,-3.435637 c 1.829326,2.472809 2.78979,4.413187 3.951387,6.824211 l 0.24999,6.651588 c 0.02089,0.555831 -0.445984,1.004021 -0.999964,1.004021 l -12.999558,0 C -17.554015,34.995943 -18,34.548149 -18,33.991922 l 0,-9.03614 c 0,-0.556228 0.558591,-0.849258 0.999966,-1.004022 z" id="path4598" inkscape:connector-curvature="0" sodipodi:nodetypes="sccssssss" style="fill:#e6e6e6"/>
<path d="m -7.437548,20.006983 c -0.16875,0.01543 -0.342563,0.05671 -0.5,0.125507 -3.033567,1.327955 -9.137572,3.978299 -9.261672,4.031914 -0.1241,0.05362 -0.36786,0.136089 -0.54297,0.321612 C -17.91188,24.665793 -18,24.884392 -18,25.152773 l 0,8.839114 c 0,0.556247 0.446,1.004056 1.000001,1.004056 l 13.000002,0 c 0.554,0 1,-0.447809 1,-1.004056 0,0 0,-6.253225 0,-6.598255 0,-0.345031 -0.214446,-0.918903 -0.297985,-1.088073 -0.642613,-1.301321 -2.108266,-4.24839 -2.889565,-5.796548 -0.268885,-0.362552 -0.743757,-0.548325 -1.250001,-0.502028 z m -0.21875,1.192317 c 0.25721,-0.02516 0.518078,0.06471 0.65625,0.251014 0.882807,1.559263 1.88755,3.668331 2.795766,5.57691 0.127711,0.26838 0.204234,0.570414 0.204234,0.868436 0,0.298022 0,5.594199 0,5.594199 0,0.285835 -0.215318,0.502028 -0.499999,0.502028 l -12.000002,0 c -0.284681,0 -0.500001,-0.216193 -0.500001,-0.502028 l 0,-7.835058 c 0,-0.177855 0.0859,-0.321295 0.218751,-0.407898 l 8.875002,-3.98485 c 0.0809,-0.03535 0.164262,-0.05437 0.249999,-0.06275 z" id="path4600" inkscape:connector-curvature="0" sodipodi:nodetypes="sczsssssszscsscszsssssccs" style="fill:#707070"/>
<path d="m -15.259803,24.787532 -1.65625,1 12.9999996,3.0625 0,-0.78125 -0.15625,-0.65625 -11.1874996,-2.625 z" id="path4602" inkscape:connector-curvature="0" style="opacity:0.3;fill:url(#radialGradient4610)"/>
<path d="m -10.797577,27.938767 c -0.09498,9.19e-4 -0.197754,0.02616 -0.281251,0.06275 l -6.437501,2.761156 0,1.662969 6.218752,-2.698402 c 0.269453,-0.117751 0.64575,0.0107 0.843749,0.282391 l 3.343751,4.549631 1.312501,0 0.125,-0.251014 -4.343751,-5.961586 c -0.18458,-0.252697 -0.496295,-0.410652 -0.78125,-0.407898 z" id="path4604" inkscape:connector-curvature="0" style="fill:url(#radialGradient4612)"/>
<path d="m -14.306103,29.392063 -3.467997,-4.069339 0.89832,-0.975413 3.809313,4.510572 z" id="path4606" inkscape:connector-curvature="0" inkscape:export-filename="D:\Hobby\QutIM\Images\th3.png" inkscape:export-xdpi="90" inkscape:export-ydpi="90" sodipodi:nodetypes="ccccc" style="opacity:0.51529996;fill:url(#linearGradient4614);enable-background:new"/>
<path d="m -3.781297,27.358408 -5.312502,2.259127 0.937501,1.255071 4.468751,-1.913983 0,-1.537462 -0.09375,-0.06275 z" id="path4608" inkscape:connector-curvature="0" style="opacity:0.51529996;fill:url(#linearGradient4616)"/>
</g>
<path d="m -74.09375,24.000231 a 1.0001,1.0000534 0 0 0 -0.5625,1.749918 l 4.78125,4.249802 -4.78125,4.249802 A 1.0001,1.0000534 0 0 0 -74,35.999671 l 3.15625,0 a 1.0001,1.0000534 0 0 0 0.6875,-0.249988 l 5.625,-4.999767 a 1.0001,1.0000534 0 0 0 0,-1.49993 l -5.625,-4.999767 a 1.0001,1.0000534 0 0 0 -0.6875,-0.249988 l -3.15625,0 a 1.0001,1.0000534 0 0 0 -0.09375,0 z" id="path4576" inkscape:connector-curvature="0" style="font-family:Sans;fill:#e6e6e6;stroke-width:2"/>
<path d="m -70.832001,34.999441 5.631999,-4.999767 -5.631999,-4.999767 -3.168,0 5.631998,4.999767 -5.631998,4.999767 3.168,0 z" id="path4578" inkscape:connector-curvature="0" inkscape:export-filename="D:\Hobby\QutIM\Images\th2.png" inkscape:export-xdpi="90" inkscape:export-ydpi="90" style="fill:#3473e3"/>
</g>
</g>
</svg>
