/* XPM */
static char *qutim[] = {
/* columns rows colors chars-per-pixel */
"32 32 160 2",
"   c #224F7B",
".  c #2F5479",
"X  c #275685",
"o  c #2C5B8B",
"O  c #2A5F95",
"+  c #255F99",
"@  c #26619C",
"#  c #366390",
"$  c #3A6A9A",
"%  c #2868A9",
"&  c #306AA5",
"*  c #396CA1",
"=  c #296EB2",
"-  c #2572BF",
";  c #2C74BC",
":  c #3578BD",
">  c #397CBF",
",  c #4E6883",
"<  c #4A6988",
"1  c #546A80",
"2  c #61778D",
"3  c #4776A5",
"4  c #4877A6",
"5  c #4477AB",
"6  c #4278AD",
"7  c #497BAC",
"8  c #457CB4",
"9  c #2774C1",
"0  c #2A76C3",
"q  c #2D79C6",
"w  c #2E7CCA",
"e  c #317AC4",
"r  c #317ECC",
"t  c #7A8794",
"y  c #5F86AE",
"u  c #4481BF",
"i  c #4B84BC",
"p  c #5183B5",
"a  c #5E89B6",
"s  c #5889BA",
"d  c #6785A3",
"f  c #6D8AA7",
"g  c #6586A8",
"h  c #7E8EA0",
"j  c #6189B2",
"k  c #6B92BB",
"l  c #7895B3",
"z  c #7B9BBB",
"x  c #3E81C6",
"c  c #3280CF",
"v  c #3D84CB",
"b  c #3483D3",
"n  c #3A87D4",
"m  c #3C88D5",
"M  c #3787D8",
"N  c #3B8BDB",
"B  c #3D8EE0",
"V  c #3F91E3",
"C  c #4182C4",
"Z  c #4B86C2",
"A  c #4287CC",
"S  c #4589CE",
"D  c #4A8ACB",
"F  c #528BC5",
"G  c #518FCD",
"H  c #5E90C3",
"J  c #5591CD",
"K  c #5C93CB",
"L  c #448CD4",
"P  c #4B8DD0",
"I  c #4C93DB",
"U  c #5A98D7",
"Y  c #6092C4",
"T  c #6C98C6",
"R  c #6296CA",
"E  c #6599CD",
"W  c #6B9CCD",
"Q  c #759CC3",
"!  c #7A9FC5",
"~  c #649CD4",
"^  c #72A0CE",
"/  c #73A2D2",
"(  c #7CA7D3",
")  c #7DA9D5",
"_  c #73A5D8",
"`  c #4293E5",
"'  c #4995E1",
"]  c #4296EA",
"[  c #4498EB",
"{  c #66A4E1",
"}  c #72A9E1",
"|  c #7EAFE0",
" . c #8894A0",
".. c #909BA5",
"X. c #889DB3",
"o. c #809CB8",
"O. c #9FA7AE",
"+. c #95A4B3",
"@. c #9DA7B1",
"#. c #80A0C1",
"$. c #88A7C6",
"%. c #88ABCF",
"&. c #9CAFC3",
"*. c #92ADC8",
"=. c #83ACD4",
"-. c #8EB2D7",
";. c #89B4DF",
":. c #96B5D4",
">. c #91B6DA",
",. c #95B8DC",
"<. c #9BBCDD",
"1. c #ADB8C3",
"2. c #A5B6C8",
"3. c #AFBCCA",
"4. c #B2BFCB",
"5. c #AFBFD0",
"6. c #97BBE1",
"7. c #BBC4CD",
"8. c #A5C1DD",
"9. c #ABC4DC",
"0. c #B6C3D1",
"q. c #BDC7D1",
"w. c #BFC9D3",
"e. c #B5C9DE",
"r. c #A5C3E1",
"t. c #AFCBE7",
"y. c #B2C9E1",
"u. c #BBCEE1",
"i. c #BCD2E8",
"p. c #C5C6C8",
"a. c #C6C8CB",
"s. c #C9CBCD",
"d. c #C3CBD4",
"f. c #C8CFD6",
"g. c #CBD0D5",
"h. c #D1D4D7",
"j. c #D3D6D9",
"k. c #D7DADE",
"l. c #DBDCDC",
"z. c #C2D3E3",
"x. c #CDDAE7",
"c. c #C7D8E9",
"v. c #D3DDE6",
"b. c #DEDFE0",
"n. c #D3DFEA",
"m. c #DDE0E3",
"M. c #D7E1EB",
"N. c #DDE4EB",
"B. c #E6E6E6",
"V. c #E1E7EC",
"C. c #E5E9ED",
"Z. c #EBEDEF",
"A. c #EEEFF0",
"S. c #EFF0F0",
"D. c #F3F3F2",
"F. c #F8F7F7",
"G. c #F9F8F7",
"H. c #F7F8F8",
"J. c #FCFBFB",
"K. c None",
/* pixels */
"K.K.K.K.K.K.K.K.K.K.K.K.K.K.K.K.K.K.K.K.K.K.K.K.K.K.K.K.K.K.K.K.",
"K.K.K.K.K.K.K.K.K.K.K.K.K.K.K.K.K.K.K.Z.M.C.K.K.K.K.K.K.K.K.K.K.",
"K.K.K.K.K.K.K.K.K.K.K.K.K.K.K.K.D.A.c.=.J r.D.K.K.K.K.K.K.K.K.K.",
"K.K.K.K.K.K.K.K.K.K.K.K.K.K.D.Z.z.=.P L ` { N.K.K.K.K.K.K.K.K.K.",
"K.K.K.K.K.K.K.K.K.K.K.K.D.C.z.( P N ` [ [ ' t.D.K.K.K.K.K.K.K.K.",
"K.K.K.K.K.K.K.K.K.K.D.Z.e.( S N ` ] ] ] ] ] } C.K.K.K.K.K.K.K.K.",
"K.K.K.K.K.K.K.K.D.C.e./ D N ` ` ] ] ] ` ] ` ' i.D.K.K.K.K.K.K.K.",
"K.K.K.K.K.K.D.C.e.W S m ` ] ` L D Y Y F L ` V | A.K.K.K.K.K.K.K.",
"K.K.K.K.D.V.9.W v M ` ` ` L Q 0.V.S.A.C.f.$.D I c.K.K.K.K.K.K.K.",
"K.K.D.N.9.E v m B ` ` B S &.Z.J.J.J.J.J.J.G.q.i ;.A.K.K.K.K.K.K.",
"K.D.e.H v M N V B V N N ! D.J.J.J.H.H.J.J.J.J.2.J n.K.K.K.K.K.K.",
"K.S.=.b N B B B B B N L 4.J.H.H.H.H.H.H.H.H.H.b.i ,.D.K.K.K.K.K.",
"K.D.i.L N N N B N N N A 1.F.H.D.F.D.F.D.D.F.F.k.8 U N.K.K.K.K.K.",
"K.K.Z._ M N N N N N M r f B.D.D.D.D.D.D.D.D.S.+.: m r.D.K.K.K.K.",
"K.K.D.y.m M M M N M N b & t b.D.D.S.S.S.S.B.O.$ c m ~ C.K.K.K.K.",
"K.K.K.C.~ M M M M M M D 8 o , ..a.Z.m.a.O.2 o ; M M m y.D.K.K.K.",
"K.K.K.D.8.b M b M b T f.d.X.o    .p.1 . X @ ; b n M b / C.K.K.K.",
"K.K.K.K.N.J r b b v 4.z j f.l # t < @ = ; r b b b b M v i.D.K.K.",
"K.K.K.K.D.>.r b r D w.7 ; ! 7.$ O % e b b c b b c b b c ) Z.K.K.",
"K.K.K.K.K.x.D r r i d.5 ; u d.4 = r r c b r r b r c r w S x.K.K.",
"K.K.K.K.K.S.=.w w C w.y 5 z 7.4 ; w r r r r r w w b r r q -.D.K.",
"K.K.K.K.K.K.z.C w w *.3.d h.f.* ; w w w w w w w w w w w D 9.S.K.",
"K.K.K.K.K.K.Z.^ 0 w C 4.d.j.b.g = q w w w w w w w w D >.n.A.K.K.",
"K.K.K.K.K.K.D.e.e w e e s p k a ; 0 q q w w 0 w P ,.n.D.K.K.K.K.",
"K.K.K.K.K.K.K.C.K 0 0 q q 0 0 0 0 q q q 0 e G <.M.D.K.K.K.K.K.K.",
"K.K.K.K.K.K.K.D.5.; 0 0 0 q 0 0 0 0 0 q J <.M.D.K.K.K.K.K.K.K.K.",
"K.K.K.K.K.K.K.K.N.F 9 0 0 0 0 0 0 q J 8.N.D.K.K.K.K.K.K.K.K.K.K.",
"K.K.K.K.K.K.K.K.D.:.; 9 9 9 9 q J 9.V.D.K.K.K.K.K.K.K.K.K.K.K.K.",
"K.K.K.K.K.K.K.K.K.v.u - - q E 9.C.D.K.K.K.K.K.K.K.K.K.K.K.K.K.K.",
"K.K.K.K.K.K.K.K.K.D.%.: E y.C.D.K.K.K.K.K.K.K.K.K.K.K.K.K.K.K.K.",
"K.K.K.K.K.K.K.K.K.K.N.z.C.D.K.K.K.K.K.K.K.K.K.K.K.K.K.K.K.K.K.K.",
"K.K.K.K.K.K.K.K.K.K.K.D.K.K.K.K.K.K.K.K.K.K.K.K.K.K.K.K.K.K.K.K."
};
