<?xml version="1.0" standalone="no"?>
<!DOCTYPE svg PUBLIC "-//W3C//DTD SVG 20010904//EN" "http://www.w3.org/TR/2001/REC-SVG-20010904/DTD/svg10.dtd">
<!-- Created using Karbon, part of Calligra: http://www.calligra.org/karbon -->
<svg xmlns="http://www.w3.org/2000/svg" xmlns:xlink="http://www.w3.org/1999/xlink" width="800pt" height="800pt">
<defs>
  <radialGradient id="gradient0" gradientTransform="matrix(0.747483 0 0 1.19167 -7.61633 -0.853635)" gradientUnits="objectBoundingBox" cx="1.57960837761" cy="0.45752317155" fx="1.57960837761" fy="0.45752317155" r="0.40364665460" spreadMethod="pad">
   <stop stop-color="#ffffff" offset="0.00000000000" stop-opacity="0.63309681849"/>
   <stop stop-color="#ffffff" offset="0.50000000000" stop-opacity="0.16546883345"/>
   <stop stop-color="#ffffff" offset="0.75000000000" stop-opacity="0.12950331884"/>
   <stop stop-color="#ffffff" offset="1.00000000000" stop-opacity="0.33812466621"/>
  </radialGradient>
 </defs>
<g id="g4183">
  <g id="g10105" transform="" fill="none">
   <g id="g10130" transform="" fill="none">
    <g id="g31" transform="" fill="none"/>
   </g>
  </g>
 </g><g id="layer1">
  <g id="g4984" transform="translate(31, -252.072)" fill="none">
   <path id="path7589" transform="matrix(42.4559 0 0 63.8595 -4.44089e-15 251.208)" fill="#4d5454" d="M10.6724 0.00239347C10.64 0.00802359 10.6083 0.0150672 10.5773 0.0234783C10.355 0.0594444 10.1688 0.160124 10.0703 0.2976C9.99932 0.399941 10.0473 0.509706 10.0069 0.613894C9.80404 1.13847 9.86349 1.68571 10.0069 2.21645L7.21851 3.08099L7.15513 3.08099C7.11101 3.0924 7.06857 3.10651 7.02838 3.12316L1.0079 4.93658C0.148241 5.19636 -0.237974 5.90392 0.152351 6.47588L5.98272 15.0158C6.37275 15.5873 7.43674 15.8448 8.29586 15.5851L21.129 11.6842C21.9879 11.4246 22.3747 10.7588 21.9846 10.1871L16.1542 1.62603C15.8617 1.1974 15.2165 0.938932 14.5382 0.951272C14.3075 0.955467 14.052 1.01405 13.841 1.07779L12.2567 1.54169C11.8952 1.08524 11.5692 0.677737 11.4962 0.424115C11.4313 0.161114 11.071 -0.0233166 10.6724 0.00238948ZM10.7358 0.508464C10.8802 1.01057 11.4534 1.66701 12.0032 2.32188L12.732 2.11102C12.7254 2.10252 12.7075 2.09857 12.7003 2.08994L14.253 1.62604C14.3494 1.59692 14.4389 1.60676 14.5382 1.60495C14.6126 1.60362 14.6892 1.61333 14.76 1.62604C14.832 1.63843 14.8858 1.64299 14.9501 1.66821C15.0865 1.71937 15.197 1.79763 15.267 1.90016L21.0973 10.4401C21.1849 10.5683 21.1977 10.698 21.129 10.8197C21.0946 10.8807 21.038 10.9397 20.9706 10.9883C20.9032 11.0369 20.8135 11.0857 20.7171 11.1149L15.6155 12.6542L12.0032 13.7506L7.88395 14.9947C7.78759 15.0239 7.698 15.0351 7.59876 15.0369C7.48479 15.0389 7.38468 15.0248 7.2819 14.9947C7.09905 14.949 6.95748 14.8699 6.86997 14.7417L1.03959 6.20176C1.03539 6.19557 1.04339 6.18689 1.03959 6.18067C0.995831 6.11655 0.978881 6.0551 0.976221 5.9909C0.973521 5.92482 0.973521 5.86201 1.00791 5.80112C1.04229 5.74272 1.09896 5.67913 1.16635 5.63243C1.23371 5.58386 1.32348 5.55612 1.41984 5.527L6.83828 3.88227L7.53539 3.67141C7.53969 3.67487 7.56242 3.66761 7.56707 3.67141L8.2325 3.46054L10.1971 2.87013L10.9259 2.65926C10.6799 1.84878 10.377 1.02546 10.7358 0.508464ZM13.8411 2.95447C13.7617 2.95594 13.6963 2.95227 13.6193 2.97556L13.4291 3.03882L12.732 3.24968C13.0851 3.73333 13.3405 4.19365 13.3024 4.55703C13.1679 5.84007 11.9326 6.89415 11.5279 7.90975C11.1426 8.87683 12.1252 9.84416 13.3658 9.40687C14.3426 9.06255 13.3027 7.60764 14.0312 6.45479C14.6637 5.45385 14.8704 5.29531 15.6472 4.93658L15.3303 4.49377L14.4114 3.18642C14.3852 3.14795 14.3563 3.11094 14.3164 3.08099C14.3064 3.0735 14.2954 3.06683 14.2847 3.05991C14.2553 3.04406 14.2229 3.02987 14.1896 3.01774C14.082 2.97844 13.9601 2.95231 13.8411 2.95447ZM11.1477 3.71358L10.3872 3.94553C10.3872 3.95159 10.3872 3.96062 10.3872 3.96661L9.11973 4.34616L8.42262 4.55703C8.65734 4.86416 8.84119 5.19916 8.83455 5.50591C8.80231 6.99516 10.0166 6.76238 11.0843 4.4516C11.1826 4.23896 11.1718 3.97821 11.1477 3.71358ZM14.0312 4.19856L14.5382 4.9155C14.1213 5.19602 13.7893 5.52222 13.3658 6.18067C13.67 5.69124 13.9995 5.18308 14.0629 4.57812C14.0764 4.44941 14.0535 4.32428 14.0312 4.19856ZM7.979 4.68355L7.2819 4.89441C7.28237 4.90184 7.28157 4.90809 7.2819 4.91549L3.35273 6.09633C3.27565 6.11962 3.21771 6.14489 3.16261 6.18067C3.1087 6.21948 3.06337 6.25854 3.03586 6.30719C2.98762 6.39251 2.98918 6.48977 3.03586 6.58131C3.03986 6.58808 3.03126 6.59562 3.03586 6.60239C3.03966 6.60879 3.03156 6.61717 3.03586 6.62348L4.96876 9.42795L4.96876 9.44904L5.85599 10.7564C5.77359 10.5507 5.72702 10.3325 5.69755 10.1027C5.53567 8.84008 6.50763 8.14078 7.15515 7.23498C7.95812 6.11171 8.0662 5.2833 7.979 4.68354ZM10.102 4.76789C9.93433 5.06655 9.74399 5.33747 9.59503 5.527C9.59943 5.32328 9.54433 5.11955 9.46828 4.93658ZM15.7423 5.08419C15.1591 5.87001 14.8178 6.98072 15.1719 7.50911C15.5766 8.11298 17.0132 8.65831 16.8513 10.2503C16.8154 10.6031 16.6434 10.9607 16.376 11.2836L18.7842 10.5455C18.8613 10.5222 18.9204 10.5 18.9743 10.4612C19.0282 10.4224 19.0736 10.3833 19.1011 10.3347C19.1561 10.2374 19.1711 10.121 19.1011 10.0184ZM7.18684 5.65352C7.07661 6.03987 6.84256 6.48622 6.45804 7.02412C6.14526 7.46167 5.68877 7.91394 5.349 8.45799L4.08153 6.58131ZM13.239 6.53914C12.9732 7.1639 12.9738 7.79971 13.0172 8.26821C13.0424 8.54083 13.0464 8.75944 13.0172 8.87972C12.988 8.99999 13.0138 8.96525 13.0172 8.96406C12.8484 9.02355 12.7742 9.01901 12.7003 9.00624C12.6265 8.99346 12.5419 8.94112 12.4468 8.85863C12.2568 8.69367 12.1224 8.35229 12.2567 8.01518C12.4263 7.58954 12.8497 7.10859 13.239 6.53914ZM15.8056 6.77109L16.6295 7.99409C16.2695 7.65426 15.9179 7.41854 15.8373 7.29825C15.7954 7.23572 15.7835 7.02885 15.8056 6.77109ZM17.5167 9.30144L18.0237 10.0605L17.6118 10.1871C17.6312 9.85917 17.6034 9.56907 17.5167 9.30144ZM6.5531 11.7685L7.34527 12.9494C7.3572 12.955 7.36497 12.9648 7.37695 12.9705L7.69382 13.4554C7.76383 13.558 7.89616 13.6297 8.04237 13.6663C8.18859 13.7029 8.36351 13.7129 8.51768 13.6663L8.96129 13.5398L10.0703 13.2024C8.65291 13.0336 7.36607 12.5641 6.55309 11.7685Z"/>
   <path id="path3222" transform="matrix(42.4559 0 0 63.8595 41.2116 353.687)" fill="#ffffff" d="M13.5675 0.000193859C13.4682 0.001992 13.3786 0.013247 13.2823 0.0423636L11.0325 0.717124C11.2959 1.03078 11.5395 1.34107 11.7613 1.64492L12.6486 1.3708C12.7256 1.3475 12.791 1.33007 12.8704 1.32863C13.1085 1.3243 13.3357 1.42778 13.4407 1.58166L14.6448 3.33183C14.768 3.27478 14.8668 3.23596 15.0251 3.16314C14.9294 3.26404 14.8586 3.3819 14.7716 3.50052L18.1304 8.41362C18.2704 8.6188 18.1218 8.84759 17.8135 8.94078L15.437 9.65771C14.5093 10.8041 12.3031 11.682 10.2087 11.682C9.81956 11.682 9.44581 11.644 9.06795 11.5976L7.54698 12.0615C7.23865 12.1547 6.86315 12.0559 6.72313 11.8507L5.5824 10.1638C5.5645 10.1463 5.56815 10.1183 5.55072 10.1005C5.27984 9.82371 5.02754 9.51992 4.8853 9.17272L2.06517 5.01873C1.92515 4.81354 2.07367 4.56366 2.38204 4.47048L7.00831 3.07879C6.92413 2.49975 6.69553 2.19219 6.5647 2.06665L0.449143 3.92224C0.0637223 4.03871 -0.106129 4.34052 0.0689023 4.597L5.89927 13.1369C6.0743 13.3934 6.52783 13.5065 6.91325 13.39L19.7464 9.5101C20.1318 9.39363 20.3017 9.09182 20.1266 8.83534L14.2963 0.295401C14.165 0.103044 13.8652 -0.00522121 13.5675 0.000193859ZM9.95518 1.05451L6.59638 2.06665C6.76944 2.2073 7.1252 2.52475 7.45192 2.95227L10.177 2.10882C10.1468 1.77735 10.0653 1.41738 9.95518 1.05451Z"/>
   <path id="path3265" transform="matrix(42.4559 0 0 63.8595 240.72 284.171)" fill="#e70000" d="M1.75812 3.0468C1.75812 3.0468 3.27851 4.20177 1.47483 6.72491C0.827316 7.63071 -0.143965 8.31693 0.0179158 9.57956C0.285196 11.6643 2.85081 12.7636 5.52183 12.7636C8.19285 12.7636 11.0257 11.3363 11.1876 9.74425C11.3495 8.15224 9.89258 7.60326 9.48788 6.99939C9.08319 6.39552 9.60929 5.02309 10.3378 4.25453C9.20459 4.77606 9.08319 4.77606 8.35473 5.9289C7.62627 7.08174 8.68407 8.54903 7.70721 8.89335C6.4666 9.33063 5.46022 8.35076 5.84559 7.38367C6.25029 6.36808 7.49178 5.31799 7.62627 4.03494C7.73825 2.96664 5.40042 1.12539 5.07666 0C4.42914 0.933252 5.89662 2.85126 5.40042 3.92515C4.3327 6.23593 3.14234 6.48489 3.17457 4.99565C3.19305 4.14208 1.75812 3.0468 1.75812 3.0468Z"/>
   <path id="path7286" transform="matrix(42.4559 0 0 63.8595 240.092 283.441)" fill="url(#gradient0)" d="M5.10684 0C4.45932 0.933252 5.91253 2.862 5.41632 3.9359C4.3486 6.24668 3.14894 6.50065 3.18117 5.0114C3.19965 4.15784 1.77131 3.06634 1.77131 3.06634C1.77131 3.06634 3.29989 4.2045 1.49621 6.72764C0.848694 7.63344 -0.144307 8.32539 0.0175737 9.58803C0.284855 11.6727 2.84847 12.7688 5.51949 12.7688C8.1905 12.7688 11.0315 11.3402 11.1933 9.74821C11.3552 8.15619 9.91307 7.6061 9.50837 7.00223C9.10367 6.39836 9.63958 5.02482 10.368 4.25626C9.23488 4.77778 9.10206 4.79677 8.3736 5.94961C7.64514 7.10245 8.69711 8.55721 7.72025 8.90153C6.47964 9.33881 5.47799 8.35833 5.86335 7.39125C6.26805 6.37565 7.51699 5.33336 7.65148 4.05031C7.76345 2.982 5.4306 1.12539 5.10684 0ZM6.48232 3.9359C6.48299 3.94386 6.55174 3.97551 6.55109 3.98166C6.54629 4.02774 6.49139 4.07301 6.48232 4.11896C6.51265 4.05015 6.46135 4.0041 6.48232 3.9359ZM6.41354 4.25626C6.16583 5.16501 5.25375 6.06284 4.79735 7.20818C4.52024 7.9036 4.71091 8.5847 5.31316 9.10748C5.61428 9.36887 6.0493 9.60964 6.58547 9.70244C7.12165 9.79524 7.7213 9.72369 8.23605 9.54226C8.83852 9.3299 9.15424 8.90629 9.23327 8.58117C9.28042 8.3872 9.24117 8.22878 9.23327 8.05486C9.74 8.48105 10.2147 8.84341 10.1273 9.70244C10.0741 10.2261 9.52798 10.8442 8.64869 11.3043C7.7694 11.7643 6.56045 12.0365 5.51948 12.0365C3.30217 12.0365 1.33731 11.2303 1.11795 9.51938C0.990634 8.52632 1.72076 8.08077 2.45904 7.048C2.63758 6.79824 2.67795 6.61505 2.80291 6.38439C2.95137 6.47917 3.05352 6.58962 3.28433 6.6361C3.71942 6.72373 4.17057 6.65384 4.45348 6.54457C5.01931 6.32603 5.27955 6.01331 5.58825 5.62925C5.8779 5.26888 6.14746 4.81502 6.41354 4.25626Z"/>
  </g>
 </g>
</svg>
