<?xml version="1.0" standalone="no"?>
<!DOCTYPE svg PUBLIC "-//W3C//DTD SVG 20010904//EN" "http://www.w3.org/TR/2001/REC-SVG-20010904/DTD/svg10.dtd">
<!-- Created using Karbon, part of Calligra: http://www.calligra.org/karbon -->
<svg xmlns="http://www.w3.org/2000/svg" xmlns:xlink="http://www.w3.org/1999/xlink" width="800pt" height="800pt">
<defs/>
<g id="g4183">
  <g id="g10105" transform="" fill="none">
   <g id="g10130" transform="" fill="none">
    <g id="g31" transform="" fill="none"/>
   </g>
  </g>
 </g><g id="layer1">
  <g id="g4992" transform="translate(31, -160.54)" fill="none">
   <g id="g4953" transform="translate(1.02585e-12, -3.73035e-12)" fill="none">
    <path id="path7595" transform="matrix(42.4559 0 0 63.8595 1.37668e-13 157.695)" fill="#4d5454" d="M14.5205 0.000433598C14.2901 0.00489977 14.0656 0.0612842 13.8548 0.129132L1.02584 4.24748C0.1669 4.524 -0.241618 5.26886 0.148382 5.87766L5.98799 14.9723C6.3777 15.5807 7.42913 15.8493 8.28753 15.5729L21.1165 11.4331C21.9747 11.1569 22.3536 10.433 21.9637 9.82441L16.1544 0.729725C15.8621 0.273476 15.1983 -0.0127 14.5205 0.000433598ZM14.5507 0.686825C14.8482 0.681062 15.1458 0.803822 15.2769 1.00857L21.0863 10.1033C21.2612 10.3763 21.1083 10.6871 20.7232 10.8111L7.89419 14.9509C7.50909 15.0749 7.04034 14.9451 6.86545 14.6721L1.05609 5.57736C0.88121 5.30437 1.03407 4.9935 1.41918 4.86952L14.2482 0.729725C14.3444 0.698731 14.4516 0.688746 14.5507 0.686825ZM13.8548 2.12396C13.7755 2.12549 13.6898 2.14206 13.6128 2.16686L3.35563 5.47012C3.04755 5.5693 2.91315 5.80941 3.05306 6.02781L7.71265 13.3207C7.85255 13.5391 8.22151 13.6344 8.52959 13.5352L18.7867 10.232C19.0948 10.1328 19.2292 9.87122 19.0893 9.65281L14.4297 2.38135C14.3248 2.21755 14.0928 2.11935 13.8548 2.12396ZM13.6733 2.89615L18.0303 9.69571L8.43882 12.8059L4.0818 5.98491Z"/>
   </g>
   <path id="path7597" transform="matrix(42.4559 0 0 63.8595 41.5474 201.798)" fill="#ffffff" d="M13.5696 0.000200458C13.4705 0.00211453 13.3702 0.0183764 13.2739 0.0493709L0.448495 4.17791C0.0633941 4.30189 -0.105981 4.62191 0.0689031 4.89491L5.8933 13.9865C6.06818 14.2595 6.51897 14.3796 6.90407 14.2556L19.7295 10.1267C20.1146 10.0027 20.2839 9.68311 20.1091 9.41011L14.2847 0.318021C14.1535 0.113272 13.8671 -0.00556346 13.5696 0.000200458ZM12.8735 1.43062C13.1115 1.42601 13.3405 1.52116 13.4454 1.68496L18.1052 8.95863C18.2451 9.17703 18.1093 9.43251 17.8012 9.53169L7.54093 12.8351C7.23285 12.9342 6.87247 12.838 6.73256 12.6196L2.07279 5.34594C1.93289 5.12753 2.06869 4.87206 2.37672 4.77288L12.637 1.46951C12.7141 1.44471 12.7942 1.43215 12.8735 1.43062Z"/>
  </g>
 </g>
</svg>
