<?xml version="1.0" standalone="no"?>
<!DOCTYPE svg PUBLIC "-//W3C//DTD SVG 20010904//EN" "http://www.w3.org/TR/2001/REC-SVG-20010904/DTD/svg10.dtd">
<!-- Created using Karbon, part of Calligra: http://www.calligra.org/karbon -->
<svg xmlns="http://www.w3.org/2000/svg" xmlns:xlink="http://www.w3.org/1999/xlink" width="800pt" height="800pt">
<defs>
  <radialGradient id="gradient0" gradientTransform="matrix(0.746901 0 0 1.19167 -7.6104 -0.853635)" gradientUnits="objectBoundingBox" cx="1.58083943308" cy="0.45752316964" fx="1.58083943308" fy="0.45752316964" r="0.40372668214" spreadMethod="pad">
   <stop stop-color="#e7e7e7" offset="0.00000000000" stop-opacity="1.00000000000"/>
   <stop stop-color="#858585" offset="1.00000000000" stop-opacity="1.00000000000"/>
  </radialGradient>
 </defs>
<g id="g4183">
  <g id="g10105" transform="" fill="none">
   <g id="g10130" transform="" fill="none">
    <g id="g31" transform="" fill="none"/>
   </g>
  </g>
 </g><g id="layer1">
  <g id="g4948" transform="translate(31, -252.072)" fill="none">
   <path id="path7702" transform="matrix(42.4559 0 0 63.8595 3.55271e-14 253.492)" fill="#4d5454" d="M10.6641 0.00237855C10.6317 0.00798332 10.6 0.0149952 10.5691 0.0233686C10.3469 0.0591708 10.1608 0.159391 10.0625 0.29624C9.99152 0.398115 10.0394 0.507379 9.99914 0.611092C9.79639 1.13327 9.8558 1.67803 9.99914 2.20634L7.21288 3.06694L7.14955 3.06694C7.10546 3.07829 7.06306 3.09235 7.0229 3.10892L1.00711 4.91407C0.148126 5.17267 -0.237788 5.877 0.152233 6.44635L5.97806 14.9474C6.36779 15.5163 7.43095 15.7725 8.2894 15.5141L21.1126 11.6309C21.9707 11.3725 22.3573 10.7097 21.9674 10.1406L16.1416 1.61862C15.8493 1.19194 15.2047 0.934652 14.5268 0.946934C14.2964 0.951114 14.041 1.00942 13.8303 1.07288L12.2472 1.53466C11.886 1.08029 11.5602 0.674647 11.4873 0.422181C11.4224 0.16038 11.0624 -0.0232102 10.6641 0.00237855ZM10.7274 0.506142C10.8717 1.00596 11.4445 1.6594 11.9939 2.31129L12.7221 2.10139C12.7155 2.09293 12.6976 2.089 12.6904 2.0804L14.2419 1.61862C14.3382 1.58963 14.4277 1.59943 14.5268 1.59763C14.6012 1.59628 14.6777 1.60597 14.7485 1.61862C14.8204 1.63096 14.8742 1.6355 14.9385 1.6606C15.0748 1.71153 15.1852 1.78943 15.2551 1.89149L21.0809 10.3925C21.1684 10.5201 21.1812 10.6492 21.1126 10.7703C21.0782 10.8311 21.0216 10.8898 20.9543 10.9382C20.887 10.9865 20.7972 11.0352 20.701 11.0642L15.6034 12.5965L11.9939 13.6879L7.87779 14.9264C7.78151 14.9554 7.69199 14.9666 7.59284 14.9683C7.47894 14.9703 7.37892 14.9563 7.27621 14.9264C7.09351 14.8809 6.95205 14.8021 6.86461 14.6745L1.03877 6.17348C1.03457 6.16734 1.04256 6.15867 1.03877 6.15249C0.995047 6.08866 0.978116 6.02749 0.975446 5.96358C0.972766 5.8978 0.972826 5.83528 1.00711 5.77466C1.04146 5.71653 1.09808 5.65323 1.16542 5.60674C1.23272 5.55839 1.32243 5.53078 1.41871 5.50179L6.83293 3.86456L7.5295 3.65466C7.5338 3.6581 7.55651 3.6509 7.56116 3.65466L8.22607 3.44476L10.1891 2.85704L10.9174 2.64714C10.6715 1.84034 10.369 1.02078 10.7274 0.506142ZM13.8303 2.941C13.7509 2.94244 13.6857 2.9388 13.6086 2.96199L13.4187 3.02496L12.7221 3.23486C13.0749 3.7163 13.3301 4.17452 13.292 4.53625C13.1576 5.81344 11.9233 6.86271 11.5189 7.87368C11.1339 8.83635 12.1157 9.79926 13.3553 9.36398C14.3314 9.02123 13.2923 7.57294 14.0202 6.42536C14.6522 5.42898 14.8588 5.27116 15.635 4.91407L15.3184 4.47328L14.4002 3.17189C14.3739 3.13359 14.3451 3.09675 14.3052 3.06694C14.2952 3.05948 14.2842 3.05284 14.2735 3.04595C14.2441 3.03017 14.2118 3.01605 14.1785 3.00397C14.071 2.96485 13.9492 2.93884 13.8303 2.941ZM11.139 3.69664L10.3791 3.92753C10.3791 3.93358 10.3791 3.94256 10.3791 3.94852L9.11261 4.32635L8.41605 4.53625C8.65058 4.84198 8.83429 5.17545 8.82765 5.4808C8.79544 6.96326 10.0088 6.73154 11.0757 4.4313C11.1738 4.21963 11.163 3.96007 11.139 3.69664ZM14.0202 4.17941L14.5268 4.89308C14.1103 5.17232 13.7785 5.49704 13.3553 6.15249C13.6593 5.66529 13.9885 5.15944 14.0519 4.55724C14.0654 4.42912 14.0425 4.30456 14.0202 4.17941ZM7.97278 4.66219L7.27621 4.87209C7.27668 4.87948 7.27588 4.8857 7.27621 4.89308L3.35011 6.06853C3.27308 6.09171 3.21519 6.11687 3.16013 6.15249C3.10626 6.19112 3.06097 6.23 3.03349 6.27843C2.98529 6.36336 2.98684 6.46017 3.03349 6.5513C3.03748 6.55804 3.02888 6.56554 3.03349 6.57229C3.03728 6.57863 3.02915 6.58699 3.03349 6.59328L4.96488 9.38496L4.96488 9.40595L5.85141 10.7073C5.76908 10.5026 5.72255 10.2854 5.6931 10.0566C5.53135 8.79977 6.50255 8.10366 7.14956 7.20199C7.95191 6.08384 8.0599 5.25921 7.97278 4.66218ZM10.0941 4.74615C9.92658 5.04344 9.73638 5.31313 9.58754 5.50179C9.59194 5.299 9.53689 5.09621 9.4609 4.91407ZM15.73 5.061C15.1473 5.84324 14.8062 6.94889 15.1601 7.47487C15.5645 8.07598 16.9999 8.61882 16.8382 10.2036C16.8023 10.5548 16.6304 10.9107 16.3632 11.2321L18.7696 10.4974C18.8466 10.4743 18.9057 10.4521 18.9595 10.4135C19.0134 10.3748 19.0587 10.336 19.0862 10.2875C19.1411 10.1907 19.1561 10.0748 19.0862 9.97269ZM7.18122 5.62773C7.07108 6.01232 6.83722 6.45664 6.45299 6.99209C6.14046 7.42764 5.68432 7.87785 5.34482 8.41942L4.07834 6.5513ZM13.2287 6.50932C12.9631 7.13123 12.9637 7.76414 13.0071 8.23051C13.0323 8.50188 13.0363 8.71949 13.0071 8.83922C12.9778 8.95895 13.0037 8.92437 13.0071 8.92318C12.8384 8.9824 12.7642 8.97788 12.6904 8.96517C12.6166 8.95245 12.5321 8.90035 12.4371 8.81824C12.2472 8.65402 12.1129 8.31421 12.2472 7.97863C12.4166 7.55493 12.8397 7.07617 13.2287 6.50932ZM15.7933 6.74021L16.6165 7.95764C16.2568 7.61936 15.9055 7.38471 15.825 7.26496C15.7831 7.20272 15.7712 6.9968 15.7933 6.74021ZM17.5031 9.25903L18.0097 10.0147L17.5981 10.1406C17.6174 9.81421 17.5897 9.52543 17.5031 9.25903ZM6.54798 11.7149L7.33953 12.8903C7.35145 12.896 7.35921 12.9057 7.37119 12.9113L7.68782 13.3941C7.75778 13.4962 7.89 13.5675 8.0361 13.604C8.1822 13.6404 8.35699 13.6504 8.51103 13.604L8.9543 13.478L10.0625 13.1422C8.64616 12.9742 7.36032 12.5068 6.54798 11.7149Z"/>
   <path id="path7704" transform="matrix(62.5 0 0 94.0087 41.2179 286.104)" fill="#ffffff" d="M6.64198 0C6.39797 0.350353 6.56851 0.900966 6.73573 1.45018L4.48573 2.13384C4.56358 2.19688 4.68453 2.33112 4.82948 2.48603C4.65551 2.30645 4.55582 2.23126 4.48573 2.17528C4.4796 2.17038 4.4903 2.13744 4.48573 2.13384C4.4841 2.13256 4.4559 2.13496 4.45448 2.13384L0.298229 3.39757C0.0366185 3.47633 -0.0705754 3.67992 0.0482289 3.85335L4.01698 9.61265C4.13578 9.78608 4.44287 9.87786 4.70448 9.7991L13.392 7.16805C13.6536 7.0893 13.792 6.88571 13.6732 6.71228L9.70448 0.932261C9.61538 0.80219 9.40655 0.742147 9.20448 0.745809C9.13712 0.747022 9.08238 0.746837 9.01698 0.766526L7.48573 1.2223C7.11344 0.780578 6.73979 0.338701 6.64198 0ZM8.73573 1.63664C8.89738 1.63371 9.03945 1.69831 9.11073 1.80237L9.95448 2.98324C9.4257 3.22643 9.29052 3.34148 8.86073 4.01908C8.36628 4.79863 9.08629 5.77508 8.42323 6.00791C7.58115 6.30359 6.8804 5.64671 7.14198 4.99278C7.41667 4.30603 8.26945 3.60222 8.36073 2.73463C8.38664 2.4884 8.22623 2.17163 7.98573 1.84381L8.57948 1.65735C8.6318 1.6416 8.68184 1.63761 8.73573 1.63664ZM6.82948 1.74022C6.86605 1.87993 6.87896 2.02435 6.89198 2.15456C6.91043 2.33899 6.9292 2.50413 6.86073 2.65177C6.136 4.21431 5.3076 4.38388 5.32948 3.37686C5.33403 3.16748 5.20973 2.94387 5.04823 2.73463L6.89198 2.15456C6.87997 2.02298 6.8624 1.88158 6.82948 1.74022ZM4.76698 2.8175C4.82617 3.22306 4.74951 3.79817 4.20448 4.55772C3.76497 5.17022 3.0946 5.63061 3.20448 6.4844C3.22424 6.63798 3.24335 6.78178 3.29823 6.91945L1.39198 4.12267C1.29694 3.98392 1.40144 3.83349 1.61073 3.77048ZM10.017 3.12825L12.2982 6.42225C12.3933 6.56099 12.2888 6.71142 12.0795 6.77443L10.4857 7.27164C10.4609 7.30226 10.4195 7.32448 10.392 7.35451C10.616 7.11264 10.7708 6.85711 10.7982 6.58798C10.9081 5.51146 9.91668 5.15251 9.64198 4.74417C9.40474 4.39152 9.63024 3.65836 10.017 3.12825ZM3.79823 7.60311C4.34282 8.13404 5.1947 8.45851 6.14198 8.5768L5.11073 8.88756C4.90144 8.95056 4.64327 8.88133 4.54823 8.74254ZM9.98573 7.70669C9.83328 7.81733 9.66953 7.92241 9.48573 8.01745C9.666 7.92348 9.83583 7.81581 9.98573 7.70669Z"/>
   <path id="path7708" transform="matrix(42.4559 0 0 63.8595 239.904 285.577)" fill="url(#gradient0)" opacity="0.32300882000" d="M5.10286 0C4.45585 0.928997 5.90792 2.84895 5.41211 3.91795C4.34522 6.2182 3.14648 6.47101 3.1787 4.98855C3.19716 4.13888 1.76993 3.05236 1.76993 3.05236C1.76993 3.05236 3.29732 4.18533 1.49505 6.69696C0.848032 7.59863 -0.144195 8.28743 0.01756 9.54431C0.284632 11.6195 2.84625 12.7106 5.51519 12.7106C8.18412 12.7106 11.0229 11.2885 11.1846 9.70376C11.3464 8.119 9.90535 7.57142 9.50097 6.9703C9.09658 6.36919 9.63208 5.00191 10.36 4.23685C9.22769 4.756 9.09497 4.7749 8.36708 5.92248C7.63919 7.07007 8.69034 8.51819 7.71424 8.86094C6.4746 9.29623 5.47372 8.32022 5.85879 7.35754C6.26317 6.34658 7.51114 5.30904 7.64552 4.03184C7.75741 2.96841 5.42637 1.12026 5.10286 0ZM6.47727 3.91795C6.47795 3.92588 6.54663 3.95738 6.54599 3.96351C6.54119 4.00938 6.48634 4.05444 6.47727 4.10018C6.50757 4.03169 6.45632 3.98585 6.47727 3.91795ZM6.40855 4.23685C6.16104 5.14146 5.24967 6.0352 4.79362 7.17531C4.51673 7.86756 4.70725 8.54556 5.30903 9.06595C5.60991 9.32615 6.0446 9.56583 6.58035 9.6582C7.11611 9.75057 7.7153 9.67935 8.22964 9.49875C8.83164 9.28736 9.14712 8.86568 9.22608 8.54204C9.27319 8.34895 9.23398 8.19126 9.22608 8.01813C9.73242 8.44237 10.2067 8.80308 10.1194 9.6582C10.0662 10.1795 9.52057 10.7948 8.64196 11.2527C7.76336 11.7107 6.55534 11.9816 5.51519 11.9816C3.29961 11.9816 1.33628 11.1791 1.11709 9.47597C0.989867 8.48745 1.71943 8.04392 2.45713 7.01586C2.63553 6.76724 2.67587 6.58489 2.80073 6.35528C2.94908 6.44963 3.05115 6.55957 3.28178 6.60584C3.71653 6.69307 4.16733 6.6235 4.45002 6.51473C5.0154 6.29719 5.27545 5.98589 5.58391 5.60358C5.87333 5.24485 6.14268 4.79306 6.40855 4.23685Z"/>
  </g>
 </g>
</svg>
