<?xml version="1.0" encoding="utf8" standalone="no"?>
<svg height="16" id="Layer_1" inkscape:export-filename="D:\Hobby\QutIM\Images\q_outmsgok2.png" inkscape:export-xdpi="90" inkscape:export-ydpi="90" inkscape:version="0.48.2 r9819" sodipodi:docname="wink.svg" style="enable-background:new 0 0 595.28 841.89" version="1.1" viewBox="0 0 15.999999 16" width="16" xml:space="preserve" xmlns="http://www.w3.org/2000/svg" xmlns:cc="http://creativecommons.org/ns#" xmlns:dc="http://purl.org/dc/elements/1.1/" xmlns:inkscape="http://www.inkscape.org/namespaces/inkscape" xmlns:rdf="http://www.w3.org/1999/02/22-rdf-syntax-ns#" xmlns:sodipodi="http://sodipodi.sourceforge.net/DTD/sodipodi-0.dtd" xmlns:svg="http://www.w3.org/2000/svg" xmlns:xlink="http://www.w3.org/1999/xlink"><defs id="defs31"><linearGradient gradientTransform="matrix(.93586,0,0,-1.02987,-286.87581,-378.31196)" gradientUnits="userSpaceOnUse" id="linearGradient3988" x1="308.14651" x2="311.9473" y1="-377.9277" y2="-377.9277">
	<stop id="stop3990" offset="0" style="stop-color:#707070"></stop>
	
	<stop id="stop3992" offset="1" style="stop-opacity:0;stop-color:#707070"></stop>
</linearGradient><linearGradient gradientTransform="matrix(.93586,0,0,-1.02987,-286.87581,-378.31196)" gradientUnits="userSpaceOnUse" id="linearGradient3982" x1="315.7207" x2="319.02151" y1="-379.52151" y2="-379.52151">
	<stop id="stop3984" offset="0" style="stop-color:#707070"></stop>
	
	<stop id="stop3986" offset="1" style="stop-opacity:0;stop-color:#707070"></stop>
</linearGradient><linearGradient gradientTransform="matrix(1.01578,0,0,-1.07412,-366.00904,-394.95776)" gradientUnits="userSpaceOnUse" id="linearGradient4997" inkscape:collect="always" x1="315.7207" x2="319.02151" xlink:href="#linearGradient3982" y1="-379.52151" y2="-379.52151"></linearGradient><linearGradient gradientTransform="matrix(1.01578,0,0,-1.07412,-366.00904,-394.95776)" gradientUnits="userSpaceOnUse" id="linearGradient5000" inkscape:collect="always" x1="308.14651" x2="311.9473" xlink:href="#linearGradient3988" y1="-377.9277" y2="-377.9277"></linearGradient><radialGradient cx="25.706499" cy="-306.87061" gradientTransform="matrix(.28038,-2.47538,-1.47033,-.10639,-451.57769,42.62509)" gradientUnits="userSpaceOnUse" id="radialGradient3976" r="4.7227998">
	<stop id="stop3978" offset="0" style="stop-color:#707070"></stop>
	
	<stop id="stop3980" offset="1" style="stop-opacity:0;stop-color:#707070"></stop>
</radialGradient><radialGradient cx="25.706499" cy="-306.87061" gradientTransform="matrix(.30433,-2.58175,-1.59589,-.11096,-544.77625,44.06675)" gradientUnits="userSpaceOnUse" id="radialGradient5003" inkscape:collect="always" r="4.7227998" xlink:href="#radialGradient3976"></radialGradient></defs><sodipodi:namedview id="namedview29" inkscape:current-layer="Layer_1" inkscape:cx="-4.9763597" inkscape:cy="45.408726" inkscape:pageopacity="0" inkscape:pageshadow="2" inkscape:window-height="848" inkscape:window-maximized="1" inkscape:window-width="1440" inkscape:window-x="-8" inkscape:window-y="-8" inkscape:zoom="5.6568543"><inkscape:grid id="grid3010" type="xygrid"></inkscape:grid></sodipodi:namedview>








<g id="g5422" transform="translate(54)"><g id="g5312" transform="matrix(1,0,0,1.00018,-245.625,-2.84712)"><rect height="11.997853" id="rect5314" inkscape:export-filename="D:\Hobby\QutIM\Images\th3.png" inkscape:export-xdpi="90" inkscape:export-ydpi="90" rx="0.99982113" style="opacity:0.07999998" width="15" x="192.625" y="6.8458977"></rect><rect height="11.747898" id="rect5316" inkscape:export-filename="D:\Hobby\QutIM\Images\th3.png" inkscape:export-xdpi="90" inkscape:export-ydpi="90" rx="1.0215564" style="opacity:0.15" width="14.75" x="192.625" y="6.8458977"></rect><rect height="11.497943" id="rect5318" inkscape:export-filename="D:\Hobby\QutIM\Images\th3.png" inkscape:export-xdpi="90" inkscape:export-ydpi="90" rx="0.99982113" style="opacity:0.15" width="14.5" x="192.625" y="6.8458977"></rect><rect height="11.247988" id="rect5320" inkscape:export-filename="D:\Hobby\QutIM\Images\th3.png" inkscape:export-xdpi="90" inkscape:export-ydpi="90" rx="0.97808588" style="opacity:0.3" width="14.25" x="192.625" y="6.8458977"></rect></g><g id="g5162"><rect height="12" id="rect3801" inkscape:export-filename="D:\Hobby\QutIM\Images\th3.png" inkscape:export-xdpi="90" inkscape:export-ydpi="90" rx="1" style="fill:#e6e6e6" width="15" x="-54" y="3"></rect><path d="m -52.318413,4.000004 c -0.350445,-0.0011 -0.634863,0.215897 -0.635879,0.485501 l -0.0061,1.054784 5.116491,6.874354 c 0.216362,0.293234 0.70089,0.396348 1.081808,0.228787 l 6.751896,-2.9645649 0.01019,-1.4393183 -6.297846,2.7637052 c -0.306765,0.135337 -0.690731,0.05369 -0.865446,-0.1826 l -5.072819,-6.820648 h -0.08228 z" id="path2995" inkscape:connector-curvature="0" inkscape:export-filename="D:\Hobby\QutIM\Images\th3.png" inkscape:export-xdpi="90" inkscape:export-ydpi="90" style="fill:url(#radialGradient5003)"></path><path d="m -49.946563,9.5940095 -3.043281,1.3351285 -0.01016,1.439318 3.860987,-1.693885 -0.807546,-1.0805615 z" id="path3008" inkscape:connector-curvature="0" inkscape:export-filename="D:\Hobby\QutIM\Images\th3.png" inkscape:export-xdpi="90" inkscape:export-ydpi="90" style="opacity:0.51529996;fill:url(#linearGradient5000);enable-background:new"></path><path d="m -43.896568,11.386713 -1.409904,0.616544 1.479993,1.988191 1.873102,0.0086 -1.943191,-2.613329 0,0 z" id="path3006" inkscape:connector-curvature="0" inkscape:export-filename="D:\Hobby\QutIM\Images\th3.png" inkscape:export-xdpi="90" inkscape:export-ydpi="90" style="opacity:0.51529996;fill:url(#linearGradient4997);enable-background:new"></path><path d="m -53,3 c -0.554,0 -1,0.446 -1,1 l 0,10 c 0,0.554 0.446,1 1,1 l 13,0 c 0.554,0 1,-0.446 1,-1 l 0,-10 c 0,-0.554 -0.446,-1 -1,-1 l -13,0 z m 0.5,1 12,0 c 0.284681,0 0.5,0.215319 0.5,0.5 l 0,9 c 0,0.284681 -0.215319,0.5 -0.5,0.5 l -12,0 c -0.28468,0 -0.5,-0.215319 -0.5,-0.5 l 0,-9 C -53,4.215319 -52.78468,4 -52.5,4 z" id="rect3025" inkscape:connector-curvature="0" inkscape:export-filename="D:\Hobby\QutIM\Images\th3.png" inkscape:export-xdpi="90" inkscape:export-ydpi="90" style="fill:#707070"></path></g></g></svg>
