<?xml version="1.0" encoding="UTF-8" standalone="no"?>
<!-- Created with Inkscape (http://www.inkscape.org/) -->

<svg
   xmlns:dc="http://purl.org/dc/elements/1.1/"
   xmlns:cc="http://creativecommons.org/ns#"
   xmlns:rdf="http://www.w3.org/1999/02/22-rdf-syntax-ns#"
   xmlns:svg="http://www.w3.org/2000/svg"
   xmlns="http://www.w3.org/2000/svg"
   xmlns:xlink="http://www.w3.org/1999/xlink"
   xmlns:sodipodi="http://sodipodi.sourceforge.net/DTD/sodipodi-0.dtd"
   xmlns:inkscape="http://www.inkscape.org/namespaces/inkscape"
   inkscape:version="0.48.0 r9654"
   version="1.1"
   id="svg2"
   height="1000"
   width="1000"
   sodipodi:docname="ubu_online.svg">
  <defs
     id="defs4">
    <clipPath
       id="clipPath6769"
       clipPathUnits="userSpaceOnUse">
      <rect
         transform="matrix(0.99999794,0.00202739,-0.00202739,0.99999794,0,0)"
         ry="25.929497"
         rx="25.929497"
         y="-374.23117"
         x="-1037.426"
         height="554.61725"
         width="554.61725"
         id="rect6771"
         style="fill:#4dff43;fill-opacity:1;fill-rule:nonzero;stroke:none" />
    </clipPath>
    <clipPath
       id="clipPath6765"
       clipPathUnits="userSpaceOnUse">
      <rect
         transform="matrix(0.99999794,0.00202739,-0.00202739,0.99999794,0,0)"
         ry="25.929497"
         rx="25.929497"
         y="-374.23117"
         x="-1037.426"
         height="554.61725"
         width="554.61725"
         id="rect6767"
         style="fill:#4dff43;fill-opacity:1;fill-rule:nonzero;stroke:none" />
    </clipPath>
    <clipPath
       id="clipPath6761"
       clipPathUnits="userSpaceOnUse">
      <rect
         transform="matrix(0.99999794,0.00202739,-0.00202739,0.99999794,0,0)"
         ry="25.929497"
         rx="25.929497"
         y="-374.23117"
         x="-1037.426"
         height="554.61725"
         width="554.61725"
         id="rect6763"
         style="fill:#4dff43;fill-opacity:1;fill-rule:nonzero;stroke:none" />
    </clipPath>
    <clipPath
       id="clipPath6757"
       clipPathUnits="userSpaceOnUse">
      <rect
         transform="matrix(0.99999794,0.00202739,-0.00202739,0.99999794,0,0)"
         ry="25.929497"
         rx="25.929497"
         y="-374.23117"
         x="-1037.426"
         height="554.61725"
         width="554.61725"
         id="rect6759"
         style="fill:#4dff43;fill-opacity:1;fill-rule:nonzero;stroke:none" />
    </clipPath>
    <linearGradient
       y2="89.199226"
       x2="889.19104"
       y1="919.09467"
       x1="422.58987"
       gradientTransform="translate(-1149.1152,-807.02905)"
       gradientUnits="userSpaceOnUse"
       id="linearGradient6669"
       xlink:href="#linearGradient5469"
       inkscape:collect="always" />
    <linearGradient
       y2="89.199226"
       x2="889.19104"
       y1="919.09467"
       x1="422.58987"
       gradientTransform="translate(-1148.0069,-810.46977)"
       gradientUnits="userSpaceOnUse"
       id="linearGradient6666"
       xlink:href="#linearGradient6693"
       inkscape:collect="always" />
    <linearGradient
       y2="89.199226"
       x2="889.19104"
       y1="919.09467"
       x1="422.58987"
       gradientTransform="translate(-1144.0069,107.19689)"
       gradientUnits="userSpaceOnUse"
       id="linearGradient6663"
       xlink:href="#linearGradient5319"
       inkscape:collect="always" />
    <linearGradient
       y2="89.199226"
       x2="889.19104"
       y1="919.09467"
       x1="422.58987"
       gradientTransform="translate(-1145.1152,110.63761)"
       gradientUnits="userSpaceOnUse"
       id="linearGradient6661"
       xlink:href="#linearGradient5469"
       inkscape:collect="always" />
    <linearGradient
       y2="-139.51535"
       x2="1763.1934"
       y1="875.22601"
       x1="1658.4646"
       gradientTransform="translate(-2213.231,174.43523)"
       gradientUnits="userSpaceOnUse"
       id="linearGradient6659"
       xlink:href="#linearGradient5469"
       inkscape:collect="always" />
    <linearGradient
       y2="89.199226"
       x2="889.19104"
       y1="919.09467"
       x1="422.58987"
       gradientTransform="translate(-1144.0069,117.68236)"
       gradientUnits="userSpaceOnUse"
       id="linearGradient6657"
       xlink:href="#linearGradient5461"
       inkscape:collect="always" />
    <linearGradient
       y2="89.199226"
       x2="889.19104"
       y1="919.09467"
       x1="422.58987"
       gradientTransform="translate(-1144.0069,107.19689)"
       gradientUnits="userSpaceOnUse"
       id="linearGradient6641"
       xlink:href="#linearGradient5319"
       inkscape:collect="always" />
    <linearGradient
       y2="89.199226"
       x2="889.19104"
       y1="919.09467"
       x1="422.58987"
       gradientTransform="translate(-1145.1152,110.63761)"
       gradientUnits="userSpaceOnUse"
       id="linearGradient6639"
       xlink:href="#linearGradient5469"
       inkscape:collect="always" />
    <linearGradient
       y2="-139.51535"
       x2="1763.1934"
       y1="875.22601"
       x1="1658.4646"
       gradientTransform="translate(-2213.231,174.43523)"
       gradientUnits="userSpaceOnUse"
       id="linearGradient6637"
       xlink:href="#linearGradient5469"
       inkscape:collect="always" />
    <linearGradient
       y2="89.199226"
       x2="889.19104"
       y1="919.09467"
       x1="422.58987"
       gradientTransform="translate(-1144.0069,117.68236)"
       gradientUnits="userSpaceOnUse"
       id="linearGradient6635"
       xlink:href="#linearGradient5461"
       inkscape:collect="always" />
    <clipPath
       id="clipPath6601"
       clipPathUnits="userSpaceOnUse">
      <rect
         transform="matrix(0.99999794,0.00202739,-0.00202739,0.99999794,0,0)"
         ry="35.408802"
         rx="35.408802"
         y="340.27667"
         x="-1031.5856"
         height="757.37421"
         width="757.37421"
         id="rect6603"
         style="fill:#4dff43;fill-opacity:1;fill-rule:nonzero;stroke:none" />
    </clipPath>
    <radialGradient
       r="396.21722"
       fy="1141.4786"
       fx="1268.403"
       cy="1141.4786"
       cx="1268.403"
       gradientTransform="matrix(1.3125923,0.46522185,-0.31928716,0.90084736,-2016.0519,-795.13307)"
       gradientUnits="userSpaceOnUse"
       id="radialGradient6596"
       xlink:href="#linearGradient5341"
       inkscape:collect="always" />
    <radialGradient
       r="396.21722"
       fy="1141.4786"
       fx="1268.403"
       cy="1141.4786"
       cx="1268.403"
       gradientTransform="matrix(1.3125923,0.46522185,-0.31928716,0.90084736,-2016.0519,-795.13307)"
       gradientUnits="userSpaceOnUse"
       id="radialGradient6585"
       xlink:href="#linearGradient5341"
       inkscape:collect="always" />
    <radialGradient
       r="396.21722"
       fy="1141.4786"
       fx="1268.403"
       cy="1141.4786"
       cx="1268.403"
       gradientTransform="matrix(1.3125923,0.46522185,-0.31928716,0.90084736,-2016.0519,-795.13307)"
       gradientUnits="userSpaceOnUse"
       id="radialGradient6582"
       xlink:href="#linearGradient5341"
       inkscape:collect="always" />
    <linearGradient
       y2="89.199226"
       x2="889.19104"
       y1="919.09467"
       x1="422.58987"
       gradientTransform="translate(-1144.0069,107.19689)"
       gradientUnits="userSpaceOnUse"
       id="linearGradient6580"
       xlink:href="#linearGradient5319"
       inkscape:collect="always" />
    <linearGradient
       y2="89.199226"
       x2="889.19104"
       y1="919.09467"
       x1="422.58987"
       gradientTransform="translate(-1145.1152,110.63761)"
       gradientUnits="userSpaceOnUse"
       id="linearGradient6578"
       xlink:href="#linearGradient5469"
       inkscape:collect="always" />
    <linearGradient
       y2="-139.51535"
       x2="1763.1934"
       y1="875.22601"
       x1="1658.4646"
       gradientTransform="translate(-2213.231,174.43523)"
       gradientUnits="userSpaceOnUse"
       id="linearGradient6576"
       xlink:href="#linearGradient5469"
       inkscape:collect="always" />
    <linearGradient
       y2="89.199226"
       x2="889.19104"
       y1="919.09467"
       x1="422.58987"
       gradientTransform="translate(-1144.0069,117.68236)"
       gradientUnits="userSpaceOnUse"
       id="linearGradient6574"
       xlink:href="#linearGradient5461"
       inkscape:collect="always" />
    <radialGradient
       r="396.21722"
       fy="1141.4786"
       fx="1268.403"
       cy="1141.4786"
       cx="1268.403"
       gradientTransform="matrix(1.3125923,0.46522185,-0.31928716,0.90084736,-2016.0519,-795.13307)"
       gradientUnits="userSpaceOnUse"
       id="radialGradient6553"
       xlink:href="#linearGradient5341"
       inkscape:collect="always" />
    <radialGradient
       r="396.21722"
       fy="1141.4786"
       fx="1268.403"
       cy="1141.4786"
       cx="1268.403"
       gradientTransform="matrix(1.3627354,0.48299405,-0.33148443,0.93526114,-2199.6772,-1165.409)"
       gradientUnits="userSpaceOnUse"
       id="radialGradient6544"
       xlink:href="#linearGradient5341"
       inkscape:collect="always" />
    <linearGradient
       y2="614.99689"
       x2="1747.3324"
       y1="1384.9419"
       x1="964.13104"
       gradientTransform="matrix(1.0020162,0,0,1.0020162,-2142.7122,-594.24254)"
       gradientUnits="userSpaceOnUse"
       id="linearGradient6542"
       xlink:href="#linearGradient6469"
       inkscape:collect="always" />
    <linearGradient
       y2="608.85431"
       x2="1765.8719"
       y1="1398.2271"
       x1="953.02039"
       gradientTransform="matrix(1.0076731,0,0,1.0076731,-2150.6562,-599.6676)"
       gradientUnits="userSpaceOnUse"
       id="linearGradient6540"
       xlink:href="#linearGradient5373"
       inkscape:collect="always" />
    <linearGradient
       y2="89.199226"
       x2="889.19104"
       y1="919.09467"
       x1="422.58987"
       gradientTransform="translate(-1144.0069,107.19689)"
       gradientUnits="userSpaceOnUse"
       id="linearGradient6533"
       xlink:href="#linearGradient5319"
       inkscape:collect="always" />
    <linearGradient
       y2="89.199226"
       x2="889.19104"
       y1="919.09467"
       x1="422.58987"
       gradientTransform="translate(-1145.1152,110.63761)"
       gradientUnits="userSpaceOnUse"
       id="linearGradient6531"
       xlink:href="#linearGradient5469"
       inkscape:collect="always" />
    <linearGradient
       y2="-139.51535"
       x2="1763.1934"
       y1="875.22601"
       x1="1658.4646"
       gradientTransform="translate(-2213.231,174.43523)"
       gradientUnits="userSpaceOnUse"
       id="linearGradient6529"
       xlink:href="#linearGradient5469"
       inkscape:collect="always" />
    <linearGradient
       y2="89.199226"
       x2="889.19104"
       y1="919.09467"
       x1="422.58987"
       gradientTransform="translate(-1144.0069,117.68236)"
       gradientUnits="userSpaceOnUse"
       id="linearGradient6527"
       xlink:href="#linearGradient5461"
       inkscape:collect="always" />
    <radialGradient
       r="396.21722"
       fy="1141.4786"
       fx="1268.403"
       cy="1141.4786"
       cx="1268.403"
       gradientTransform="matrix(1.3627354,0.48299405,-0.33148443,0.93526114,-2199.6772,-1165.409)"
       gradientUnits="userSpaceOnUse"
       id="radialGradient6525"
       xlink:href="#linearGradient5341"
       inkscape:collect="always" />
    <linearGradient
       y2="614.99689"
       x2="1747.3324"
       y1="1384.9419"
       x1="964.13104"
       gradientTransform="matrix(1.0020162,0,0,1.0020162,-2142.7122,-594.24254)"
       gradientUnits="userSpaceOnUse"
       id="linearGradient6523"
       xlink:href="#linearGradient6469"
       inkscape:collect="always" />
    <linearGradient
       y2="608.85431"
       x2="1765.8719"
       y1="1398.2271"
       x1="953.02039"
       gradientTransform="matrix(1.0076731,0,0,1.0076731,-2150.6562,-599.6676)"
       gradientUnits="userSpaceOnUse"
       id="linearGradient6521"
       xlink:href="#linearGradient5373"
       inkscape:collect="always" />
    <linearGradient
       id="linearGradient3809">
      <stop
         id="stop3811"
         offset="0"
         style="stop-color:#e7e7e7;stop-opacity:1" />
      <stop
         id="stop3813"
         offset="1"
         style="stop-color:#858585;stop-opacity:1" />
    </linearGradient>
    <linearGradient
       id="linearGradient5319">
      <stop
         id="stop5321"
         offset="0"
         style="stop-color:#a7a7a7;stop-opacity:1" />
      <stop
         style="stop-color:#e1e1e1;stop-opacity:1;"
         offset="0.41666666"
         id="stop6405" />
      <stop
         id="stop5323"
         offset="1"
         style="stop-color:#ffffff;stop-opacity:1" />
    </linearGradient>
    <linearGradient
       id="linearGradient5341">
      <stop
         id="stop5343"
         offset="0"
         style="stop-color:#ffffff;stop-opacity:1;" />
      <stop
         style="stop-color:#8bddf7;stop-opacity:1;"
         offset="0.35140693"
         id="stop6267" />
      <stop
         id="stop5345"
         offset="1"
         style="stop-color:#3e78cd;stop-opacity:1;" />
    </linearGradient>
    <linearGradient
       id="linearGradient5361">
      <stop
         style="stop-color:#c1c1c1;stop-opacity:1;"
         offset="0"
         id="stop5369" />
      <stop
         id="stop5365"
         offset="1"
         style="stop-color:#d6d6d6;stop-opacity:1;" />
    </linearGradient>
    <linearGradient
       id="linearGradient5373">
      <stop
         id="stop5375"
         offset="0"
         style="stop-color:#8e8e8e;stop-opacity:1;" />
      <stop
         style="stop-color:#dfdfdf;stop-opacity:1;"
         offset="0.30555555"
         id="stop5381" />
      <stop
         id="stop5383"
         offset="0.3923611"
         style="stop-color:#6c6c6c;stop-opacity:1;" />
      <stop
         style="stop-color:#6a6a6a;stop-opacity:1;"
         offset="0.63710457"
         id="stop6483" />
      <stop
         id="stop5377"
         offset="1"
         style="stop-color:#cacaca;stop-opacity:1;" />
    </linearGradient>
    <linearGradient
       id="linearGradient5461">
      <stop
         id="stop5463"
         offset="0"
         style="stop-color:#000000;stop-opacity:1;" />
      <stop
         id="stop5465"
         offset="1"
         style="stop-color:#838383;stop-opacity:1;" />
    </linearGradient>
    <linearGradient
       id="linearGradient5469">
      <stop
         id="stop5471"
         offset="0"
         style="stop-color:#e3e3e3;stop-opacity:1;" />
      <stop
         id="stop5473"
         offset="1"
         style="stop-color:#121212;stop-opacity:1;" />
    </linearGradient>
    <marker
       style="overflow:visible"
       id="Arrow1Lstart"
       refX="0"
       refY="0"
       orient="auto"
       inkscape:stockid="Arrow1Lstart">
      <path
         inkscape:connector-curvature="0"
         transform="matrix(0.8,0,0,0.8,10,0)"
         style="fill-rule:evenodd;stroke:#000000;stroke-width:1pt;marker-start:none"
         d="M 0,0 5,-5 -12.5,0 5,5 0,0 z"
         id="path5480" />
    </marker>
    <linearGradient
       id="linearGradient6469">
      <stop
         style="stop-color:#e3e3e3;stop-opacity:1;"
         offset="0"
         id="stop6471" />
      <stop
         id="stop6481"
         offset="0.49165267"
         style="stop-color:#9ec6ed;stop-opacity:1;" />
      <stop
         id="stop6477"
         offset="0.52565688"
         style="stop-color:#24405d;stop-opacity:1;" />
      <stop
         style="stop-color:#121212;stop-opacity:1;"
         offset="1"
         id="stop6473" />
    </linearGradient>
    <linearGradient
       id="linearGradient6693">
      <stop
         style="stop-color:#e6e6e6;stop-opacity:1;"
         offset="0"
         id="stop6695" />
      <stop
         id="stop6697"
         offset="0.41666666"
         style="stop-color:#e1e1e1;stop-opacity:1;" />
      <stop
         style="stop-color:#ffffff;stop-opacity:1"
         offset="1"
         id="stop6699" />
    </linearGradient>
    <linearGradient
       id="linearGradient6701">
      <stop
         style="stop-color:#ffffff;stop-opacity:1;"
         offset="0"
         id="stop6703" />
      <stop
         id="stop6705"
         offset="0.35140693"
         style="stop-color:#3fb4da;stop-opacity:1;" />
      <stop
         style="stop-color:#3e78cd;stop-opacity:1;"
         offset="1"
         id="stop6707" />
    </linearGradient>
    <linearGradient
       y2="89.199226"
       x2="889.19104"
       y1="919.09467"
       x1="422.58987"
       gradientTransform="matrix(1.2830399,0,0,1.2830399,-78.443296,-250.31311)"
       gradientUnits="userSpaceOnUse"
       id="linearGradient7058"
       xlink:href="#linearGradient7004"
       inkscape:collect="always" />
    <linearGradient
       y2="89.199226"
       x2="889.19104"
       y1="919.09467"
       x1="422.58987"
       gradientTransform="matrix(1.2830399,0,0,1.2830399,-78.443296,-250.31311)"
       gradientUnits="userSpaceOnUse"
       id="linearGradient7055"
       xlink:href="#linearGradient7004"
       inkscape:collect="always" />
    <linearGradient
       gradientTransform="matrix(0.54769969,0,0,0.54769969,652.22229,90.830246)"
       y2="1846.9016"
       x2="1488.5695"
       y1="3096.7139"
       x1="172.49559"
       gradientUnits="userSpaceOnUse"
       id="linearGradient6992"
       xlink:href="#linearGradient5341-1"
       inkscape:collect="always" />
    <clipPath
       id="clipPath6988"
       clipPathUnits="userSpaceOnUse">
      <rect
         transform="matrix(0.94140336,-0.33728285,0.33728285,0.94140336,0,0)"
         ry="20.134249"
         rx="20.134249"
         y="1094.6482"
         x="1052.2825"
         height="430.66013"
         width="430.66013"
         id="rect6990"
         style="fill:url(#linearGradient6992);fill-opacity:1;fill-rule:nonzero;stroke:none"
         inkscape:export-filename="C:\Users\Madnester\Desktop\QutIM\qutim x16.png"
         inkscape:export-xdpi="1.3333334"
         inkscape:export-ydpi="1.3333334" />
    </clipPath>
    <linearGradient
       gradientTransform="matrix(0.54769969,0,0,0.54769969,652.22229,90.830246)"
       y2="1846.9016"
       x2="1488.5695"
       y1="3096.7139"
       x1="172.49559"
       gradientUnits="userSpaceOnUse"
       id="linearGradient6986"
       xlink:href="#linearGradient5341-1"
       inkscape:collect="always" />
    <clipPath
       id="clipPath6982"
       clipPathUnits="userSpaceOnUse">
      <rect
         transform="matrix(0.94140336,-0.33728285,0.33728285,0.94140336,0,0)"
         ry="20.134249"
         rx="20.134249"
         y="1094.6482"
         x="1052.2825"
         height="430.66013"
         width="430.66013"
         id="rect6984"
         style="fill:url(#linearGradient6986);fill-opacity:1;fill-rule:nonzero;stroke:none"
         inkscape:export-filename="C:\Users\Madnester\Desktop\QutIM\qutim x16.png"
         inkscape:export-xdpi="1.3333334"
         inkscape:export-ydpi="1.3333334" />
    </clipPath>
    <linearGradient
       gradientTransform="matrix(0.54769969,0,0,0.54769969,652.22229,90.830246)"
       y2="1846.9016"
       x2="1488.5695"
       y1="3096.7139"
       x1="172.49559"
       gradientUnits="userSpaceOnUse"
       id="linearGradient6980"
       xlink:href="#linearGradient5341-1"
       inkscape:collect="always" />
    <clipPath
       id="clipPath6976"
       clipPathUnits="userSpaceOnUse">
      <rect
         transform="matrix(0.94140336,-0.33728285,0.33728285,0.94140336,0,0)"
         ry="20.134249"
         rx="20.134249"
         y="1094.6482"
         x="1052.2825"
         height="430.66013"
         width="430.66013"
         id="rect6978"
         style="fill:url(#linearGradient6980);fill-opacity:1;fill-rule:nonzero;stroke:none"
         inkscape:export-filename="C:\Users\Madnester\Desktop\QutIM\qutim x16.png"
         inkscape:export-xdpi="1.3333334"
         inkscape:export-ydpi="1.3333334" />
    </clipPath>
    <linearGradient
       gradientTransform="matrix(0.83911723,0,0,0.83911723,505.92924,-650.67331)"
       y2="1846.9016"
       x2="1488.5695"
       y1="3096.7139"
       x1="172.49559"
       gradientUnits="userSpaceOnUse"
       id="linearGradient6974"
       xlink:href="#linearGradient5341-1"
       inkscape:collect="always" />
    <clipPath
       id="clipPath6970"
       clipPathUnits="userSpaceOnUse">
      <rect
         transform="matrix(0.94140336,-0.33728285,0.33728285,0.94140336,0,0)"
         ry="30.847187"
         rx="30.847187"
         y="887.25159"
         x="1118.8516"
         height="659.80383"
         width="659.80383"
         id="rect6972"
         style="fill:url(#linearGradient6974);fill-opacity:1;fill-rule:nonzero;stroke:none"
         inkscape:export-filename="C:\Users\Madnester\Desktop\QutIM\qutim x16.png"
         inkscape:export-xdpi="1.3333334"
         inkscape:export-ydpi="1.3333334" />
    </clipPath>
    <radialGradient
       r="396.21722"
       fy="1177.9652"
       fx="1243.1949"
       cy="1177.9652"
       cx="1243.1949"
       gradientTransform="matrix(1.6238639,0.57601242,-0.42728091,1.2045677,-527.71412,200.25572)"
       gradientUnits="userSpaceOnUse"
       id="radialGradient6966"
       xlink:href="#linearGradient5341-1"
       inkscape:collect="always" />
    <radialGradient
       r="396.21722"
       fy="1177.9652"
       fx="1243.1949"
       cy="1177.9652"
       cx="1243.1949"
       gradientTransform="matrix(1.6238638,0.5760124,-0.4272809,1.2045677,-527.71412,200.25566)"
       gradientUnits="userSpaceOnUse"
       id="radialGradient6962"
       xlink:href="#linearGradient5341-1"
       inkscape:collect="always" />
    <radialGradient
       r="396.21722"
       fy="1177.9652"
       fx="1243.1949"
       cy="1177.9652"
       cx="1243.1949"
       gradientTransform="matrix(1.6238639,0.57601242,-0.42728091,1.2045677,-527.71412,200.25572)"
       gradientUnits="userSpaceOnUse"
       id="radialGradient6958"
       xlink:href="#linearGradient5341-1"
       inkscape:collect="always" />
    <radialGradient
       r="396.21722"
       fy="1177.9652"
       fx="1243.1949"
       cy="1177.9652"
       cx="1243.1949"
       gradientTransform="matrix(1.6238639,0.57601242,-0.42728091,1.2045677,-527.71412,200.25572)"
       gradientUnits="userSpaceOnUse"
       id="radialGradient6954"
       xlink:href="#linearGradient5341-1"
       inkscape:collect="always" />
    <linearGradient
       gradientUnits="userSpaceOnUse"
       y2="1846.9016"
       x2="1488.5695"
       y1="3096.7139"
       x1="172.49559"
       id="linearGradient6950"
       xlink:href="#linearGradient5341-1"
       inkscape:collect="always" />
    <linearGradient
       y2="89.199226"
       x2="889.19104"
       y1="919.09467"
       x1="422.58987"
       gradientTransform="matrix(1.5320754,0,0,1.5320754,1139.0577,-458.09631)"
       gradientUnits="userSpaceOnUse"
       id="linearGradient6948"
       xlink:href="#linearGradient5319-7"
       inkscape:collect="always" />
    <linearGradient
       y2="608.85431"
       x2="1765.8719"
       y1="1398.2271"
       x1="953.02039"
       gradientTransform="matrix(1.0076731,0,0,1.0076731,-242.61653,1219.7462)"
       gradientUnits="userSpaceOnUse"
       id="linearGradient6936"
       xlink:href="#linearGradient7020"
       inkscape:collect="always" />
    <radialGradient
       r="396.21722"
       fy="1177.9652"
       fx="1243.1949"
       cy="1177.9652"
       cx="1243.1949"
       gradientTransform="matrix(0.88938972,0.31548182,-0.23402162,0.65974136,363.19343,200.51024)"
       gradientUnits="userSpaceOnUse"
       id="radialGradient6908"
       xlink:href="#linearGradient5341-1"
       inkscape:collect="always" />
    <clipPath
       id="clipPath6904"
       clipPathUnits="userSpaceOnUse">
      <rect
         inkscape:export-ydpi="38.117695"
         inkscape:export-xdpi="38.117695"
         inkscape:export-filename="C:\Users\Madnester\Desktop\QutIM\qutim x512.png"
         style="fill:url(#radialGradient6908);fill-opacity:1;fill-rule:nonzero;stroke:none"
         id="rect6906"
         width="513.22998"
         height="513.22998"
         x="1009.4083"
         y="1028.2593"
         rx="23.99456"
         ry="23.99456"
         transform="matrix(0.94140336,-0.33728285,0.33728285,0.94140336,0,0)" />
    </clipPath>
    <radialGradient
       r="396.21722"
       fy="1177.9652"
       fx="1243.1949"
       cy="1177.9652"
       cx="1243.1949"
       gradientTransform="matrix(0.88938972,0.31548182,-0.23402162,0.65974136,363.19343,200.51024)"
       gradientUnits="userSpaceOnUse"
       id="radialGradient6902"
       xlink:href="#linearGradient5341-1"
       inkscape:collect="always" />
    <clipPath
       id="clipPath6898"
       clipPathUnits="userSpaceOnUse">
      <rect
         inkscape:export-ydpi="38.117695"
         inkscape:export-xdpi="38.117695"
         inkscape:export-filename="C:\Users\Madnester\Desktop\QutIM\qutim x512.png"
         style="fill:url(#radialGradient6902);fill-opacity:1;fill-rule:nonzero;stroke:none"
         id="rect6900"
         width="513.22998"
         height="513.22998"
         x="1009.4083"
         y="1028.2593"
         rx="23.99456"
         ry="23.99456"
         transform="matrix(0.94140336,-0.33728285,0.33728285,0.94140336,0,0)" />
    </clipPath>
    <radialGradient
       r="396.21722"
       fy="1177.9652"
       fx="1243.1949"
       cy="1177.9652"
       cx="1243.1949"
       gradientTransform="matrix(0.88938972,0.31548182,-0.23402162,0.65974136,363.19343,200.51024)"
       gradientUnits="userSpaceOnUse"
       id="radialGradient6896"
       xlink:href="#linearGradient5341-1"
       inkscape:collect="always" />
    <clipPath
       id="clipPath6892"
       clipPathUnits="userSpaceOnUse">
      <rect
         inkscape:export-ydpi="38.117695"
         inkscape:export-xdpi="38.117695"
         inkscape:export-filename="C:\Users\Madnester\Desktop\QutIM\qutim x512.png"
         style="fill:url(#radialGradient6896);fill-opacity:1;fill-rule:nonzero;stroke:none"
         id="rect6894"
         width="513.22998"
         height="513.22998"
         x="1009.4083"
         y="1028.2593"
         rx="23.99456"
         ry="23.99456"
         transform="matrix(0.94140336,-0.33728285,0.33728285,0.94140336,0,0)" />
    </clipPath>
    <radialGradient
       r="396.21722"
       fy="1177.9652"
       fx="1243.1949"
       cy="1177.9652"
       cx="1243.1949"
       gradientTransform="matrix(1.3626121,0.48334193,-0.35853876,1.0107735,63.115228,-482.63533)"
       gradientUnits="userSpaceOnUse"
       id="radialGradient6890"
       xlink:href="#linearGradient5341-1"
       inkscape:collect="always" />
    <clipPath
       id="clipPath6886"
       clipPathUnits="userSpaceOnUse">
      <rect
         inkscape:export-ydpi="38.117695"
         inkscape:export-xdpi="38.117695"
         inkscape:export-filename="C:\Users\Madnester\Desktop\QutIM\qutim x512.png"
         style="fill:url(#radialGradient6890);fill-opacity:1;fill-rule:nonzero;stroke:none"
         id="rect6888"
         width="786.30707"
         height="786.30707"
         x="1053.165"
         y="785.5387"
         rx="36.761475"
         ry="36.761475"
         transform="matrix(0.94140336,-0.33728285,0.33728285,0.94140336,0,0)" />
    </clipPath>
    <radialGradient
       r="396.21722"
       fy="1177.9652"
       fx="1243.1949"
       cy="1177.9652"
       cx="1243.1949"
       gradientTransform="matrix(1.3626121,0.48334193,-0.35853876,1.0107735,63.115228,-482.63533)"
       gradientUnits="userSpaceOnUse"
       id="radialGradient6884"
       xlink:href="#linearGradient5341-1"
       inkscape:collect="always" />
    <radialGradient
       r="396.21722"
       fy="1177.9652"
       fx="1243.1949"
       cy="1177.9652"
       cx="1243.1949"
       gradientTransform="matrix(1.3626121,0.48334193,-0.35853876,1.0107735,68.229973,-485.0518)"
       gradientUnits="userSpaceOnUse"
       id="radialGradient6871"
       xlink:href="#linearGradient5341-1"
       inkscape:collect="always" />
    <linearGradient
       y2="614.99689"
       x2="1747.3324"
       y1="1384.9419"
       x1="964.13104"
       gradientTransform="matrix(1.0020162,0,0,1.0020162,93.170273,175.50446)"
       gradientUnits="userSpaceOnUse"
       id="linearGradient6869"
       xlink:href="#linearGradient6469-5"
       inkscape:collect="always" />
    <linearGradient
       y2="608.85431"
       x2="1765.8719"
       y1="1398.2271"
       x1="953.02039"
       gradientTransform="matrix(1.0076731,0,0,1.0076731,85.226273,170.0794)"
       gradientUnits="userSpaceOnUse"
       id="linearGradient6867"
       xlink:href="#linearGradient5373-3"
       inkscape:collect="always" />
    <radialGradient
       r="396.21722"
       fy="1177.9652"
       fx="1243.1949"
       cy="1177.9652"
       cx="1243.1949"
       gradientTransform="matrix(1.3626121,0.48334193,-0.35853876,1.0107735,68.229973,-485.0518)"
       gradientUnits="userSpaceOnUse"
       id="radialGradient6861"
       xlink:href="#linearGradient5341-1"
       inkscape:collect="always" />
    <linearGradient
       y2="614.99689"
       x2="1747.3324"
       y1="1384.9419"
       x1="964.13104"
       gradientTransform="matrix(1.0020162,0,0,1.0020162,93.170273,175.50446)"
       gradientUnits="userSpaceOnUse"
       id="linearGradient6859"
       xlink:href="#linearGradient6469-5"
       inkscape:collect="always" />
    <linearGradient
       y2="608.85431"
       x2="1765.8719"
       y1="1398.2271"
       x1="953.02039"
       gradientTransform="matrix(1.0076731,0,0,1.0076731,85.226273,170.0794)"
       gradientUnits="userSpaceOnUse"
       id="linearGradient6857"
       xlink:href="#linearGradient5373-3"
       inkscape:collect="always" />
    <radialGradient
       r="396.21722"
       fy="1177.9652"
       fx="1243.1949"
       cy="1177.9652"
       cx="1243.1949"
       gradientTransform="matrix(1.3626121,0.48334193,-0.35853876,1.0107735,68.229973,-485.0518)"
       gradientUnits="userSpaceOnUse"
       id="radialGradient6836"
       xlink:href="#linearGradient5341-1"
       inkscape:collect="always" />
    <linearGradient
       y2="614.99689"
       x2="1747.3324"
       y1="1384.9419"
       x1="964.13104"
       gradientTransform="matrix(1.0020162,0,0,1.0020162,93.170273,175.50446)"
       gradientUnits="userSpaceOnUse"
       id="linearGradient6834"
       xlink:href="#linearGradient6469-5"
       inkscape:collect="always" />
    <linearGradient
       y2="608.85431"
       x2="1765.8719"
       y1="1398.2271"
       x1="953.02039"
       gradientTransform="matrix(1.0076731,0,0,1.0076731,85.226273,170.0794)"
       gradientUnits="userSpaceOnUse"
       id="linearGradient6832"
       xlink:href="#linearGradient5373-3"
       inkscape:collect="always" />
    <linearGradient
       y2="614.99689"
       x2="1747.3324"
       y1="1384.9419"
       x1="964.13104"
       gradientTransform="matrix(0.96514412,0.00195673,-0.00195673,0.96514412,-1960.6822,-1255.6254)"
       gradientUnits="userSpaceOnUse"
       id="linearGradient6808"
       xlink:href="#linearGradient6469-5"
       inkscape:collect="always" />
    <linearGradient
       y2="608.85431"
       x2="1765.8719"
       y1="1398.2271"
       x1="953.02039"
       gradientTransform="matrix(0.97059286,0.00196777,-0.00196777,0.97059286,-1968.3233,-1260.8663)"
       gradientUnits="userSpaceOnUse"
       id="linearGradient6805"
       xlink:href="#linearGradient5373-3"
       inkscape:collect="always" />
    <radialGradient
       r="396.21722"
       fy="1141.4786"
       fx="1268.403"
       cy="1141.4786"
       cx="1268.403"
       gradientTransform="matrix(1.3125923,0.46522185,-0.31928716,0.90084736,-2016.2242,-880.13289)"
       gradientUnits="userSpaceOnUse"
       id="radialGradient6777-6"
       xlink:href="#linearGradient5341-1"
       inkscape:collect="always" />
    <linearGradient
       y2="89.199226"
       x2="889.19104"
       y1="919.09467"
       x1="422.58987"
       gradientTransform="translate(-1149.1152,-807.02905)"
       gradientUnits="userSpaceOnUse"
       id="linearGradient6775-7"
       xlink:href="#linearGradient5469-2"
       inkscape:collect="always" />
    <linearGradient
       y2="89.199226"
       x2="889.19104"
       y1="919.09467"
       x1="422.58987"
       gradientTransform="translate(-1148.0069,-810.46977)"
       gradientUnits="userSpaceOnUse"
       id="linearGradient6773-0"
       xlink:href="#linearGradient6693-8"
       inkscape:collect="always" />
    <clipPath
       id="clipPath6769-8"
       clipPathUnits="userSpaceOnUse">
      <rect
         transform="matrix(0.99999794,0.00202739,-0.00202739,0.99999794,0,0)"
         ry="25.929497"
         rx="25.929497"
         y="-374.23117"
         x="-1037.426"
         height="554.61725"
         width="554.61725"
         id="rect6771-4"
         style="fill:#4dff43;fill-opacity:1;fill-rule:nonzero;stroke:none" />
    </clipPath>
    <clipPath
       id="clipPath6765-5"
       clipPathUnits="userSpaceOnUse">
      <rect
         transform="matrix(0.99999794,0.00202739,-0.00202739,0.99999794,0,0)"
         ry="25.929497"
         rx="25.929497"
         y="-374.23117"
         x="-1037.426"
         height="554.61725"
         width="554.61725"
         id="rect6767-9"
         style="fill:#4dff43;fill-opacity:1;fill-rule:nonzero;stroke:none" />
    </clipPath>
    <clipPath
       id="clipPath6761-1"
       clipPathUnits="userSpaceOnUse">
      <rect
         transform="matrix(0.99999794,0.00202739,-0.00202739,0.99999794,0,0)"
         ry="25.929497"
         rx="25.929497"
         y="-374.23117"
         x="-1037.426"
         height="554.61725"
         width="554.61725"
         id="rect6763-3"
         style="fill:#4dff43;fill-opacity:1;fill-rule:nonzero;stroke:none" />
    </clipPath>
    <clipPath
       id="clipPath6757-2"
       clipPathUnits="userSpaceOnUse">
      <rect
         transform="matrix(0.99999794,0.00202739,-0.00202739,0.99999794,0,0)"
         ry="25.929497"
         rx="25.929497"
         y="-374.23117"
         x="-1037.426"
         height="554.61725"
         width="554.61725"
         id="rect6759-9"
         style="fill:#4dff43;fill-opacity:1;fill-rule:nonzero;stroke:none" />
    </clipPath>
    <linearGradient
       y2="-139.51535"
       x2="1763.1934"
       y1="875.22601"
       x1="1658.4646"
       gradientTransform="translate(-2217.231,-743.23143)"
       gradientUnits="userSpaceOnUse"
       id="linearGradient6675-8"
       xlink:href="#linearGradient5469-2"
       inkscape:collect="always" />
    <linearGradient
       y2="89.199226"
       x2="889.19104"
       y1="919.09467"
       x1="422.58987"
       gradientTransform="translate(-1148.0069,-799.9843)"
       gradientUnits="userSpaceOnUse"
       id="linearGradient6673-8"
       xlink:href="#linearGradient5461-1"
       inkscape:collect="always" />
    <linearGradient
       y2="89.199226"
       x2="889.19104"
       y1="919.09467"
       x1="422.58987"
       gradientTransform="translate(-1149.1152,-807.02905)"
       gradientUnits="userSpaceOnUse"
       id="linearGradient6669-7"
       xlink:href="#linearGradient5469-2"
       inkscape:collect="always" />
    <linearGradient
       y2="89.199226"
       x2="889.19104"
       y1="919.09467"
       x1="422.58987"
       gradientTransform="translate(-1148.0069,-810.46977)"
       gradientUnits="userSpaceOnUse"
       id="linearGradient6666-3"
       xlink:href="#linearGradient6693-8"
       inkscape:collect="always" />
    <linearGradient
       y2="89.199226"
       x2="889.19104"
       y1="919.09467"
       x1="422.58987"
       gradientTransform="translate(-1144.0069,107.19689)"
       gradientUnits="userSpaceOnUse"
       id="linearGradient6663-6"
       xlink:href="#linearGradient5319-7"
       inkscape:collect="always" />
    <linearGradient
       y2="89.199226"
       x2="889.19104"
       y1="919.09467"
       x1="422.58987"
       gradientTransform="translate(-1145.1152,110.63761)"
       gradientUnits="userSpaceOnUse"
       id="linearGradient6661-9"
       xlink:href="#linearGradient5469-2"
       inkscape:collect="always" />
    <linearGradient
       y2="-139.51535"
       x2="1763.1934"
       y1="875.22601"
       x1="1658.4646"
       gradientTransform="translate(-2213.231,174.43523)"
       gradientUnits="userSpaceOnUse"
       id="linearGradient6659-4"
       xlink:href="#linearGradient5469-2"
       inkscape:collect="always" />
    <linearGradient
       y2="89.199226"
       x2="889.19104"
       y1="919.09467"
       x1="422.58987"
       gradientTransform="translate(-1144.0069,117.68236)"
       gradientUnits="userSpaceOnUse"
       id="linearGradient6657-8"
       xlink:href="#linearGradient5461-1"
       inkscape:collect="always" />
    <linearGradient
       y2="89.199226"
       x2="889.19104"
       y1="919.09467"
       x1="422.58987"
       gradientTransform="translate(-1144.0069,107.19689)"
       gradientUnits="userSpaceOnUse"
       id="linearGradient6641-1"
       xlink:href="#linearGradient5319-7"
       inkscape:collect="always" />
    <linearGradient
       y2="89.199226"
       x2="889.19104"
       y1="919.09467"
       x1="422.58987"
       gradientTransform="translate(-1145.1152,110.63761)"
       gradientUnits="userSpaceOnUse"
       id="linearGradient6639-6"
       xlink:href="#linearGradient5469-2"
       inkscape:collect="always" />
    <linearGradient
       y2="-139.51535"
       x2="1763.1934"
       y1="875.22601"
       x1="1658.4646"
       gradientTransform="translate(-2213.231,174.43523)"
       gradientUnits="userSpaceOnUse"
       id="linearGradient6637-6"
       xlink:href="#linearGradient5469-2"
       inkscape:collect="always" />
    <linearGradient
       y2="89.199226"
       x2="889.19104"
       y1="919.09467"
       x1="422.58987"
       gradientTransform="translate(-1144.0069,117.68236)"
       gradientUnits="userSpaceOnUse"
       id="linearGradient6635-0"
       xlink:href="#linearGradient5461-1"
       inkscape:collect="always" />
    <radialGradient
       r="396.21722"
       fy="1141.4786"
       fx="1268.403"
       cy="1141.4786"
       cx="1268.403"
       gradientTransform="matrix(1.3125923,0.46522185,-0.31928716,0.90084736,-2018.0928,-1801.7977)"
       gradientUnits="userSpaceOnUse"
       id="radialGradient6633-6"
       xlink:href="#linearGradient6701-4"
       inkscape:collect="always" />
    <linearGradient
       y2="614.99689"
       x2="1747.3324"
       y1="1384.9419"
       x1="964.13104"
       gradientTransform="matrix(0.96514611,0,0,0.96514611,-1963.2238,-1251.6478)"
       gradientUnits="userSpaceOnUse"
       id="linearGradient6631-4"
       xlink:href="#linearGradient6469-5"
       inkscape:collect="always" />
    <linearGradient
       y2="608.85431"
       x2="1765.8719"
       y1="1398.2271"
       x1="953.02039"
       gradientTransform="matrix(0.97059486,0,0,0.97059486,-1970.8755,-1256.8732)"
       gradientUnits="userSpaceOnUse"
       id="linearGradient6629-4"
       xlink:href="#linearGradient5373-3"
       inkscape:collect="always" />
    <linearGradient
       y2="89.199226"
       x2="889.19104"
       y1="919.09467"
       x1="422.58987"
       gradientTransform="translate(-1144.0069,107.19689)"
       gradientUnits="userSpaceOnUse"
       id="linearGradient6611-3"
       xlink:href="#linearGradient5319-7"
       inkscape:collect="always" />
    <linearGradient
       y2="89.199226"
       x2="889.19104"
       y1="919.09467"
       x1="422.58987"
       gradientTransform="translate(-1145.1152,110.63761)"
       gradientUnits="userSpaceOnUse"
       id="linearGradient6609-9"
       xlink:href="#linearGradient5469-2"
       inkscape:collect="always" />
    <linearGradient
       y2="-139.51535"
       x2="1763.1934"
       y1="875.22601"
       x1="1658.4646"
       gradientTransform="translate(-2213.231,174.43523)"
       gradientUnits="userSpaceOnUse"
       id="linearGradient6607-8"
       xlink:href="#linearGradient5469-2"
       inkscape:collect="always" />
    <linearGradient
       y2="89.199226"
       x2="889.19104"
       y1="919.09467"
       x1="422.58987"
       gradientTransform="translate(-1144.0069,117.68236)"
       gradientUnits="userSpaceOnUse"
       id="linearGradient6605-3"
       xlink:href="#linearGradient5461-1"
       inkscape:collect="always" />
    <clipPath
       id="clipPath6601-6"
       clipPathUnits="userSpaceOnUse">
      <rect
         transform="matrix(0.99999794,0.00202739,-0.00202739,0.99999794,0,0)"
         ry="35.408802"
         rx="35.408802"
         y="340.27667"
         x="-1031.5856"
         height="757.37421"
         width="757.37421"
         id="rect6603-1"
         style="fill:#4dff43;fill-opacity:1;fill-rule:nonzero;stroke:none" />
    </clipPath>
    <radialGradient
       r="396.21722"
       fy="1141.4786"
       fx="1268.403"
       cy="1141.4786"
       cx="1268.403"
       gradientTransform="matrix(1.3125923,0.46522185,-0.31928716,0.90084736,-2016.0519,-795.13307)"
       gradientUnits="userSpaceOnUse"
       id="radialGradient6596-0"
       xlink:href="#linearGradient5341-1"
       inkscape:collect="always" />
    <radialGradient
       r="396.21722"
       fy="1141.4786"
       fx="1268.403"
       cy="1141.4786"
       cx="1268.403"
       gradientTransform="matrix(1.3125923,0.46522185,-0.31928716,0.90084736,-2016.0519,-795.13307)"
       gradientUnits="userSpaceOnUse"
       id="radialGradient6585-0"
       xlink:href="#linearGradient5341-1"
       inkscape:collect="always" />
    <radialGradient
       r="396.21722"
       fy="1141.4786"
       fx="1268.403"
       cy="1141.4786"
       cx="1268.403"
       gradientTransform="matrix(1.3125923,0.46522185,-0.31928716,0.90084736,-2016.0519,-795.13307)"
       gradientUnits="userSpaceOnUse"
       id="radialGradient6582-9"
       xlink:href="#linearGradient5341-1"
       inkscape:collect="always" />
    <linearGradient
       y2="89.199226"
       x2="889.19104"
       y1="919.09467"
       x1="422.58987"
       gradientTransform="translate(-1144.0069,107.19689)"
       gradientUnits="userSpaceOnUse"
       id="linearGradient6580-0"
       xlink:href="#linearGradient5319-7"
       inkscape:collect="always" />
    <linearGradient
       y2="89.199226"
       x2="889.19104"
       y1="919.09467"
       x1="422.58987"
       gradientTransform="translate(-1145.1152,110.63761)"
       gradientUnits="userSpaceOnUse"
       id="linearGradient6578-5"
       xlink:href="#linearGradient5469-2"
       inkscape:collect="always" />
    <linearGradient
       y2="-139.51535"
       x2="1763.1934"
       y1="875.22601"
       x1="1658.4646"
       gradientTransform="translate(-2213.231,174.43523)"
       gradientUnits="userSpaceOnUse"
       id="linearGradient6576-6"
       xlink:href="#linearGradient5469-2"
       inkscape:collect="always" />
    <linearGradient
       y2="89.199226"
       x2="889.19104"
       y1="919.09467"
       x1="422.58987"
       gradientTransform="translate(-1144.0069,117.68236)"
       gradientUnits="userSpaceOnUse"
       id="linearGradient6574-8"
       xlink:href="#linearGradient5461-1"
       inkscape:collect="always" />
    <linearGradient
       y2="608.85431"
       x2="1765.8719"
       y1="1398.2271"
       x1="953.02039"
       gradientTransform="matrix(0.97059486,0,0,0.97059486,-1969.0069,-335.20845)"
       gradientUnits="userSpaceOnUse"
       id="linearGradient6559-4"
       xlink:href="#linearGradient5373-3"
       inkscape:collect="always" />
    <linearGradient
       y2="614.99689"
       x2="1747.3324"
       y1="1384.9419"
       x1="964.13104"
       gradientTransform="matrix(0.96514611,0,0,0.96514611,-1961.3552,-329.98301)"
       gradientUnits="userSpaceOnUse"
       id="linearGradient6556-2"
       xlink:href="#linearGradient6469-5"
       inkscape:collect="always" />
    <radialGradient
       r="396.21722"
       fy="1141.4786"
       fx="1268.403"
       cy="1141.4786"
       cx="1268.403"
       gradientTransform="matrix(1.3125923,0.46522185,-0.31928716,0.90084736,-2016.0519,-795.13307)"
       gradientUnits="userSpaceOnUse"
       id="radialGradient6553-0"
       xlink:href="#linearGradient5341-1"
       inkscape:collect="always" />
    <radialGradient
       r="396.21722"
       fy="1141.4786"
       fx="1268.403"
       cy="1141.4786"
       cx="1268.403"
       gradientTransform="matrix(1.3627354,0.48299405,-0.33148443,0.93526114,-2199.6772,-1165.409)"
       gradientUnits="userSpaceOnUse"
       id="radialGradient6544-6"
       xlink:href="#linearGradient5341-1"
       inkscape:collect="always" />
    <linearGradient
       y2="614.99689"
       x2="1747.3324"
       y1="1384.9419"
       x1="964.13104"
       gradientTransform="matrix(1.0020162,0,0,1.0020162,-2142.7122,-594.24254)"
       gradientUnits="userSpaceOnUse"
       id="linearGradient6542-8"
       xlink:href="#linearGradient6469-5"
       inkscape:collect="always" />
    <linearGradient
       y2="608.85431"
       x2="1765.8719"
       y1="1398.2271"
       x1="953.02039"
       gradientTransform="matrix(1.0076731,0,0,1.0076731,-2150.6562,-599.6676)"
       gradientUnits="userSpaceOnUse"
       id="linearGradient6540-2"
       xlink:href="#linearGradient5373-3"
       inkscape:collect="always" />
    <linearGradient
       y2="89.199226"
       x2="889.19104"
       y1="919.09467"
       x1="422.58987"
       gradientTransform="translate(-1144.0069,107.19689)"
       gradientUnits="userSpaceOnUse"
       id="linearGradient6533-0"
       xlink:href="#linearGradient5319-7"
       inkscape:collect="always" />
    <linearGradient
       y2="89.199226"
       x2="889.19104"
       y1="919.09467"
       x1="422.58987"
       gradientTransform="translate(-1145.1152,110.63761)"
       gradientUnits="userSpaceOnUse"
       id="linearGradient6531-5"
       xlink:href="#linearGradient5469-2"
       inkscape:collect="always" />
    <linearGradient
       y2="-139.51535"
       x2="1763.1934"
       y1="875.22601"
       x1="1658.4646"
       gradientTransform="translate(-2213.231,174.43523)"
       gradientUnits="userSpaceOnUse"
       id="linearGradient6529-6"
       xlink:href="#linearGradient5469-2"
       inkscape:collect="always" />
    <linearGradient
       y2="89.199226"
       x2="889.19104"
       y1="919.09467"
       x1="422.58987"
       gradientTransform="translate(-1144.0069,117.68236)"
       gradientUnits="userSpaceOnUse"
       id="linearGradient6527-8"
       xlink:href="#linearGradient5461-1"
       inkscape:collect="always" />
    <radialGradient
       r="396.21722"
       fy="1141.4786"
       fx="1268.403"
       cy="1141.4786"
       cx="1268.403"
       gradientTransform="matrix(1.3627354,0.48299405,-0.33148443,0.93526114,-2199.6772,-1165.409)"
       gradientUnits="userSpaceOnUse"
       id="radialGradient6525-9"
       xlink:href="#linearGradient5341-1"
       inkscape:collect="always" />
    <linearGradient
       y2="614.99689"
       x2="1747.3324"
       y1="1384.9419"
       x1="964.13104"
       gradientTransform="matrix(1.0020162,0,0,1.0020162,-2142.7122,-594.24254)"
       gradientUnits="userSpaceOnUse"
       id="linearGradient6523-1"
       xlink:href="#linearGradient6469-5"
       inkscape:collect="always" />
    <linearGradient
       y2="608.85431"
       x2="1765.8719"
       y1="1398.2271"
       x1="953.02039"
       gradientTransform="matrix(1.0076731,0,0,1.0076731,-2150.6562,-599.6676)"
       gradientUnits="userSpaceOnUse"
       id="linearGradient6521-3"
       xlink:href="#linearGradient5373-3"
       inkscape:collect="always" />
    <linearGradient
       y2="89.199226"
       x2="889.19104"
       y1="919.09467"
       x1="422.58987"
       gradientTransform="matrix(1.2830399,0,0,1.2830399,-78.443296,-250.31311)"
       gradientUnits="userSpaceOnUse"
       id="linearGradient6503-7"
       xlink:href="#linearGradient7004"
       inkscape:collect="always" />
    <linearGradient
       y2="89.199226"
       x2="889.19104"
       y1="919.09467"
       x1="422.58987"
       gradientTransform="translate(5.8330676,23.3675)"
       gradientUnits="userSpaceOnUse"
       id="linearGradient6395-3"
       xlink:href="#linearGradient5469-2"
       inkscape:collect="always" />
    <linearGradient
       gradientTransform="translate(-1062.2827,87.16512)"
       y2="-139.51535"
       x2="1763.1934"
       y1="875.22601"
       x1="1658.4646"
       gradientUnits="userSpaceOnUse"
       id="linearGradient6261-4"
       xlink:href="#linearGradient5469-2"
       inkscape:collect="always" />
    <linearGradient
       y2="89.199226"
       x2="889.19104"
       y1="919.09467"
       x1="422.58987"
       gradientTransform="translate(6.9413676,30.41225)"
       gradientUnits="userSpaceOnUse"
       id="linearGradient6259-3"
       xlink:href="#linearGradient5461-1"
       inkscape:collect="always" />
    <linearGradient
       id="linearGradient3809-3">
      <stop
         id="stop3811-1"
         offset="0"
         style="stop-color:#e7e7e7;stop-opacity:1" />
      <stop
         id="stop3813-2"
         offset="1"
         style="stop-color:#858585;stop-opacity:1" />
    </linearGradient>
    <linearGradient
       id="linearGradient5319-7">
      <stop
         id="stop5321-9"
         offset="0"
         style="stop-color:#a7a7a7;stop-opacity:1" />
      <stop
         style="stop-color:#e1e1e1;stop-opacity:1;"
         offset="0.41666666"
         id="stop6405-5" />
      <stop
         id="stop5323-4"
         offset="1"
         style="stop-color:#ffffff;stop-opacity:1" />
    </linearGradient>
    <linearGradient
       id="linearGradient5341-1">
      <stop
         id="stop5343-8"
         offset="0"
         style="stop-color:#ffffff;stop-opacity:1;" />
      <stop
         style="stop-color:#8bddf7;stop-opacity:1;"
         offset="0.35140693"
         id="stop6267-9" />
      <stop
         id="stop5345-2"
         offset="1"
         style="stop-color:#3e78cd;stop-opacity:1;" />
    </linearGradient>
    <linearGradient
       id="linearGradient5361-5">
      <stop
         style="stop-color:#c1c1c1;stop-opacity:1;"
         offset="0"
         id="stop5369-7" />
      <stop
         id="stop5365-6"
         offset="1"
         style="stop-color:#d6d6d6;stop-opacity:1;" />
    </linearGradient>
    <linearGradient
       id="linearGradient5373-3">
      <stop
         id="stop5375-2"
         offset="0"
         style="stop-color:#8e8e8e;stop-opacity:1;" />
      <stop
         style="stop-color:#dfdfdf;stop-opacity:1;"
         offset="0.30555555"
         id="stop5381-2" />
      <stop
         id="stop5383-1"
         offset="0.3923611"
         style="stop-color:#6c6c6c;stop-opacity:1;" />
      <stop
         style="stop-color:#6a6a6a;stop-opacity:1;"
         offset="0.63710457"
         id="stop6483-6" />
      <stop
         id="stop5377-8"
         offset="1"
         style="stop-color:#cacaca;stop-opacity:1;" />
    </linearGradient>
    <linearGradient
       id="linearGradient5461-1">
      <stop
         id="stop5463-4"
         offset="0"
         style="stop-color:#000000;stop-opacity:1;" />
      <stop
         id="stop5465-2"
         offset="1"
         style="stop-color:#838383;stop-opacity:1;" />
    </linearGradient>
    <linearGradient
       id="linearGradient5469-2">
      <stop
         id="stop5471-7"
         offset="0"
         style="stop-color:#e3e3e3;stop-opacity:1;" />
      <stop
         id="stop5473-6"
         offset="1"
         style="stop-color:#121212;stop-opacity:1;" />
    </linearGradient>
    <marker
       style="overflow:visible"
       id="Arrow1Lstart-1"
       refX="0"
       refY="0"
       orient="auto"
       inkscape:stockid="Arrow1Lstart">
      <path
         inkscape:connector-curvature="0"
         transform="matrix(0.8,0,0,0.8,10,0)"
         style="fill-rule:evenodd;stroke:#000000;stroke-width:1pt;marker-start:none"
         d="M 0,0 5,-5 -12.5,0 5,5 0,0 z"
         id="path5480-5" />
    </marker>
    <linearGradient
       id="linearGradient6469-5">
      <stop
         style="stop-color:#e3e3e3;stop-opacity:1;"
         offset="0"
         id="stop6471-5" />
      <stop
         id="stop6481-1"
         offset="0.49165267"
         style="stop-color:#9ec6ed;stop-opacity:1;" />
      <stop
         id="stop6477-7"
         offset="0.52565688"
         style="stop-color:#24405d;stop-opacity:1;" />
      <stop
         style="stop-color:#121212;stop-opacity:1;"
         offset="1"
         id="stop6473-1" />
    </linearGradient>
    <linearGradient
       id="linearGradient6693-8">
      <stop
         style="stop-color:#e6e6e6;stop-opacity:1;"
         offset="0"
         id="stop6695-8" />
      <stop
         id="stop6697-2"
         offset="0.41666666"
         style="stop-color:#e1e1e1;stop-opacity:1;" />
      <stop
         style="stop-color:#ffffff;stop-opacity:1"
         offset="1"
         id="stop6699-4" />
    </linearGradient>
    <linearGradient
       id="linearGradient6701-4">
      <stop
         style="stop-color:#ffffff;stop-opacity:1;"
         offset="0"
         id="stop6703-0" />
      <stop
         id="stop6705-9"
         offset="0.35140693"
         style="stop-color:#3fb4da;stop-opacity:1;" />
      <stop
         style="stop-color:#3e78cd;stop-opacity:1;"
         offset="1"
         id="stop6707-4" />
    </linearGradient>
    <linearGradient
       id="linearGradient7004">
      <stop
         style="stop-color:#fdfdfd;stop-opacity:1;"
         offset="0"
         id="stop7006" />
      <stop
         style="stop-color:#b8b8b8;stop-opacity:1;"
         offset="1"
         id="stop7008" />
    </linearGradient>
    <linearGradient
       id="linearGradient7010">
      <stop
         style="stop-color:#ffffff;stop-opacity:1;"
         offset="0"
         id="stop7012" />
      <stop
         id="stop7014"
         offset="0.35140693"
         style="stop-color:#2894f0;stop-opacity:1;" />
      <stop
         style="stop-color:#3e78cd;stop-opacity:1;"
         offset="1"
         id="stop7016" />
    </linearGradient>
    <linearGradient
       id="linearGradient7020">
      <stop
         style="stop-color:#222222;stop-opacity:1;"
         offset="0"
         id="stop7022" />
      <stop
         id="stop7024"
         offset="0.30555555"
         style="stop-color:#7c7c7c;stop-opacity:1;" />
      <stop
         style="stop-color:#000000;stop-opacity:1;"
         offset="0.3923611"
         id="stop7026" />
      <stop
         id="stop7028"
         offset="0.63710457"
         style="stop-color:#292929;stop-opacity:1;" />
      <stop
         style="stop-color:#5c5c5c;stop-opacity:1;"
         offset="1"
         id="stop7030" />
    </linearGradient>
  </defs>
  <sodipodi:namedview
     id="base"
     pagecolor="#ffffff"
     bordercolor="#666666"
     borderopacity="1.0"
     inkscape:pageopacity="0.0"
     inkscape:pageshadow="2"
     inkscape:zoom="0.49497475"
     inkscape:cx="516.41235"
     inkscape:cy="476.26744"
     inkscape:document-units="px"
     inkscape:current-layer="layer1"
     showgrid="false"
     inkscape:window-width="1440"
     inkscape:window-height="759"
     inkscape:window-x="0"
     inkscape:window-y="22"
     inkscape:window-maximized="1"
     inkscape:snap-bbox="false"
     inkscape:snap-global="true"
     showguides="false"
     inkscape:guide-bbox="true">
    <sodipodi:guide
       orientation="1,0"
       position="0,810.14234"
       id="guide3219" />
    <sodipodi:guide
       orientation="1,0"
       position="1000.051,496.99505"
       id="guide3221" />
    <sodipodi:guide
       orientation="0,1"
       position="125.25891,1000.051"
       id="guide3223" />
    <sodipodi:guide
       orientation="0,1"
       position="-389.91888,499.01535"
       id="guide3224" />
    <sodipodi:guide
       orientation="1,0"
       position="499.01535,349.51278"
       id="guide3226" />
    <sodipodi:guide
       orientation="1,0"
       position="-499.01535,256.57874"
       id="guide3228" />
    <sodipodi:guide
       orientation="0,1"
       position="-909.13728,0"
       id="guide3230" />
  </sodipodi:namedview>
  <metadata
     id="metadata7">
    <rdf:RDF>
      <cc:Work
         rdf:about="">
        <dc:format>image/svg+xml</dc:format>
        <dc:type
           rdf:resource="http://purl.org/dc/dcmitype/StillImage" />
        <dc:title></dc:title>
      </cc:Work>
    </rdf:RDF>
  </metadata>
  <g
     inkscape:label="Layer 1"
     inkscape:groupmode="layer"
     id="layer1"
     transform="translate(0,-52.362183)">
    <path
       style="font-size:medium;font-style:normal;font-variant:normal;font-weight:normal;font-stretch:normal;text-indent:0;text-align:start;text-decoration:none;line-height:normal;letter-spacing:normal;word-spacing:normal;text-transform:none;direction:ltr;block-progression:tb;writing-mode:lr-tb;text-anchor:start;baseline-shift:baseline;opacity:0.24;color:#000000;fill:#eae3d0;fill-opacity:1;stroke:none;stroke-width:98.35415648999999405;marker:none;visibility:visible;display:inline;overflow:visible;enable-background:accumulate;font-family:Sans;-inkscape-font-specification:Sans"
       d="M 656.96875 -1.5625 C 655.95256 -1.572894 654.92527 -1.5591044 653.90625 -1.53125 C 642.80795 -1.227901 631.80382 1.34346 621.6875 5.9375 L 484.25 68.34375 C 484.62848 69.429738 485.00059 70.524244 485.40625 71.625 C 485.51408 71.917736 485.60905 72.206247 485.71875 72.5 C 486.09884 73.517597 486.50427 74.532962 486.90625 75.5625 C 487.34478 76.685636 487.78653 77.83196 488.25 78.96875 C 488.37847 79.283864 488.52592 79.590115 488.65625 79.90625 C 488.80695 80.271787 488.9406 80.633117 489.09375 81 C 490.57965 84.56023 492.17745 88.166322 493.875 91.84375 C 494.51677 93.234017 495.17516 94.625956 495.84375 96.03125 C 496.98402 98.427952 498.16412 100.87581 499.375 103.3125 C 499.49742 103.55879 499.62691 103.81583 499.75 104.0625 C 500.24649 105.05762 500.77427 106.06136 501.28125 107.0625 C 502.21135 108.89895 503.13131 110.73851 504.09375 112.59375 C 504.20433 112.80695 504.32652 113.00532 504.4375 113.21875 L 642.03125 50.75 C 646.33327 48.79637 650.81944 47.7461 655.25 47.625 C 668.54167 47.261691 681.32647 54.75045 687.1875 67.65625 L 947.46875 640.78125 C 955.28352 657.98899 947.70804 678.12298 930.5 685.9375 L 357.40625 946.1875 C 340.19816 954.00195 320.03343 946.4265 312.21875 929.21875 L 51.96875 356.15625 C 44.154095 338.94851 51.729416 318.78328 68.9375 310.96875 L 476.28125 126.03125 C 476.22823 125.70609 476.17722 125.38705 476.125 125.0625 C 476.06147 124.66712 475.99981 124.26946 475.9375 123.875 C 475.67733 122.23021 475.42493 120.5965 475.1875 118.96875 C 474.99446 117.64361 474.80143 116.34406 474.625 115.03125 C 474.58263 114.71661 474.54137 114.40765 474.5 114.09375 C 474.38418 113.21325 474.29515 112.34323 474.1875 111.46875 C 474.05334 110.38149 473.93333 109.29623 473.8125 108.21875 C 473.62991 106.59048 473.43109 104.97939 473.28125 103.375 C 473.20681 102.57607 473.15956 101.79267 473.09375 101 C 473.02594 100.18559 472.96458 99.370054 472.90625 98.5625 C 472.82395 97.418763 472.7499 96.285617 472.6875 95.15625 C 472.65809 94.627159 472.64987 94.088325 472.625 93.5625 C 472.59053 92.828687 472.55663 92.102279 472.53125 91.375 C 472.48799 90.14586 472.45367 88.92848 472.4375 87.71875 C 472.41548 86.070657 472.40614 84.453725 472.4375 82.84375 C 472.4998 79.645504 472.67465 76.502353 472.96875 73.46875 L 48.59375 266.1875 C 7.3190647 284.93115 -11.553091 335.23355 7.1875 376.5 L 267.46875 949.5625 C 286.19433 990.7957 336.47105 1009.6997 377.71875 990.96875 L 950.84375 730.6875 C 992.0778 711.96226 1010.9514 661.65453 992.21875 620.40625 L 731.96875 47.3125 C 718.36351 17.354197 688.47057 -1.2402863 656.96875 -1.5625 z M 624.125 137.8125 C 620.58056 137.90939 617.00412 138.68708 613.5625 140.25 L 538.09375 174.53125 C 539.10863 176.37666 540.12242 178.22088 541.125 180.0625 C 541.53941 180.82379 541.96308 181.58331 542.375 182.34375 C 543.71299 184.81378 545.03763 187.29165 546.34375 189.75 C 546.41544 189.88492 546.49091 190.02137 546.5625 190.15625 C 547.00423 190.98868 547.40636 191.8255 547.84375 192.65625 C 548.76763 194.41066 549.69134 196.16045 550.59375 197.90625 C 551.41102 199.48779 552.20277 201.05169 553 202.625 C 553.83223 204.26667 554.66075 205.89979 555.46875 207.53125 C 555.69072 207.97968 555.93623 208.4274 556.15625 208.875 C 556.86422 210.31463 557.56339 211.75706 558.25 213.1875 C 559.06581 214.8881 559.8734 216.59499 560.65625 218.28125 L 613.9375 194.0625 L 668 313.125 C 673.19489 309.48876 679.00419 305.51155 685.84375 300.78125 C 685.12226 301.92514 684.42903 303.0932 683.71875 304.28125 C 683.41225 304.79331 683.08566 305.29261 682.78125 305.8125 C 682.14933 306.8933 681.52844 308.01169 680.90625 309.125 C 680.3792 310.06808 679.8635 311.00361 679.34375 311.96875 C 679.22109 312.19651 679.09099 312.4273 678.96875 312.65625 C 678.62341 313.30161 678.27945 313.93915 677.9375 314.59375 C 677.33807 315.74352 676.74492 316.917 676.15625 318.09375 C 675.12705 320.1511 674.11938 322.24298 673.125 324.375 L 804.0625 612.71875 L 714.15625 653.5625 C 714.15541 653.56539 714.12584 653.55961 714.125 653.5625 C 713.7499 654.8486 713.34945 656.12725 712.9375 657.40625 C 712.52657 658.68207 712.10323 659.95042 711.65625 661.21875 C 711.44028 661.83159 711.22429 662.45148 711 663.0625 C 710.76191 663.71101 710.52861 664.35359 710.28125 665 C 710.2528 665.07437 710.21608 665.14441 710.1875 665.21875 C 709.73438 666.3975 709.26484 667.57853 708.78125 668.75 C 708.64453 669.0812 708.51413 669.4194 708.375 669.75 C 707.98875 670.66748 707.59213 671.58725 707.1875 672.5 C 707.10427 672.68779 707.0215 672.87491 706.9375 673.0625 C 705.35754 676.59088 703.62694 680.08007 701.78125 683.53125 C 701.13083 684.74745 700.46348 685.95043 699.78125 687.15625 C 699.0978 688.36421 698.40225 689.55287 697.6875 690.75 C 696.97484 691.94362 696.24316 693.13006 695.5 694.3125 C 694.75965 695.49046 694.02001 696.6773 693.25 697.84375 C 692.47677 699.01508 691.67752 700.18444 690.875 701.34375 C 690.76831 701.49787 690.6697 701.6586 690.5625 701.8125 C 689.13403 703.86332 687.67371 705.8951 686.15625 707.90625 C 686.07617 708.01241 685.98657 708.1127 685.90625 708.21875 C 685.22561 709.11714 684.54165 710.01615 683.84375 710.90625 C 683.66115 711.13921 683.46502 711.36136 683.28125 711.59375 C 682.40118 712.70631 681.50026 713.80715 680.59375 714.90625 C 679.67877 716.01561 678.75379 717.12351 677.8125 718.21875 C 676.87735 719.30685 675.92926 720.395 674.96875 721.46875 C 673.03696 723.62828 671.06192 725.74473 669.03125 727.84375 C 668.91378 727.96518 668.80529 728.09753 668.6875 728.21875 L 844.34375 648.4375 C 858.11019 642.18581 864.15798 626.07888 857.90625 612.3125 L 649.6875 153.84375 C 644.99869 143.51897 634.75832 137.52184 624.125 137.8125 z M 489.875 196.40625 L 366.3125 252.53125 C 367.03963 253.56395 367.75289 254.60069 368.5 255.6875 C 368.82628 256.16175 369.13951 256.61003 369.46875 257.09375 C 369.66482 257.382 369.86543 257.67708 370.0625 257.96875 C 370.9357 259.2611 371.79915 260.58104 372.6875 261.9375 C 373.50991 263.19327 374.327 264.44347 375.15625 265.75 C 375.43028 266.18082 375.6945 266.59541 375.96875 267.03125 C 376.83119 268.40453 377.70123 269.79651 378.5625 271.21875 C 378.79683 271.60477 379.01614 271.98574 379.25 272.375 C 380.14535 273.8688 381.02143 275.36566 381.90625 276.90625 C 383.02282 278.84508 384.1032 280.81251 385.1875 282.8125 C 386.27044 284.80998 387.33937 286.85824 388.375 288.90625 C 389.4184 290.96963 390.45751 293.021 391.4375 295.125 L 495.8125 247.71875 C 495.81051 247.56405 495.81491 247.40497 495.8125 247.25 C 495.78819 245.70284 495.72106 244.1352 495.65625 242.5625 C 495.64735 242.34576 495.63464 242.12346 495.625 241.90625 C 495.55732 240.38844 495.4775 238.85215 495.375 237.3125 C 495.35652 237.03413 495.33208 236.7478 495.3125 236.46875 C 495.20788 234.98244 495.10311 233.47361 494.96875 231.96875 C 494.9382 231.62565 494.90703 231.28152 494.875 230.9375 C 494.84015 230.56421 494.78656 230.18685 494.75 229.8125 C 494.60486 228.32648 494.4521 226.84565 494.28125 225.34375 C 494.12149 223.93927 493.9618 222.51098 493.78125 221.09375 C 493.72063 220.61708 493.65659 220.13428 493.59375 219.65625 C 493.54312 219.27191 493.48953 218.8852 493.4375 218.5 C 493.23193 216.97819 493.00749 215.47181 492.78125 213.9375 C 492.5877 212.62489 492.39483 211.28961 492.1875 209.96875 C 492.09149 209.35612 492.00503 208.73927 491.90625 208.125 C 491.82258 207.60553 491.71057 207.08309 491.625 206.5625 C 491.39102 205.13897 491.15337 203.71245 490.90625 202.28125 C 490.69812 201.07587 490.4977 199.86639 490.28125 198.65625 C 490.14711 197.9054 490.01206 197.15874 489.875 196.40625 z M 362.09375 254.46875 L 155.09375 348.46875 C 141.3273 354.72046 135.24827 370.82737 141.5 384.59375 L 349.71875 843.0625 C 355.97047 856.82888 372.07729 862.90795 385.84375 856.65625 L 503.09375 803.40625 C 500.88745 803.4797 498.70173 803.53125 496.5 803.53125 C 494.73453 803.53125 492.98147 803.50543 491.21875 803.46875 C 490.48005 803.45339 489.73811 803.42805 489 803.40625 C 487.98161 803.37619 486.95464 803.35479 485.9375 803.3125 C 485.12288 803.27859 484.31372 803.22926 483.5 803.1875 C 482.79908 803.15155 482.10645 803.10427 481.40625 803.0625 C 480.85407 803.02955 480.3017 803.00531 479.75 802.96875 C 478.38756 802.87851 477.01552 802.79975 475.65625 802.6875 C 475.36368 802.66332 475.07366 802.61895 474.78125 802.59375 C 473.44518 802.4787 472.11381 802.35506 470.78125 802.21875 C 469.95786 802.13444 469.13443 802.02993 468.3125 801.9375 C 467.74886 801.87416 467.18792 801.81715 466.625 801.75 C 465.80062 801.65162 464.97901 801.54405 464.15625 801.4375 C 462.71992 801.25157 461.27479 801.05453 459.84375 800.84375 C 458.34105 800.62241 456.84009 800.3737 455.34375 800.125 C 454.66582 800.01222 453.98904 799.89964 453.3125 799.78125 C 452.86471 799.70295 452.41591 799.64326 451.96875 799.5625 C 450.95477 799.37923 449.94815 799.19589 448.9375 799 C 445.98501 798.42823 443.0462 797.80428 440.125 797.125 C 439.68741 797.02319 439.24934 796.91672 438.8125 796.8125 C 437.30448 796.4529 435.81113 796.07577 434.3125 795.6875 C 432.76438 795.28641 431.22497 794.86914 429.6875 794.4375 C 429.52205 794.39103 429.35283 794.35932 429.1875 794.3125 C 427.5757 793.85621 425.94302 793.36485 424.34375 792.875 C 422.84281 792.41495 421.33305 791.95827 419.84375 791.46875 C 419.69601 791.42021 419.55387 791.36133 419.40625 791.3125 C 418.03467 790.85864 416.67364 790.3851 415.3125 789.90625 C 415.05178 789.81453 414.79157 789.71764 414.53125 789.625 L 385.46875 802.8125 L 369.46875 767.59375 C 369.29862 767.48413 369.13855 767.36012 368.96875 767.25 C 368.2167 766.76229 367.46424 766.27863 366.71875 765.78125 C 365.91349 765.24398 365.10996 764.70481 364.3125 764.15625 C 363.04977 763.28764 361.8052 762.39686 360.5625 761.5 C 360.52022 761.46949 360.47975 761.43679 360.4375 761.40625 C 359.11116 760.44747 357.77152 759.49094 356.46875 758.5 C 355.2492 757.57228 354.04202 756.61211 352.84375 755.65625 C 351.74661 754.78107 350.67257 753.89874 349.59375 753 C 349.3717 752.81501 349.15876 752.62348 348.9375 752.4375 C 348.25676 751.86529 347.57946 751.30039 346.90625 750.71875 C 346.14832 750.064 345.40448 749.38544 344.65625 748.71875 C 343.79845 747.9543 342.93856 747.18638 342.09375 746.40625 C 342.05057 746.36638 342.0119 746.32116 341.96875 746.28125 C 340.83426 745.23171 339.70424 744.17156 338.59375 743.09375 C 338.52498 743.02702 338.44368 742.97309 338.375 742.90625 C 337.4619 742.01737 336.55267 741.12676 335.65625 740.21875 C 335.12751 739.68331 334.6166 739.13583 334.09375 738.59375 C 332.23512 736.6664 330.40716 734.69872 328.625 732.6875 C 328.58589 732.64338 328.53907 732.60666 328.5 732.5625 C 327.48677 731.4169 326.48765 730.2352 325.5 729.0625 C 325.31456 728.84231 325.12202 728.6274 324.9375 728.40625 C 324.52485 727.91173 324.1268 727.40554 323.71875 726.90625 C 323.09074 726.13776 322.46074 725.37353 321.84375 724.59375 C 321.35476 723.97577 320.88822 723.34381 320.40625 722.71875 C 320.02039 722.21833 319.63132 721.72371 319.25 721.21875 C 318.35449 720.03289 317.46386 718.83585 316.59375 717.625 C 315.80194 716.52312 315.02037 715.40379 314.25 714.28125 C 313.83925 713.68274 313.43582 713.07312 313.03125 712.46875 C 312.40032 711.52615 311.77197 710.58186 311.15625 709.625 C 311.01688 709.40844 310.88859 709.18604 310.75 708.96875 C 310.02395 707.83024 309.29801 706.68978 308.59375 705.53125 C 308.56203 705.47906 308.53168 705.42723 308.5 705.375 C 306.87494 702.69568 305.28654 699.9422 303.78125 697.15625 C 303.70818 697.02098 303.63528 696.88552 303.5625 696.75 C 303.47193 696.58139 303.37138 696.41899 303.28125 696.25 C 302.92422 695.58036 302.59998 694.89448 302.25 694.21875 C 301.83317 693.41412 301.40673 692.62577 301 691.8125 C 300.65316 691.11886 300.30818 690.41866 299.96875 689.71875 C 299.43379 688.61583 298.92258 687.49348 298.40625 686.375 C 298.20526 685.93954 298.01064 685.50032 297.8125 685.0625 C 297.44233 684.24473 297.0789 683.41974 296.71875 682.59375 C 296.22217 681.45452 295.7273 680.3111 295.25 679.15625 C 295.0005 678.55274 294.74418 677.95152 294.5 677.34375 C 294.09705 676.34065 293.70082 675.32719 293.3125 674.3125 C 292.81084 673.0017 292.32068 671.67388 291.84375 670.34375 C 291.78018 670.16643 291.71937 669.99016 291.65625 669.8125 C 291.02413 668.03382 290.431 666.25054 289.84375 664.4375 C 289.82332 664.37443 289.80162 664.31312 289.78125 664.25 C 289.43475 663.17665 289.08054 662.08536 288.75 661 C 288.5312 660.28138 288.3055 659.56762 288.09375 658.84375 C 288.06611 658.7493 288.02752 658.65704 288 658.5625 C 287.53583 656.96715 287.11703 655.33955 286.6875 653.71875 C 286.32265 652.34205 285.96449 650.95754 285.625 649.5625 C 285.46855 648.91969 285.33851 648.2717 285.1875 647.625 C 285.06816 647.11381 284.92843 646.60737 284.8125 646.09375 C 284.44343 644.45894 284.08413 642.81564 283.75 641.15625 C 283.67875 640.80242 283.6009 640.44869 283.53125 640.09375 C 283.20311 638.42141 282.91724 636.72835 282.625 635.03125 C 282.57992 634.76938 282.51297 634.51245 282.46875 634.25 C 282.138 632.28739 281.84458 630.308 281.5625 628.3125 C 281.55961 628.29207 281.56538 628.27043 281.5625 628.25 C 281.27717 626.22755 281.01575 624.18116 280.78125 622.125 C 280.77052 622.03081 280.76063 621.93801 280.75 621.84375 C 280.50932 619.7105 280.27884 617.57566 280.09375 615.40625 C 279.94097 613.61551 279.82098 611.84588 279.71875 610.09375 C 279.7048 609.85361 279.70051 609.61443 279.6875 609.375 C 279.6019 607.80875 279.54635 606.2551 279.5 604.71875 C 279.49164 604.43734 279.4758 604.15542 279.46875 603.875 C 279.37844 600.34948 279.39328 596.90735 279.5 593.53125 C 279.54882 591.98692 279.59958 590.45232 279.6875 588.9375 C 279.69172 588.86477 279.68319 588.79141 279.6875 588.71875 C 279.71516 588.25731 279.7813 587.80252 279.8125 587.34375 C 279.90447 585.97836 280.00227 584.62351 280.125 583.28125 C 280.2781 581.6068 280.45702 579.95239 280.65625 578.3125 C 280.85493 576.67716 281.06987 575.0713 281.3125 573.46875 L 281.3125 573.4375 L 195.34375 384.1875 L 371.84375 304 C 371.83761 303.86681 371.85015 303.72658 371.84375 303.59375 C 371.78191 302.31087 371.71021 301.06102 371.625 299.8125 C 371.59403 299.35877 371.5652 298.91795 371.53125 298.46875 C 371.51115 298.20209 371.48988 297.95257 371.46875 297.6875 C 371.37316 296.48849 371.27214 295.32268 371.15625 294.15625 C 371.13638 293.95645 371.11419 293.76135 371.09375 293.5625 C 371.03389 292.97945 370.97095 292.4186 370.90625 291.84375 C 370.79078 290.81809 370.66148 289.81214 370.53125 288.8125 C 370.33388 287.2948 370.13504 285.80159 369.90625 284.34375 C 369.90112 284.31111 369.88014 284.28261 369.875 284.25 C 369.64062 282.76206 369.38889 281.30069 369.125 279.875 C 368.86111 278.44931 368.57139 277.05115 368.28125 275.6875 C 367.99111 274.32385 367.68815 272.98933 367.375 271.6875 C 366.79732 269.28595 366.20273 267.0047 365.5625 264.8125 C 365.50704 264.62282 365.4621 264.43812 365.40625 264.25 C 365.35551 264.07882 365.30105 263.91989 365.25 263.75 C 364.94952 262.74996 364.62249 261.76785 364.3125 260.8125 C 363.94985 259.69485 363.5914 258.61919 363.21875 257.5625 C 363.11025 257.25483 363.01542 256.95876 362.90625 256.65625 C 362.63614 255.90779 362.36713 255.18579 362.09375 254.46875 z "
       transform="translate(0,52.362183)"
       id="path3222" />
    <path
       style="font-size:medium;font-style:normal;font-variant:normal;font-weight:normal;font-stretch:normal;text-indent:0;text-align:start;text-decoration:none;line-height:normal;letter-spacing:normal;word-spacing:normal;text-transform:none;direction:ltr;block-progression:tb;writing-mode:lr-tb;text-anchor:start;baseline-shift:baseline;opacity:0.24;color:#000000;fill:#eae3d0;fill-opacity:1;fill-rule:nonzero;stroke:none;stroke-width:98.35415648999999405;marker:none;visibility:visible;display:inline;overflow:visible;enable-background:accumulate;font-family:Sans;-inkscape-font-specification:Sans"
       d="M 478.0625 0.25 A 49.181996 49.181996 0 0 0 434.34375 28.78125 C 414.79597 71.11845 421.57581 110.56815 429.5625 147.25 L 476.28125 126.03125 C 476.17521 125.38094 476.07156 124.74162 475.96875 124.09375 C 475.86641 123.44863 475.75523 122.79884 475.65625 122.15625 C 475.33469 120.06902 475.03269 117.99576 474.75 115.9375 C 474.70884 115.63766 474.66527 115.33043 474.625 115.03125 C 474.61649 114.96807 474.60222 114.9069 474.59375 114.84375 C 474.35787 113.08375 474.17174 111.36081 473.96875 109.625 C 473.78556 108.0585 473.59136 106.48258 473.4375 104.9375 C 473.40319 104.59344 473.37653 104.2492 473.34375 103.90625 C 473.19331 102.33075 473.05412 100.76973 472.9375 99.21875 C 472.92969 99.115001 472.94515 99.009885 472.9375 98.90625 C 472.81399 97.231408 472.70562 95.58142 472.625 93.9375 C 472.54861 92.379866 472.47252 90.840443 472.4375 89.3125 C 472.43438 89.176515 472.44028 89.041991 472.4375 88.90625 C 472.41597 87.870111 472.40751 86.865389 472.40625 85.84375 C 472.40596 85.592081 472.40528 85.344517 472.40625 85.09375 C 472.4089 84.391281 472.42474 83.695258 472.4375 83 C 472.4611 81.718084 472.47191 80.443981 472.53125 79.1875 C 472.53273 79.155997 472.52974 79.125236 472.53125 79.09375 C 472.58937 77.881994 472.68817 76.686939 472.78125 75.5 C 472.83333 74.835281 472.87405 74.156663 472.9375 73.5 C 472.98006 73.060624 473.04599 72.623199 473.09375 72.1875 C 473.18004 71.39747 473.23999 70.621426 473.34375 69.84375 C 473.44004 69.123467 473.57581 68.428155 473.6875 67.71875 C 473.75837 67.267505 473.82902 66.821754 473.90625 66.375 C 473.95354 66.102028 474.0128 65.833775 474.0625 65.5625 C 474.07209 65.510024 474.08407 65.458662 474.09375 65.40625 C 474.21899 64.729818 474.32822 64.040658 474.46875 63.375 C 474.47085 63.365024 474.46664 63.353723 474.46875 63.34375 C 474.50464 63.17408 474.55685 63.012709 474.59375 62.84375 C 474.77266 62.023288 474.95311 61.209666 475.15625 60.40625 C 475.25979 59.997241 475.3588 59.592 475.46875 59.1875 C 475.55148 58.882862 475.63234 58.583299 475.71875 58.28125 C 475.82677 57.903862 475.94867 57.529552 476.0625 57.15625 C 476.30932 56.346605 476.56897 55.540026 476.84375 54.75 C 476.90997 54.559729 476.99463 54.376615 477.0625 54.1875 C 477.30372 53.514916 477.55009 52.845236 477.8125 52.1875 C 477.87139 52.039903 477.94003 51.89684 478 51.75 C 478.3227 50.959782 478.64544 50.174172 479 49.40625 C 479.1989 50.4452 479.41935 51.503231 479.65625 52.5625 C 479.68462 52.689336 479.7211 52.810377 479.75 52.9375 C 480.02008 54.125493 480.30929 55.318775 480.625 56.53125 C 480.90063 57.589772 481.19093 58.673493 481.5 59.75 C 481.69951 60.444897 481.91199 61.141575 482.125 61.84375 C 482.29218 62.39482 482.48094 62.944544 482.65625 63.5 C 482.71527 63.686941 482.75257 63.875068 482.8125 64.0625 C 483.11695 65.014699 483.45383 65.972877 483.78125 66.9375 C 483.87298 67.207755 483.93776 67.47879 484.03125 67.75 C 484.19299 68.219425 484.36431 68.684002 484.53125 69.15625 C 484.90475 70.21254 485.28871 71.273709 485.6875 72.34375 C 485.8109 72.674901 485.93675 73.011314 486.0625 73.34375 C 486.34164 74.081585 486.61574 74.818461 486.90625 75.5625 C 486.98453 75.763049 487.07716 75.955258 487.15625 76.15625 C 487.89912 78.044081 488.68863 79.94959 489.5 81.875 C 489.70526 82.362093 489.88432 82.854361 490.09375 83.34375 C 490.1307 83.430094 490.18167 83.507335 490.21875 83.59375 C 490.70273 84.721779 491.18228 85.860222 491.6875 87 C 491.79034 87.231965 491.89631 87.455062 492 87.6875 C 492.51746 88.84773 493.02446 90.015818 493.5625 91.1875 C 494.44594 93.111231 495.37764 95.047455 496.3125 97 C 496.9553 98.342592 497.61612 99.707266 498.28125 101.0625 C 499.05689 102.6429 499.85263 104.21611 500.65625 105.8125 C 500.66049 105.82092 500.65201 105.83533 500.65625 105.84375 C 501.88835 108.2911 503.14745 110.73778 504.4375 113.21875 L 549.875 92.59375 C 537.96462 69.303976 529.14363 49.884387 527.28125 40.15625 A 49.181996 49.181996 0 0 0 478.0625 0.25 z M 583.0625 154.09375 L 538.125 174.53125 C 539.56033 177.14154 540.96569 179.74177 542.375 182.34375 C 543.05316 183.59581 543.73576 184.84443 544.40625 186.09375 C 545.13 187.44208 545.84893 188.81176 546.5625 190.15625 C 547.93434 192.74181 549.267 195.33858 550.59375 197.90625 C 551.7725 200.1875 552.9577 202.45518 554.09375 204.71875 C 554.23896 205.00794 554.3868 205.30488 554.53125 205.59375 C 554.65029 205.83193 554.75648 206.07454 554.875 206.3125 C 556.00312 208.57758 557.11062 210.81937 558.1875 213.0625 C 558.20753 213.10421 558.22998 213.1458 558.25 213.1875 C 559.01001 214.7718 559.7685 216.36562 560.5 217.9375 C 560.70181 218.37096 560.89422 218.81754 561.09375 219.25 C 561.77603 220.72877 562.43945 222.18985 563.09375 223.65625 C 563.39334 224.32804 563.70659 225.01846 564 225.6875 C 564.35514 226.49701 564.71672 227.31967 565.0625 228.125 C 565.25921 228.58341 565.46266 229.04298 565.65625 229.5 C 565.98076 230.26563 566.30948 231.05092 566.625 231.8125 C 566.82718 232.30099 567.02037 232.79448 567.21875 233.28125 C 567.51293 234.00247 567.80812 234.72015 568.09375 235.4375 C 568.30456 235.96748 568.51273 236.50344 568.71875 237.03125 C 568.97974 237.69933 569.24686 238.36674 569.5 239.03125 C 569.55491 239.17552 569.60172 239.32465 569.65625 239.46875 C 570.0518 240.51406 570.43722 241.55769 570.8125 242.59375 C 571.03457 243.20683 571.254 243.82777 571.46875 244.4375 C 571.66665 244.999 571.87095 245.56641 572.0625 246.125 C 572.28417 246.77213 572.50579 247.41937 572.71875 248.0625 C 572.89023 248.57984 573.05303 249.11031 573.21875 249.625 C 573.58862 250.77531 573.94099 251.92586 574.28125 253.0625 C 574.58836 254.08841 574.90543 255.11069 575.1875 256.125 C 575.21906 256.23837 575.25001 256.35553 575.28125 256.46875 C 575.48835 257.2202 575.68215 257.97392 575.875 258.71875 C 575.9714 259.09067 576.06348 259.47351 576.15625 259.84375 C 576.35127 260.62321 576.54008 261.41565 576.71875 262.1875 C 576.79325 262.50912 576.86589 262.83597 576.9375 263.15625 C 576.96092 263.26115 576.97689 263.36399 577 263.46875 C 577.2183 264.45836 577.43505 265.42989 577.625 266.40625 C 577.78864 267.24737 577.95177 268.10652 578.09375 268.9375 C 578.1341 269.17339 578.18018 269.42119 578.21875 269.65625 C 578.35975 270.5176 578.47699 271.36877 578.59375 272.21875 C 578.68179 272.85825 578.76975 273.4921 578.84375 274.125 C 578.91415 274.72869 578.97386 275.33993 579.03125 275.9375 C 579.07626 276.40462 579.11932 276.84919 579.15625 277.3125 C 579.19176 277.75848 579.22208 278.21385 579.25 278.65625 C 579.29798 279.41832 579.31872 280.18625 579.34375 280.9375 C 579.35273 281.20929 579.36907 281.47964 579.375 281.75 C 579.37683 281.8318 579.37345 281.91833 579.375 282 C 579.39242 282.9439 579.3956 283.88659 579.375 284.8125 C 579.35275 285.82609 579.31915 286.82112 579.25 287.8125 C 573.96234 363.61997 525.1307 425.65057 509.21875 485.65625 C 494.0669 542.79536 533.628 600.71137 582.40625 574.875 C 593.80876 568.83544 598.17318 556.95088 599.40625 541.4375 C 599.47115 540.62101 599.51431 539.80501 599.5625 538.96875 C 601.68279 502.17344 588.1839 446.54749 607.875 399.71875 C 636.51661 331.60419 641.2901 331.59495 685.84375 300.78125 C 657.20212 346.19092 636.52555 427.2897 652.4375 462.96875 C 654.4265 467.42863 657.04875 471.82701 660.125 476.3125 C 660.89406 477.43387 661.71026 478.58588 662.53125 479.71875 C 678.54065 501.80971 703.81092 526.454 714.59375 568.34375 C 714.87023 569.41785 715.14922 570.49674 715.40625 571.59375 C 716.43436 575.98178 717.28397 580.56933 717.96875 585.34375 C 718.13995 586.53736 718.28976 587.71851 718.4375 588.9375 C 719.76712 599.90843 720.14505 611.92865 719.25 625.15625 C 719.17076 626.32734 719.08032 627.48834 718.96875 628.65625 C 718.93993 628.95819 718.90596 629.26079 718.875 629.5625 C 718.86642 629.64602 718.85249 629.729 718.84375 629.8125 C 718.70744 631.11448 718.55081 632.42123 718.375 633.71875 C 718.36508 633.79191 718.35379 633.86436 718.34375 633.9375 C 718.26538 634.50861 718.17969 635.08606 718.09375 635.65625 C 718.06083 635.87453 718.03402 636.09436 718 636.3125 C 717.8568 637.23064 717.69388 638.1469 717.53125 639.0625 C 717.52764 639.08281 717.53487 639.10469 717.53125 639.125 C 717.32131 640.30391 717.08548 641.48184 716.84375 642.65625 C 716.54412 644.11197 716.22271 645.55172 715.875 647 C 715.53234 648.42726 715.16976 649.86177 714.78125 651.28125 C 714.39032 652.70957 713.96776 654.14262 713.53125 655.5625 C 713.09286 656.98848 712.63976 658.39559 712.15625 659.8125 C 711.91504 660.51922 711.65853 661.23314 711.40625 661.9375 C 711.27227 662.31163 711.13708 662.68906 711 663.0625 C 710.7086 663.85627 710.39904 664.64689 710.09375 665.4375 C 709.96968 665.75877 709.87635 666.08551 709.75 666.40625 C 709.5066 667.02426 709.25179 667.634 709 668.25 C 708.79601 668.74907 708.58446 669.25228 708.375 669.75 C 708.00022 670.64044 707.61085 671.52026 707.21875 672.40625 C 706.63484 673.72597 706.05923 675.03431 705.4375 676.34375 C 705.40737 676.40719 705.37396 676.46784 705.34375 676.53125 C 704.71196 677.85752 704.04482 679.18482 703.375 680.5 C 703.34972 680.54964 703.33783 680.60663 703.3125 680.65625 C 702.93461 681.39643 702.546 682.13847 702.15625 682.875 C 701.82976 683.49204 701.49096 684.10433 701.15625 684.71875 C 700.90623 685.17765 700.66082 685.63634 700.40625 686.09375 C 699.91392 686.97843 699.41542 687.83976 698.90625 688.71875 C 698.79819 688.90531 698.70256 689.09496 698.59375 689.28125 C 698.18313 689.98429 697.73375 690.67573 697.3125 691.375 C 697.09981 691.72799 696.90287 692.08549 696.6875 692.4375 C 696.63161 692.52887 696.58732 692.62744 696.53125 692.71875 C 695.94074 693.68011 695.32907 694.63984 694.71875 695.59375 C 694.49131 695.94932 694.26141 696.30174 694.03125 696.65625 C 693.58479 697.34379 693.1441 698.03525 692.6875 698.71875 C 692.2754 699.3358 691.85776 699.94881 691.4375 700.5625 C 691.15091 700.98093 690.85285 701.39565 690.5625 701.8125 C 689.95667 702.6824 689.34076 703.54338 688.71875 704.40625 C 687.87514 705.57631 687.02906 706.74947 686.15625 707.90625 C 686.07589 708.01278 685.98685 708.11234 685.90625 708.21875 C 685.22561 709.11714 684.54165 710.01615 683.84375 710.90625 C 683.56374 711.26343 683.28275 711.61293 683 711.96875 C 682.49325 712.6064 681.98423 713.24177 681.46875 713.875 C 681.38963 713.97221 681.29808 714.05915 681.21875 714.15625 C 680.49446 715.04283 679.77237 715.93482 679.03125 716.8125 C 678.31791 717.65729 677.60364 718.5074 676.875 719.34375 C 675.9237 720.43558 674.9456 721.51664 673.96875 722.59375 C 673.86453 722.70866 673.76075 722.82276 673.65625 722.9375 C 672.89641 723.77177 672.14984 724.58109 671.375 725.40625 C 671.04005 725.76301 670.71271 726.11372 670.375 726.46875 C 669.81936 727.05288 669.25054 727.63935 668.6875 728.21875 L 753.53125 689.6875 C 761.64875 670.51104 766.85117 650.03401 768.3125 628.4375 C 776.03029 514.3787 700.69208 449.35179 697.40625 443.0625 C 698.04594 443.51819 695.03103 420.49784 700.4375 396.1875 C 706.01837 371.09296 717.31325 343.05143 727.4375 327 A 49.181996 49.181996 0 0 0 727.9375 326.125 L 694.5 252.46875 A 49.181996 49.181996 0 0 0 657.875 260.34375 C 646.95284 267.89761 637.33728 274.84943 628.59375 282.15625 C 629.0754 232.7196 605.18351 193.36715 583.0625 154.09375 z M 350.84375 180.71875 A 49.181996 49.181996 0 0 0 308.15625 202.375 L 355 181.09375 A 49.181996 49.181996 0 0 0 350.84375 180.71875 z M 489.875 196.40625 L 442.75 217.8125 C 445.92212 241.48747 446.81848 260.04622 444.71875 266.875 C 443.09684 272.14979 441.46471 276.85081 439.84375 281.6875 C 433.3984 266.87974 425.62616 253.69561 418.375 242.0625 C 416.165 238.51698 413.95953 235.12594 411.78125 231.875 L 366.3125 252.53125 C 374.53552 264.17311 384.11486 279.25763 391.625 295.5 C 393.49449 299.54319 395.23157 303.64322 396.78125 307.78125 C 397.1688 308.8121 397.54286 309.84151 397.90625 310.875 C 398.99299 313.97796 399.97349 317.07908 400.8125 320.1875 C 401.31007 322.03094 401.75867 323.88227 402.15625 325.71875 C 402.16524 325.76026 402.17857 325.80225 402.1875 325.84375 C 402.22581 326.02069 402.27518 326.19817 402.3125 326.375 C 402.36251 326.61339 402.38929 326.85555 402.4375 327.09375 C 402.58145 327.80501 402.74746 328.50947 402.875 329.21875 C 402.88982 329.30056 402.89166 329.38697 402.90625 329.46875 C 403.04163 330.23297 403.16568 330.9886 403.28125 331.75 C 403.32108 332.01023 403.36881 332.27141 403.40625 332.53125 C 403.538 333.45381 403.64892 334.36388 403.75 335.28125 C 403.76044 335.3751 403.77114 335.46872 403.78125 335.5625 C 403.85465 336.25004 403.91329 336.94086 403.96875 337.625 C 404.02694 338.3353 404.08686 339.04396 404.125 339.75 C 404.12885 339.82185 404.12136 339.89695 404.125 339.96875 C 404.15267 340.51054 404.172 341.05471 404.1875 341.59375 C 404.21591 342.59137 404.23298 343.57477 404.21875 344.5625 C 403.68402 381.68355 411.71097 400.52785 424.3125 399.65625 C 424.77922 399.62397 425.23965 399.55519 425.71875 399.46875 C 442.96623 396.35691 468.10458 358.1109 491.71875 281.3125 C 492.02359 280.3211 492.29474 279.32784 492.5625 278.3125 C 492.68999 277.82905 492.81821 277.33249 492.9375 276.84375 C 493.06881 276.30602 493.19096 275.76277 493.3125 275.21875 C 493.53074 274.24148 493.74997 273.24703 493.9375 272.25 C 493.94921 272.1877 493.95716 272.12488 493.96875 272.0625 C 494.16601 271.00176 494.33615 269.92595 494.5 268.84375 C 494.61335 268.0951 494.71465 267.35234 494.8125 266.59375 C 494.95376 265.49739 495.10885 264.39767 495.21875 263.28125 C 495.24034 263.06226 495.26083 262.84474 495.28125 262.625 C 495.29273 262.50125 495.30139 262.37399 495.3125 262.25 C 495.37532 261.54962 495.4176 260.83283 495.46875 260.125 C 495.49963 259.69683 495.53581 259.27459 495.5625 258.84375 C 495.58766 258.43888 495.60347 258.03219 495.625 257.625 C 495.66347 256.89324 495.69178 256.14533 495.71875 255.40625 C 495.73377 254.99571 495.73845 254.56899 495.75 254.15625 C 495.77108 253.40294 495.80272 252.63548 495.8125 251.875 C 495.82764 250.69784 495.82343 249.53743 495.8125 248.34375 C 495.806 247.63375 495.79663 246.90311 495.78125 246.1875 C 495.75045 244.76884 495.68919 243.34595 495.625 241.90625 C 495.46476 238.31243 495.22141 234.6477 494.875 230.9375 C 494.70179 229.0824 494.49513 227.224 494.28125 225.34375 C 494.06737 223.4635 493.8444 221.55903 493.59375 219.65625 C 493.3431 217.75347 493.06476 215.86017 492.78125 213.9375 C 492.6152 212.81139 492.45751 211.66347 492.28125 210.53125 C 492.15745 209.73556 492.03477 208.92348 491.90625 208.125 C 491.8326 207.66773 491.73137 207.20814 491.65625 206.75 C 491.09395 203.32088 490.50771 199.87589 489.875 196.40625 z M 362.09375 254.46875 L 317.5625 274.6875 C 318.71202 278.6147 319.9227 283.74592 321.0625 290.4375 C 325.33821 315.53944 324.87419 358.55555 292.96875 425.625 C 274.66256 464.10697 236.64547 510.83817 230.96875 581.5625 L 329.0625 797.5625 C 355.89819 817.69451 386.50516 832.56902 418.6875 841.75 L 503.0625 803.40625 C 500.86679 803.47915 498.69135 803.53125 496.5 803.53125 C 391.48077 803.53125 290.60266 738.57984 280.09375 615.40625 C 273.72889 540.8046 311.91579 500.26856 337.375 446.75 C 338.41695 444.55968 339.42012 442.40545 340.40625 440.25 C 340.79595 439.3983 341.18139 438.56501 341.5625 437.71875 C 342.14833 436.418 342.71548 435.13168 343.28125 433.84375 C 343.36495 433.65325 343.44799 433.47147 343.53125 433.28125 C 344.37219 431.36004 345.17173 429.45516 345.96875 427.5625 C 346.84468 425.48245 347.70722 423.42064 348.53125 421.375 C 349.2582 419.57034 349.96881 417.77794 350.65625 416 C 350.74988 415.75784 350.84459 415.52291 350.9375 415.28125 C 351.38713 414.11182 351.81719 412.97034 352.25 411.8125 C 352.56304 410.97514 352.88315 410.1438 353.1875 409.3125 C 353.39169 408.75476 353.58094 408.21126 353.78125 407.65625 C 354.29293 406.23891 354.79456 404.83711 355.28125 403.4375 C 356.13144 400.99256 356.91166 398.57845 357.6875 396.1875 C 357.75893 395.96734 357.83544 395.75095 357.90625 395.53125 C 358.29414 394.32805 358.66176 393.15825 359.03125 391.96875 C 359.47996 390.52451 359.92166 389.1116 360.34375 387.6875 C 360.47259 387.25298 360.59236 386.8389 360.71875 386.40625 C 361.34261 384.27078 361.93457 382.1524 362.5 380.0625 C 362.91176 378.54058 363.30587 377.06031 363.6875 375.5625 C 363.79702 375.13277 363.89292 374.709 364 374.28125 C 364.22215 373.3938 364.44449 372.50393 364.65625 371.625 C 365.16287 369.52206 365.64518 367.42925 366.09375 365.375 C 366.11232 365.28997 366.13778 365.20995 366.15625 365.125 C 366.60245 363.0728 367.01593 361.03491 367.40625 359.03125 C 367.4534 358.78908 367.51615 358.55396 367.5625 358.3125 C 367.64573 357.8793 367.70058 357.46217 367.78125 357.03125 C 368.01788 355.76727 368.25375 354.52566 368.46875 353.28125 C 368.64515 352.26005 368.80659 351.2268 368.96875 350.21875 C 368.98395 350.12425 368.98492 350.03188 369 349.9375 C 369.24001 348.43495 369.47831 346.94205 369.6875 345.46875 C 369.71878 345.24836 369.75065 345.03223 369.78125 344.8125 C 369.97124 343.44938 370.1481 342.11925 370.3125 340.78125 C 370.32799 340.65524 370.32848 340.53204 370.34375 340.40625 C 370.49702 339.14351 370.6501 337.8966 370.78125 336.65625 C 370.79682 336.50901 370.82849 336.36568 370.84375 336.21875 C 370.87325 335.93486 370.87789 335.65772 370.90625 335.375 C 371.14973 332.94757 371.36885 330.55964 371.53125 328.21875 C 371.55072 327.93797 371.57541 327.65454 371.59375 327.375 C 371.62436 326.90892 371.65998 326.46263 371.6875 326 C 371.70329 325.7349 371.70397 325.48271 371.71875 325.21875 C 371.80865 323.61345 371.88383 322.03223 371.9375 320.46875 C 371.9414 320.35507 371.93379 320.23846 371.9375 320.125 C 371.95063 319.72425 371.95793 319.3355 371.96875 318.9375 C 372.01065 317.40113 372.05396 315.90169 372.0625 314.40625 C 372.07159 312.85831 372.05609 311.34794 372.03125 309.84375 C 372.01746 309.01568 371.99238 308.18984 371.96875 307.375 C 371.96542 307.2597 371.97228 307.14629 371.96875 307.03125 C 371.96227 306.82025 371.94463 306.61636 371.9375 306.40625 C 371.90152 305.34567 371.86455 304.28794 371.8125 303.25 C 371.75014 302.00644 371.67807 300.77362 371.59375 299.5625 C 371.51823 298.4778 371.43598 297.40249 371.34375 296.34375 C 371.33277 296.2178 371.32371 296.09434 371.3125 295.96875 C 371.29847 295.81136 371.29564 295.65681 371.28125 295.5 C 371.19464 294.55608 371.09923 293.61058 371 292.6875 C 370.99203 292.61353 370.97679 292.54258 370.96875 292.46875 C 370.83356 291.22532 370.68799 290.01806 370.53125 288.8125 C 370.39729 287.78236 370.24242 286.7838 370.09375 285.78125 C 369.94299 284.76282 369.78994 283.7713 369.625 282.78125 C 369.61452 282.71843 369.60428 282.65646 369.59375 282.59375 C 369.43891 281.67079 369.29131 280.77327 369.125 279.875 C 369.10153 279.74819 369.08619 279.62632 369.0625 279.5 C 368.81984 278.20616 368.54559 276.92986 368.28125 275.6875 C 368.12731 274.96399 367.97313 274.26859 367.8125 273.5625 C 367.66789 272.92617 367.52467 272.30973 367.375 271.6875 C 367.29838 271.36896 367.23413 271.06484 367.15625 270.75 C 366.91585 269.77811 366.6577 268.81176 366.40625 267.875 C 366.2398 267.25489 366.07703 266.66725 365.90625 266.0625 C 365.84505 265.84564 365.78047 265.62114 365.71875 265.40625 C 365.38019 264.22745 365.03993 263.11961 364.6875 262 C 364.56376 261.60689 364.43769 261.19833 364.3125 260.8125 C 363.94985 259.69485 363.5914 258.61919 363.21875 257.5625 C 362.87965 256.60093 362.53231 255.66126 362.1875 254.75 C 362.15201 254.65621 362.12929 254.56201 362.09375 254.46875 z "
       transform="translate(0,52.362183)"
       id="path3265" />
    <path
       style="opacity:0.4;fill:#3a3935;fill-opacity:1;fill-rule:nonzero;stroke:none"
       d="M 655.25 47.625 C 650.81944 47.7461 646.33327 48.79637 642.03125 50.75 L 504.4375 113.21875 C 492.32448 89.923561 482.56103 68.007291 479 49.40625 C 469.88714 69.143167 471.43994 96.340807 476.28125 126.03125 L 68.9375 310.96875 C 51.729416 318.78328 44.154095 338.94851 51.96875 356.15625 L 312.21875 929.21875 C 320.03343 946.4265 340.19816 954.00195 357.40625 946.1875 L 930.5 685.9375 C 947.70804 678.12298 955.28352 657.98899 947.46875 640.78125 L 687.1875 67.65625 C 681.32647 54.75045 668.54167 47.261691 655.25 47.625 z M 624.125 137.8125 C 634.75832 137.52184 644.99869 143.51897 649.6875 153.84375 L 857.90625 612.3125 C 864.15798 626.07888 858.11019 642.18581 844.34375 648.4375 L 668.6875 728.21875 C 697.51801 698.55034 716.71425 662.63117 719.25 625.15625 C 725.61477 531.09332 668.34952 498.64777 652.4375 462.96875 C 636.52555 427.2897 657.20212 346.19092 685.84375 300.78125 C 641.2901 331.59495 636.51661 331.60419 607.875 399.71875 C 579.2334 467.83328 620.81471 554.53121 582.40625 574.875 C 533.628 600.71137 494.0669 542.79536 509.21875 485.65625 C 525.1307 425.65057 573.96234 363.61997 579.25 287.8125 C 581.37253 257.38306 561.07874 216.33252 538.09375 174.53125 L 613.5625 140.25 C 617.00412 138.68708 620.58056 137.90939 624.125 137.8125 z M 489.875 196.40625 C 495.61292 227.8718 498.89686 257.96776 491.71875 281.3125 C 449.738 417.84298 402.95125 432.55314 404.21875 344.5625 C 404.67275 313.04245 382.77749 275.95417 366.3125 252.5625 C 366.30736 252.5552 366.31764 252.53855 366.3125 252.53125 L 489.875 196.40625 z M 362.09375 254.46875 C 374.23427 286.33912 383.75382 349.25561 337.375 446.75 C 311.91579 500.26856 273.72889 540.8046 280.09375 615.40625 C 290.60266 738.57984 391.48077 803.53125 496.5 803.53125 C 498.70173 803.53125 500.88745 803.4797 503.09375 803.40625 L 385.84375 856.65625 C 372.07729 862.90795 355.97047 856.82888 349.71875 843.0625 L 141.5 384.59375 C 135.24827 370.82737 141.3273 354.72046 155.09375 348.46875 L 362.09375 254.46875 z "
       id="path4021"
       transform="translate(0,52.362183)" />
  </g>
</svg>
