/* XPM */
static char * qutim1_xpm[] = {
"32 32 559 2",
"  	c None",
". 	c #928C8C",
"+ 	c #9D9A9A",
"@ 	c #706B6B",
"# 	c #7B7B7B",
"$ 	c #838484",
"% 	c #8E8E8E",
"& 	c #969595",
"* 	c #46BCE8",
"= 	c #36A7D6",
"- 	c #28A5DE",
"; 	c #4E4A4A",
"> 	c #565757",
", 	c #5B5B5B",
"' 	c #6C6C6C",
") 	c #888888",
"! 	c #787878",
"~ 	c #838281",
"{ 	c #80726F",
"] 	c #54A5C4",
"^ 	c #43BEED",
"/ 	c #38B4E8",
"( 	c #21B2F0",
"_ 	c #494646",
": 	c #464646",
"< 	c #3F3F40",
"[ 	c #656565",
"} 	c #9F9F9F",
"| 	c #C9C8C7",
"1 	c #B2B3B3",
"2 	c #8EAFBC",
"3 	c #68A8C0",
"4 	c #5EC0E5",
"5 	c #50C9F7",
"6 	c #41C2F4",
"7 	c #38C1F4",
"8 	c #538CAA",
"9 	c #2CB8F1",
"0 	c #26A0DD",
"a 	c #544E4F",
"b 	c #4F4E4F",
"c 	c #4B4A4A",
"d 	c #444444",
"e 	c #7C7B7C",
"f 	c #C7C7C7",
"g 	c #C9C9C9",
"h 	c #B2B6B7",
"i 	c #91C8DE",
"j 	c #74D5F9",
"k 	c #66CEF6",
"l 	c #59C9F4",
"m 	c #4AC5F3",
"n 	c #3EC1F3",
"o 	c #43C2F6",
"p 	c #5396CB",
"q 	c #548CAD",
"r 	c #1DA9EC",
"s 	c #23A0E3",
"t 	c #5B5658",
"u 	c #575659",
"v 	c #545356",
"w 	c #474647",
"x 	c #8A9BAB",
"y 	c #D4D5D4",
"z 	c #DCDCDC",
"A 	c #C0BFBF",
"B 	c #A0B0B6",
"C 	c #82D7F7",
"D 	c #72D2F6",
"E 	c #68CFF6",
"F 	c #5ACAF5",
"G 	c #4BC6F5",
"H 	c #57BDF3",
"I 	c #6094BB",
"J 	c #5186A4",
"K 	c #1DA5EB",
"L 	c #1E9EE6",
"M 	c #625D60",
"N 	c #5F5F62",
"O 	c #5B5A5D",
"P 	c #535354",
"Q 	c #989898",
"R 	c #CACACA",
"S 	c #B0B8C3",
"T 	c #ADDDEF",
"U 	c #C7C5C4",
"V 	c #ABB3B6",
"W 	c #7ED7F9",
"X 	c #71D1F6",
"Y 	c #61CCF5",
"Z 	c #53C7F4",
"` 	c #48C5F6",
" .	c #7CA7CE",
"..	c #606061",
"+.	c #3794B9",
"@.	c #23B1ED",
"#.	c #37B3F3",
"$.	c #3C88B3",
"%.	c #26A8EB",
"&.	c #1B9BE7",
"*.	c #696569",
"=.	c #67676B",
"-.	c #5E5D61",
";.	c #5E5E5F",
">.	c #A6A6A5",
",.	c #E7E7E7",
"'.	c #DBDBDB",
").	c #C1C1C1",
"!.	c #A4A9AE",
"~.	c #96E3FF",
"{.	c #ACAEB0",
"].	c #82BFD8",
"^.	c #6CD0F5",
"/.	c #5ECBF4",
"(.	c #51C7F4",
"_.	c #41C2F3",
":.	c #6AB4E0",
"<.	c #B6AFAA",
"[.	c #43AFDB",
"}.	c #23B2EE",
"|.	c #24AFEE",
"1.	c #1F9CE1",
"2.	c #1C9DE7",
"3.	c #1A95E5",
"4.	c #706D72",
"5.	c #706F75",
"6.	c #5C5B60",
"7.	c #6D6C6E",
"8.	c #B0B1B0",
"9.	c #E3E3E3",
"0.	c #D5D5D5",
"a.	c #D3D3D3",
"b.	c #CDCDCD",
"c.	c #AFAEAD",
"d.	c #92BECE",
"e.	c #87DCFD",
"f.	c #918E93",
"g.	c #6CC5EC",
"h.	c #5CCAF4",
"i.	c #53C8F4",
"j.	c #4EC7F5",
"k.	c #31BEF4",
"l.	c #84B0C5",
"m.	c #91A7B0",
"n.	c #23B4F3",
"o.	c #21ADEC",
"p.	c #20A9ED",
"q.	c #2197DA",
"r.	c #1F9EE7",
"s.	c #1996E4",
"t.	c #1991E3",
"u.	c #78757B",
"v.	c #79787D",
"w.	c #5B5A5E",
"x.	c #78787A",
"y.	c #C4C4C4",
"z.	c #E1E1E1",
"A.	c #D6D6D6",
"B.	c #D0D0D0",
"C.	c #C8C8C8",
"D.	c #B3B3B3",
"E.	c #95A4AA",
"F.	c #83DAFB",
"G.	c #74D4F8",
"H.	c #7CA8BA",
"I.	c #58C9F5",
"J.	c #3EC1F2",
"K.	c #38C0F3",
"L.	c #26B8F0",
"M.	c #30B0E6",
"N.	c #26AFEB",
"O.	c #33B5EF",
"P.	c #1FA8EB",
"Q.	c #21A6EA",
"R.	c #24A8ED",
"S.	c #1A9FE9",
"T.	c #26A3E9",
"U.	c #32AAEB",
"V.	c #1F99E5",
"W.	c #238BE0",
"X.	c #7D7A81",
"Y.	c #7B7B81",
"Z.	c #7D7E7F",
"`.	c #DEDEDE",
" +	c #EEEEEE",
".+	c #E9E9E9",
"++	c #D8D8D8",
"@+	c #D4D4D4",
"#+	c #9B9795",
"$+	c #7ECAE7",
"%+	c #76D3F7",
"&+	c #69CEF6",
"*+	c #55C9F5",
"=+	c #47C4F3",
"-+	c #3AC0F2",
";+	c #2BBBF1",
">+	c #25B6F0",
",+	c #24B3EF",
"'+	c #22AFEE",
")+	c #21ACEC",
"!+	c #1FA7EA",
"~+	c #1EA4E9",
"{+	c #1EA1E8",
"]+	c #22A1E8",
"^+	c #1A99E5",
"/+	c #1D98E5",
"(+	c #289FE7",
"_+	c #379CE9",
":+	c #807B82",
"<+	c #7D7C82",
"[+	c #E0E4E7",
"}+	c #E2E2E2",
"|+	c #D1D1D1",
"1+	c #CCCCCC",
"2+	c #B1B1B1",
"3+	c #8499A3",
"4+	c #6FD3F9",
"5+	c #66CDF6",
"6+	c #59C9F5",
"7+	c #44C3F3",
"8+	c #39BFF3",
"9+	c #35BEF2",
"0+	c #24B5F0",
"a+	c #2EB6F0",
"b+	c #35B7F0",
"c+	c #25ADEC",
"d+	c #1FA7EB",
"e+	c #21A5EA",
"f+	c #2EAAEB",
"g+	c #28A4E9",
"h+	c #1998E5",
"i+	c #3AA1EC",
"j+	c #5398DB",
"k+	c #8A8A91",
"l+	c #B1B4BA",
"m+	c #CECECE",
"n+	c #CBCBCB",
"o+	c #C5C5C5",
"p+	c #A1A0A0",
"q+	c #71ACC5",
"r+	c #4FC6F3",
"s+	c #33BDF2",
"t+	c #27B9F1",
"u+	c #24B5EF",
"v+	c #28B0ED",
"w+	c #31B1EE",
"x+	c #21A8EB",
"y+	c #1DA2E8",
"z+	c #2AA6EA",
"A+	c #2FA7EA",
"B+	c #30A6EA",
"C+	c #219BE8",
"D+	c #5384B8",
"E+	c #2C6A96",
"F+	c #248BE2",
"G+	c #C8C7CC",
"H+	c #A9ABB1",
"I+	c #DBDDDE",
"J+	c #BDBDBD",
"K+	c #BEBEBE",
"L+	c #B6B6B6",
"M+	c #918D8B",
"N+	c #5FBFE5",
"O+	c #4CC5F3",
"P+	c #30BCF2",
"Q+	c #26B8F1",
"R+	c #24B4EF",
"S+	c #24B1EE",
"T+	c #24AEED",
"U+	c #20A9EB",
"V+	c #1EA5E9",
"W+	c #1DA1E8",
"X+	c #1C9EE7",
"Y+	c #219EE7",
"Z+	c #2FA3E9",
"`+	c #2A9EE8",
" @	c #377CB6",
".@	c #4D4A47",
"+@	c #4B4B4F",
"@@	c #1185DF",
"#@	c #2976C6",
"$@	c #D3D7DD",
"%@	c #D6DADF",
"&@	c #CECECD",
"*@	c #C3C3C3",
"=@	c #B8B8B8",
"-@	c #908A88",
";@	c #4AC5F8",
">@	c #3CC0F2",
",@	c #2DBBF1",
"'@	c #25B7F1",
")@	c #22AFED",
"!@	c #22ACEC",
"~@	c #21A9EB",
"{@	c #1FA4EA",
"]@	c #1DA1E9",
"^@	c #27A4E9",
"/@	c #1895E4",
"(@	c #1792E2",
"_@	c #158EE1",
":@	c #378AC6",
"<@	c #414E5B",
"[@	c #1C79C2",
"}@	c #1080DC",
"|@	c #C8C9CF",
"1@	c #D2D6DC",
"2@	c #D1D2D3",
"3@	c #C2C2C2",
"4@	c #ABABAB",
"5@	c #8A8482",
"6@	c #3FC1F7",
"7@	c #2ABBF1",
"8@	c #20ABEC",
"9@	c #26AAEC",
"0@	c #1CA0E8",
"a@	c #1B9DE6",
"b@	c #219DE7",
"c@	c #1791E2",
"d@	c #158DE1",
"e@	c #1A8EE1",
"f@	c #1589E0",
"g@	c #1288E4",
"h@	c #1885DE",
"i@	c #0F7CDC",
"j@	c #C6CAD0",
"k@	c #D5D8DC",
"l@	c #918F8D",
"m@	c #56AEDA",
"n@	c #24B2EF",
"o@	c #22AEED",
"p@	c #21ABEB",
"q@	c #1FA6EA",
"r@	c #2BA9EB",
"s@	c #25A3E9",
"t@	c #1B9BE6",
"u@	c #1690E2",
"v@	c #2194E3",
"w@	c #1E8FE2",
"x@	c #1285DE",
"y@	c #1081DC",
"z@	c #0F7EDC",
"A@	c #0D79D9",
"B@	c #2675C8",
"C@	c #BDBFC5",
"D@	c #CCD1D7",
"E@	c #C6C6C6",
"F@	c #ABABAC",
"G@	c #6C8392",
"H@	c #20B3F2",
"I@	c #20A9EC",
"J@	c #1EA3E8",
"K@	c #1D9FE8",
"L@	c #1A9BE6",
"M@	c #1D99E5",
"N@	c #2499E6",
"O@	c #168FE2",
"P@	c #148CE0",
"Q@	c #2492E3",
"R@	c #1F8DE1",
"S@	c #0F80DC",
"T@	c #218BE0",
"U@	c #2587E4",
"V@	c #585F72",
"W@	c #B9BDC4",
"X@	c #D3D6D9",
"Y@	c #B4B4B4",
"Z@	c #9A9A99",
"`@	c #4F8FAC",
" #	c #21ADEE",
".#	c #1EA6E9",
"+#	c #1DA2E9",
"@#	c #1B9BE5",
"##	c #1997E4",
"$#	c #1793E3",
"%#	c #1890E2",
"&#	c #158CE0",
"*#	c #1487DF",
"=#	c #1184DD",
"-#	c #1483DE",
";#	c #268DE4",
">#	c #328EE6",
",#	c #5D9CE1",
"'#	c #8C93A3",
")#	c #555557",
"!#	c #5D585B",
"~#	c #B2B5BB",
"{#	c #C9CDD3",
"]#	c #858C8F",
"^#	c #21ABEC",
"/#	c #1EA5EA",
"(#	c #1A9AE6",
"_#	c #1792E3",
":#	c #168EE2",
"<#	c #148AE0",
"[#	c #188AE0",
"}#	c #1686DE",
"|#	c #0C7EDC",
"1#	c #7399C6",
"2#	c #A4A2AC",
"3#	c #B1AFB0",
"4#	c #BDBBB7",
"5#	c #575759",
"6#	c #A9A9B0",
"7#	c #AEB2B9",
"8#	c #D7D9DA",
"9#	c #ACAAA9",
"0#	c #53A5CF",
"a#	c #20A8EB",
"b#	c #1EA3E9",
"c#	c #1B9DE7",
"d#	c #1A98E5",
"e#	c #1995E3",
"f#	c #1791E3",
"g#	c #1C91E3",
"h#	c #1A8DE1",
"i#	c #1889E0",
"j#	c #1E8AE0",
"k#	c #1F88DF",
"l#	c #0B7BDE",
"m#	c #979EA6",
"n#	c #B3B0AC",
"o#	c #5A90CD",
"p#	c #D2CFCB",
"q#	c #A3A5A6",
"r#	c #636266",
"s#	c #615D5F",
"t#	c #A7AAB2",
"u#	c #C9CDD2",
"v#	c #8C8E95",
"w#	c #64A0CC",
"x#	c #1A9FE8",
"y#	c #1894E4",
"z#	c #168CE0",
"A#	c #1489DF",
"B#	c #1584DD",
"C#	c #1C86DE",
"D#	c #1C83DD",
"E#	c #1078D9",
"F#	c #1373D1",
"G#	c #197ADA",
"H#	c #A1B3CF",
"I#	c #DADAD9",
"J#	c #EDEEEE",
"K#	c #C9CED3",
"L#	c #626165",
"M#	c #656064",
"N#	c #9E9EA5",
"O#	c #A5A9B1",
"P#	c #DDDEDF",
"Q#	c #D2D2D2",
"R#	c #6E7C85",
"S#	c #169CEB",
"T#	c #1894E3",
"U#	c #178FE1",
"V#	c #158CE1",
"W#	c #1488DF",
"X#	c #1687DE",
"Y#	c #1382DD",
"Z#	c #0F7DDB",
"`#	c #127DDB",
" $	c #2387E2",
".$	c #2D89E4",
"+$	c #5F9ADE",
"@$	c #A4AFC4",
"#$	c #CFCFCF",
"$$	c #C2C5C9",
"%$	c #87888E",
"&$	c #67666A",
"*$	c #6A686C",
"=$	c #9BA0A8",
"-$	c #CACED1",
";$	c #BFBFBF",
">$	c #88919B",
",$	c #369FE6",
"'$	c #1692E3",
")$	c #148BE0",
"!$	c #1284DD",
"~$	c #1684DD",
"{$	c #117EDB",
"]$	c #2488E2",
"^$	c #779CC9",
"/$	c #9EA0AA",
"($	c #AAA6A8",
"_$	c #B9B9B8",
":$	c #ABADB1",
"<$	c #84848A",
"[$	c #716F74",
"}$	c #93949B",
"|$	c #9FA3AB",
"1$	c #A5A5A5",
"2$	c #7A90A5",
"3$	c #389DE7",
"4$	c #1386DF",
"5$	c #1183DD",
"6$	c #0E7FDB",
"7$	c #1581DE",
"8$	c #569ADF",
"9$	c #A8ABB7",
"0$	c #B8B8B6",
"a$	c #C9CBCD",
"b$	c #818086",
"c$	c #79797F",
"d$	c #79757A",
"e$	c #8E949C",
"f$	c #CDCFD2",
"g$	c #989897",
"h$	c #77899B",
"i$	c #1389E2",
"j$	c #1283DD",
"k$	c #218BE3",
"l$	c #569CE2",
"m$	c #95A7C2",
"n$	c #B9B6B2",
"o$	c #D1D3D5",
"p$	c #D8DCE0",
"q$	c #B8BABF",
"r$	c #8E8E95",
"s$	c #807B81",
"t$	c #888A92",
"u$	c #DDDDDD",
"v$	c #A2A1A0",
"w$	c #8AA6C6",
"x$	c #85A5C9",
"y$	c #A3A7B3",
"z$	c #B5B3AF",
"A$	c #CACCCD",
"B$	c #CBCFD4",
"C$	c #C5C9CF",
"D$	c #CACED3",
"E$	c #CFCDD2",
"F$	c #81868F",
"G$	c #D0D1D4",
"H$	c #CCCED1",
"I$	c #BCBFC5",
"J$	c #B2B6BC",
"K$	c #B9BBC2",
"L$	c #BCBBC1",
"M$	c #7C7F89",
"N$	c #A4A8AE",
"O$	c #D3D3D2",
"P$	c #DADADA",
"Q$	c #C8CACD",
"R$	c #ABAFB6",
"S$	c #A0A5AD",
"T$	c #A7A9B1",
"U$	c #747983",
"V$	c #E4E5E7",
"W$	c #EBEAEA",
"X$	c #C0C2C6",
"Y$	c #93979F",
"Z$	c #8F959E",
"`$	c #95969E",
" %	c #72757F",
".%	c #727781",
"+%	c #787D87",
"@%	c #7E838D",
"#%	c #85858D",
"$%	c #70727C",
"%%	c #74747D",
"                                        . +                     ",
"                                    @ # $ % &         *     = - ",
"                                ; > , ' ) ! ~ {   ] ^ /     (   ",
"                            _ : < [ } | 1 2 3 4 5 6 7     8 9 0 ",
"                      a b c d e f g h i j k l m n o p     q r s ",
"                  t u v w x y z A B C D E F G H I         J K L ",
"              M N O P Q R S T U V W X Y Z `  ...+.@.#.    $.%.&.",
"          *.=.-.;.>.,.'.).!.~.{.].^./.(._.:.<.[.}.|.      1.2.3.",
"      4.5.6.7.8.9.0.a.b.c.d.e.f.g.h.i.j.k.l.m.n.o.p.    q.r.s.t.",
"  u.v.w.x.y.z.A.B.b.C.D.E.F.G.H.I.m J.K.L.M.N.O.P.Q.R.S.T.U.V.W.",
"X.Y.Z.`. +.+z.'.++@+y.#+$+%+&+*+=+-+;+>+,+'+)+!+~+{+]+^+/+(+_+  ",
":+<+[+9.}+'.A.|+1+f 2+3+4+5+6+7+8+9+0+a+b+c+d+e+f+g+h+s.i+j+    ",
"  k+l+m+b.n+f o+o+).p+q+/.r+_.s+t+u+}.v+w+x+y+z+A+B+C+D+  E+F+  ",
"  G+H+I+A.o+y.J+K+L+M+N+O+n P+Q+R+S+T+U+V+W+X+Y+Z+`+ @.@+@@@#@  ",
"    $@%@&@1+f o+*@=@-@;@>@,@'@,+)@!@~@{@]@^@^+/@(@_@:@<@[@}@    ",
"    |@1@2@m+o+3@J+4@5@6@7@>+}.'+8@9@e+0@a@b@/@c@d@e@f@g@h@i@    ",
"      j@k@o+*@*@).=@l@m@0+n@o@p@q@r@s@t@h+/@u@v@w@x@y@z@A@B@    ",
"      C@D@E@*@).f B.F@G@H@o.I@q@J@K@L@M@N@O@P@Q@R@S@T@A@U@V@    ",
"        W@X@3@).*@Y@Z@`@ #U+.#+#X+@###$#%#&#*#=#-#;#>#,#'#)#!#  ",
"        ~#{#R C.C.=@]#^#P./#W+X+(#/@_#:#<#[#}#|#1#2#3#4#B.5#N   ",
"        6#7#8#m+1+9#0#a#b#0@c#d#e#f#g#h#i#j#k#l#m#n#o#p#0.q#r#s#",
"          t#u#n+R Y@v#w#x#t@d#y#u@z#A#x@B#C#D#E#F#G#H#I#J#K#L#M#",
"          N#O#P#Q#3@} R#S###T#U#V#W#X#Y#Z#`# $.$+$@$#$$$%$&$*$  ",
"            =$-$Q#A.;$>$,$'$O@)$W#!$~${$]$^$/$($_$:$<$5.[$      ",
"            }$|$'.#$R 1$2$3$<#4$5$6$7$8$9$0$a$:$b$c$d$          ",
"              e$f$1+f =@g$h$i$j$k$l$m$n$o$p$q$r$s$              ",
"              t$|$u$@+|+;$v$w$x$y$z$A$B$C$D$E$                  ",
"                F$G$).g n+;$2+3@H$I$J$K$L$                      ",
"                M$N$O$g g P$Q$R$S$T$                            ",
"                  U$V$W$X$Y$Z$`$                                ",
"                   %.%+%@%#%                                    ",
"                    $%%%                                        "};
