/* XPM */
static char *dummy[]={
"32 32 436 2",
"Qt c None",
"cU c #000203",
"ap c #000204",
".j c #000305",
".# c #000306",
".t c #000407",
"ds c #010b12",
"d8 c #010b13",
"#m c #010b14",
".s c #010c16",
".S c #020d16",
"dc c #020d17",
".k c #020e19",
".D c #020f19",
"em c #051a2b",
".8 c #061c2e",
"d9 c #061d2f",
".T c #061d2f",
"cE c #072844",
"az c #072944",
"eQ c #072c49",
".i c #082e4b",
"co c #082e4b",
"aq c #082e4b",
".a c #082e4c",
"dG c #134d78",
"#Q c #154d79",
"eJ c #144d7a",
"ey c #144f7b",
".C c #15507d",
"dt c #15507d",
"#E c #16517e",
".u c #16527f",
"db c #195889",
"eP c #185989",
"af c #195a8a",
"aQ c #1a5a8a",
".r c #1b5b8c",
"eK c #195a8b",
"eR c #1a5b8c",
"cV c #1b5c8c",
".h c #1c5c8c",
"aA c #1c5d8c",
"#6 c #1b5d8e",
".b c #1c5e8d",
".l c #1b5c8d",
"a7 c #276ea2",
"b9 c #266ea1",
"eX c #256ea3",
"eS c #266ea4",
".g c #2871a5",
".c c #2972a5",
"dT c #236ea5",
"ex c #236ea6",
"#D c #2470a7",
"en c #2470a9",
".R c #2571a9",
"dH c #2571a9",
"#n c #2673aa",
".E c #2673ab",
"bj c #2e7bb0",
"bR c #2e7ab0",
"eW c #2c7ab1",
"eT c #2d7ab2",
"a8 c #2f7db3",
".d c #307db4",
"d7 c #3282b9",
"el c #3282ba",
"#l c #3383bb",
"e. c #3383bb",
".7 c #3484bc",
"dU c #3485bd",
".U c #3685bd",
"bw c #3587bf",
"eO c #3587c0",
"cT c #3687c0",
"eV c #3486c0",
"ao c #3788c1",
"eU c #3487c1",
"eL c #3688c1",
".f c #3689c2",
".e c #3789c2",
".q c #398bc3",
"cF c #398cc3",
"ag c #3a8cc4",
".m c #3a8cc5",
"eI c #3d8fc8",
"dr c #3e90c7",
"#5 c #3f91c9",
"ez c #3f91c9",
".B c #4193cb",
"dd c #4295cb",
"#R c #4395cc",
".v c #4396cd",
"eN c #62b7ea",
"cD c #63b7ea",
"ay c #63b8e9",
"eM c #64b7ea",
"cp c #66b9eb",
".p c #66baeb",
".n c #67bbed",
"dF c #6fc0ef",
".Q c #6fc1ef",
".F c #70c2ef",
"da c #73c3ef",
"ae c #73c4ef",
".w c #74c4ef",
".6 c #74c4f0",
".V c #75c4f0",
".o c #75c5f0",
"ek c #76c4ef",
".A c #76c5f0",
".x c #77c5f0",
".G c #78c6f0",
"d6 c #79c1ea",
".W c #79c6f0",
"eA c #7ac7f1",
"ew c #7bbce7",
".H c #7cc7f0",
".9 c #7cc8f0",
".I c #7ec8f0",
"aB c #7fc8f0",
".J c #7fc9f1",
"bv c #80c9f1",
".X c #81caf1",
"eH c #82c3ec",
"#C c #82caf0",
"ad c #82caf1",
"#k c #82cbf1",
"d# c #83c6eb",
"#o c #84cbf1",
".P c #85ccf1",
"#. c #87ccf1",
".Y c #87ccf2",
".y c #88ccf1",
"a6 c #88ccf2",
"bi c #8acdf2",
"#p c #8acef2",
"## c #8bcef2",
"#F c #8ccef2",
"eB c #8dcff3",
"#a c #8ecff2",
"#q c #8fd0f2",
"aP c #90d1f2",
".z c #91ccdd",
"c. c #91d0f2",
"cW c #91d0f3",
"#G c #92d1f3",
"#S c #93d1f3",
"#r c #94d2f3",
"#b c #96cfe8",
"#4 c #97d3f3",
"cS c #98b6cb",
"bD c #98ceea",
"#s c #98d3f3",
"dE c #9aa3ba",
".Z c #9acad0",
"#T c #9ad4f4",
"eC c #9ad5f4",
"aO c #9bd4f3",
"aS c #9bd5f4",
"aR c #9cd5f4",
"#H c #9dd6f4",
"an c #9ed6f4",
"bl c #9fd6f4",
"bS c #a0d7f4",
"dI c #a0d7f5",
"#U c #a1d7f4",
"#I c #a2d8f4",
"ej c #a386a6",
"eG c #a3c1e1",
"cC c #a4afb7",
"eD c #a4d5f1",
"aa c #a5d9f4",
"a5 c #a5d9f5",
"#V c #a6d9f5",
"ev c #a77ca0",
"as c #a7d8f3",
"bO c #a7d9f4",
"#1 c #a7d9f5",
"bh c #a7daf5",
"#7 c #a8daf5",
".K c #a9d6e4",
".O c #aadbf5",
"#W c #abdbf5",
"cn c #acaba9",
"ar c #acc9c7",
"bE c #acdcf6",
"#0 c #addaee",
"bF c #adddf6",
"cl c #aed4e9",
"#8 c #afddf6",
"#P c #afdef6",
"eE c #b0c7e3",
"ah c #b0ddf6",
"eF c #b1c0dd",
"bm c #b1ced6",
"bg c #b1def6",
"b8 c #b2ab9f",
"b. c #b2cbce",
"bu c #b2dff6",
"bx c #b3dff7",
"by c #b4c8ca",
"aN c #b4dff6",
"#2 c #b5e0f6",
"#9 c #b6dceb",
"a9 c #b6e0f7",
"ax c #b7e0f6",
"ai c #b7e0f7",
"bk c #b7e1f7",
"dS c #b87381",
"bQ c #b8a990",
"de c #b8e1f7",
"aT c #b9c3b4",
"a4 c #b9e0f5",
"bG c #babbb0",
"#j c #bae2f7",
"#B c #bbe2f7",
"ab c #bbe2f8",
"d5 c #bc677a",
"aF c #bde3f7",
"#N c #bee4f7",
"at c #bee4f8",
"b7 c #bfaf9f",
"#t c #c0c591",
"aE c #c0cec3",
"am c #c0d5d1",
"eo c #c0e4f8",
".N c #c1e4f8",
"ac c #c1e5f8",
"bP c #c2a583",
"#M c #c2d2bf",
"aj c #c2dce3",
"dV c #c3e6f8",
"cq c #c4e6f8",
"aG c #c5e6f8",
"cX c #c6e7f9",
"dq c #c76e65",
"aW c #c7dbdf",
"df c #c7e7f9",
".5 c #c7e8f9",
"cB c #c89681",
"bT c #c8e8f9",
".4 c #c9e8f9",
"aM c #caccb6",
"du c #cae5f4",
".3 c #cae8f9",
"aX c #cae9f9",
"bf c #cbc3a9",
"au c #cbd9d3",
"#A c #cbe9f9",
"#i c #cce9f9",
"cG c #cceaf9",
"#h c #cdeaf9",
"#3 c #cdeafa",
"#O c #ceebfa",
"ep c #cfd2e3",
"e# c #cfd5e5",
"#g c #cfebfa",
"#z c #d0ebfa",
"bU c #d1c2b3",
"#y c #d1ecfa",
"a# c #d2bf80",
"aC c #d3a85c",
"#x c #d4ecf8",
"aH c #d5d0b7",
"bb c #d5d6cb",
"ei c #d63a4e",
"dJ c #d7ced8",
"ba c #d9b178",
"dW c #d9c8d3",
"dg c #d9d2d8",
"eu c #dc7389",
"d4 c #dd363e",
"dR c #de3d3a",
"cA c #de6e39",
"dD c #df4536",
"dp c #e04c31",
"d. c #e05531",
"cm c #e06f2e",
"ck c #e07232",
"c9 c #e1532d",
"b6 c #e1792c",
"aw c #e1a949",
"aY c #e1b16e",
"#J c #e1b43d",
"cM c #e25a29",
"cR c #e25b2a",
"bt c #e29138",
"cw c #e36124",
"bN c #e37e25",
"aD c #e3992c",
"a3 c #e39c3d",
"eq c #e3b2c2",
"dQ c #e45e5c",
"c4 c #e46442",
"ch c #e46820",
"cc c #e46922",
"bC c #e48122",
"#c c #e4b82b",
"cY c #e4c7c2",
"c5 c #e56847",
"bW c #e5701b",
"b0 c #e5711c",
"bV c #e5711d",
"bo c #e58b2c",
"ea c #e5b1bd",
"c# c #e5d2c5",
"cP c #e66e43",
"dl c #e6705a",
"bH c #e67717",
"cH c #e6c8be",
"bX c #e77a2b",
"bz c #e77c15",
"#Z c #e7ae2e",
"cr c #e7cabd",
"bI c #e8842e",
"bp c #e88925",
".M c #e8e4b6",
"bn c #e98114",
"bJ c #e98631",
"cb c #e9864c",
"bc c #e98a1b",
"aV c #e98f1b",
"b# c #ea8612",
"cL c #ea8764",
"cx c #ea885a",
"cv c #ea8b5e",
"bs c #eb8a25",
"aU c #eb8b10",
"aZ c #eb8b11",
".L c #ebe4b1",
"aI c #ec900f",
"cj c #ec9562",
"bM c #ec974e",
"aJ c #ed9316",
"eh c #ed949f",
"av c #ed950d",
"c3 c #ed9a84",
"al c #ed9c11",
"bZ c #ed9f65",
"#X c #eda816",
"ak c #ee9b0c",
"dO c #ee9c9b",
"dC c #ee9d95",
"cf c #eea377",
"b3 c #eea46e",
"ee c #efa0a9",
"dA c #efa199",
"dv c #efaca6",
".2 c #efe2a9",
"a. c #f0a00a",
"dX c #f0a4a7",
"bd c #f0a651",
"d3 c #f0a6a9",
"dK c #f0a7a5",
"dL c #f0a7a6",
"dN c #f0a9a8",
"d1 c #f0a9ac",
"ef c #f0a9b1",
"dz c #f0aaa3",
"dw c #f0aaa4",
"dk c #f0ab9e",
"ca c #f0ae87",
"cQ c #f0b099",
"#Y c #f1a509",
"ct c #f1ae8f",
"dh c #f1aea1",
"aL c #f1af52",
"dy c #f1b0a9",
"cZ c #f1b19f",
"#K c #f2aa07",
"#L c #f2aa08",
"dx c #f2b3ad",
"cg c #f2b490",
"cI c #f2b49e",
"dB c #f2b4ae",
"do c #f2b6ab",
"cs c #f2b79b",
"c0 c #f2b7a7",
"er c #f2bbc6",
"#u c #f3af06",
"eb c #f3b7be",
"di c #f3baaf",
"dj c #f3bcb2",
".0 c #f3d060",
"#v c #f4b61c",
"dY c #f4babd",
"ed c #f4bac1",
"a2 c #f4bd77",
"d0 c #f4bdc0",
"c7 c #f4bfb1",
"c1 c #f4c0b2",
"dP c #f4c0bf",
"dn c #f4c1b8",
"cN c #f4c3b1",
"#d c #f5ba18",
"cO c #f5c3b2",
"bq c #f5c593",
"cz c #f5c7b1",
"c8 c #f5c7bb",
"#f c #f5e09d",
"et c #f6c8d0",
"aK c #f6c989",
"be c #f6ca98",
"bB c #f6cca4",
"es c #f6cdd3",
"bA c #f6d0ab",
"bK c #f7d6b9",
"#w c #f8d272",
"c2 c #f8d6cd",
"a0 c #f8d8af",
"ci c #f8d8c5",
"dm c #f8d8d3",
"b5 c #f9deca",
"#e c #fadb87",
"eg c #fae3e6",
".1 c #fbe08f",
"ec c #fbe5e7",
"cK c #fbe7e0",
"cd c #fbeae0",
"b1 c #fcece1",
"cu c #fceee7",
"b4 c #fcefe6",
"ce c #fcefe7",
"dM c #fcf0f0",
"d2 c #fdf2f2",
"br c #fdf4eb",
"bY c #fef8f3",
"c6 c #fefaf9",
"b2 c #fefbf9",
"cJ c #fffcfb",
"dZ c #fffcfd",
"cy c #fffefd",
"bL c #fffefe",
"a1 c #ffffff",
"QtQtQtQtQtQtQtQtQtQt.#.a.b.c.d.e.f.d.g.h.i.jQtQtQtQtQtQtQtQtQtQt",
"QtQtQtQtQtQtQtQt.k.l.m.n.o.o.o.o.o.o.o.o.p.q.r.sQtQtQtQtQtQtQtQt",
"QtQtQtQtQtQt.t.u.v.w.o.o.o.o.o.x.y.z.A.o.o.o.w.B.C.#QtQtQtQtQtQt",
"QtQtQtQtQt.D.E.F.o.o.o.G.H.I.J.K.L.M.N.O.P.o.o.o.Q.R.SQtQtQtQtQt",
"QtQtQtQt.T.U.V.o.o.W.I.X.P.Y.Z.0.1.2.3.4.5.O.H.o.o.6.7.8QtQtQtQt",
"QtQtQt.D.U.o.o.A.9.X#.###a#b#c#d#e#f#g#h#i.3#j#k.A.o.o#l#mQtQtQt",
"QtQt.t#n.V.o.x.I#o#p#q#r#s#t#u#u#v#w#x#y#z#h#A#B#C.x.o.6#D.jQtQt",
"QtQt#E.F.o.A.I.P#F#G#s#H#I#J#K#K#K#L#M#N#O#y#g#i#P.I.A.o.Q#QQtQt",
"Qt.k#R.o.o.9#o#F#S#T#U#V#W#X#Y#Y#Y#Y#Z#0#1#2#3#g#i#4.9.o.o#5#mQt",
"Qt#6.w.o.W.X#p#G#T#I#7#8#9a.a.a.a.a.a.a##8#7aaab#gacad.W.oaeafQt",
".#ag.o.o.I#.#q#s#U#7ahaiajakakakakakakalamah#7#U#W#Aan.I.o.oaoap",
"aq.n.o.G.X###raras#8aiatauavavavavavavavawax#8#V#H#U#B.X.G.oayaz",
"aA.o.oaB.P#a#saCaDaEaFaGaHaIaIaJaKaLaIaIaIaMaN#W#I#saOaP.H.o.oaQ",
".g.o.oaR.Y#GaSaTaUaVaWaXaYaUaZa0a1a2aUaUaUa3a4#8a5aS#Ga6.I.o.oa7",
"a8.o.oa9#S#S#Hb.b#b#babbbcb#bda1a1beb#b#b#b#bfbgbh#H#Sbi.J.o.obj",
".e.o.Abka9#rblbmbnbnbobpbnbnbqa1a1brbsbnbnbnbtbu#7bl#r#pbv.A.obw",
".e.o.AbxaX.OblbybzbzbzbzbzbzbAa1a1a1bBbzbzbzbCbu#7blbD#pbv.A.obw",
"a8.o.obE.3#ibFbGbHbHbIbJbHbHbKa1bLbLa1bMbHbHbNbgbObPbQbi.J.o.obR",
".g.o.obSbT#3#ybUbVbWbXbYbZb0b1b2b3b4a1b5b0bWb6#8b7bWb8.Y.I.o.ob9",
".h.o.oc.bT#i#zc#cacbcccdcecfa1cgchcia1a1cjchckclcmchcn.P.H.o.oaQ",
"cocp.o.9cqaX#Ocrcscsctcua1a1a1cvcwcxcya1czcwcAcBcwcwcC.X.G.ocDcE",
".jcF.o.obgbTcGcHcIcIcIcJbLcKa1cLcMcMcNa1cOcPcQcRcMcMcS.I.o.ocTcU",
"QtcV.w.ocWcXaXcYcZcZc0a1a1c1c2cZc3c4c5c6c7c8c7c9c9d.d#.W.odadbQt",
"Qtdcdd.o.Adedfdgdhdhdia1a1djdhdhdhdkdldmdna1dodpdpdq.9.o.odrdsQt",
"QtQtdt.Q.o#pcqdudvdwdxa1a1dydwdwdwdwdzdAdBa1dCdDdDdE.A.odFdGQtQt",
"QtQt.#dH.6.odIcqdJdKdLdMa1dNdKdKdKdKdKdOdPa1dQdRdS.x.o.wdTapQtQt",
"QtQtQtdcdU.o.AbhdVdWdXdYdZd0dXdXdXdXdXd1d2d3d4d5d6.o.od7d8QtQtQt",
"QtQtQtQtd9e..6.AaSace#eaebecedeeeeeeefegeheiejek.o.welemQtQtQtQt",
"QtQtQtQtQtdcen.Q.oadbheoepeqereseteteteuevew.o.odFexd8QtQtQtQtQt",
"QtQtQtQtQtQt.#eyezae.oeAeBeCeDeEeFeGeH.o.o.odaeIeJ.jQtQtQtQtQtQt",
"QtQtQtQtQtQtQtQt.seKeLeM.o.o.o.o.o.o.o.oeNeOePd8QtQtQtQtQtQtQtQt",
"QtQtQtQtQtQtQtQtQtQt.jeQeReSeTeUeVeWeXeKazapQtQtQtQtQtQtQtQtQtQt"};
