<?xml version="1.0" encoding="UTF-8" standalone="no"?>
<!-- Created with Inkscape (http://www.inkscape.org/) -->

<svg
   xmlns:dc="http://purl.org/dc/elements/1.1/"
   xmlns:cc="http://creativecommons.org/ns#"
   xmlns:rdf="http://www.w3.org/1999/02/22-rdf-syntax-ns#"
   xmlns:svg="http://www.w3.org/2000/svg"
   xmlns="http://www.w3.org/2000/svg"
   xmlns:xlink="http://www.w3.org/1999/xlink"
   xmlns:sodipodi="http://sodipodi.sourceforge.net/DTD/sodipodi-0.dtd"
   xmlns:inkscape="http://www.inkscape.org/namespaces/inkscape"
   version="1.1"
   width="16"
   height="16"
   id="svg3745"
   inkscape:version="0.48.0 r9654"
   sodipodi:docname="network-connect.svg">
  <metadata
     id="metadata17">
    <rdf:RDF>
      <cc:Work
         rdf:about="">
        <dc:format>image/svg+xml</dc:format>
        <dc:type
           rdf:resource="http://purl.org/dc/dcmitype/StillImage" />
      </cc:Work>
    </rdf:RDF>
  </metadata>
  <sodipodi:namedview
     pagecolor="#ffffff"
     bordercolor="#666666"
     borderopacity="1"
     objecttolerance="10"
     gridtolerance="10"
     guidetolerance="10"
     inkscape:pageopacity="0"
     inkscape:pageshadow="2"
     inkscape:window-width="1366"
     inkscape:window-height="692"
     id="namedview15"
     showgrid="false"
     inkscape:zoom="12.948893"
     inkscape:cx="13.839692"
     inkscape:cy="9.8459446"
     inkscape:window-x="0"
     inkscape:window-y="24"
     inkscape:window-maximized="1"
     inkscape:current-layer="svg3745" />
  <defs
     id="defs3747">
    <linearGradient
       id="linearGradient3595">
      <stop
         id="stop3597"
         style="stop-color:#fee7b1;stop-opacity:1"
         offset="0" />
      <stop
         id="stop3637"
         style="stop-color:#b0935b;stop-opacity:1"
         offset="0.5" />
      <stop
         id="stop3599"
         style="stop-color:#fcebbf;stop-opacity:1"
         offset="1" />
    </linearGradient>
    <linearGradient
       x1="6.6001315"
       y1="3.6546316"
       x2="11.688629"
       y2="9.615634"
       id="linearGradient3635"
       xlink:href="#linearGradient3595"
       gradientUnits="userSpaceOnUse"
       gradientTransform="translate(-0.57018726,0.44289692)" />
    <linearGradient
       x1="9.3258476"
       y1="1.1629168"
       x2="14.637187"
       y2="6.2325544"
       id="linearGradient3639"
       xlink:href="#linearGradient3595"
       gradientUnits="userSpaceOnUse"
       gradientTransform="translate(0.31691,-0.5110708)" />
    <linearGradient
       gradientTransform="matrix(0.4138818,0,0,0.416294,-1.7222411,-1.7775922)"
       gradientUnits="userSpaceOnUse"
       xlink:href="#linearGradient3400"
       id="linearGradient2431"
       y2="39.780327"
       x2="20.494444"
       y1="7.0440302"
       x1="20.494444" />
    <linearGradient
       gradientTransform="matrix(0.4210425,-0.1013922,0.1008047,0.4234963,44.055331,-5.0893565)"
       gradientUnits="userSpaceOnUse"
       xlink:href="#linearGradient2264"
       id="linearGradient2427"
       y2="31.137911"
       x2="-93.088425"
       y1="2.0690987"
       x1="-86.12886" />
    <linearGradient
       id="linearGradient3400">
      <stop
         offset="0"
         style="stop-color:white;stop-opacity:1"
         id="stop3402" />
      <stop
         offset="1"
         style="stop-color:white;stop-opacity:0"
         id="stop3404" />
    </linearGradient>
    <linearGradient
       id="linearGradient2264">
      <stop
         offset="0"
         style="stop-color:#d7e866;stop-opacity:1"
         id="stop2266" />
      <stop
         offset="1"
         style="stop-color:#8cab2a;stop-opacity:1"
         id="stop2268" />
    </linearGradient>
  </defs>
  <g
     transform="translate(-2,2)"
     id="layer1">
    <path
       d="M 17.442897,-0.77715878 16.721449,-1.4428969 13.278552,2 14,2.6657382 17.442897,-0.77715878 z"
       id="path3767"
       style="fill:none;stroke:#4d4d4d;stroke-width:1;stroke-linejoin:round;stroke-miterlimit:4;stroke-opacity:1;stroke-dasharray:none" />
    <path
       d="m 8.5,1.8161631 c 1.568432,-1.55573698 4.101071,-1.7125759 5.656807,-0.1441439 1.555737,1.568432 1.545445,4.101071 -0.02299,5.656807 -0.05945,0.058968 -0.232154,0.1717633 -0.295186,0.2268841 L 11.31691,4.6560601 8.5,1.8161631 z"
       id="path2819"
       style="fill:url(#linearGradient3639);fill-opacity:1;stroke:#a2824e;stroke-width:1;stroke-linecap:round;stroke-linejoin:round;stroke-miterlimit:4;stroke-opacity:1;stroke-dasharray:none" />
    <path
       d="M 3.6272897,11.889972 4.348738,12.5 7.791635,9.057103 7.0701867,8.447075 3.6272897,11.889972 z"
       id="path3605"
       style="fill:none;stroke:#4d4d4d;stroke-width:1;stroke-linejoin:round;stroke-miterlimit:4;stroke-opacity:1;stroke-dasharray:none" />
    <path
       d="m 12.539751,9.2284766 c -1.568432,1.5557364 -4.3239123,1.6568654 -5.8796483,0.088434 -1.555737,-1.568432 -1.545445,-4.101071 0.02299,-5.656807 0.05945,-0.058968 0.2878639,-0.060343 0.3508959,-0.1154635 L 8.3784148,4.96661 9.7228409,6.38858 12.539751,9.228477 z"
       id="path3607"
       style="fill:url(#linearGradient3635);fill-opacity:1;stroke:#a2824e;stroke-width:1;stroke-linecap:round;stroke-linejoin:round;stroke-miterlimit:4;stroke-opacity:1;stroke-dasharray:none" />
  </g>
  <g
     id="layer1-4"
     transform="matrix(0.51217293,0,0,0.51217293,8.0254838,5.7779294)">
    <path
       style="fill:url(#linearGradient2427);fill-opacity:1;fill-rule:nonzero;stroke:#699536;stroke-width:1.00278986;stroke-linecap:round;stroke-linejoin:round;stroke-miterlimit:4;stroke-opacity:1;stroke-dasharray:none;stroke-dashoffset:0;marker:none;visibility:visible;display:inline;overflow:visible"
       id="path1542"
       d="M 12.261653,0.5044599 C 12.029988,0.4808121 11.799669,0.5949363 11.68064,0.8140357 L 6.6092099,10.147177 3.3486091,7.5394809 C 3.0581688,7.3798499 2.6957992,7.4825419 2.5370939,7.7746759 l -1.4621914,1.888203 c -0.1587018,0.292128 -0.051938,0.6565021 0.2385007,0.8161311 0,0 5.9534497,4.94569 5.9607947,4.949348 0.068071,0.03741 0.139256,0.05624 0.211616,0.06544 0.236378,0.03004 0.478281,-0.08166 0.599787,-0.305324 L 14.925097,2.6015698 c 0.158702,-0.2921318 0.05194,-0.6565034 -0.2385,-0.816132 L 12.492045,0.5741463 C 12.419434,0.5342386 12.338874,0.5123425 12.261653,0.5044599 z"
       inkscape:connector-curvature="0" />
    <path
       style="opacity:0.4;fill:none;stroke:url(#linearGradient2431);stroke-width:1.00278986;stroke-linecap:round;stroke-linejoin:miter;stroke-miterlimit:4;stroke-opacity:1;stroke-dasharray:none;stroke-dashoffset:0;marker:none;visibility:visible;display:inline;overflow:visible"
       id="path2429"
       d="M 12.3125,1.65625 7,11.46875 A 0.15034923,0.15034923 0 0 1 7,11.5 a 0.15034923,0.15034923 0 0 1 -0.03125,0.03125 0.15034923,0.15034923 0 0 1 -0.03125,0 0.15034923,0.15034923 0 0 1 -0.03125,0.03125 0.15034923,0.15034923 0 0 1 -0.03125,0 0.15034923,0.15034923 0 0 1 -0.03125,0 0.15034923,0.15034923 0 0 1 -0.03125,-0.03125 0.15034923,0.15034923 0 0 1 -0.03125,0 L 3.125,8.625 c -0.3238762,0.402465 -0.6009184,0.7779186 -0.96875,1.25 0.1122997,0.093077 1.3029783,1.090043 2.625,2.1875 0.691201,0.57379 1.3815407,1.156788 1.90625,1.59375 0.2623546,0.218481 0.4993958,0.399828 0.65625,0.53125 0.050142,0.04201 0.088455,0.06296 0.125,0.09375 0.052555,-0.09355 0.1090137,-0.180551 0.25,-0.4375 0.1919644,-0.349857 0.4397058,-0.836982 0.75,-1.40625 0.6205884,-1.138535 1.4444778,-2.6103224 2.25,-4.09375 0.805522,-1.4834276 1.58119,-2.9750958 2.1875,-4.09375 0.303155,-0.5593271 0.568682,-1.008692 0.75,-1.34375 0.141975,-0.2623568 0.21072,-0.3644899 0.25,-0.4375 C 13.85118,2.437403 13.8063,2.407264 13.6875,2.34375 13.515614,2.2518572 13.308618,2.1438702 13.09375,2.03125 12.878882,1.9186298 12.661819,1.8041019 12.5,1.71875 12.43304,1.683432 12.359093,1.6812765 12.3125,1.65625 z"
       inkscape:connector-curvature="0" />
  </g>
</svg>
