<?xml version="1.0" encoding="UTF-8" standalone="no"?>
<!-- Created with Inkscape (http://www.inkscape.org/) -->

<svg
   xmlns:dc="http://purl.org/dc/elements/1.1/"
   xmlns:cc="http://creativecommons.org/ns#"
   xmlns:rdf="http://www.w3.org/1999/02/22-rdf-syntax-ns#"
   xmlns:svg="http://www.w3.org/2000/svg"
   xmlns="http://www.w3.org/2000/svg"
   xmlns:xlink="http://www.w3.org/1999/xlink"
   xmlns:sodipodi="http://sodipodi.sourceforge.net/DTD/sodipodi-0.dtd"
   xmlns:inkscape="http://www.inkscape.org/namespaces/inkscape"
   version="1.0"
   width="16"
   height="16"
   id="svg3486"
   inkscape:version="0.48.0 r9654"
   sodipodi:docname="tools-check-spelling.svg">
  <metadata
     id="metadata45">
    <rdf:RDF>
      <cc:Work
         rdf:about="">
        <dc:format>image/svg+xml</dc:format>
        <dc:type
           rdf:resource="http://purl.org/dc/dcmitype/StillImage" />
      </cc:Work>
    </rdf:RDF>
  </metadata>
  <sodipodi:namedview
     pagecolor="#ffffff"
     bordercolor="#666666"
     borderopacity="1"
     objecttolerance="10"
     gridtolerance="10"
     guidetolerance="10"
     inkscape:pageopacity="0"
     inkscape:pageshadow="2"
     inkscape:window-width="1366"
     inkscape:window-height="692"
     id="namedview43"
     showgrid="false"
     inkscape:zoom="9.15625"
     inkscape:cx="16"
     inkscape:cy="16"
     inkscape:window-x="0"
     inkscape:window-y="24"
     inkscape:window-maximized="1"
     inkscape:current-layer="svg3486" />
  <defs
     id="defs3488">
    <linearGradient
       id="linearGradient9936">
      <stop
         id="stop9938"
         style="stop-color:#575757;stop-opacity:1"
         offset="0" />
      <stop
         id="stop9940"
         style="stop-color:#333333;stop-opacity:1"
         offset="1" />
    </linearGradient>
    <linearGradient
       id="linearGradient2490">
      <stop
         id="stop2492"
         style="stop-color:#791235;stop-opacity:1"
         offset="0" />
      <stop
         id="stop2494"
         style="stop-color:#dd3b27;stop-opacity:1"
         offset="1" />
    </linearGradient>
    <linearGradient
       id="linearGradient3242">
      <stop
         id="stop3244"
         style="stop-color:#f8b17e;stop-opacity:1"
         offset="0" />
      <stop
         id="stop3246"
         style="stop-color:#e35d4f;stop-opacity:1"
         offset="0.31209752" />
      <stop
         id="stop3248"
         style="stop-color:#c6262e;stop-opacity:1"
         offset="0.57054454" />
      <stop
         id="stop3250"
         style="stop-color:#690b54;stop-opacity:1"
         offset="1" />
    </linearGradient>
    <linearGradient
       id="linearGradient3342">
      <stop
         id="stop3344"
         style="stop-color:#ffffff;stop-opacity:0"
         offset="0" />
      <stop
         id="stop3346"
         style="stop-color:#ffffff;stop-opacity:1"
         offset="1" />
    </linearGradient>
    <linearGradient
       id="linearGradient3434">
      <stop
         id="stop3436"
         style="stop-color:#ffffff;stop-opacity:0"
         offset="0" />
      <stop
         id="stop3438"
         style="stop-color:#ffffff;stop-opacity:1"
         offset="1" />
    </linearGradient>
    <linearGradient
       id="linearGradient3463">
      <stop
         id="stop3465"
         style="stop-color:#000000;stop-opacity:1"
         offset="0" />
      <stop
         id="stop3467"
         style="stop-color:#000000;stop-opacity:0"
         offset="1" />
    </linearGradient>
    <linearGradient
       x1="15"
       y1="17"
       x2="15"
       y2="33.434338"
       id="linearGradient3275"
       xlink:href="#linearGradient3434"
       gradientUnits="userSpaceOnUse"
       gradientTransform="matrix(0.33974479,0,0,0.33472398,0.18452275,-3.4001829)" />
    <linearGradient
       x1="14.498855"
       y1="44.178928"
       x2="14.498855"
       y2="15.875"
       id="linearGradient3278"
       xlink:href="#linearGradient3434"
       gradientUnits="userSpaceOnUse"
       gradientTransform="matrix(0.36239451,0,0,0.33654373,-0.10426036,-3.4105846)" />
    <linearGradient
       x1="22.05551"
       y1="15.833781"
       x2="22.05551"
       y2="45.49704"
       id="linearGradient3281"
       xlink:href="#linearGradient9936"
       gradientUnits="userSpaceOnUse"
       gradientTransform="matrix(0.33532395,0,0,0.33855452,0.06021918,-3.7399227)" />
    <radialGradient
       cx="-6.1603441"
       cy="36.686291"
       r="14.09771"
       fx="-6.1603441"
       fy="36.686291"
       id="radialGradient3287"
       xlink:href="#linearGradient3463"
       gradientUnits="userSpaceOnUse"
       gradientTransform="matrix(0.09879212,0,0,0.06884212,2.5013361,8.5811899)" />
    <radialGradient
       cx="-6.1603441"
       cy="36.686291"
       r="14.09771"
       fx="-6.1603441"
       fy="36.686291"
       id="radialGradient3290"
       xlink:href="#linearGradient3463"
       gradientUnits="userSpaceOnUse"
       gradientTransform="matrix(0.32331966,0,0,0.068023,7.0498266,8.6227873)" />
    <radialGradient
       cx="-6.1603441"
       cy="36.686291"
       r="14.09771"
       fx="-6.1603441"
       fy="36.686291"
       id="radialGradient3293"
       xlink:href="#linearGradient3463"
       gradientUnits="userSpaceOnUse"
       gradientTransform="matrix(0.26943303,0,0,0.06884212,10.009804,8.5811899)" />
    <linearGradient
       x1="143.91531"
       y1="75.220741"
       x2="143.91531"
       y2="103.12598"
       id="linearGradient3296"
       xlink:href="#linearGradient3242"
       gradientUnits="userSpaceOnUse"
       gradientTransform="matrix(0.38853827,0,0,0.37151415,-47.456868,-24.01361)" />
    <linearGradient
       x1="153.40933"
       y1="98.784538"
       x2="153.40933"
       y2="75.220741"
       id="linearGradient3298"
       xlink:href="#linearGradient2490"
       gradientUnits="userSpaceOnUse"
       gradientTransform="matrix(0.38853827,0,0,0.37151415,-47.456868,-24.01361)" />
    <radialGradient
       cx="-6.1603441"
       cy="36.686291"
       r="14.09771"
       fx="-6.1603441"
       fy="36.686291"
       id="radialGradient3301"
       xlink:href="#linearGradient3463"
       gradientUnits="userSpaceOnUse"
       gradientTransform="matrix(0.09879212,0,0,0.06884212,8.8319848,8.5811894)" />
    <linearGradient
       x1="153.40933"
       y1="98.784538"
       x2="153.40933"
       y2="75.220741"
       id="linearGradient3310"
       xlink:href="#linearGradient3342"
       gradientUnits="userSpaceOnUse"
       gradientTransform="matrix(0.38853827,0,0,0.37151415,-47.456868,-24.01361)" />
    <linearGradient
       gradientTransform="matrix(0.4138818,0,0,0.416294,-1.7222411,-1.7775922)"
       gradientUnits="userSpaceOnUse"
       xlink:href="#linearGradient3400"
       id="linearGradient2431"
       y2="39.780327"
       x2="20.494444"
       y1="7.0440302"
       x1="20.494444" />
    <linearGradient
       gradientTransform="matrix(0.4210425,-0.1013922,0.1008047,0.4234963,44.055331,-5.0893565)"
       gradientUnits="userSpaceOnUse"
       xlink:href="#linearGradient2264"
       id="linearGradient2427"
       y2="31.137911"
       x2="-93.088425"
       y1="2.0690987"
       x1="-86.12886" />
    <linearGradient
       id="linearGradient3400">
      <stop
         offset="0"
         style="stop-color:white;stop-opacity:1"
         id="stop3402" />
      <stop
         offset="1"
         style="stop-color:white;stop-opacity:0"
         id="stop3404" />
    </linearGradient>
    <linearGradient
       id="linearGradient2264">
      <stop
         offset="0"
         style="stop-color:#d7e866;stop-opacity:1"
         id="stop2266" />
      <stop
         offset="1"
         style="stop-color:#8cab2a;stop-opacity:1"
         id="stop2268" />
    </linearGradient>
  </defs>
  <path
     d="m 9.616133,11.106752 c 1.45e-4,0.536072 -0.6234491,0.970699 -1.3927419,0.970699 -0.7692923,0 -1.392887,-0.434627 -1.3927422,-0.970699 -1.448e-4,-0.536073 0.6234499,-0.9707 1.3927422,-0.9707 0.7692928,0 1.3928869,0.434627 1.3927419,0.9707 l 0,0 z"
     id="path3205"
     style="opacity:0.2;fill:url(#radialGradient3301);fill-opacity:1;fill-rule:evenodd;stroke:none;stroke-width:0.99999988;marker:none;visibility:visible;display:inline;overflow:visible;enable-background:accumulate"
     inkscape:connector-curvature="0" />
  <path
     d="M 11.590607,4.5960184 C 11.401181,4.1742679 10.938916,4.2184444 10.621771,4.1514545 9.571799,4.0327368 8.5236271,4.2220725 7.6436253,4.8029662 6.7942622,5.3684605 6.0256984,6.133574 5.4858199,7.1209132 5.0165565,8.0004207 4.8058407,9.1753899 5.1019028,10.294641 5.334923,11.0481 6.0363967,11.513485 6.6280019,11.387993 7.5336833,11.239556 8.1790709,10.413439 8.7114736,9.6074996 8.9522296,9.2751353 9.1001161,8.8349612 9.384297,8.5556379 c -0.04044,0.7162611 -0.05856,1.4602091 0.10709,2.1875531 0.09415,0.428866 0.438548,0.766948 0.787585,0.751319 0.355102,-0.04004 0.625405,-0.342936 0.919775,-0.540613 0.26476,-0.23048 0.568038,-0.428652 0.755506,-0.761877 -0.03229,-0.5519863 -0.534429,-0.2053856 -0.7097,-0.01593 -0.245019,0.378951 -0.751232,0.07784 -0.642944,-0.4378524 0.05669,-1.1779248 0.336172,-2.2841031 0.572544,-3.3946481 0.132883,-0.5854624 0.272762,-1.1675111 0.416455,-1.7475706 l -10e-7,0 z m -1.466759,0.735019 C 9.674047,6.7273451 9.188154,8.1484861 8.3568573,9.231082 7.9646513,9.7249905 7.3896034,10.17286 6.7555555,9.9352824 6.317392,9.7443399 6.2158777,9.116557 6.2063958,8.6442985 6.1498482,7.2497444 6.835014,6.0947473 7.691589,5.3980282 8.2886694,4.9309123 9.0604215,4.7194866 9.814211,4.9476021 c 0.142309,0.052072 0.296673,0.1868645 0.309637,0.3834358 l 0,-5e-7 z"
     id="path3207"
     style="font-size:55.90206146px;font-style:normal;font-variant:normal;font-weight:normal;font-stretch:normal;text-align:start;line-height:100%;writing-mode:lr-tb;text-anchor:start;fill:url(#linearGradient3296);fill-opacity:1;fill-rule:evenodd;stroke:url(#linearGradient3298);stroke-width:0.38827983;stroke-linecap:butt;stroke-linejoin:miter;stroke-miterlimit:4;stroke-opacity:1;stroke-dasharray:none;stroke-dashoffset:0;marker:none;visibility:visible;display:inline;overflow:visible;enable-background:accumulate;font-family:Gabrielle;-inkscape-font-specification:Gabrielle"
     inkscape:connector-curvature="0" />
  <path
     d="m 12.148393,11.106752 c 3.95e-4,0.536073 -1.700318,0.970699 -3.7983888,0.970699 -2.0980719,0 -3.7987844,-0.434626 -3.7983895,-0.970699 -3.949e-4,-0.536073 1.7003176,-0.970699 3.7983895,-0.970699 2.0980708,0 3.7987838,0.434626 3.7983888,0.970699 l 0,0 z"
     id="path3209"
     style="opacity:0.2;fill:url(#radialGradient3293);fill-opacity:1;fill-rule:evenodd;stroke:none;stroke-width:0.99999988;marker:none;visibility:visible;display:inline;overflow:visible;enable-background:accumulate"
     inkscape:connector-curvature="0" />
  <path
     d="m 9.616133,11.118299 c 4.74e-4,0.529695 -2.0403803,0.95915 -4.5580665,0.95915 -2.5176856,0 -4.55854035,-0.429455 -4.55806635,-0.95915 -4.74e-4,-0.529694 2.04038075,-0.95915 4.55806635,-0.95915 2.5176862,0 4.5585405,0.429456 4.5580665,0.95915 l 0,0 z"
     id="path3211"
     style="opacity:0.05;fill:url(#radialGradient3290);fill-opacity:1;fill-rule:evenodd;stroke:none;stroke-width:0.99999988;marker:none;visibility:visible;display:inline;overflow:visible;enable-background:accumulate"
     inkscape:connector-curvature="0" />
  <path
     d="m 3.2854851,11.106752 c 1.449e-4,0.536073 -0.6234495,0.970699 -1.3927423,0.970699 -0.7692929,0 -1.39288735,-0.434626 -1.39274255,-0.970699 -1.448e-4,-0.536073 0.62344965,-0.970699 1.39274245,-0.970699 0.7692929,0 1.3928873,0.434626 1.3927424,0.970699 l 0,0 z"
     id="path3213"
     style="opacity:0.2;fill:url(#radialGradient3287);fill-opacity:1;fill-rule:evenodd;stroke:none;stroke-width:0.99999988;marker:none;visibility:visible;display:inline;overflow:visible;enable-background:accumulate"
     inkscape:connector-curvature="0" />
  <path
     d="m 10.024988,4.5302638 c -0.41622,5.24e-5 0.175008,0.077168 0.256757,0.2498262 0.262747,0.2225325 0.311306,0.601963 0.158384,0.8999062 -0.280402,0.8495637 -0.597312,1.6893371 -0.997561,2.4903901 0.490876,0.069706 0.298424,0.664304 0.319891,1.0028507 0.0069,0.5582987 0.01935,1.135949 0.208598,1.666352 0.149265,0.404136 0.541572,0.12602 0.762112,-0.04489 0.216618,-0.109182 -0.265864,-0.11629 -0.308413,-0.28325 -0.24124,-0.230241 -0.287797,-0.6935196 -0.205628,-0.9092777 0.0847,-1.3323871 0.404318,-2.6344952 0.695603,-3.9325471 0.07839,-0.3234508 0.159393,-0.646259 0.238695,-0.9694849 C 10.884236,4.4960082 10.475896,4.583106 10.15038,4.5292139 l -0.06307,-2.287e-4 -0.06232,0.00128 0,0 z M 6.14219,6.8356748 C 5.4284529,7.7963168 5.1828583,9.0973336 5.5048905,10.250135 5.6760329,10.743043 6.2478835,11.159002 6.7722153,10.947477 7.1553757,10.812088 7.4632304,10.529113 7.7317106,10.233122 7.2107011,10.491193 6.4680551,10.451092 6.1296947,9.9214114 5.7594729,9.3515542 5.7734998,8.630966 5.829564,7.9792209 5.8779399,7.5855357 5.9860814,7.2000429 6.14219,6.8356748 z"
     id="path3305"
     style="font-size:55.90206146px;font-style:normal;font-variant:normal;font-weight:normal;font-stretch:normal;text-align:start;line-height:100%;writing-mode:lr-tb;text-anchor:start;opacity:0.4;fill:none;stroke:url(#linearGradient3310);stroke-width:0.38827983;stroke-linecap:butt;stroke-linejoin:miter;stroke-miterlimit:4;stroke-opacity:1;stroke-dasharray:none;stroke-dashoffset:0;marker:none;visibility:visible;display:inline;overflow:visible;enable-background:accumulate;font-family:Gabrielle;-inkscape-font-specification:Gabrielle"
     inkscape:connector-curvature="0" />
  <path
     d="M 7.6036484,11.495032 C 7.2944139,10.611076 6.9851794,9.6610279 6.6759454,8.7770737 c 0,0 -3.7997415,0 -3.7997415,0 -0.3169321,0.894773 -0.6338642,1.8231833 -0.9507961,2.7179583 -0.4104228,0 -0.8208454,0 -1.23126795,0 C 1.8664642,8.2593677 3.0387881,5.0237027 4.2111128,1.7880378 c 0.3711267,0 0.7422536,0 1.1133808,0 1.1745061,3.2356649 2.3490142,6.4713299 3.5235218,9.7069942 -0.4147892,0 -0.8295783,0 -1.244367,0 z M 6.2999286,7.6122344 c 0,0 -1.5288516,-4.3179392 -1.5288516,-4.3179392 0,0 -1.5288512,4.3179392 -1.5288512,4.3179392 0,0 3.0577028,0 3.0577028,0 z"
     id="path3217"
     style="font-size:40px;font-style:normal;font-variant:normal;font-weight:normal;font-stretch:normal;fill:url(#linearGradient3281);fill-opacity:1;stroke:#333333;stroke-width:0.38827971px;stroke-linecap:butt;stroke-linejoin:miter;stroke-opacity:1;font-family:Droid Sans;-inkscape-font-specification:Sans"
     inkscape:connector-curvature="0" />
  <path
     d="m 8.3611468,11.300892 c 0,0 -3.3051759,-9.1245744 -3.3051759,-9.1245744 0,0 -0.5674517,0 -0.5674517,0 0,0 -3.3083322,9.1245744 -3.3083322,9.1245744"
     id="path3219"
     style="font-size:40px;font-style:normal;font-variant:normal;font-weight:normal;font-stretch:normal;opacity:0.3;fill:none;stroke:url(#linearGradient3278);stroke-width:0.38827971px;stroke-linecap:butt;stroke-linejoin:miter;stroke-opacity:1;font-family:Droid Sans;-inkscape-font-specification:Sans"
     inkscape:connector-curvature="0" />
  <path
     d="m 4.7710774,2.1990317 2.1178519,5.8014824 -4.2357046,0 2.1178527,-5.8014824 z"
     id="path3221"
     style="opacity:0.2;fill:none;stroke:url(#linearGradient3275);stroke-width:0.38827971px;stroke-linecap:butt;stroke-linejoin:round;stroke-opacity:1"
     inkscape:connector-curvature="0" />
  <g
     id="layer1"
     transform="matrix(0.52797301,0,0,0.52797301,7.3164183,7.0524298)">
    <path
       style="fill:url(#linearGradient2427);fill-opacity:1;fill-rule:nonzero;stroke:#699536;stroke-width:1.00278986;stroke-linecap:round;stroke-linejoin:round;stroke-miterlimit:4;stroke-opacity:1;stroke-dasharray:none;stroke-dashoffset:0;marker:none;visibility:visible;display:inline;overflow:visible"
       id="path1542"
       d="M 12.261653,0.5044599 C 12.029988,0.4808121 11.799669,0.5949363 11.68064,0.8140357 L 6.6092099,10.147177 3.3486091,7.5394809 C 3.0581688,7.3798499 2.6957992,7.4825419 2.5370939,7.7746759 l -1.4621914,1.888203 c -0.1587018,0.292128 -0.051938,0.6565021 0.2385007,0.8161311 0,0 5.9534497,4.94569 5.9607947,4.949348 0.068071,0.03741 0.139256,0.05624 0.211616,0.06544 0.236378,0.03004 0.478281,-0.08166 0.599787,-0.305324 L 14.925097,2.6015698 c 0.158702,-0.2921318 0.05194,-0.6565034 -0.2385,-0.816132 L 12.492045,0.5741463 C 12.419434,0.5342386 12.338874,0.5123425 12.261653,0.5044599 z"
       inkscape:connector-curvature="0" />
    <path
       style="opacity:0.4;fill:none;stroke:url(#linearGradient2431);stroke-width:1.00278986;stroke-linecap:round;stroke-linejoin:miter;stroke-miterlimit:4;stroke-opacity:1;stroke-dasharray:none;stroke-dashoffset:0;marker:none;visibility:visible;display:inline;overflow:visible"
       id="path2429"
       d="M 12.3125,1.65625 7,11.46875 A 0.15034923,0.15034923 0 0 1 7,11.5 a 0.15034923,0.15034923 0 0 1 -0.03125,0.03125 0.15034923,0.15034923 0 0 1 -0.03125,0 0.15034923,0.15034923 0 0 1 -0.03125,0.03125 0.15034923,0.15034923 0 0 1 -0.03125,0 0.15034923,0.15034923 0 0 1 -0.03125,0 0.15034923,0.15034923 0 0 1 -0.03125,-0.03125 0.15034923,0.15034923 0 0 1 -0.03125,0 L 3.125,8.625 c -0.3238762,0.402465 -0.6009184,0.7779186 -0.96875,1.25 0.1122997,0.093077 1.3029783,1.090043 2.625,2.1875 0.691201,0.57379 1.3815407,1.156788 1.90625,1.59375 0.2623546,0.218481 0.4993958,0.399828 0.65625,0.53125 0.050142,0.04201 0.088455,0.06296 0.125,0.09375 0.052555,-0.09355 0.1090137,-0.180551 0.25,-0.4375 0.1919644,-0.349857 0.4397058,-0.836982 0.75,-1.40625 0.6205884,-1.138535 1.4444778,-2.6103224 2.25,-4.09375 0.805522,-1.4834276 1.58119,-2.9750958 2.1875,-4.09375 0.303155,-0.5593271 0.568682,-1.008692 0.75,-1.34375 0.141975,-0.2623568 0.21072,-0.3644899 0.25,-0.4375 C 13.85118,2.437403 13.8063,2.407264 13.6875,2.34375 13.515614,2.2518572 13.308618,2.1438702 13.09375,2.03125 12.878882,1.9186298 12.661819,1.8041019 12.5,1.71875 12.43304,1.683432 12.359093,1.6812765 12.3125,1.65625 z"
       inkscape:connector-curvature="0" />
  </g>
</svg>
