<?xml version="1.0" encoding="UTF-8" standalone="no"?>
<!-- Created with Inkscape (http://www.inkscape.org/) -->

<svg
   xmlns:dc="http://purl.org/dc/elements/1.1/"
   xmlns:cc="http://creativecommons.org/ns#"
   xmlns:rdf="http://www.w3.org/1999/02/22-rdf-syntax-ns#"
   xmlns:svg="http://www.w3.org/2000/svg"
   xmlns="http://www.w3.org/2000/svg"
   xmlns:xlink="http://www.w3.org/1999/xlink"
   xmlns:sodipodi="http://sodipodi.sourceforge.net/DTD/sodipodi-0.dtd"
   xmlns:inkscape="http://www.inkscape.org/namespaces/inkscape"
   id="svg14997"
   version="1.1"
   inkscape:version="0.48.1 "
   width="24"
   height="24"
   sodipodi:docname="new_message.svg">
  <metadata
     id="metadata15003">
    <rdf:RDF>
      <cc:Work
         rdf:about="">
        <dc:format>image/svg+xml</dc:format>
        <dc:type
           rdf:resource="http://purl.org/dc/dcmitype/StillImage" />
        <dc:title />
      </cc:Work>
    </rdf:RDF>
  </metadata>
  <defs
     id="defs15001">
    <linearGradient
       id="linearGradient4124">
      <stop
         id="stop4126"
         offset="0"
         style="stop-color:#ffffff;stop-opacity:0.70503598;" />
      <stop
         style="stop-color:#ffffff;stop-opacity:0.6978417;"
         offset="0.185378"
         id="stop4128" />
      <stop
         style="stop-color:#ffffff;stop-opacity:0.80575538;"
         offset="0.44680852"
         id="stop4130" />
      <stop
         style="stop-color:#ffffff;stop-opacity:0.77697843;"
         offset="0.76861703"
         id="stop4132" />
      <stop
         id="stop4134"
         offset="1"
         style="stop-color:#ffffff;stop-opacity:0.74100721;" />
    </linearGradient>
    <linearGradient
       id="linearGradient16006-3-9">
      <stop
         style="stop-color:#ffffff;stop-opacity:0.58823532;"
         offset="0"
         id="stop16008-5-6" />
      <stop
         id="stop16016-1-7"
         offset="0.25"
         style="stop-color:#ffffff;stop-opacity:0.8705036;" />
      <stop
         id="stop16014-1-2"
         offset="0.5"
         style="stop-color:#ffffff;stop-opacity:0.58823532;" />
      <stop
         style="stop-color:#ffffff;stop-opacity:0.8561151;"
         offset="0.75"
         id="stop3998" />
      <stop
         style="stop-color:#ffffff;stop-opacity:0.58823532;"
         offset="1"
         id="stop16010-4-1" />
    </linearGradient>
    <linearGradient
       inkscape:collect="always"
       xlink:href="#linearGradient16006-3-9"
       id="linearGradient3878"
       x1="5.7225132"
       y1="19.981676"
       x2="18.560209"
       y2="6.5052357"
       gradientUnits="userSpaceOnUse"
       gradientTransform="translate(0,-1)" />
    <linearGradient
       inkscape:collect="always"
       xlink:href="#linearGradient4124"
       id="linearGradient4042"
       gradientUnits="userSpaceOnUse"
       x1="9"
       y1="-3"
       x2="14"
       y2="22"
       gradientTransform="translate(0,-1)" />
    <linearGradient
       id="linearGradient4046-1-38">
      <stop
         style="stop-color:#ffffff;stop-opacity:0;"
         offset="0"
         id="stop4048-6-5" />
      <stop
         style="stop-color:#ffffff;stop-opacity:0.72661871;"
         offset="1"
         id="stop4051-4-0" />
    </linearGradient>
    <radialGradient
       inkscape:collect="always"
       xlink:href="#linearGradient4046-1-38"
       id="radialGradient4295"
       cx="12"
       cy="19.5"
       fx="12"
       fy="19.5"
       r="9"
       gradientTransform="matrix(1,0,0,0.27777778,0,14.083333)"
       gradientUnits="userSpaceOnUse" />
    <linearGradient
       inkscape:collect="always"
       xlink:href="#linearGradient16006-3-9-4"
       id="linearGradient3878-6"
       x1="5.7225132"
       y1="19.981676"
       x2="18.560209"
       y2="6.5052357"
       gradientUnits="userSpaceOnUse"
       gradientTransform="translate(0,-0.9999995)" />
    <linearGradient
       id="linearGradient16006-3-9-4">
      <stop
         style="stop-color:#ffffff;stop-opacity:0.58823532;"
         offset="0"
         id="stop16008-5-6-0" />
      <stop
         id="stop16016-1-7-7"
         offset="0.25"
         style="stop-color:#ffffff;stop-opacity:0.8705036;" />
      <stop
         id="stop16014-1-2-5"
         offset="0.5"
         style="stop-color:#ffffff;stop-opacity:0.58823532;" />
      <stop
         style="stop-color:#ffffff;stop-opacity:0.8561151;"
         offset="0.75"
         id="stop3998-4" />
      <stop
         style="stop-color:#ffffff;stop-opacity:0.58823532;"
         offset="1"
         id="stop16010-4-1-0" />
    </linearGradient>
    <linearGradient
       inkscape:collect="always"
       xlink:href="#radialGradient3950"
       id="linearGradient7625"
       gradientUnits="userSpaceOnUse"
       gradientTransform="matrix(0.95567565,0,0,0.95567565,0.83765451,2.0505993)"
       x1="2.3663785"
       y1="11.220977"
       x2="33.045498"
       y2="11.220977" />
    <radialGradient
       gradientTransform="matrix(1.3537258,-0.2279136,0.2083657,1.3813824,7.1703388,-35.53963)"
       gradientUnits="userSpaceOnUse"
       id="radialGradient3950"
       r="62.1035"
       cy="57.4487"
       cx="66.265602">
      <stop
         offset="0.20921239"
         style="stop-color:#ffffff;stop-opacity:0.95683455;"
         id="stop3952" />
      <stop
         id="stop3954"
         style="stop-color:#f8f8f8;stop-opacity:0.92086333;"
         offset="0.37583435" />
      <stop
         offset="0.73694849"
         style="stop-color:#ffffff;stop-opacity:0.35164836;"
         id="stop3956" />
      <stop
         offset="1"
         style="stop-color:#ffffff;stop-opacity:0.8705036;"
         id="stop3958" />
    </radialGradient>
    <radialGradient
       inkscape:collect="always"
       xlink:href="#linearGradient3952"
       id="radialGradient7623"
       gradientUnits="userSpaceOnUse"
       gradientTransform="matrix(0.76517833,1.8967712,-1.4504727,0.58513654,15.945744,-24.776289)"
       cx="15.587636"
       cy="8.4734526"
       fx="15.587636"
       fy="8.4734526"
       r="7.4918928" />
    <linearGradient
       id="linearGradient3952">
      <stop
         style="stop-color:#ffad9c;stop-opacity:0.91366905;"
         offset="0"
         id="stop3954-0" />
      <stop
         id="stop3960"
         offset="0.5"
         style="stop-color:#ff4923;stop-opacity:0.9137255;" />
      <stop
         style="stop-color:#bf2000;stop-opacity:0.9137255;"
         offset="0.75"
         id="stop3962" />
      <stop
         style="stop-color:#ff6b4b;stop-opacity:0.9137255;"
         offset="1"
         id="stop3956-19" />
    </linearGradient>
    <radialGradient
       inkscape:collect="always"
       xlink:href="#linearGradient3952-9"
       id="radialGradient7621"
       gradientUnits="userSpaceOnUse"
       gradientTransform="matrix(1.0852137,0,0,1.731441,-1.1557157,-5.5109212)"
       cx="17.701006"
       cy="8.7720785"
       fx="17.701006"
       fy="8.7720785"
       r="8.9640102" />
    <linearGradient
       id="linearGradient3952-9">
      <stop
         style="stop-color:#ffffff;stop-opacity:0.63309354;"
         offset="0"
         id="stop3954-7" />
      <stop
         id="stop3960-3"
         offset="0.5"
         style="stop-color:#ffffff;stop-opacity:0.16546762;" />
      <stop
         style="stop-color:#ffffff;stop-opacity:0.1294964;"
         offset="0.75"
         id="stop3962-6" />
      <stop
         style="stop-color:#ffffff;stop-opacity:0.33812949;"
         offset="1"
         id="stop3956-1" />
    </linearGradient>
    <radialGradient
       r="8.9640102"
       fy="8.7720785"
       fx="17.701006"
       cy="8.7720785"
       cx="17.701006"
       gradientTransform="matrix(1.0852137,0,0,1.731441,-1.1557157,-5.5109212)"
       gradientUnits="userSpaceOnUse"
       id="radialGradient7756"
       xlink:href="#linearGradient3952-9"
       inkscape:collect="always" />
  </defs>
  <sodipodi:namedview
     pagecolor="#000000"
     bordercolor="#666666"
     borderopacity="0.15294118"
     objecttolerance="10"
     gridtolerance="10"
     guidetolerance="10"
     inkscape:pageopacity="0"
     inkscape:pageshadow="2"
     inkscape:window-width="1440"
     inkscape:window-height="848"
     id="namedview14999"
     showgrid="false"
     inkscape:showpageshadow="false"
     inkscape:snap-bbox="true"
     inkscape:zoom="16"
     inkscape:cx="7.5"
     inkscape:cy="12.8125"
     inkscape:window-x="-8"
     inkscape:window-y="-8"
     inkscape:window-maximized="1"
     inkscape:current-layer="layer2"
     showguides="true"
     inkscape:guide-bbox="true">
    <inkscape:grid
       type="xygrid"
       id="grid15007"
       empspacing="4"
       visible="true"
       enabled="true"
       snapvisiblegridlinesonly="true"
       dotted="true" />
  </sodipodi:namedview>
  <g
     inkscape:groupmode="layer"
     id="layer2"
     inkscape:label="Borders"
     style="display:none"
     sodipodi:insensitive="true">
    <rect
       style="fill:#ff0000;fill-opacity:0.30851063;stroke:none"
       id="rect15909"
       width="1"
       height="24"
       x="-1"
       y="0" />
    <rect
       style="fill:#ff0000;fill-opacity:0.30851063;stroke:none"
       id="rect15911"
       width="25"
       height="1"
       x="-1"
       y="24" />
    <rect
       style="fill:#ff0000;fill-opacity:0.30851063;stroke:none"
       id="rect15913"
       width="1"
       height="26"
       x="24"
       y="-1" />
    <rect
       style="fill:#ff0000;fill-opacity:0.30851063;stroke:none"
       id="rect15915"
       width="25"
       height="1"
       x="-1"
       y="-1" />
  </g>
  <g
     inkscape:groupmode="layer"
     id="layer3"
     inkscape:label="Icon"
     style="display:inline">
    <g
       transform="matrix(0.67929374,0,0,0.67929374,-0.25242401,3.900346)"
       style="display:inline"
       id="g7717">
      <path
         inkscape:connector-curvature="0"
         id="path7589"
         d="m 17.186075,-5.3665978 a 1.1041984,1.1041984 0 0 0 -0.138011,0.046004 1.1041984,1.1041984 0 0 0 -0.736058,0.5980477 c -0.10309,0.2232759 -0.0335,0.4627477 -0.09201,0.6900549 -0.294586,1.1444536 -0.208271,2.338377 0,3.49627827 l -4.048323,1.88615013 -0.09201,0 a 1.1068413,1.1068413 0 0 0 -0.184015,0.092007 l -8.74069,3.956315 C 1.9068918,5.9650304 1.3461752,7.5086979 1.9128591,8.7565261 L 10.377533,27.38801 c 0.566253,1.246882 2.110979,1.808509 3.358268,1.242099 l 18.631483,-8.510678 c 1.246902,-0.566245 1.808556,-2.01895 1.242099,-3.26626 L 25.144709,-1.8243158 c -0.42469,-0.9351523 -1.361349,-1.4990367 -2.346187,-1.4721172 -0.334827,0.00916 -0.705853,0.1369572 -1.01208,0.276022 l -2.300183,1.0120805 c -0.524807,-0.9958244 -0.998158,-1.8848692 -1.104088,-2.4381941 a 1.1041984,1.1041984 0 0 0 -1.196096,-0.9200732 z m 0.09201,1.1040879 c 0.209713,1.0954353 1.041879,2.5275822 1.840146,3.95631495 l 1.058084,-0.46003668 c -0.0096,-0.018553 -0.03562,-0.027168 -0.046,-0.046004 l 2.254179,-1.01208057 c 0.139891,-0.063527 0.269962,-0.042066 0.414033,-0.046004 0.108054,-0.00295 0.21925,0.018273 0.322026,0.046004 0.104566,0.02704 0.182687,0.036992 0.276022,0.092007 0.198039,0.1116224 0.35845,0.282351 0.460036,0.5060403 l 8.464674,18.6314829 c 0.127059,0.279776 0.145713,0.562603 0.046,0.828066 -0.04992,0.13316 -0.132181,0.261822 -0.230018,0.368029 -0.09779,0.105885 -0.228139,0.212494 -0.36803,0.276022 l -7.406589,3.358268 -5.244418,2.39219 -5.980476,2.714216 c -0.139891,0.06353 -0.269966,0.08809 -0.414033,0.09201 -0.165478,0.0044 -0.310815,-0.02636 -0.460036,-0.09201 -0.265462,-0.09971 -0.470991,-0.272266 -0.598048,-0.552044 L 3.2009616,8.1584791 c -0.00611,-0.01345 0.00553,-0.03245 0,-0.046 -0.063528,-0.139892 -0.088134,-0.273962 -0.092007,-0.414037 -0.00392,-0.1441513 -0.00385,-0.2811871 0.046004,-0.4140327 0.049915,-0.1274103 0.132182,-0.266135 0.2300183,-0.3680293 0.097791,-0.105971 0.2281382,-0.166491 0.3680293,-0.2300183 L 11.619632,3.0980761 12.631713,2.6380395 c 0.0062,0.00753 0.03924,-0.00826 0.046,0 l 0.96608,-0.4600367 2.852227,-1.28810255 1.058085,-0.4600366 C 17.196931,-1.3383684 16.757304,-3.134589 17.278083,-4.2625099 z m 4.508359,5.3364247 c -0.115257,0.00315 -0.210114,-0.00482 -0.322026,0.046004 l -0.276022,0.138011 -1.012081,0.4600367 c 0.51267,1.05517 0.883365,2.0594406 0.828066,2.8522271 -0.195248,2.7992015 -1.988655,5.0988638 -2.576205,7.3145824 -0.559485,2.109869 0.86707,4.220271 2.668213,3.26626 1.418237,-0.751198 -0.09152,-3.925374 0.966077,-6.4405126 0.91825,-2.1837531 1.218445,-2.5296391 2.346186,-3.3122639 L 23.948614,4.4321823 22.614508,1.5799552 c -0.03812,-0.083934 -0.07997,-0.1646686 -0.138011,-0.2300184 -0.01451,-0.016337 -0.03045,-0.030906 -0.046,-0.046004 -0.04271,-0.034582 -0.08976,-0.065534 -0.138011,-0.092007 -0.156241,-0.085724 -0.33316,-0.1427368 -0.506044,-0.138011 z m -3.910314,1.656132 -1.104088,0.5060403 c 4.3e-5,0.013256 5.8e-5,0.032942 0,0.046004 l -1.840146,0.828066 -1.012081,0.4600366 c 0.34077,0.670065 0.60769,1.4009325 0.598048,2.0701648 -0.0468,3.249066 1.716115,2.741224 3.26626,-2.3001831 0.142644,-0.4639098 0.126944,-1.0327881 0.09201,-1.6101282 z m 4.186334,1.0580842 0.736058,1.5641245 c -0.605202,0.612013 -1.087289,1.3236819 -1.702135,2.7602196 0.441711,-1.06779 0.92002,-2.1764396 1.01208,-3.4962782 0.01959,-0.2807906 -0.01359,-0.5537901 -0.046,-0.8280659 z m -8.7867,1.0580843 -1.01208,0.4600366 c 6.83e-4,0.016193 -4.79e-4,0.029841 0,0.046004 L 6.559229,7.9284611 c -0.1119127,0.05082 -0.1960279,0.105949 -0.276022,0.184014 -0.078267,0.08467 -0.1440854,0.169884 -0.1840146,0.276022 -0.07003,0.186151 -0.067769,0.398328 0,0.598048 0.00581,0.01478 -0.00671,0.03122 0,0.046 0.0055,0.01391 -0.00626,0.03223 0,0.046 l 2.8062234,6.1184869 0,0.046 1.2881032,2.852227 C 10.073893,17.64643 10.00628,17.170566 9.9634996,16.669145 9.7284764,13.91447 11.139584,12.388828 12.079669,10.412647 13.24545,7.9620201 13.402356,6.1546989 13.275764,4.8462043 z m 3.082246,0.1840146 c -0.243456,0.6515709 -0.519804,1.242637 -0.736059,1.6561319 0.0064,-0.4444499 -0.0736,-0.8889171 -0.184015,-1.2881026 L 16.35801,5.0302299 z m 8.188651,0.6900549 c -0.846673,1.7144205 -1.342173,4.1376493 -0.828065,5.2904212 0.587554,1.317451 2.673214,2.507191 2.438194,5.980476 -0.05208,0.769739 -0.301824,1.549717 -0.690055,2.25418 l 3.496278,-1.610129 c 0.111903,-0.05082 0.197757,-0.09934 0.276022,-0.184014 0.07827,-0.08467 0.144083,-0.169884 0.184015,-0.276022 0.07986,-0.212277 0.101645,-0.46623 0,-0.690055 L 24.546661,5.7202848 z M 12.125673,6.9623837 C 11.965643,7.8052851 11.625853,8.7790751 11.067588,9.9526221 10.613488,10.9072 9.9507416,11.893916 9.4574597,13.080871 L 7.6173132,8.9865451 12.125673,6.9623837 z m 8.786699,1.9321534 c -0.385952,1.3630409 -0.384997,2.7501639 -0.322026,3.7723009 0.03664,0.594754 0.04245,1.071697 0,1.334106 -0.04245,0.262409 -0.0049,0.18661 0,0.184015 -0.245004,0.129771 -0.352823,0.119887 -0.460036,0.09201 -0.107213,-0.02788 -0.230073,-0.142071 -0.368029,-0.322026 -0.275912,-0.359907 -0.471051,-1.104673 -0.276022,-1.840146 0.246245,-0.928616 0.860958,-1.977899 1.426113,-3.2202569 z m 3.726297,0.506041 1.196095,2.6682119 c -0.522691,-0.741408 -1.033051,-1.255683 -1.150092,-1.518121 -0.06084,-0.136415 -0.07819,-0.5877279 -0.046,-1.1500909 z m 2.484198,5.5204389 0.736058,1.656132 -0.598047,0.276022 c 0.02813,-0.715365 -0.01225,-1.348275 -0.138011,-1.932154 z m -15.917268,5.382429 1.150092,2.576205 c 0.01732,0.01239 0.0286,0.03373 0.046,0.046 l 0.46004,1.058088 c 0.101645,0.223806 0.293762,0.380174 0.50604,0.460036 0.212279,0.07986 0.46623,0.101644 0.690055,0 l 0.644052,-0.276022 1.610128,-0.736058 c -2.057845,-0.368309 -3.926111,-1.392538 -5.106407,-3.128249 z"
         style="font-size:medium;font-style:normal;font-variant:normal;font-weight:normal;font-stretch:normal;text-indent:0;text-align:start;text-decoration:none;line-height:normal;letter-spacing:normal;word-spacing:normal;text-transform:none;direction:ltr;block-progression:tb;writing-mode:lr-tb;text-anchor:start;baseline-shift:baseline;color:#000000;fill:#000000;fill-opacity:0.39215686;stroke:none;stroke-width:2.2081759;marker:none;visibility:visible;display:inline;overflow:visible;enable-background:accumulate;font-family:Sans;-inkscape-font-specification:Sans" />
      <path
         inkscape:connector-curvature="0"
         id="path3222"
         d="m 22.798522,-1.8703195 c -0.144071,0.00393 -0.274143,0.02848 -0.414033,0.092007 l -3.26626,1.47211725 c 0.38234,0.6843073 0.736007,1.36126475 1.058084,2.02416115 l 1.288103,-0.5980477 c 0.111913,-0.050822 0.206769,-0.088857 0.322026,-0.092007 0.345769,-0.00945 0.675597,0.2163074 0.828066,0.552044 l 1.748139,3.818304 C 24.54149,5.2738032 24.684962,5.1891118 24.914691,5.0302299 24.775842,5.2503665 24.67299,5.5075115 24.546661,5.7662885 L 29.42305,16.485142 c 0.203292,0.447649 -0.01242,0.946801 -0.460037,1.150091 l -3.450275,1.564125 c -1.346847,2.501152 -4.549918,4.416351 -7.590604,4.416351 -0.564923,0 -1.107546,-0.08298 -1.656132,-0.184014 l -2.208176,1.01208 c -0.447651,0.203289 -0.992805,-0.01242 -1.196095,-0.460036 l -1.656132,-3.680293 c -0.02599,-0.03823 -0.02069,-0.09914 -0.046,-0.138011 -0.393273,-0.603916 -0.75956,-1.2667 -0.966077,-2.024161 L 6.0991924,9.0785521 C 5.8959014,8.6309041 6.1115784,8.0857471 6.559229,7.8824571 L 13.275764,4.8462153 C 13.153545,3.582921 12.821663,2.9119227 12.631713,2.6380395 L 3.7530056,6.6863618 C 3.1934413,6.9404708 2.9468484,7.5989261 3.2009616,8.1584791 L 11.665636,26.789962 c 0.254114,0.559555 0.912551,0.806151 1.472117,0.552044 L 31.769236,18.877332 C 32.3288,18.623223 32.575399,17.964767 32.32128,17.405215 L 23.856606,-1.2262682 C 23.66602,-1.6459331 23.230734,-1.8821335 22.798522,-1.8703195 z M 17.554105,0.42986365 12.677717,2.6380395 c 0.251258,0.3068634 0.767757,0.9994412 1.242098,1.9321538 L 17.87613,2.7300468 C 17.832369,2.0068745 17.714018,1.2215309 17.554105,0.42986365 z"
         style="fill:url(#linearGradient7625);fill-opacity:1;fill-rule:nonzero;stroke:none;stroke-width:1.1467793;marker-start:none" />
      <path
         inkscape:export-ydpi="23.039482"
         inkscape:export-xdpi="23.039482"
         inkscape:export-filename="C:\Users\Madnester\Desktop\Sketches\256.png"
         sodipodi:nodetypes="cssssscsssscssc"
         inkscape:connector-curvature="0"
         id="path3265"
         d="m 12.475839,2.4014753 c 0,0 2.207336,2.5198059 -0.411284,8.0244917 -0.940085,1.97618 -2.3502141,3.473286 -2.1151904,6.227962 0.3880424,4.548203 4.1128664,6.946576 7.9907164,6.946576 3.877847,0 7.990717,-3.113983 8.225736,-6.58727 0.235021,-3.473286 -1.880168,-4.670974 -2.467722,-5.988425 -0.587551,-1.3174539 0.176267,-4.3116676 1.233863,-5.988426 -1.64515,1.1378001 -1.821414,1.1378001 -2.87901,3.6529401 -1.057595,2.5151379 0.478153,5.7163009 -0.940085,6.4674989 -1.801143,0.954012 -3.262226,-1.183765 -2.702741,-3.293634 0.58755,-2.2157179 2.389983,-4.5066778 2.585231,-7.3058794 0.162574,-2.3307143 -3.23154,-6.3477327 -3.701581,-8.8029875 -0.940085,2.0360651 1.190444,6.2205539 0.470043,8.5634502 -1.550145,5.0414068 -3.278342,5.5845528 -3.231539,2.3354864 0.02683,-1.8622116 -2.056437,-4.2517834 -2.056437,-4.2517834 z"
         style="fill:url(#radialGradient7623);fill-opacity:1;stroke:none" />
      <path
         inkscape:connector-curvature="0"
         id="path7286"
         d="m 17.31609,-4.2706266 c -0.940082,2.036065 1.169716,6.2439975 0.449315,8.5868937 -1.550143,5.041407 -3.29185,5.595485 -3.245047,2.3464186 0.02683,-1.8622116 -2.046876,-4.243523 -2.046876,-4.243523 0,0 2.21923,2.4831226 -0.39939,7.9878083 -0.940085,1.97618 -2.3817469,3.485799 -2.1467244,6.240474 0.3880444,4.548204 4.1099594,6.939409 7.9878094,6.939409 3.877847,0 8.002406,-3.116654 8.237427,-6.589942 0.23502,-3.473286 -1.858712,-4.673403 -2.446267,-5.990856 -0.587551,-1.3174529 0.1905,-4.3140971 1.248096,-5.9908557 C 23.309282,6.1530005 23.116448,6.1944221 22.058852,8.7095621 21.001257,11.2247 22.528537,14.398534 21.1103,15.149731 19.309156,16.103744 17.85493,13.964632 18.414414,11.85476 19.001965,9.6390431 20.815205,7.3650876 21.010452,4.5658861 21.173024,2.2351719 17.786133,-1.8153719 17.31609,-4.2706266 z m 1.996953,8.5868937 c 9.8e-4,0.017379 0.100783,0.086426 0.09985,0.099848 -0.007,0.1005331 -0.08667,0.1992973 -0.09985,0.2995428 0.04403,-0.150118 -0.03044,-0.2505811 0,-0.3993904 z m -0.09985,0.6989332 c -0.359626,1.9826089 -1.683809,3.9413968 -2.346418,6.4401707 -0.402319,1.51718 -0.125495,3.003143 0.748857,4.143674 0.437176,0.570266 1.068751,1.095566 1.84718,1.298019 0.778429,0.202453 1.649024,0.04637 2.396342,-0.349466 0.874681,-0.463291 1.333057,-1.38749 1.44779,-2.0968 0.06845,-0.423186 0.01142,-0.768807 0,-1.148247 0.735679,0.929811 1.424835,1.720371 1.298019,3.594513 -0.0773,1.142455 -0.870146,2.490955 -2.146723,3.494667 -1.276576,1.003711 -3.031766,1.597561 -4.543065,1.597561 -3.219143,0 -6.071772,-1.758812 -6.390248,-5.491618 -0.184842,-2.166527 0.875177,-3.138598 1.947028,-5.39177 0.259211,-0.544895 0.317819,-0.944558 0.499239,-1.4477899 0.215535,0.20678 0.363846,0.4477469 0.698933,0.5491609 0.631677,0.19118 1.286673,0.0387 1.69741,-0.199695 0.821472,-0.4767829 1.199309,-1.1590379 1.647485,-1.9969519 0.42052,-0.7862091 0.811873,-1.7763896 1.198171,-2.9954278 z"
         style="font-size:medium;font-style:normal;font-variant:normal;font-weight:normal;font-stretch:normal;text-indent:0;text-align:start;text-decoration:none;line-height:normal;letter-spacing:normal;word-spacing:normal;text-transform:none;direction:ltr;block-progression:tb;writing-mode:lr-tb;text-anchor:start;baseline-shift:baseline;color:#000000;fill:url(#radialGradient7756);fill-opacity:1;stroke:none;stroke-width:2.94423437;marker:none;visibility:visible;display:inline;overflow:visible;enable-background:accumulate;font-family:Sans;-inkscape-font-specification:Sans" />
    </g>
  </g>
</svg>
