<?xml version="1.0" encoding="utf8" standalone="no"?>
<svg height="16" id="svg4666" inkscape:version="0.48.3.1 r9886" sodipodi:docname="outmsgok.svg" version="1.1" width="16" xmlns="http://www.w3.org/2000/svg" xmlns:cc="http://creativecommons.org/ns#" xmlns:dc="http://purl.org/dc/elements/1.1/" xmlns:inkscape="http://www.inkscape.org/namespaces/inkscape" xmlns:rdf="http://www.w3.org/1999/02/22-rdf-syntax-ns#" xmlns:sodipodi="http://sodipodi.sourceforge.net/DTD/sodipodi-0.dtd" xmlns:svg="http://www.w3.org/2000/svg" xmlns:xlink="http://www.w3.org/1999/xlink">
<defs id="defs4668">
<linearGradient gradientTransform="matrix(1.01578,0,0,-1.07407,-352.00904,-394.93921)" gradientUnits="userSpaceOnUse" id="linearGradient4802" inkscape:collect="always" x1="308.14651" x2="311.9473" xlink:href="#radialGradient3976-1-2" y1="-377.9277" y2="-377.9277"/>
<linearGradient gradientTransform="matrix(1.01578,0,0,-1.07407,-352.00904,-394.93921)" gradientUnits="userSpaceOnUse" id="linearGradient4799" inkscape:collect="always" x1="315.7207" x2="319.02151" xlink:href="#radialGradient3976-1-2" y1="-379.52151" y2="-379.52151"/>
<radialGradient cx="25.706499" cy="-306.87061" gradientTransform="matrix(.28038,-2.47538,-1.47033,-.10639,-451.57769,42.62509)" gradientUnits="userSpaceOnUse" id="radialGradient3976-1-2" r="4.7227998">
<stop id="stop3978-8-3" offset="0" style="stop-color:#707070"/>
<stop id="stop3980-4-3" offset="1" style="stop-opacity:0;stop-color:#707070"/>
</radialGradient>
<radialGradient cx="25.706499" cy="-306.87061" gradientTransform="matrix(.30433,-2.58163,-1.59589,-.11095,-530.77625,44.06483)" gradientUnits="userSpaceOnUse" id="radialGradient4805" inkscape:collect="always" r="4.7227998" xlink:href="#radialGradient3976-1-2"/>
</defs>
<sodipodi:namedview id="base" inkscape:current-layer="layer1" inkscape:cx="9.668567" inkscape:cy="9.2268797" inkscape:document-units="px" inkscape:pageopacity="0" inkscape:pageshadow="2" inkscape:window-height="445" inkscape:window-maximized="0" inkscape:window-width="535" inkscape:window-x="75" inkscape:window-y="75" inkscape:zoom="7.9195959"/>
<g id="layer1" inkscape:groupmode="layer" inkscape:label="Layer 1" transform="translate(0,-1036.3622)">
<g id="g4808" transform="translate(40,1036.3622)">
<g id="g5322" transform="matrix(1,0,0,1.00013,-231.625,-2.84657)">
<rect height="11.997853" id="rect5324" inkscape:export-filename="D:\Hobby\QutIM\Images\th3.png" inkscape:export-xdpi="90" inkscape:export-ydpi="90" rx="0.99982113" style="opacity:0.07999998" width="15" x="192.625" y="6.8458977"/>
<rect height="11.747898" id="rect5326" inkscape:export-filename="D:\Hobby\QutIM\Images\th3.png" inkscape:export-xdpi="90" inkscape:export-ydpi="90" rx="1.0215564" style="opacity:0.15" width="14.75" x="192.625" y="6.8458977"/>
<rect height="11.497943" id="rect5328" inkscape:export-filename="D:\Hobby\QutIM\Images\th3.png" inkscape:export-xdpi="90" inkscape:export-ydpi="90" rx="0.99982113" style="opacity:0.15" width="14.5" x="192.625" y="6.8458977"/>
<rect height="11.247988" id="rect5330" inkscape:export-filename="D:\Hobby\QutIM\Images\th3.png" inkscape:export-xdpi="90" inkscape:export-ydpi="90" rx="0.97808588" style="opacity:0.3" width="14.25" x="192.625" y="6.8458977"/>
</g>
<rect height="11.999441" id="rect3906-8" inkscape:export-filename="D:\Hobby\QutIM\Images\th2.png" inkscape:export-xdpi="90" inkscape:export-ydpi="90" rx="0.99995339" style="fill:#e6e6e6" width="15" x="-40" y="3.0000007"/>
<path d="m -38.318413,3.9999576 c -0.350445,-0.0011 -0.634864,0.2158869 -0.63588,0.4854783 l -0.0061,1.0547349 5.116493,6.8740342 c 0.216361,0.29322 0.70089,0.396329 1.081807,0.228776 l 6.751905,-2.9644267 0.01019,-1.439251 -6.297847,2.7635767 c -0.306765,0.13533 -0.690731,0.05369 -0.865446,-0.182592 l -5.072826,-6.8203304 h -0.08228 z" id="path3908-4" inkscape:connector-curvature="0" inkscape:export-filename="D:\Hobby\QutIM\Images\th2.png" inkscape:export-xdpi="90" inkscape:export-ydpi="90" style="fill:url(#radialGradient4805)"/>
<path d="m -35.946564,9.5937032 -3.043282,1.3350658 -0.01016,1.439251 3.860985,-1.693806 -0.807547,-1.0805108 z" id="path3910-0" inkscape:connector-curvature="0" inkscape:export-filename="D:\Hobby\QutIM\Images\th2.png" inkscape:export-xdpi="90" inkscape:export-ydpi="90" style="opacity:0.51529996;fill:url(#linearGradient4802);enable-background:new"/>
<path d="m -29.896569,11.386323 -1.409904,0.616515 1.479994,1.988098 1.873102,0.0086 -1.943192,-2.613207 0,0 z" id="path3912-7" inkscape:connector-curvature="0" inkscape:export-filename="D:\Hobby\QutIM\Images\th2.png" inkscape:export-xdpi="90" inkscape:export-ydpi="90" style="opacity:0.51529996;fill:url(#linearGradient4799);enable-background:new"/>
<path d="m -39,3.0000002 c -0.554,0 -1,0.4459792 -1,0.9999534 l 0,9.9995344 c 0,0.553974 0.446,0.999953 1,0.999953 l 13,0 c 0.554,0 1,-0.445979 1,-0.999953 l 0,-9.9995344 c 0,-0.5539742 -0.446,-0.9999534 -1,-0.9999534 l -13,0 z m 0.5,0.9999534 12,0 c 0.284681,0 0.5,0.2153089 0.5,0.4999766 l 0,8.9995808 c 0,0.284668 -0.215319,0.499977 -0.5,0.499977 l -12,0 c -0.28468,0 -0.5,-0.215309 -0.5,-0.499977 l 0,-8.9995808 c 0,-0.2846677 0.21532,-0.4999766 0.5,-0.4999766 z" id="path3914-6" inkscape:connector-curvature="0" inkscape:export-filename="D:\Hobby\QutIM\Images\th2.png" inkscape:export-xdpi="90" inkscape:export-ydpi="90" style="fill:#707070"/>
<path d="m -39.09375,4.0002305 a 1.0001,1.0000534 0 0 0 -0.5625,1.7499185 l 4.78125,4.2498019 -4.78125,4.2498021 A 1.0001,1.0000534 0 0 0 -39,15.999671 l 3.15625,0 a 1.0001,1.0000534 0 0 0 0.6875,-0.249988 l 5.625,-4.999767 a 1.0001,1.0000534 0 0 0 0,-1.4999302 l -5.625,-4.9997669 a 1.0001,1.0000534 0 0 0 -0.6875,-0.2499884 l -3.15625,0 a 1.0001,1.0000534 0 0 0 -0.09375,0 z" id="path5160" inkscape:connector-curvature="0" style="font-family:Sans;fill:#e6e6e6;stroke-width:2"/>
<path d="m -35.832,14.999441 5.631999,-4.9997667 -5.631999,-4.9997674 -3.168,0 5.632,4.9997674 -5.632,4.9997667 3.168,0 z" id="path3876" inkscape:connector-curvature="0" inkscape:export-filename="D:\Hobby\QutIM\Images\th2.png" inkscape:export-xdpi="90" inkscape:export-ydpi="90" style="fill:#3473e3"/>
</g>
</g>
</svg>
