<?xml version="1.0" encoding="UTF-8" standalone="no"?>
<!-- Created with Inkscape (http://www.inkscape.org/) -->

<svg
   xmlns:dc="http://purl.org/dc/elements/1.1/"
   xmlns:cc="http://creativecommons.org/ns#"
   xmlns:rdf="http://www.w3.org/1999/02/22-rdf-syntax-ns#"
   xmlns:svg="http://www.w3.org/2000/svg"
   xmlns="http://www.w3.org/2000/svg"
   xmlns:sodipodi="http://sodipodi.sourceforge.net/DTD/sodipodi-0.dtd"
   xmlns:inkscape="http://www.inkscape.org/namespaces/inkscape"
   id="svg2"
   version="1.1"
   inkscape:version="0.48.0 r9654"
   width="1000"
   height="1000"
   xml:space="preserve"
   sodipodi:docname="online.pdf"><metadata
     id="metadata8"><rdf:RDF><cc:Work
         rdf:about=""><dc:format>image/svg+xml</dc:format><dc:type
           rdf:resource="http://purl.org/dc/dcmitype/StillImage" /><dc:title></dc:title></cc:Work></rdf:RDF></metadata><defs
     id="defs6" /><sodipodi:namedview
     pagecolor="#ffffff"
     bordercolor="#666666"
     borderopacity="1"
     objecttolerance="10"
     gridtolerance="10"
     guidetolerance="10"
     inkscape:pageopacity="0"
     inkscape:pageshadow="2"
     inkscape:window-width="640"
     inkscape:window-height="480"
     id="namedview4"
     showgrid="false"
     inkscape:zoom="0.302"
     inkscape:cx="500"
     inkscape:cy="500"
     inkscape:window-x="0"
     inkscape:window-y="0"
     inkscape:window-maximized="0"
     inkscape:current-layer="g10" /><g
     id="g10"
     inkscape:groupmode="layer"
     inkscape:label="online"
     transform="matrix(1.25,0,0,-1.25,0,1000)"><path
       style="fill:#1a1a1a;fill-opacity:1;fill-rule:nonzero;stroke:none"
       d="M 662.21875 29.71875 C 657.7125 29.84125 653.15625 30.8875 648.78125 32.875 L 508.875 96.40625 C 496.55831 72.719177 486.62021 50.44434 483 31.53125 C 473.73616 51.591341 475.33123 79.229983 480.25 109.40625 L 66.09375 297.46875 C 48.59875 305.41375 40.9 325.91125 48.84375 343.40625 L 313.46875 926.0625 C 321.4125 943.5625 341.875 951.2575 359.375 943.3125 L 942.0625 678.6875 C 959.5575 670.7425 967.2575 650.28125 959.3125 632.78125 L 694.6875 50.09375 C 688.725 36.97375 675.73 29.3475 662.21875 29.71875 z M 630.59375 121.40625 C 641.40875 121.11375 651.79625 127.18875 656.5625 137.6875 L 868.28125 603.84375 C 874.63875 617.8375 868.4675 634.205 854.46875 640.5625 L 675.875 721.6875 C 705.18775 691.52236 724.73483 655.00954 727.3125 616.90625 C 733.7875 521.2725 675.52125 488.28 659.34375 452 C 643.1625 415.72625 664.2225 333.2925 693.34375 287.125 C 648.04125 318.45375 643.18375 318.435 614.0625 387.6875 C 584.94125 456.945 627.20875 545.0925 588.15625 565.78125 C 538.56125 592.045 498.345 533.19 513.75 475.09375 C 529.92625 414.0825 579.5625 350.9825 584.9375 273.90625 C 587.09594 242.97048 566.49246 201.24836 543.125 158.75 L 619.84375 123.90625 C 623.345 122.315 626.99 121.50375 630.59375 121.40625 z M 494.09375 181 C 499.92706 212.98978 503.23621 243.57871 495.9375 267.3125 C 453.25625 406.13125 405.68 421.08875 406.96875 331.625 C 407.42993 299.5589 385.18149 261.8435 368.4375 238.0625 L 494.09375 181 z M 364.15625 240.03125 C 376.50001 272.43666 386.18462 336.40805 339.03125 435.53125 C 313.1475 489.945 274.31125 531.15125 280.78125 607 C 291.465 732.235 394.035 798.28125 500.8125 798.28125 C 503.03011 798.28125 505.24658 798.22954 507.46875 798.15625 L 388.3125 852.28125 C 374.31875 858.63875 357.95125 852.4675 351.59375 838.46875 L 139.875 372.3125 C 133.5175 358.31375 139.68875 341.95125 153.6875 335.59375 L 364.15625 240.03125 z "
       transform="matrix(0.8,0,0,-0.8,0,800)"
       id="path16" /></g></svg>