<?xml version="1.0" encoding="UTF-8" standalone="no"?>
<svg
   xmlns:dc="http://purl.org/dc/elements/1.1/"
   xmlns:cc="http://creativecommons.org/ns#"
   xmlns:rdf="http://www.w3.org/1999/02/22-rdf-syntax-ns#"
   xmlns:svg="http://www.w3.org/2000/svg"
   xmlns="http://www.w3.org/2000/svg"
   xmlns:xlink="http://www.w3.org/1999/xlink"
   xmlns:sodipodi="http://sodipodi.sourceforge.net/DTD/sodipodi-0.dtd"
   xmlns:inkscape="http://www.inkscape.org/namespaces/inkscape"
   width="16.131674"
   height="16.131674"
   version="1.1"
   viewBox="0 0 16.131674 16.131674"
   id="svg2"
   inkscape:version="0.48.1 r9760"
   sodipodi:docname="qutim-modified.svg"
   inkscape:export-filename="/home/sauron/develop/qutim/icons/qutim.png"
   inkscape:export-xdpi="2856.1414"
   inkscape:export-ydpi="2856.1414">
  <metadata
     id="metadata44">
    <rdf:RDF>
      <cc:Work
         rdf:about="">
        <dc:format>image/svg+xml</dc:format>
        <dc:type
           rdf:resource="http://purl.org/dc/dcmitype/StillImage" />
        <dc:title></dc:title>
      </cc:Work>
    </rdf:RDF>
  </metadata>
  <sodipodi:namedview
     pagecolor="#ffffff"
     bordercolor="#666666"
     borderopacity="1"
     objecttolerance="10"
     gridtolerance="10"
     guidetolerance="10"
     inkscape:pageopacity="0"
     inkscape:pageshadow="2"
     inkscape:window-width="1280"
     inkscape:window-height="970"
     id="namedview42"
     showgrid="false"
     inkscape:zoom="34.521717"
     inkscape:cx="9.1478641"
     inkscape:cy="8.1800289"
     inkscape:window-x="-7"
     inkscape:window-y="-8"
     inkscape:window-maximized="1"
     inkscape:current-layer="Layer_x0020_1"
     fit-margin-top="0"
     fit-margin-left="0"
     fit-margin-right="0"
     fit-margin-bottom="0" />
  <defs
     id="defs4">
    <linearGradient
       id="linearGradient3907">
      <stop
         style="stop-color:#0073d2;stop-opacity:1;"
         offset="0"
         id="stop3909" />
      <stop
         style="stop-color:#0073d2;stop-opacity:0;"
         offset="1"
         id="stop3911" />
    </linearGradient>
    <radialGradient
       r="44.439999"
       cx="114.32"
       cy="159.21001"
       gradientUnits="userSpaceOnUse"
       id="radialGradient3901">
      <stop
         id="stop3903"
         offset="0"
         stop-color="#FFF" />
      <stop
         style="stop-color:#1c94e6;stop-opacity:1;"
         id="stop3905"
         offset="1"
         stop-color="#75c5f0" />
    </radialGradient>
    <radialGradient
       id="id5"
       gradientUnits="userSpaceOnUse"
       cy="159.21001"
       cx="114.32"
       r="44.439999">
      <stop
         stop-color="#FFF"
         offset="0"
         id="stop7" />
      <stop
         stop-color="#75c5f0"
         offset="1"
         id="stop9"
         style="stop-color:#1c94e6;stop-opacity:1;" />
    </radialGradient>
    <linearGradient
       id="id3"
       y2="149.03999"
       gradientUnits="userSpaceOnUse"
       x2="127.38"
       y1="117.03"
       x1="136.69">
      <stop
         stop-color="#FFF"
         offset="0"
         id="stop12" />
      <stop
         stop-color="#FFF"
         stop-opacity="0"
         offset="1"
         id="stop14" />
    </linearGradient>
    <linearGradient
       id="linearGradient3121"
       y2="115.78"
       gradientUnits="userSpaceOnUse"
       x2="111.07"
       y1="203.09"
       x1="111.07">
      <stop
         stop-color="#db214c"
         offset="0"
         id="stop17" />
      <stop
         stop-color="#e77817"
         offset="0.45098"
         id="stop19" />
      <stop
         stop-color="#f8c300"
         offset="1"
         id="stop21" />
    </linearGradient>
    <linearGradient
       id="id1"
       y2="145.32001"
       gradientUnits="userSpaceOnUse"
       x2="85.261002"
       y1="206.62"
       x1="115.41">
      <stop
         stop-color="#FFF"
         offset="0"
         id="stop24" />
      <stop
         stop-color="#FFF"
         stop-opacity="0.50196099"
         offset="0.63922"
         id="stop26" />
      <stop
         stop-color="#FFF"
         stop-opacity="0"
         offset="1"
         id="stop28" />
    </linearGradient>
    <style
       id="style6"
       type="text/css" />
    <mask
       id="id0">
      <rect
         id="rect16"
         height="55.585999"
         width="55.459"
         y="148.17999"
         x="72.607002"
         style="fill:url(#id1)" />
    </mask>
    <mask
       id="id2">
      <rect
         id="rect24"
         height="34.240002"
         width="39.657001"
         y="115.92"
         x="112.21"
         style="fill:url(#id3)" />
    </mask>
    <linearGradient
       inkscape:collect="always"
       xlink:href="#linearGradient3121"
       id="linearGradient3808"
       gradientUnits="userSpaceOnUse"
       x1="111.07"
       y1="203.09"
       x2="111.07"
       y2="115.78" />
    <linearGradient
       inkscape:collect="always"
       xlink:href="#linearGradient3121"
       id="linearGradient3810"
       gradientUnits="userSpaceOnUse"
       x1="111.07"
       y1="203.09"
       x2="111.07"
       y2="115.78" />
  </defs>
  <g
     id="Layer_x0020_1"
     transform="matrix(0.15480569,0,0,0.15480569,-9.6315499,-16.580778)">
    <circle
       id="circle40"
       cy="159.21001"
       cx="114.32"
       r="51.457001"
       sodipodi:cx="114.32"
       sodipodi:cy="159.21001"
       sodipodi:rx="51.457001"
       sodipodi:ry="51.457001"
       style="fill:url(#id5);fill-opacity:1;stroke:#0073d2;stroke-width:1.29194224;stroke-linecap:butt;stroke-linejoin:miter;stroke-miterlimit:7;stroke-opacity:1;stroke-dasharray:none"
       d="m 165.777,159.21001 c 0,28.41891 -23.03808,51.457 -51.457,51.457 -28.418917,0 -51.457001,-23.03809 -51.457001,-51.457 0,-28.41892 23.038084,-51.457 51.457001,-51.457 28.41892,0 51.457,23.03808 51.457,51.457 z" />
    <path
       id="path42"
       d="m 105.3,200.4 c -35.13,-12.89 -9.208,-38.9 -20.28,-55.41 8.157,1.282 11.48,6.351 12.59,12.76 14.68,-10.43 -3.668,-29.25 21.67,-41.95 -4.659,23.07 26,31.67 17.49,60.86 4.661,-5.418 3.99,-10.97 11.8,-14.99 -1.715,13.22 3.481,29.7 -22.33,39.49 -10.57,1.486 -12.7,1.943 -20.95,-0.7664 z"
       inkscape:connector-curvature="0"
       style="fill:url(#linearGradient3808)" />
    <path
       id="path44"
       d="m 109.6,199.4 c -22.08,-8.101 -5.786,-24.45 -12.74,-34.82 5.126,0.8057 7.213,3.991 7.909,8.018 9.226,-6.554 -2.305,-18.38 13.62,-26.36 -2.928,14.5 16.34,19.9 10.99,38.25 2.929,-3.405 1.908,-6.562 6.814,-9.088 -1.078,8.308 2.786,18.34 -13.43,24.49 -6.645,0.9338 -7.983,1.221 -13.16,-0.4816 z"
       inkscape:connector-curvature="0"
       style="fill:#ffffff" />
    <path
       id="path46"
       d="m 112.2,198.8 c -13.86,-5.087 -3.633,-15.35 -8.001,-21.86 3.219,0.506 4.529,2.506 4.966,5.035 5.793,-4.116 -1.447,-11.54 8.553,-16.55 -1.839,9.104 10.26,12.5 6.903,24.02 1.839,-2.138 1.152,-4.82 4.232,-6.406 -0.6769,5.216 1.796,12.21 -8.387,16.08 -4.173,0.5863 -5.012,0.7668 -8.265,-0.3024 z"
       inkscape:connector-curvature="0"
       style="fill:url(#linearGradient3810)" />
    <path
       id="path48"
       d="m 72.94,148.2 c -2.393,27.12 9.171,57.88 43.41,55.37 19.36,-1.847 15.24,-23.29 -16.75,-29.74 -11.51,-4.557 -20.28,-8.431 -26.66,-25.64 z"
       mask="url(#id0)"
       style="opacity:0.54761903;fill:#ffffff"
       inkscape:connector-curvature="0" />
    <path
       id="path50"
       d="m 119.7,116.3 c 18.54,3.744 25.96,18.19 32.13,33.84 -9.798,-11.17 -19.76,-16.92 -28.96,-19.38 -14.58,-4.899 -12.68,-16.91 -3.169,-14.46 z"
       mask="url(#id2)"
       style="opacity:0.55952382;fill:#ffffff"
       inkscape:connector-curvature="0" />
  </g>
</svg>
