<?xml version="1.0" encoding="utf-8"?>
<!-- Generator: Adobe Illustrator 13.0.2, SVG Export Plug-In . SVG Version: 6.00 Build 14948)  -->
<svg version="1.2" baseProfile="tiny" id="Layer_1" xmlns="http://www.w3.org/2000/svg" xmlns:xlink="http://www.w3.org/1999/xlink"
	 x="0px" y="0px" width="100%" height="100%" viewBox="0 0 64 64" xml:space="preserve">
<path fill="#F2F2F2" d="M62.271,41.233c0.297,0.603,0.048,1.33-0.555,1.626L22.161,62.269c-0.602,0.298-1.328,0.052-1.623-0.552
	L1.125,22.16c-0.294-0.6-0.046-1.328,0.555-1.623L41.234,1.125c0.603-0.296,1.327-0.047,1.622,0.554L62.271,41.233z"/>
<path fill="#005DB5" d="M59.651,40.419c0.272,0.548,0.045,1.215-0.505,1.484L22.978,59.652c-0.551,0.272-1.214,0.045-1.484-0.507
	L3.743,22.977c-0.27-0.548-0.042-1.214,0.507-1.484L40.418,3.744c0.55-0.271,1.214-0.044,1.485,0.506L59.651,40.419z"/>
<linearGradient id="SVGID_1_" gradientUnits="userSpaceOnUse" x1="31.6978" y1="4.667" x2="31.6978" y2="57.667">
	<stop  offset="0" style="stop-color:#1B84EC"/>
	<stop  offset="1" style="stop-color:#005DB5"/>
</linearGradient>
<path fill="url(#SVGID_1_)" d="M57.922,39.877c0.256,0.52,0.043,1.142-0.474,1.395L23.517,57.924
	c-0.516,0.253-1.138,0.041-1.393-0.475L5.473,23.517c-0.252-0.516-0.04-1.139,0.475-1.393l33.93-16.65
	c0.518-0.255,1.14-0.042,1.394,0.475L57.922,39.877z"/>
<path fill="#4D4D4D" d="M30.776,48.454c-0.128-0.013-0.249-0.073-0.343-0.163l-1.632-1.601c-0.487,0.395-1.025,0.671-1.632,0.828
	c-0.546,0.141-1.084,0.183-1.606,0.125c-0.946-0.106-1.86-0.549-2.71-1.315c-1.295-1.164-2.271-2.972-2.896-5.367
	c-0.624-2.396-0.656-4.444-0.095-6.09c0.639-1.87,1.72-3.048,3.124-3.415c0.436-0.114,0.884-0.146,1.334-0.096
	c1.01,0.113,2.036,0.636,3.054,1.551c1.293,1.156,2.267,2.964,2.895,5.363c0.624,2.396,0.656,4.451,0.095,6.096
	c-0.059,0.177-0.134,0.324-0.211,0.475l-0.002,0.007l1.868,1.831c0.229,0.228,0.231,0.596,0.008,0.823l-0.768,0.779
	C31.13,48.413,30.957,48.474,30.776,48.454L30.776,48.454z M24.162,33.301c-0.227-0.025-0.454-0.008-0.68,0.053
	c-1.262,0.327-1.633,1.777-1.741,2.614c-0.177,1.354-0.059,2.848,0.358,4.438c0.413,1.597,1.039,2.959,1.856,4.056
	c0.55,0.741,1.172,1.154,1.848,1.231c0.273,0.029,0.568,0.007,0.869-0.073c0.25-0.064,0.477-0.174,0.701-0.33l-1.654-1.62
	c-0.228-0.225-0.232-0.596-0.006-0.824l0.765-0.782c0.128-0.128,0.302-0.188,0.48-0.166c0.131,0.013,0.251,0.066,0.344,0.16
	l1.193,1.17c0.164-1.344,0.042-2.821-0.366-4.393c-0.416-1.594-1.042-2.957-1.857-4.05C25.612,33.896,24.882,33.381,24.162,33.301
	L24.162,33.301z"/>
<path fill="#4D4D4D" d="M47.775,24.6c0-4.317-5.074-7.818-11.332-7.818c-6.258,0-11.333,3.501-11.333,7.818
	c0,3.672,3.673,6.744,8.617,7.584l-1.897,3.594l5.63-3.393C43.242,32.029,47.775,28.683,47.775,24.6z"/>
<path d="M32.192,31.503c-4.876-0.972-8.542-4.078-8.56-7.926l0,0c0.031-4.661,5.37-8.248,11.811-8.252l0,0
	c6.442,0.004,11.777,3.592,11.81,8.252l0,0c-0.025,4.387-4.763,7.816-10.68,8.212l0,0l-6.65,4.011L32.192,31.503L32.192,31.503z
	 M24.29,23.578c-0.019,3.477,3.534,6.521,8.457,7.36l0,0l0.447,0.074l-1.581,2.998l4.757-2.868l0.083-0.004
	c5.761-0.354,10.168-3.694,10.141-7.56l0,0c-0.011-4.089-4.912-7.583-11.15-7.592l0,0C29.203,15.994,24.302,19.488,24.29,23.578
	L24.29,23.578z"/>
<path fill="#FFFFFF" d="M46.775,23.6c0-4.318-5.074-7.818-11.332-7.818S24.11,19.282,24.11,23.6c0,3.671,3.672,6.744,8.615,7.583
	l-1.895,3.595l5.629-3.394C42.241,31.029,46.775,27.683,46.775,23.6z"/>
<path d="M23.293,31.593c1.029,0.114,2.02,0.678,2.925,1.491c1.266,1.137,2.206,2.884,2.823,5.247
	c0.616,2.363,0.649,4.349,0.099,5.965c-0.075,0.221-0.18,0.403-0.273,0.603l1.986,1.946c0.136,0.138,0.14,0.359,0.005,0.497
	l-0.767,0.779c-0.078,0.08-0.186,0.112-0.289,0.103c-0.074-0.01-0.147-0.042-0.204-0.1l-1.787-1.751
	c-0.477,0.427-1.036,0.744-1.703,0.917c-0.52,0.135-1.025,0.177-1.52,0.122c-0.902-0.103-1.763-0.522-2.581-1.257
	c-1.268-1.142-2.208-2.893-2.824-5.252c-0.616-2.363-0.649-4.349-0.099-5.958c0.549-1.614,1.493-2.88,2.961-3.265
	C22.465,31.572,22.882,31.546,23.293,31.593 M24.777,45.925c0.305,0.035,0.624,0.006,0.954-0.077
	c0.398-0.105,0.716-0.298,0.997-0.535l-1.845-1.809c-0.138-0.135-0.139-0.356-0.004-0.494l0.766-0.782
	c0.078-0.08,0.185-0.112,0.288-0.103c0.075,0.009,0.148,0.041,0.206,0.099l1.49,1.459c0.028-0.125,0.072-0.233,0.089-0.371
	c0.182-1.396,0.061-2.905-0.364-4.534c-0.424-1.623-1.056-3.002-1.895-4.131c-0.647-0.873-1.425-1.481-2.271-1.576
	c-0.251-0.029-0.507-0.012-0.767,0.058c-1.136,0.295-1.732,1.416-1.912,2.808c-0.182,1.398-0.06,2.905,0.363,4.531
	c0.425,1.629,1.056,3.008,1.895,4.134C23.364,45.398,24.033,45.841,24.777,45.925 M23.345,31.129
	c-0.478-0.053-0.954-0.02-1.417,0.101c-1.488,0.388-2.624,1.62-3.286,3.564c-0.577,1.69-0.546,3.784,0.09,6.225
	c0.637,2.443,1.634,4.287,2.963,5.483c0.888,0.798,1.844,1.26,2.84,1.372c0.55,0.061,1.118,0.02,1.691-0.132
	c0.566-0.147,1.087-0.397,1.555-0.743l1.489,1.459c0.129,0.128,0.3,0.208,0.48,0.228c0.251,0.028,0.495-0.058,0.672-0.237
	l0.767-0.779c0.152-0.154,0.236-0.359,0.234-0.577s-0.088-0.424-0.244-0.577l-1.747-1.713c0.052-0.108,0.104-0.224,0.149-0.355
	c0.576-1.693,0.546-3.79-0.089-6.233c-0.638-2.44-1.634-4.281-2.963-5.477C25.475,31.788,24.403,31.248,23.345,31.129L23.345,31.129
	z M24.829,45.463c-0.616-0.07-1.167-0.442-1.687-1.142c-0.798-1.071-1.41-2.408-1.818-3.973c-0.407-1.559-0.526-3.024-0.352-4.352
	c0.1-0.776,0.438-2.123,1.567-2.419c0.199-0.051,0.399-0.067,0.597-0.045c0.826,0.093,1.516,0.809,1.95,1.393
	c0.798,1.074,1.41,2.408,1.817,3.967c0.354,1.359,0.49,2.642,0.406,3.825l-0.844-0.827c-0.129-0.125-0.3-0.208-0.481-0.228
	c-0.25-0.029-0.494,0.058-0.671,0.234l-0.768,0.788c-0.312,0.317-0.309,0.834,0.01,1.148l1.441,1.414
	c-0.124,0.064-0.251,0.112-0.384,0.147C25.34,45.466,25.076,45.488,24.829,45.463L24.829,45.463z"/>
<path fill="#FFFFFF" d="M29.776,48.454c-0.128-0.013-0.25-0.073-0.343-0.163L27.8,46.69c-0.487,0.395-1.025,0.671-1.632,0.828
	c-0.546,0.141-1.084,0.183-1.606,0.125c-0.946-0.106-1.86-0.549-2.709-1.315c-1.295-1.164-2.271-2.972-2.896-5.367
	s-0.656-4.444-0.095-6.09c0.639-1.87,1.719-3.048,3.124-3.415c0.436-0.114,0.884-0.146,1.334-0.096
	c1.009,0.113,2.036,0.636,3.054,1.551c1.293,1.156,2.266,2.964,2.895,5.363c0.624,2.396,0.655,4.451,0.094,6.096
	c-0.059,0.177-0.133,0.324-0.21,0.475l-0.002,0.007l1.867,1.831c0.229,0.228,0.231,0.596,0.008,0.823l-0.767,0.779
	C30.131,48.413,29.957,48.474,29.776,48.454L29.776,48.454z M23.163,33.301c-0.227-0.025-0.455-0.008-0.681,0.053
	c-1.262,0.327-1.634,1.777-1.741,2.614c-0.176,1.354-0.058,2.848,0.358,4.438c0.413,1.597,1.039,2.959,1.856,4.056
	c0.551,0.741,1.173,1.154,1.848,1.231c0.274,0.029,0.568,0.007,0.87-0.073c0.249-0.064,0.476-0.174,0.701-0.33l-1.655-1.62
	c-0.227-0.225-0.232-0.596-0.005-0.824l0.765-0.782c0.127-0.128,0.302-0.188,0.479-0.166c0.131,0.013,0.251,0.066,0.345,0.16
	l1.192,1.17c0.165-1.344,0.042-2.821-0.366-4.393c-0.415-1.594-1.042-2.957-1.857-4.05C24.611,33.896,23.882,33.381,23.163,33.301
	L23.163,33.301z"/>
</svg>
